%
M48
M72
T01C0.0276
T02C0.0320
T03C0.0354
T04C0.0394
T05C0.0400
T06C0.0787
T07C0.1102
%
T01
X42010Y9510
X43010Y9510
X43010Y19010
X42010Y19010
T02
X40760Y19010
X37760Y19010
X37760Y18010
X37760Y17010
X40760Y17010
X40760Y18010
X40760Y16010
X37760Y16010
X37760Y15010
X37760Y14010
X40760Y14010
X40760Y15010
X40760Y13010
X37760Y13010
X37760Y12010
X40760Y12010
X40760Y9510
X37760Y9510
X37760Y8510
X40760Y8510
X40760Y7510
X40760Y6510
X37760Y6510
X37760Y7510
X37760Y5510
X40760Y5510
X40760Y4510
X40760Y3510
X37760Y3510
X37760Y4510
X37760Y2510
X40760Y2510
T03
X31635Y7760
X30385Y7760
X29135Y7760
X27885Y7760
X27885Y9760
X29135Y9760
X30385Y9760
X31635Y9760
X22135Y12260
X20885Y12260
X19635Y12260
X18385Y12260
X18385Y14260
X19635Y14260
X20885Y14260
X22135Y14260
T04
X24026Y12754
X25010Y12754
X25994Y12754
X33526Y12754
X34510Y12754
X35494Y12754
X43026Y12754
X44010Y12754
X44994Y12754
X52526Y12754
X53510Y12754
X54494Y12754
X62026Y12754
X63010Y12754
X63994Y12754
X71026Y12754
X72010Y12754
X72994Y12754
X72994Y3254
X72010Y3254
X71026Y3254
X63994Y3254
X63010Y3254
X62026Y3254
X54494Y3254
X53510Y3254
X52526Y3254
X44994Y3254
X44010Y3254
X43026Y3254
X35494Y3254
X34510Y3254
X33526Y3254
X25994Y3254
X25010Y3254
X24026Y3254
X16494Y3254
X15510Y3254
X14526Y3254
X6994Y3254
X6010Y3254
X5026Y3254
X5026Y12754
X6010Y12754
X6994Y12754
X14526Y12754
X15510Y12754
X16494Y12754
T05
X18760Y18556
X19760Y18556
X20760Y18556
X21760Y18556
X27760Y18556
X28760Y18556
X29760Y18556
X30760Y18556
X46760Y18556
X47760Y18556
X48760Y18556
X49760Y18556
X50760Y18556
X50760Y5118
X49760Y5118
X48760Y5118
X47760Y5118
X46760Y5118
X30760Y5118
X29760Y5118
X28760Y5118
X27760Y5118
X21760Y5118
X20760Y5118
X19760Y5118
X18760Y5118
T06
X17242Y6010
X13778Y6010
X7742Y6010
X4278Y6010
X23278Y6010
X26742Y6010
X32778Y6010
X36242Y6010
X42278Y6010
X45742Y6010
X51778Y6010
X55242Y6010
X61278Y6010
X64742Y6010
X70278Y6010
X73742Y6010
X73742Y15510
X70278Y15510
X64742Y15510
X61278Y15510
X55242Y15510
X51778Y15510
X45742Y15510
X42278Y15510
X36242Y15510
X32778Y15510
X26742Y15510
X23278Y15510
X17242Y15510
X13778Y15510
X7742Y15510
X4278Y15510
T07
X2635Y2635
X25010Y10760
X53510Y10760
X75385Y18885
X75385Y2635
X2635Y18885
M30
