G75*
G70*
%OFA0B0*%
%FSLAX24Y24*%
%IPPOS*%
%LPD*%
%AMOC8*
5,1,8,0,0,1.08239X$1,22.5*
%
%ADD10R,0.0740X0.0740*%
%ADD11OC8,0.1181*%
%ADD12C,0.0520*%
%ADD13C,0.0740*%
%ADD14C,0.0650*%
%ADD15C,0.0240*%
%ADD16C,0.0320*%
D10*
X005026Y003254D03*
X006010Y003254D03*
X006994Y003254D03*
X014526Y003254D03*
X015510Y003254D03*
X016494Y003254D03*
X024026Y003254D03*
X025010Y003254D03*
X025994Y003254D03*
X033526Y003254D03*
X034510Y003254D03*
X035494Y003254D03*
X043026Y003254D03*
X044010Y003254D03*
X044994Y003254D03*
X052526Y003254D03*
X053510Y003254D03*
X054494Y003254D03*
X062026Y003254D03*
X063010Y003254D03*
X063994Y003254D03*
X071026Y003254D03*
X072010Y003254D03*
X072994Y003254D03*
X072994Y012754D03*
X072010Y012754D03*
X071026Y012754D03*
X063994Y012754D03*
X063010Y012754D03*
X062026Y012754D03*
X054494Y012754D03*
X053510Y012754D03*
X052526Y012754D03*
X044994Y012754D03*
X044010Y012754D03*
X043026Y012754D03*
X035494Y012754D03*
X034510Y012754D03*
X033526Y012754D03*
X025994Y012754D03*
X025010Y012754D03*
X024026Y012754D03*
X016494Y012754D03*
X015510Y012754D03*
X014526Y012754D03*
X006994Y012754D03*
X006010Y012754D03*
X005026Y012754D03*
D11*
X004278Y015510D03*
X007742Y015510D03*
X013778Y015510D03*
X017242Y015510D03*
X023278Y015510D03*
X026742Y015510D03*
X032778Y015510D03*
X036242Y015510D03*
X042278Y015510D03*
X045742Y015510D03*
X051778Y015510D03*
X055242Y015510D03*
X061278Y015510D03*
X064742Y015510D03*
X070278Y015510D03*
X073742Y015510D03*
X073742Y006010D03*
X070278Y006010D03*
X064742Y006010D03*
X061278Y006010D03*
X055242Y006010D03*
X051778Y006010D03*
X045742Y006010D03*
X042278Y006010D03*
X036242Y006010D03*
X032778Y006010D03*
X026742Y006010D03*
X023278Y006010D03*
X017242Y006010D03*
X013778Y006010D03*
X007742Y006010D03*
X004278Y006010D03*
D12*
X037500Y005510D02*
X038020Y005510D01*
X040500Y005510D02*
X041020Y005510D01*
X041020Y004510D02*
X040500Y004510D01*
X038020Y004510D02*
X037500Y004510D01*
X037500Y003510D02*
X038020Y003510D01*
X040500Y003510D02*
X041020Y003510D01*
X041020Y002510D02*
X040500Y002510D01*
X038020Y002510D02*
X037500Y002510D01*
X037500Y006510D02*
X038020Y006510D01*
X040500Y006510D02*
X041020Y006510D01*
X041020Y007510D02*
X040500Y007510D01*
X038020Y007510D02*
X037500Y007510D01*
X037500Y008510D02*
X038020Y008510D01*
X040500Y008510D02*
X041020Y008510D01*
X041020Y009510D02*
X040500Y009510D01*
X038020Y009510D02*
X037500Y009510D01*
X037500Y012010D02*
X038020Y012010D01*
X040500Y012010D02*
X041020Y012010D01*
X041020Y013010D02*
X040500Y013010D01*
X038020Y013010D02*
X037500Y013010D01*
X037500Y014010D02*
X038020Y014010D01*
X040500Y014010D02*
X041020Y014010D01*
X041020Y015010D02*
X040500Y015010D01*
X038020Y015010D02*
X037500Y015010D01*
X037500Y016010D02*
X038020Y016010D01*
X040500Y016010D02*
X041020Y016010D01*
X041020Y017010D02*
X040500Y017010D01*
X038020Y017010D02*
X037500Y017010D01*
X037500Y018010D02*
X038020Y018010D01*
X040500Y018010D02*
X041020Y018010D01*
X041020Y019010D02*
X040500Y019010D01*
X038020Y019010D02*
X037500Y019010D01*
D13*
X030760Y018556D03*
X029760Y018556D03*
X028760Y018556D03*
X027760Y018556D03*
X021760Y018556D03*
X020760Y018556D03*
X019760Y018556D03*
X018760Y018556D03*
X018385Y014260D03*
X019635Y014260D03*
X020885Y014260D03*
X022135Y014260D03*
X022135Y012260D03*
X020885Y012260D03*
X019635Y012260D03*
X018385Y012260D03*
X027885Y009760D03*
X029135Y009760D03*
X030385Y009760D03*
X031635Y009760D03*
X031635Y007760D03*
X030385Y007760D03*
X029135Y007760D03*
X027885Y007760D03*
X027760Y005118D03*
X028760Y005118D03*
X029760Y005118D03*
X030760Y005118D03*
X021760Y005118D03*
X020760Y005118D03*
X019760Y005118D03*
X018760Y005118D03*
X046760Y005118D03*
X047760Y005118D03*
X048760Y005118D03*
X049760Y005118D03*
X050760Y005118D03*
X050760Y018556D03*
X049760Y018556D03*
X048760Y018556D03*
X047760Y018556D03*
X046760Y018556D03*
D14*
X043010Y019010D03*
X042010Y019010D03*
X042010Y009510D03*
X043010Y009510D03*
D15*
X041760Y008010D02*
X041260Y008510D01*
X040760Y008510D01*
X041760Y008010D02*
X071510Y008010D01*
X072010Y007510D01*
X072010Y003254D01*
X063010Y003254D02*
X063010Y007010D01*
X062510Y007510D01*
X040760Y007510D01*
X041760Y007010D02*
X053010Y007010D01*
X053510Y006510D01*
X053510Y003254D01*
X048760Y003260D02*
X047510Y002010D01*
X041260Y002010D01*
X040760Y002510D01*
X041260Y003510D02*
X042260Y002510D01*
X047260Y002510D01*
X047760Y003010D01*
X047760Y005118D01*
X048760Y005118D02*
X048760Y003260D01*
X044010Y003254D02*
X044010Y003760D01*
X043510Y004260D01*
X042510Y004260D01*
X041260Y005510D01*
X040760Y005510D01*
X037760Y005510D02*
X037260Y005510D01*
X036010Y004260D01*
X035010Y004260D01*
X034510Y003760D01*
X034510Y003254D01*
X039260Y003760D02*
X039510Y003510D01*
X040760Y003510D01*
X041260Y003510D01*
X039260Y003760D02*
X039260Y012760D01*
X039510Y013010D01*
X040760Y013010D01*
X042510Y013760D02*
X043510Y013760D01*
X044010Y013260D01*
X044010Y012754D01*
X042510Y013760D02*
X041260Y015010D01*
X040760Y015010D01*
X037760Y015010D02*
X037260Y015010D01*
X036010Y013760D01*
X035010Y013760D01*
X034510Y013260D01*
X034510Y012754D01*
X033760Y013760D02*
X035010Y015010D01*
X035010Y016010D01*
X035510Y016510D01*
X036760Y016510D01*
X037260Y016010D01*
X037760Y016010D01*
X035260Y017010D02*
X034510Y016260D01*
X034510Y015260D01*
X033510Y014260D01*
X022135Y014260D01*
X020885Y014260D01*
X019635Y014260D01*
X018385Y014260D01*
X015510Y012754D02*
X015510Y016510D01*
X016010Y017010D01*
X034510Y017010D01*
X035510Y018010D01*
X037760Y018010D01*
X037760Y017010D02*
X035260Y017010D01*
X034260Y017510D02*
X006510Y017510D01*
X006010Y017010D01*
X006010Y012754D01*
X006510Y009010D02*
X006010Y008510D01*
X006010Y003254D01*
X015510Y003254D02*
X015510Y008010D01*
X016010Y008510D01*
X037760Y008510D01*
X036760Y009010D02*
X006510Y009010D01*
X025010Y006510D02*
X025010Y003254D01*
X025010Y006510D02*
X025510Y007010D01*
X036760Y007010D01*
X037260Y006510D01*
X037760Y006510D01*
X037760Y007510D02*
X036760Y007510D01*
X036510Y007760D01*
X031635Y007760D01*
X030385Y007760D01*
X029135Y007760D01*
X027885Y007760D01*
X036760Y009010D02*
X037260Y009510D01*
X037760Y009510D01*
X041260Y006510D02*
X041760Y007010D01*
X041260Y006510D02*
X040760Y006510D01*
X053510Y012754D02*
X053510Y016010D01*
X053010Y016510D01*
X041760Y016510D01*
X041260Y016010D01*
X040760Y016010D01*
X040760Y017010D02*
X062510Y017010D01*
X063010Y016510D01*
X063010Y012754D01*
X072010Y012754D02*
X072010Y017010D01*
X071510Y017510D01*
X041760Y017510D01*
X041260Y018010D01*
X040760Y018010D01*
X037760Y019010D02*
X035760Y019010D01*
X034260Y017510D01*
X033760Y013760D02*
X025510Y013760D01*
X025010Y013260D01*
X025010Y012754D01*
D16*
X004119Y002153D02*
X003949Y001820D01*
X040941Y001820D01*
X040751Y002010D01*
X040401Y002010D01*
X040217Y002086D01*
X040076Y002227D01*
X040000Y002411D01*
X040000Y002609D01*
X040076Y002793D01*
X040217Y002934D01*
X040401Y003010D01*
X041119Y003010D01*
X041303Y002934D01*
X041444Y002793D01*
X041520Y002609D01*
X041520Y002411D01*
X041503Y002370D01*
X041891Y002370D01*
X041212Y003048D01*
X041119Y003010D01*
X040401Y003010D01*
X040217Y003086D01*
X040153Y003150D01*
X039438Y003150D01*
X039306Y003205D01*
X039205Y003306D01*
X038955Y003556D01*
X038900Y003688D01*
X038900Y012832D01*
X038955Y012964D01*
X039056Y013065D01*
X039056Y013065D01*
X039306Y013315D01*
X039438Y013370D01*
X040153Y013370D01*
X040217Y013434D01*
X040401Y013510D01*
X041119Y013510D01*
X041303Y013586D01*
X041444Y013727D01*
X041520Y013911D01*
X041520Y014109D01*
X041444Y014293D01*
X041303Y014434D01*
X041119Y014510D01*
X041212Y014548D01*
X042205Y013556D01*
X042306Y013455D01*
X042438Y013400D01*
X043361Y013400D01*
X043377Y013384D01*
X043026Y013384D01*
X043026Y012754D01*
X043026Y012124D01*
X043421Y012124D01*
X043472Y012134D01*
X043519Y012154D01*
X043538Y012167D01*
X043592Y012144D01*
X044428Y012144D01*
X044502Y012175D01*
X044577Y012144D01*
X045412Y012144D01*
X045500Y012181D01*
X045568Y012248D01*
X045604Y012336D01*
X045604Y013172D01*
X045568Y013260D01*
X045500Y013328D01*
X045412Y013364D01*
X044577Y013364D01*
X044502Y013333D01*
X044428Y013364D01*
X044357Y013364D01*
X044315Y013464D01*
X044214Y013565D01*
X043714Y014065D01*
X043582Y014120D01*
X042659Y014120D01*
X042100Y014679D01*
X042622Y014679D01*
X043108Y015166D01*
X043108Y015854D01*
X042812Y016150D01*
X045208Y016150D01*
X044912Y015854D01*
X044912Y015166D01*
X045398Y014679D01*
X046086Y014679D01*
X046573Y015166D01*
X046573Y015854D01*
X046277Y016150D01*
X051243Y016150D01*
X050947Y015854D01*
X050947Y015166D01*
X051434Y014679D01*
X052122Y014679D01*
X052608Y015166D01*
X052608Y015854D01*
X052312Y016150D01*
X052861Y016150D01*
X053150Y015861D01*
X053150Y013364D01*
X053092Y013364D01*
X053038Y013342D01*
X053019Y013355D01*
X052972Y013374D01*
X052921Y013384D01*
X052526Y013384D01*
X052526Y012754D01*
X052526Y012124D01*
X052793Y012124D01*
X052593Y012022D01*
X052248Y011677D01*
X052248Y011677D01*
X052026Y011242D01*
X051950Y010760D01*
X051950Y010760D01*
X052026Y010278D01*
X052026Y010278D01*
X052248Y009843D01*
X052593Y009498D01*
X053028Y009276D01*
X053510Y009200D01*
X053992Y009276D01*
X054427Y009498D01*
X054772Y009843D01*
X054772Y009843D01*
X054994Y010278D01*
X055070Y010760D01*
X054994Y011242D01*
X054772Y011677D01*
X054427Y012022D01*
X054187Y012144D01*
X054912Y012144D01*
X055000Y012181D01*
X055068Y012248D01*
X055104Y012336D01*
X055104Y013172D01*
X055068Y013260D01*
X055000Y013328D01*
X054912Y013364D01*
X054077Y013364D01*
X054002Y013333D01*
X053928Y013364D01*
X053870Y013364D01*
X053870Y016082D01*
X053815Y016214D01*
X053714Y016315D01*
X053379Y016650D01*
X062361Y016650D01*
X062650Y016361D01*
X062650Y013364D01*
X062592Y013364D01*
X062538Y013342D01*
X062519Y013355D01*
X062472Y013374D01*
X062421Y013384D01*
X062026Y013384D01*
X062026Y012754D01*
X062026Y012124D01*
X062421Y012124D01*
X062472Y012134D01*
X062519Y012154D01*
X062538Y012167D01*
X062592Y012144D01*
X063428Y012144D01*
X063502Y012175D01*
X063577Y012144D01*
X064412Y012144D01*
X064500Y012181D01*
X064568Y012248D01*
X064604Y012336D01*
X064604Y013172D01*
X064568Y013260D01*
X064500Y013328D01*
X064412Y013364D01*
X063577Y013364D01*
X063502Y013333D01*
X063428Y013364D01*
X063370Y013364D01*
X063370Y016582D01*
X063315Y016714D01*
X063214Y016815D01*
X063214Y016815D01*
X062879Y017150D01*
X071361Y017150D01*
X071650Y016861D01*
X071650Y013364D01*
X071592Y013364D01*
X071538Y013342D01*
X071519Y013355D01*
X071472Y013374D01*
X071421Y013384D01*
X071026Y013384D01*
X071026Y012754D01*
X071026Y012124D01*
X071421Y012124D01*
X071472Y012134D01*
X071519Y012154D01*
X071538Y012167D01*
X071592Y012144D01*
X072428Y012144D01*
X072502Y012175D01*
X072577Y012144D01*
X073412Y012144D01*
X073500Y012181D01*
X073568Y012248D01*
X073604Y012336D01*
X073604Y013172D01*
X073568Y013260D01*
X073500Y013328D01*
X073412Y013364D01*
X072577Y013364D01*
X072502Y013333D01*
X072428Y013364D01*
X072370Y013364D01*
X072370Y017082D01*
X072315Y017214D01*
X072214Y017315D01*
X071714Y017815D01*
X071582Y017870D01*
X041909Y017870D01*
X041464Y018315D01*
X041392Y018345D01*
X041303Y018434D01*
X041119Y018510D01*
X041303Y018586D01*
X041444Y018727D01*
X041480Y018814D01*
X041531Y018690D01*
X041690Y018531D01*
X041898Y018445D01*
X042122Y018445D01*
X042330Y018531D01*
X042489Y018690D01*
X042501Y018720D01*
X042510Y018703D01*
X042564Y018629D01*
X042629Y018564D01*
X042703Y018510D01*
X042785Y018468D01*
X042873Y018439D01*
X042964Y018425D01*
X043010Y018425D01*
X043056Y018425D01*
X043147Y018439D01*
X043235Y018468D01*
X043317Y018510D01*
X043391Y018564D01*
X043456Y018629D01*
X043510Y018703D01*
X043552Y018785D01*
X043581Y018873D01*
X043595Y018964D01*
X043595Y019010D01*
X043595Y019056D01*
X043581Y019147D01*
X043552Y019235D01*
X043510Y019317D01*
X043456Y019391D01*
X043391Y019456D01*
X043317Y019510D01*
X043235Y019552D01*
X043147Y019581D01*
X043056Y019595D01*
X043010Y019595D01*
X043010Y019010D01*
X043595Y019010D01*
X043010Y019010D01*
X043010Y019010D01*
X043010Y019010D01*
X043010Y018425D01*
X043010Y019010D01*
X043010Y019010D01*
X043010Y019595D01*
X042964Y019595D01*
X042873Y019581D01*
X042785Y019552D01*
X042703Y019510D01*
X042629Y019456D01*
X042564Y019391D01*
X042510Y019317D01*
X042501Y019300D01*
X042489Y019330D01*
X042330Y019489D01*
X042122Y019575D01*
X041898Y019575D01*
X041690Y019489D01*
X041531Y019330D01*
X041480Y019206D01*
X041444Y019293D01*
X041303Y019434D01*
X041119Y019510D01*
X040401Y019510D01*
X040217Y019434D01*
X040076Y019293D01*
X040000Y019109D01*
X040000Y018911D01*
X040076Y018727D01*
X040217Y018586D01*
X040401Y018510D01*
X041119Y018510D01*
X040401Y018510D01*
X040217Y018434D01*
X040076Y018293D01*
X040000Y018109D01*
X040000Y017911D01*
X040076Y017727D01*
X040217Y017586D01*
X040401Y017510D01*
X040217Y017434D01*
X040076Y017293D01*
X040000Y017109D01*
X040000Y016911D01*
X040076Y016727D01*
X040217Y016586D01*
X040401Y016510D01*
X040217Y016434D01*
X040076Y016293D01*
X040000Y016109D01*
X040000Y015911D01*
X038520Y015911D01*
X038520Y016109D01*
X038444Y016293D01*
X038303Y016434D01*
X038119Y016510D01*
X038303Y016586D01*
X038444Y016727D01*
X038520Y016911D01*
X038520Y017109D01*
X038444Y017293D01*
X038303Y017434D01*
X038119Y017510D01*
X038303Y017586D01*
X038444Y017727D01*
X038520Y017911D01*
X038520Y018109D01*
X038444Y018293D01*
X038303Y018434D01*
X038119Y018510D01*
X038303Y018586D01*
X038444Y018727D01*
X038520Y018911D01*
X038520Y019109D01*
X038444Y019293D01*
X038303Y019434D01*
X038119Y019510D01*
X037401Y019510D01*
X037217Y019434D01*
X037153Y019370D01*
X035688Y019370D01*
X035556Y019315D01*
X034111Y017870D01*
X006438Y017870D01*
X006306Y017815D01*
X005806Y017315D01*
X005705Y017214D01*
X005650Y017082D01*
X005650Y013364D01*
X005592Y013364D01*
X005538Y013342D01*
X005519Y013355D01*
X005472Y013374D01*
X005421Y013384D01*
X005026Y013384D01*
X005026Y012754D01*
X005026Y012124D01*
X005421Y012124D01*
X005472Y012134D01*
X005519Y012154D01*
X005538Y012167D01*
X005592Y012144D01*
X006428Y012144D01*
X006502Y012175D01*
X006577Y012144D01*
X007412Y012144D01*
X007500Y012181D01*
X007568Y012248D01*
X007604Y012336D01*
X007604Y013172D01*
X007568Y013260D01*
X007500Y013328D01*
X007412Y013364D01*
X006577Y013364D01*
X006502Y013333D01*
X006428Y013364D01*
X006370Y013364D01*
X006370Y016861D01*
X006659Y017150D01*
X015641Y017150D01*
X015306Y016815D01*
X015205Y016714D01*
X015150Y016582D01*
X015150Y013364D01*
X015092Y013364D01*
X015038Y013342D01*
X015019Y013355D01*
X014972Y013374D01*
X014921Y013384D01*
X014526Y013384D01*
X014526Y012754D01*
X014526Y012124D01*
X014921Y012124D01*
X014972Y012134D01*
X015019Y012154D01*
X015038Y012167D01*
X015092Y012144D01*
X015928Y012144D01*
X016002Y012175D01*
X016077Y012144D01*
X016912Y012144D01*
X017000Y012181D01*
X017068Y012248D01*
X017104Y012336D01*
X017104Y013172D01*
X017068Y013260D01*
X017000Y013328D01*
X016912Y013364D01*
X016077Y013364D01*
X016002Y013333D01*
X015928Y013364D01*
X015870Y013364D01*
X015870Y016361D01*
X016159Y016650D01*
X034391Y016650D01*
X034205Y016464D01*
X034150Y016332D01*
X034150Y015409D01*
X033361Y014620D01*
X022638Y014620D01*
X022481Y014777D01*
X022256Y014870D01*
X022014Y014870D01*
X021789Y014777D01*
X021632Y014620D01*
X021388Y014620D01*
X021231Y014777D01*
X021006Y014870D01*
X020764Y014870D01*
X020539Y014777D01*
X020382Y014620D01*
X020138Y014620D01*
X019981Y014777D01*
X019756Y014870D01*
X019514Y014870D01*
X019289Y014777D01*
X019132Y014620D01*
X018888Y014620D01*
X018731Y014777D01*
X018506Y014870D01*
X018264Y014870D01*
X018039Y014777D01*
X017868Y014606D01*
X017775Y014381D01*
X017775Y014139D01*
X017868Y013914D01*
X018039Y013743D01*
X018264Y013650D01*
X018506Y013650D01*
X018731Y013743D01*
X018888Y013900D01*
X019132Y013900D01*
X019289Y013743D01*
X019514Y013650D01*
X019756Y013650D01*
X019981Y013743D01*
X020138Y013900D01*
X020382Y013900D01*
X020539Y013743D01*
X020764Y013650D01*
X021006Y013650D01*
X021231Y013743D01*
X021388Y013900D01*
X021632Y013900D01*
X021789Y013743D01*
X022014Y013650D01*
X022256Y013650D01*
X022481Y013743D01*
X022638Y013900D01*
X025141Y013900D01*
X024806Y013565D01*
X024705Y013464D01*
X024663Y013364D01*
X024592Y013364D01*
X024538Y013342D01*
X024519Y013355D01*
X024472Y013374D01*
X024421Y013384D01*
X024026Y013384D01*
X024026Y012754D01*
X024026Y012124D01*
X024293Y012124D01*
X024093Y012022D01*
X023748Y011677D01*
X023748Y011677D01*
X023526Y011242D01*
X023450Y010760D01*
X023450Y010760D01*
X023526Y010278D01*
X023526Y010278D01*
X023748Y009843D01*
X024093Y009498D01*
X024344Y009370D01*
X006438Y009370D01*
X006306Y009315D01*
X005806Y008815D01*
X005705Y008714D01*
X005650Y008582D01*
X005650Y003864D01*
X005592Y003864D01*
X005538Y003842D01*
X005519Y003855D01*
X005472Y003874D01*
X005421Y003884D01*
X005026Y003884D01*
X005026Y003254D01*
X005026Y002624D01*
X005421Y002624D01*
X005472Y002634D01*
X005519Y002654D01*
X005538Y002667D01*
X005592Y002644D01*
X006428Y002644D01*
X006502Y002675D01*
X006577Y002644D01*
X007412Y002644D01*
X007500Y002681D01*
X007568Y002748D01*
X007604Y002836D01*
X007604Y003672D01*
X007568Y003760D01*
X007500Y003828D01*
X007412Y003864D01*
X006577Y003864D01*
X006502Y003833D01*
X006428Y003864D01*
X006370Y003864D01*
X006370Y008361D01*
X006659Y008650D01*
X015641Y008650D01*
X015306Y008315D01*
X015205Y008214D01*
X015150Y008082D01*
X015150Y003864D01*
X015092Y003864D01*
X015038Y003842D01*
X015019Y003855D01*
X014972Y003874D01*
X014921Y003884D01*
X014526Y003884D01*
X014526Y003254D01*
X014526Y002624D01*
X014921Y002624D01*
X014972Y002634D01*
X015019Y002654D01*
X015038Y002667D01*
X015092Y002644D01*
X015928Y002644D01*
X016002Y002675D01*
X016077Y002644D01*
X016912Y002644D01*
X017000Y002681D01*
X017068Y002748D01*
X017104Y002836D01*
X017104Y003672D01*
X017068Y003760D01*
X017000Y003828D01*
X016912Y003864D01*
X016077Y003864D01*
X016002Y003833D01*
X015928Y003864D01*
X015870Y003864D01*
X015870Y007861D01*
X016159Y008150D01*
X027412Y008150D01*
X027368Y008106D01*
X027275Y007881D01*
X027275Y007639D01*
X027368Y007414D01*
X027412Y007370D01*
X025438Y007370D01*
X025306Y007315D01*
X024806Y006815D01*
X024705Y006714D01*
X024650Y006582D01*
X024650Y003864D01*
X024592Y003864D01*
X024538Y003842D01*
X024519Y003855D01*
X024472Y003874D01*
X024421Y003884D01*
X024026Y003884D01*
X024026Y003254D01*
X024026Y002624D01*
X024421Y002624D01*
X024472Y002634D01*
X024519Y002654D01*
X024538Y002667D01*
X024592Y002644D01*
X025428Y002644D01*
X025502Y002675D01*
X025577Y002644D01*
X026412Y002644D01*
X026500Y002681D01*
X026568Y002748D01*
X026604Y002836D01*
X026604Y003672D01*
X026568Y003760D01*
X026500Y003828D01*
X026412Y003864D01*
X025577Y003864D01*
X025502Y003833D01*
X025428Y003864D01*
X025370Y003864D01*
X025370Y006361D01*
X025659Y006650D01*
X026208Y006650D01*
X025912Y006354D01*
X025912Y005666D01*
X026398Y005179D01*
X027086Y005179D01*
X027153Y005246D01*
X027150Y005240D01*
X027150Y004997D01*
X027243Y004773D01*
X027414Y004601D01*
X027639Y004508D01*
X027881Y004508D01*
X028106Y004601D01*
X028260Y004756D01*
X028414Y004601D01*
X028639Y004508D01*
X028881Y004508D01*
X029106Y004601D01*
X029260Y004756D01*
X029414Y004601D01*
X029639Y004508D01*
X029881Y004508D01*
X030106Y004601D01*
X030260Y004756D01*
X030414Y004601D01*
X030639Y004508D01*
X030881Y004508D01*
X031106Y004601D01*
X031277Y004773D01*
X031370Y004997D01*
X031370Y005240D01*
X031277Y005464D01*
X031106Y005635D01*
X030881Y005728D01*
X030639Y005728D01*
X030414Y005635D01*
X030260Y005481D01*
X030106Y005635D01*
X029881Y005728D01*
X029639Y005728D01*
X029414Y005635D01*
X029260Y005481D01*
X029106Y005635D01*
X028881Y005728D01*
X028639Y005728D01*
X028414Y005635D01*
X028260Y005481D01*
X028106Y005635D01*
X027881Y005728D01*
X027639Y005728D01*
X027573Y005701D01*
X027573Y006354D01*
X027277Y006650D01*
X032243Y006650D01*
X031947Y006354D01*
X031947Y005666D01*
X032434Y005179D01*
X033122Y005179D01*
X033608Y005666D01*
X033608Y006354D01*
X033312Y006650D01*
X035708Y006650D01*
X035412Y006354D01*
X035412Y005666D01*
X035898Y005179D01*
X036420Y005179D01*
X035861Y004620D01*
X034938Y004620D01*
X034806Y004565D01*
X034306Y004065D01*
X034205Y003964D01*
X034163Y003864D01*
X034092Y003864D01*
X034038Y003842D01*
X034019Y003855D01*
X033972Y003874D01*
X033921Y003884D01*
X033526Y003884D01*
X033526Y003254D01*
X033526Y002624D01*
X033921Y002624D01*
X033972Y002634D01*
X034019Y002654D01*
X034038Y002667D01*
X034092Y002644D01*
X034928Y002644D01*
X035002Y002675D01*
X035077Y002644D01*
X035912Y002644D01*
X036000Y002681D01*
X036068Y002748D01*
X036104Y002836D01*
X036104Y003672D01*
X036068Y003760D01*
X036000Y003828D01*
X035912Y003864D01*
X035123Y003864D01*
X035159Y003900D01*
X036082Y003900D01*
X036214Y003955D01*
X036315Y004056D01*
X037091Y004832D01*
X037055Y004783D01*
X037018Y004710D01*
X036993Y004632D01*
X036980Y004551D01*
X036980Y004510D01*
X037760Y004510D01*
X038540Y004510D01*
X038540Y004551D01*
X038527Y004632D01*
X038502Y004710D01*
X038465Y004783D01*
X038417Y004849D01*
X038359Y004907D01*
X038293Y004955D01*
X038220Y004992D01*
X038142Y005017D01*
X038138Y005018D01*
X038303Y005086D01*
X038444Y005227D01*
X038520Y005411D01*
X038520Y005609D01*
X038444Y005793D01*
X038303Y005934D01*
X038119Y006010D01*
X038303Y006086D01*
X038444Y006227D01*
X038520Y006411D01*
X038520Y006609D01*
X038444Y006793D01*
X038303Y006934D01*
X038119Y007010D01*
X038303Y007086D01*
X038444Y007227D01*
X038520Y007411D01*
X038520Y007609D01*
X038444Y007793D01*
X038303Y007934D01*
X038119Y008010D01*
X038303Y008086D01*
X038444Y008227D01*
X038520Y008411D01*
X038520Y008609D01*
X038444Y008793D01*
X038303Y008934D01*
X038119Y009010D01*
X038303Y009086D01*
X038444Y009227D01*
X038520Y009411D01*
X038520Y009609D01*
X038444Y009793D01*
X038303Y009934D01*
X038119Y010010D01*
X037401Y010010D01*
X037217Y009934D01*
X037128Y009845D01*
X037056Y009815D01*
X036611Y009370D01*
X032108Y009370D01*
X032152Y009414D01*
X032245Y009639D01*
X032245Y009881D01*
X032152Y010106D01*
X031981Y010277D01*
X031756Y010370D01*
X031514Y010370D01*
X031289Y010277D01*
X031118Y010106D01*
X031025Y009881D01*
X031025Y009639D01*
X031118Y009414D01*
X031162Y009370D01*
X030858Y009370D01*
X030902Y009414D01*
X030995Y009639D01*
X030995Y009881D01*
X030902Y010106D01*
X030731Y010277D01*
X030506Y010370D01*
X030264Y010370D01*
X030039Y010277D01*
X029868Y010106D01*
X029775Y009881D01*
X029775Y009639D01*
X029868Y009414D01*
X029912Y009370D01*
X029608Y009370D01*
X029652Y009414D01*
X029745Y009639D01*
X029745Y009881D01*
X029652Y010106D01*
X029481Y010277D01*
X029256Y010370D01*
X029014Y010370D01*
X028789Y010277D01*
X028618Y010106D01*
X028525Y009881D01*
X028525Y009639D01*
X028618Y009414D01*
X028662Y009370D01*
X028358Y009370D01*
X028402Y009414D01*
X028495Y009639D01*
X028495Y009881D01*
X028402Y010106D01*
X028231Y010277D01*
X028006Y010370D01*
X027764Y010370D01*
X027539Y010277D01*
X027368Y010106D01*
X027275Y009881D01*
X027275Y009639D01*
X027368Y009414D01*
X027412Y009370D01*
X025676Y009370D01*
X025927Y009498D01*
X026272Y009843D01*
X026494Y010278D01*
X026570Y010760D01*
X026494Y011242D01*
X026272Y011677D01*
X025927Y012022D01*
X025687Y012144D01*
X026412Y012144D01*
X026500Y012181D01*
X026568Y012248D01*
X026604Y012336D01*
X026604Y013172D01*
X026568Y013260D01*
X026500Y013328D01*
X026412Y013364D01*
X025623Y013364D01*
X025659Y013400D01*
X033832Y013400D01*
X033964Y013455D01*
X034065Y013556D01*
X035214Y014705D01*
X035315Y014806D01*
X035370Y014938D01*
X035370Y015861D01*
X035659Y016150D01*
X035708Y016150D01*
X035412Y015854D01*
X035412Y015166D01*
X035898Y014679D01*
X036420Y014679D01*
X035861Y014120D01*
X034938Y014120D01*
X034806Y014065D01*
X034306Y013565D01*
X034205Y013464D01*
X034163Y013364D01*
X034092Y013364D01*
X034038Y013342D01*
X034019Y013355D01*
X033972Y013374D01*
X033921Y013384D01*
X033526Y013384D01*
X033526Y012754D01*
X033526Y012124D01*
X033921Y012124D01*
X033972Y012134D01*
X034019Y012154D01*
X034038Y012167D01*
X034092Y012144D01*
X034928Y012144D01*
X035002Y012175D01*
X035077Y012144D01*
X035912Y012144D01*
X036000Y012181D01*
X036068Y012248D01*
X036104Y012336D01*
X036104Y013172D01*
X036068Y013260D01*
X036000Y013328D01*
X035912Y013364D01*
X035123Y013364D01*
X035159Y013400D01*
X036082Y013400D01*
X036214Y013455D01*
X036315Y013556D01*
X037091Y014332D01*
X037055Y014283D01*
X037018Y014210D01*
X036993Y014132D01*
X036980Y014051D01*
X036980Y014010D01*
X037760Y014010D01*
X038540Y014010D01*
X038540Y014051D01*
X038527Y014132D01*
X038502Y014210D01*
X038465Y014283D01*
X038417Y014349D01*
X038359Y014407D01*
X038293Y014455D01*
X038220Y014492D01*
X038142Y014517D01*
X038138Y014518D01*
X038303Y014586D01*
X038444Y014727D01*
X038520Y014911D01*
X038520Y015109D01*
X038444Y015293D01*
X038303Y015434D01*
X038119Y015510D01*
X038303Y015586D01*
X038444Y015727D01*
X038520Y015911D01*
X038310Y015593D02*
X040210Y015593D01*
X040217Y015586D02*
X040401Y015510D01*
X040217Y015434D01*
X040076Y015293D01*
X040000Y015109D01*
X040000Y014911D01*
X040076Y014727D01*
X040217Y014586D01*
X040401Y014510D01*
X041119Y014510D01*
X040401Y014510D01*
X040217Y014434D01*
X040076Y014293D01*
X040000Y014109D01*
X040000Y013911D01*
X040076Y013727D01*
X040217Y013586D01*
X040401Y013510D01*
X041119Y013510D01*
X041303Y013434D01*
X041444Y013293D01*
X041520Y013109D01*
X041520Y012911D01*
X041444Y012727D01*
X041303Y012586D01*
X041119Y012510D01*
X041303Y012434D01*
X041444Y012293D01*
X041520Y012109D01*
X041520Y011911D01*
X041444Y011727D01*
X041303Y011586D01*
X041119Y011510D01*
X040401Y011510D01*
X040217Y011586D01*
X040076Y011727D01*
X040000Y011911D01*
X040000Y012109D01*
X040076Y012293D01*
X040217Y012434D01*
X040401Y012510D01*
X041119Y012510D01*
X040401Y012510D01*
X040217Y012586D01*
X040153Y012650D01*
X039659Y012650D01*
X039620Y012611D01*
X039620Y003909D01*
X039659Y003870D01*
X040153Y003870D01*
X040217Y003934D01*
X040401Y004010D01*
X041119Y004010D01*
X041303Y004086D01*
X041444Y004227D01*
X041520Y004411D01*
X041520Y004609D01*
X041444Y004793D01*
X041303Y004934D01*
X041119Y005010D01*
X040401Y005010D01*
X040217Y004934D01*
X040076Y004793D01*
X040000Y004609D01*
X040000Y004411D01*
X040076Y004227D01*
X040217Y004086D01*
X040401Y004010D01*
X041119Y004010D01*
X041303Y003934D01*
X041392Y003845D01*
X041464Y003815D01*
X041565Y003714D01*
X042396Y002883D01*
X042396Y003254D01*
X043026Y003254D01*
X043026Y003254D01*
X043026Y003884D01*
X043377Y003884D01*
X043361Y003900D01*
X042438Y003900D01*
X042306Y003955D01*
X042205Y004056D01*
X041212Y005048D01*
X041119Y005010D01*
X040401Y005010D01*
X040217Y005086D01*
X040076Y005227D01*
X040000Y005411D01*
X040000Y005609D01*
X040076Y005793D01*
X040217Y005934D01*
X040401Y006010D01*
X041119Y006010D01*
X041303Y005934D01*
X041392Y005845D01*
X041447Y005822D01*
X041447Y006198D01*
X041392Y006175D01*
X041303Y006086D01*
X041119Y006010D01*
X040401Y006010D01*
X040217Y006086D01*
X040076Y006227D01*
X040000Y006411D01*
X040000Y006609D01*
X040076Y006793D01*
X040217Y006934D01*
X040401Y007010D01*
X041119Y007010D01*
X041212Y006972D01*
X041391Y007150D01*
X041367Y007150D01*
X041303Y007086D01*
X041119Y007010D01*
X040401Y007010D01*
X040217Y007086D01*
X040076Y007227D01*
X040000Y007411D01*
X040000Y007609D01*
X040076Y007793D01*
X040217Y007934D01*
X040401Y008010D01*
X041119Y008010D01*
X041303Y007934D01*
X041367Y007870D01*
X041391Y007870D01*
X041212Y008048D01*
X041119Y008010D01*
X040401Y008010D01*
X040217Y008086D01*
X040076Y008227D01*
X040000Y008411D01*
X040000Y008609D01*
X040076Y008793D01*
X040217Y008934D01*
X040401Y009010D01*
X041119Y009010D01*
X041303Y009086D01*
X041444Y009227D01*
X041480Y009314D01*
X041531Y009190D01*
X041690Y009031D01*
X041898Y008945D01*
X042122Y008945D01*
X042330Y009031D01*
X042489Y009190D01*
X042501Y009220D01*
X042510Y009203D01*
X042564Y009129D01*
X042629Y009064D01*
X042703Y009010D01*
X042785Y008968D01*
X042873Y008939D01*
X042964Y008925D01*
X043010Y008925D01*
X043056Y008925D01*
X043147Y008939D01*
X043235Y008968D01*
X043317Y009010D01*
X043391Y009064D01*
X043456Y009129D01*
X043510Y009203D01*
X043552Y009285D01*
X043581Y009373D01*
X043595Y009464D01*
X043595Y009510D01*
X043595Y009556D01*
X043581Y009647D01*
X043552Y009735D01*
X043510Y009817D01*
X043456Y009891D01*
X043391Y009956D01*
X043317Y010010D01*
X043235Y010052D01*
X043147Y010081D01*
X043056Y010095D01*
X043010Y010095D01*
X043010Y009510D01*
X043595Y009510D01*
X043010Y009510D01*
X043010Y009510D01*
X043010Y009510D01*
X043010Y008925D01*
X043010Y009510D01*
X043010Y009510D01*
X043010Y010095D01*
X042964Y010095D01*
X042873Y010081D01*
X042785Y010052D01*
X042703Y010010D01*
X042629Y009956D01*
X042564Y009891D01*
X042510Y009817D01*
X042501Y009800D01*
X042489Y009830D01*
X042330Y009989D01*
X042122Y010075D01*
X041898Y010075D01*
X041690Y009989D01*
X041531Y009830D01*
X041480Y009706D01*
X041444Y009793D01*
X041303Y009934D01*
X041119Y010010D01*
X040401Y010010D01*
X040217Y009934D01*
X040076Y009793D01*
X040000Y009609D01*
X040000Y009411D01*
X040076Y009227D01*
X040217Y009086D01*
X040401Y009010D01*
X041119Y009010D01*
X041303Y008934D01*
X041392Y008845D01*
X041464Y008815D01*
X041909Y008370D01*
X071582Y008370D01*
X071714Y008315D01*
X072214Y007815D01*
X072315Y007714D01*
X072370Y007582D01*
X072370Y003864D01*
X072428Y003864D01*
X072502Y003833D01*
X072577Y003864D01*
X073412Y003864D01*
X073500Y003828D01*
X073568Y003760D01*
X073604Y003672D01*
X073604Y002836D01*
X073568Y002748D01*
X073500Y002681D01*
X073412Y002644D01*
X072577Y002644D01*
X072502Y002675D01*
X072428Y002644D01*
X071592Y002644D01*
X071538Y002667D01*
X071519Y002654D01*
X071472Y002634D01*
X071421Y002624D01*
X071026Y002624D01*
X071026Y003254D01*
X071026Y003254D01*
X071026Y003254D01*
X071026Y003884D01*
X071421Y003884D01*
X071472Y003874D01*
X071519Y003855D01*
X071538Y003842D01*
X071592Y003864D01*
X071650Y003864D01*
X071650Y007361D01*
X071361Y007650D01*
X062879Y007650D01*
X063214Y007315D01*
X063214Y007315D01*
X063315Y007214D01*
X063370Y007082D01*
X063370Y003864D01*
X063428Y003864D01*
X063502Y003833D01*
X063577Y003864D01*
X064412Y003864D01*
X064500Y003828D01*
X064568Y003760D01*
X064604Y003672D01*
X064604Y002836D01*
X064568Y002748D01*
X064500Y002681D01*
X064412Y002644D01*
X063577Y002644D01*
X063502Y002675D01*
X063428Y002644D01*
X062592Y002644D01*
X062538Y002667D01*
X062519Y002654D01*
X062472Y002634D01*
X062421Y002624D01*
X062026Y002624D01*
X062026Y003254D01*
X062026Y003254D01*
X062026Y003254D01*
X062026Y003884D01*
X062421Y003884D01*
X062472Y003874D01*
X062519Y003855D01*
X062538Y003842D01*
X062592Y003864D01*
X062650Y003864D01*
X062650Y006861D01*
X062361Y007150D01*
X053379Y007150D01*
X053714Y006815D01*
X053815Y006714D01*
X053870Y006582D01*
X053870Y003864D01*
X053928Y003864D01*
X054002Y003833D01*
X054077Y003864D01*
X054912Y003864D01*
X055000Y003828D01*
X055068Y003760D01*
X055104Y003672D01*
X055104Y002836D01*
X055068Y002748D01*
X055000Y002681D01*
X054912Y002644D01*
X054077Y002644D01*
X054002Y002675D01*
X053928Y002644D01*
X053092Y002644D01*
X053038Y002667D01*
X053019Y002654D01*
X052972Y002634D01*
X052921Y002624D01*
X052526Y002624D01*
X052526Y003254D01*
X052526Y003254D01*
X052526Y003254D01*
X052526Y003884D01*
X052921Y003884D01*
X052972Y003874D01*
X053019Y003855D01*
X053038Y003842D01*
X053092Y003864D01*
X053150Y003864D01*
X053150Y006361D01*
X052861Y006650D01*
X052312Y006650D01*
X052608Y006354D01*
X052608Y005666D01*
X052122Y005179D01*
X051434Y005179D01*
X051367Y005246D01*
X051370Y005240D01*
X051370Y004997D01*
X051277Y004773D01*
X051106Y004601D01*
X050881Y004508D01*
X050639Y004508D01*
X050414Y004601D01*
X050269Y004747D01*
X050241Y004708D01*
X050170Y004638D01*
X050090Y004579D01*
X050002Y004534D01*
X049908Y004504D01*
X049810Y004488D01*
X049760Y004488D01*
X049760Y005118D01*
X049760Y005118D01*
X049760Y004488D01*
X049710Y004488D01*
X049612Y004504D01*
X049518Y004534D01*
X049430Y004579D01*
X049350Y004638D01*
X049279Y004708D01*
X049251Y004747D01*
X049120Y004616D01*
X049120Y003188D01*
X049065Y003056D01*
X047829Y001820D01*
X074071Y001820D01*
X073901Y002153D01*
X073901Y002153D01*
X073825Y002635D01*
X073825Y002635D01*
X073901Y003117D01*
X073901Y003117D01*
X074123Y003552D01*
X074123Y003552D01*
X074468Y003897D01*
X074468Y003897D01*
X074903Y004119D01*
X074903Y004119D01*
X075385Y004195D01*
X075385Y004195D01*
X075867Y004119D01*
X075867Y004119D01*
X076200Y003949D01*
X076200Y017571D01*
X075867Y017401D01*
X075867Y017401D01*
X075385Y017325D01*
X075385Y017325D01*
X074903Y017401D01*
X074903Y017401D01*
X074468Y017623D01*
X074468Y017623D01*
X074123Y017968D01*
X074123Y017968D01*
X073901Y018403D01*
X073825Y018885D01*
X073901Y019367D01*
X073901Y019367D01*
X074071Y019700D01*
X003949Y019700D01*
X004119Y019367D01*
X004119Y019367D01*
X004195Y018885D01*
X004119Y018403D01*
X004119Y018403D01*
X003897Y017968D01*
X003897Y017968D01*
X003552Y017623D01*
X003552Y017623D01*
X003117Y017401D01*
X003117Y017401D01*
X002635Y017325D01*
X002635Y017325D01*
X002153Y017401D01*
X002153Y017401D01*
X001820Y017571D01*
X001820Y003949D01*
X002153Y004119D01*
X002153Y004119D01*
X002635Y004195D01*
X002635Y004195D01*
X003117Y004119D01*
X003117Y004119D01*
X003552Y003897D01*
X003552Y003897D01*
X003897Y003552D01*
X003897Y003552D01*
X004119Y003117D01*
X004119Y003117D01*
X004195Y002635D01*
X004119Y002153D01*
X004119Y002153D01*
X004129Y002216D02*
X037071Y002216D01*
X037055Y002237D02*
X037103Y002171D01*
X037161Y002113D01*
X037227Y002065D01*
X037300Y002028D01*
X037378Y002003D01*
X037459Y001990D01*
X037760Y001990D01*
X038061Y001990D01*
X038142Y002003D01*
X038220Y002028D01*
X038293Y002065D01*
X038359Y002113D01*
X038417Y002171D01*
X038465Y002237D01*
X038502Y002310D01*
X038527Y002388D01*
X038540Y002469D01*
X038540Y002510D01*
X038540Y002551D01*
X038527Y002632D01*
X038502Y002710D01*
X038465Y002783D01*
X038417Y002849D01*
X038359Y002907D01*
X038293Y002955D01*
X038220Y002992D01*
X038164Y003010D01*
X038220Y003028D01*
X038293Y003065D01*
X038359Y003113D01*
X038417Y003171D01*
X038465Y003237D01*
X038502Y003310D01*
X038527Y003388D01*
X038540Y003469D01*
X038540Y003510D01*
X038540Y003551D01*
X038527Y003632D01*
X038502Y003710D01*
X038465Y003783D01*
X038417Y003849D01*
X038359Y003907D01*
X038293Y003955D01*
X038220Y003992D01*
X038164Y004010D01*
X038220Y004028D01*
X038293Y004065D01*
X038359Y004113D01*
X038417Y004171D01*
X038465Y004237D01*
X038502Y004310D01*
X038527Y004388D01*
X038540Y004469D01*
X038540Y004510D01*
X037760Y004510D01*
X037760Y004510D01*
X037760Y004510D01*
X037760Y003990D01*
X037760Y003510D01*
X038540Y003510D01*
X037760Y003510D01*
X037760Y003510D01*
X037760Y003510D01*
X037760Y003510D01*
X036980Y003510D01*
X036980Y003551D01*
X036993Y003632D01*
X037018Y003710D01*
X037055Y003783D01*
X037103Y003849D01*
X037161Y003907D01*
X037227Y003955D01*
X037300Y003992D01*
X037356Y004010D01*
X037300Y004028D01*
X037227Y004065D01*
X037161Y004113D01*
X037103Y004171D01*
X037055Y004237D01*
X037018Y004310D01*
X036993Y004388D01*
X036980Y004469D01*
X036980Y004510D01*
X037760Y004510D01*
X037760Y004510D01*
X037760Y003510D01*
X037760Y002510D01*
X038540Y002510D01*
X037760Y002510D01*
X037760Y002510D01*
X037760Y002510D01*
X037760Y001990D01*
X037760Y002510D01*
X037760Y002510D01*
X037760Y002510D01*
X036980Y002510D01*
X036980Y002551D01*
X036993Y002632D01*
X037018Y002710D01*
X037055Y002783D01*
X037103Y002849D01*
X037161Y002907D01*
X037227Y002955D01*
X037300Y002992D01*
X037356Y003010D01*
X037300Y003028D01*
X037227Y003065D01*
X037161Y003113D01*
X037103Y003171D01*
X037055Y003237D01*
X037018Y003310D01*
X036993Y003388D01*
X036980Y003469D01*
X036980Y003510D01*
X037760Y003510D01*
X037760Y003510D01*
X037760Y003030D01*
X037760Y002510D01*
X036980Y002510D01*
X036980Y002469D01*
X036993Y002388D01*
X037018Y002310D01*
X037055Y002237D01*
X036980Y002534D02*
X004179Y002534D01*
X004454Y002718D02*
X004490Y002682D01*
X004533Y002654D01*
X004580Y002634D01*
X004630Y002624D01*
X005026Y002624D01*
X005026Y003254D01*
X005026Y003254D01*
X005026Y003254D01*
X004396Y003254D01*
X004396Y002858D01*
X004406Y002808D01*
X004425Y002761D01*
X004454Y002718D01*
X004397Y002853D02*
X004161Y002853D01*
X004091Y003171D02*
X004396Y003171D01*
X004396Y003254D02*
X005026Y003254D01*
X005026Y003254D01*
X005026Y003884D01*
X004630Y003884D01*
X004580Y003874D01*
X004533Y003855D01*
X004490Y003826D01*
X004454Y003790D01*
X004425Y003747D01*
X004406Y003700D01*
X004396Y003650D01*
X004396Y003254D01*
X004396Y003490D02*
X003929Y003490D01*
X003641Y003808D02*
X004472Y003808D01*
X005026Y003808D02*
X005026Y003808D01*
X005026Y003490D02*
X005026Y003490D01*
X005026Y003171D02*
X005026Y003171D01*
X005026Y002853D02*
X005026Y002853D01*
X007604Y002853D02*
X013897Y002853D01*
X013896Y002858D02*
X013906Y002808D01*
X013925Y002761D01*
X013954Y002718D01*
X013990Y002682D01*
X014033Y002654D01*
X014080Y002634D01*
X014130Y002624D01*
X014526Y002624D01*
X014526Y003254D01*
X014526Y003254D01*
X014526Y003254D01*
X013896Y003254D01*
X013896Y002858D01*
X013896Y003171D02*
X007604Y003171D01*
X007604Y003490D02*
X013896Y003490D01*
X013896Y003650D02*
X013896Y003254D01*
X014526Y003254D01*
X014526Y003254D01*
X014526Y003884D01*
X014130Y003884D01*
X014080Y003874D01*
X014033Y003855D01*
X013990Y003826D01*
X013954Y003790D01*
X013925Y003747D01*
X013906Y003700D01*
X013896Y003650D01*
X013972Y003808D02*
X007520Y003808D01*
X006370Y004127D02*
X015150Y004127D01*
X015150Y004445D02*
X006370Y004445D01*
X005650Y004445D02*
X001820Y004445D01*
X001820Y004127D02*
X002203Y004127D01*
X003067Y004127D02*
X005650Y004127D01*
X005650Y004764D02*
X001820Y004764D01*
X001820Y005082D02*
X005650Y005082D01*
X006370Y005082D02*
X015150Y005082D01*
X015150Y004764D02*
X006370Y004764D01*
X006912Y005666D02*
X007398Y005179D01*
X008086Y005179D01*
X008573Y005666D01*
X008573Y006354D01*
X008086Y006841D01*
X007398Y006841D01*
X006912Y006354D01*
X006912Y005666D01*
X006912Y005719D02*
X006370Y005719D01*
X006370Y005401D02*
X007177Y005401D01*
X008307Y005401D02*
X013213Y005401D01*
X013434Y005179D02*
X012947Y005666D01*
X012947Y006354D01*
X013434Y006841D01*
X014122Y006841D01*
X014608Y006354D01*
X014608Y005666D01*
X014122Y005179D01*
X013434Y005179D01*
X014343Y005401D02*
X015150Y005401D01*
X015150Y005719D02*
X014608Y005719D01*
X014608Y006038D02*
X015150Y006038D01*
X015150Y006356D02*
X014606Y006356D01*
X014288Y006675D02*
X015150Y006675D01*
X015150Y006993D02*
X006370Y006993D01*
X006370Y006675D02*
X007232Y006675D01*
X008252Y006675D02*
X013268Y006675D01*
X012949Y006356D02*
X008571Y006356D01*
X008573Y006038D02*
X012947Y006038D01*
X012947Y005719D02*
X008573Y005719D01*
X006912Y006038D02*
X006370Y006038D01*
X006370Y006356D02*
X006914Y006356D01*
X005650Y006356D02*
X005106Y006356D01*
X005108Y006354D02*
X004622Y006841D01*
X003934Y006841D01*
X003447Y006354D01*
X003447Y005666D01*
X003934Y005179D01*
X004622Y005179D01*
X005108Y005666D01*
X005108Y006354D01*
X005108Y006038D02*
X005650Y006038D01*
X005650Y005719D02*
X005108Y005719D01*
X004843Y005401D02*
X005650Y005401D01*
X003713Y005401D02*
X001820Y005401D01*
X001820Y005719D02*
X003447Y005719D01*
X003447Y006038D02*
X001820Y006038D01*
X001820Y006356D02*
X003449Y006356D01*
X003768Y006675D02*
X001820Y006675D01*
X001820Y006993D02*
X005650Y006993D01*
X005650Y006675D02*
X004788Y006675D01*
X005650Y007312D02*
X001820Y007312D01*
X001820Y007630D02*
X005650Y007630D01*
X005650Y007949D02*
X001820Y007949D01*
X001820Y008267D02*
X005650Y008267D01*
X005652Y008586D02*
X001820Y008586D01*
X001820Y008904D02*
X005895Y008904D01*
X006213Y009223D02*
X001820Y009223D01*
X001820Y009541D02*
X024050Y009541D01*
X024093Y009498D02*
X024093Y009498D01*
X023748Y009843D02*
X023748Y009843D01*
X023740Y009860D02*
X001820Y009860D01*
X001820Y010178D02*
X023577Y010178D01*
X023492Y010497D02*
X001820Y010497D01*
X001820Y010815D02*
X023459Y010815D01*
X023509Y011134D02*
X001820Y011134D01*
X001820Y011452D02*
X023633Y011452D01*
X023526Y011242D02*
X023526Y011242D01*
X023841Y011771D02*
X022508Y011771D01*
X022481Y011743D02*
X022652Y011914D01*
X022745Y012139D01*
X022745Y012381D01*
X022652Y012606D01*
X022481Y012777D01*
X022256Y012870D01*
X022014Y012870D01*
X021789Y012777D01*
X021618Y012606D01*
X021525Y012381D01*
X021525Y012139D01*
X021618Y011914D01*
X021789Y011743D01*
X022014Y011650D01*
X022256Y011650D01*
X022481Y011743D01*
X021762Y011771D02*
X021258Y011771D01*
X021231Y011743D02*
X021402Y011914D01*
X021495Y012139D01*
X021495Y012381D01*
X021402Y012606D01*
X021231Y012777D01*
X021006Y012870D01*
X020764Y012870D01*
X020539Y012777D01*
X020368Y012606D01*
X020275Y012381D01*
X020275Y012139D01*
X020368Y011914D01*
X020539Y011743D01*
X020764Y011650D01*
X021006Y011650D01*
X021231Y011743D01*
X020512Y011771D02*
X020008Y011771D01*
X019981Y011743D02*
X020152Y011914D01*
X020245Y012139D01*
X020245Y012381D01*
X020152Y012606D01*
X019981Y012777D01*
X019756Y012870D01*
X019514Y012870D01*
X019289Y012777D01*
X019118Y012606D01*
X019025Y012381D01*
X019025Y012139D01*
X019118Y011914D01*
X019289Y011743D01*
X019514Y011650D01*
X019756Y011650D01*
X019981Y011743D01*
X019262Y011771D02*
X018758Y011771D01*
X018731Y011743D02*
X018902Y011914D01*
X018995Y012139D01*
X018995Y012381D01*
X018902Y012606D01*
X018731Y012777D01*
X018506Y012870D01*
X018264Y012870D01*
X018039Y012777D01*
X017868Y012606D01*
X017775Y012381D01*
X017775Y012139D01*
X017868Y011914D01*
X018039Y011743D01*
X018264Y011650D01*
X018506Y011650D01*
X018731Y011743D01*
X018012Y011771D02*
X001820Y011771D01*
X001820Y012089D02*
X017796Y012089D01*
X017786Y012408D02*
X017104Y012408D01*
X017104Y012726D02*
X017988Y012726D01*
X018782Y012726D02*
X019238Y012726D01*
X020032Y012726D02*
X020488Y012726D01*
X021282Y012726D02*
X021738Y012726D01*
X022532Y012726D02*
X023396Y012726D01*
X023396Y012754D02*
X023396Y012358D01*
X023406Y012308D01*
X023425Y012261D01*
X023454Y012218D01*
X023490Y012182D01*
X023533Y012154D01*
X023580Y012134D01*
X023630Y012124D01*
X024026Y012124D01*
X024026Y012754D01*
X024026Y012754D01*
X024026Y012754D01*
X023396Y012754D01*
X024026Y012754D01*
X024026Y012754D01*
X024026Y013384D01*
X023630Y013384D01*
X023580Y013374D01*
X023533Y013355D01*
X023490Y013326D01*
X023454Y013290D01*
X023425Y013247D01*
X023406Y013200D01*
X023396Y013150D01*
X023396Y012754D01*
X023396Y013045D02*
X017104Y013045D01*
X016915Y013363D02*
X023553Y013363D01*
X024026Y013363D02*
X024026Y013363D01*
X024498Y013363D02*
X024590Y013363D01*
X024922Y013682D02*
X022332Y013682D01*
X021938Y013682D02*
X021082Y013682D01*
X020688Y013682D02*
X019832Y013682D01*
X019438Y013682D02*
X018582Y013682D01*
X018188Y013682D02*
X015870Y013682D01*
X015930Y013363D02*
X016074Y013363D01*
X015150Y013682D02*
X006370Y013682D01*
X006430Y013363D02*
X006574Y013363D01*
X007415Y013363D02*
X014053Y013363D01*
X014033Y013355D02*
X014080Y013374D01*
X014130Y013384D01*
X014526Y013384D01*
X014526Y012754D01*
X014526Y012754D01*
X014526Y012754D01*
X014526Y012124D01*
X014130Y012124D01*
X014080Y012134D01*
X014033Y012154D01*
X013990Y012182D01*
X013954Y012218D01*
X013925Y012261D01*
X013906Y012308D01*
X013896Y012358D01*
X013896Y012754D01*
X014526Y012754D01*
X014526Y012754D01*
X013896Y012754D01*
X013896Y013150D01*
X013906Y013200D01*
X013925Y013247D01*
X013954Y013290D01*
X013990Y013326D01*
X014033Y013355D01*
X014526Y013363D02*
X014526Y013363D01*
X014998Y013363D02*
X015090Y013363D01*
X014526Y013045D02*
X014526Y013045D01*
X014526Y012726D02*
X014526Y012726D01*
X013896Y012726D02*
X007604Y012726D01*
X007604Y013045D02*
X013896Y013045D01*
X013896Y012408D02*
X007604Y012408D01*
X005026Y012408D02*
X005026Y012408D01*
X005026Y012124D02*
X004630Y012124D01*
X004580Y012134D01*
X004533Y012154D01*
X004490Y012182D01*
X004454Y012218D01*
X004425Y012261D01*
X004406Y012308D01*
X004396Y012358D01*
X004396Y012754D01*
X005026Y012754D01*
X005026Y012754D01*
X005026Y012754D01*
X005026Y012124D01*
X004396Y012408D02*
X001820Y012408D01*
X001820Y012726D02*
X004396Y012726D01*
X004396Y012754D02*
X005026Y012754D01*
X005026Y012754D01*
X005026Y013384D01*
X004630Y013384D01*
X004580Y013374D01*
X004533Y013355D01*
X004490Y013326D01*
X004454Y013290D01*
X004425Y013247D01*
X004406Y013200D01*
X004396Y013150D01*
X004396Y012754D01*
X004396Y013045D02*
X001820Y013045D01*
X001820Y013363D02*
X004553Y013363D01*
X005026Y013363D02*
X005026Y013363D01*
X005498Y013363D02*
X005590Y013363D01*
X005650Y013682D02*
X001820Y013682D01*
X001820Y014000D02*
X005650Y014000D01*
X005650Y014319D02*
X001820Y014319D01*
X001820Y014637D02*
X005650Y014637D01*
X005650Y014956D02*
X004898Y014956D01*
X005108Y015166D02*
X004622Y014679D01*
X003934Y014679D01*
X003447Y015166D01*
X003447Y015854D01*
X003934Y016341D01*
X004622Y016341D01*
X005108Y015854D01*
X005108Y015166D01*
X005108Y015274D02*
X005650Y015274D01*
X006370Y015274D02*
X006912Y015274D01*
X006912Y015166D02*
X007398Y014679D01*
X008086Y014679D01*
X008573Y015166D01*
X008573Y015854D01*
X008086Y016341D01*
X007398Y016341D01*
X006912Y015854D01*
X006912Y015166D01*
X007122Y014956D02*
X006370Y014956D01*
X006370Y014637D02*
X015150Y014637D01*
X015150Y014956D02*
X014398Y014956D01*
X014608Y015166D02*
X014122Y014679D01*
X013434Y014679D01*
X012947Y015166D01*
X012947Y015854D01*
X013434Y016341D01*
X014122Y016341D01*
X014608Y015854D01*
X014608Y015166D01*
X014608Y015274D02*
X015150Y015274D01*
X015870Y015274D02*
X016412Y015274D01*
X016412Y015166D02*
X016898Y014679D01*
X017586Y014679D01*
X018073Y015166D01*
X018073Y015854D01*
X017586Y016341D01*
X016898Y016341D01*
X016412Y015854D01*
X016412Y015166D01*
X016622Y014956D02*
X015870Y014956D01*
X015870Y014637D02*
X017899Y014637D01*
X017862Y014956D02*
X022658Y014956D01*
X022447Y015166D02*
X022934Y014679D01*
X023622Y014679D01*
X024108Y015166D01*
X024108Y015854D01*
X023622Y016341D01*
X022934Y016341D01*
X022447Y015854D01*
X022447Y015166D01*
X022447Y015274D02*
X018073Y015274D01*
X018073Y015593D02*
X022447Y015593D01*
X022504Y015911D02*
X018016Y015911D01*
X017697Y016230D02*
X022823Y016230D01*
X023733Y016230D02*
X026287Y016230D01*
X026398Y016341D02*
X025912Y015854D01*
X025912Y015166D01*
X026398Y014679D01*
X027086Y014679D01*
X027573Y015166D01*
X027573Y015854D01*
X027086Y016341D01*
X026398Y016341D01*
X027197Y016230D02*
X032323Y016230D01*
X032434Y016341D02*
X031947Y015854D01*
X031947Y015166D01*
X032434Y014679D01*
X033122Y014679D01*
X033608Y015166D01*
X033608Y015854D01*
X033122Y016341D01*
X032434Y016341D01*
X033233Y016230D02*
X034150Y016230D01*
X034289Y016548D02*
X016057Y016548D01*
X015870Y016230D02*
X016787Y016230D01*
X016469Y015911D02*
X015870Y015911D01*
X015870Y015593D02*
X016412Y015593D01*
X015150Y015593D02*
X014608Y015593D01*
X014551Y015911D02*
X015150Y015911D01*
X015150Y016230D02*
X014233Y016230D01*
X013323Y016230D02*
X008197Y016230D01*
X007287Y016230D02*
X006370Y016230D01*
X006370Y016548D02*
X015150Y016548D01*
X015357Y016867D02*
X006376Y016867D01*
X005650Y016867D02*
X001820Y016867D01*
X001820Y017185D02*
X005693Y017185D01*
X005994Y017504D02*
X003318Y017504D01*
X003751Y017822D02*
X006323Y017822D01*
X004128Y018459D02*
X018150Y018459D01*
X018150Y018435D02*
X018243Y018211D01*
X018414Y018039D01*
X018639Y017946D01*
X018881Y017946D01*
X019106Y018039D01*
X019260Y018194D01*
X019414Y018039D01*
X019639Y017946D01*
X019881Y017946D01*
X020106Y018039D01*
X020260Y018194D01*
X020414Y018039D01*
X020639Y017946D01*
X020881Y017946D01*
X021106Y018039D01*
X021260Y018194D01*
X021414Y018039D01*
X021639Y017946D01*
X021881Y017946D01*
X022106Y018039D01*
X022277Y018211D01*
X022370Y018435D01*
X022370Y018678D01*
X022277Y018902D01*
X022106Y019073D01*
X021881Y019166D01*
X021639Y019166D01*
X021414Y019073D01*
X021260Y018919D01*
X021106Y019073D01*
X020881Y019166D01*
X020639Y019166D01*
X020414Y019073D01*
X020260Y018919D01*
X020106Y019073D01*
X019881Y019166D01*
X019639Y019166D01*
X019414Y019073D01*
X019260Y018919D01*
X019106Y019073D01*
X018881Y019166D01*
X018639Y019166D01*
X018414Y019073D01*
X018243Y018902D01*
X018150Y018678D01*
X018150Y018435D01*
X018313Y018141D02*
X003985Y018141D01*
X004178Y018778D02*
X018191Y018778D01*
X018469Y019096D02*
X004162Y019096D01*
X004094Y019415D02*
X037197Y019415D01*
X038323Y019415D02*
X040197Y019415D01*
X041323Y019415D02*
X041615Y019415D01*
X042405Y019415D02*
X042587Y019415D01*
X043010Y019415D02*
X043010Y019415D01*
X043433Y019415D02*
X073926Y019415D01*
X073858Y019096D02*
X051051Y019096D01*
X051106Y019073D02*
X050881Y019166D01*
X050639Y019166D01*
X050414Y019073D01*
X050269Y018928D01*
X050241Y018967D01*
X050170Y019037D01*
X050090Y019095D01*
X050002Y019140D01*
X049908Y019171D01*
X049810Y019186D01*
X049760Y019186D01*
X049760Y018556D01*
X049760Y017926D01*
X049810Y017926D01*
X049908Y017942D01*
X050002Y017972D01*
X050090Y018017D01*
X050170Y018076D01*
X050241Y018146D01*
X050269Y018185D01*
X050414Y018039D01*
X050639Y017946D01*
X050881Y017946D01*
X051106Y018039D01*
X051277Y018211D01*
X051370Y018435D01*
X051370Y018678D01*
X051277Y018902D01*
X051106Y019073D01*
X051329Y018778D02*
X073842Y018778D01*
X073892Y018459D02*
X051370Y018459D01*
X051207Y018141D02*
X074035Y018141D01*
X074269Y017822D02*
X071697Y017822D01*
X072026Y017504D02*
X074702Y017504D01*
X076068Y017504D02*
X076200Y017504D01*
X076200Y017185D02*
X072327Y017185D01*
X072370Y016867D02*
X076200Y016867D01*
X076200Y016548D02*
X072370Y016548D01*
X072370Y016230D02*
X073287Y016230D01*
X073398Y016341D02*
X072912Y015854D01*
X072912Y015166D01*
X073398Y014679D01*
X074086Y014679D01*
X074573Y015166D01*
X074573Y015854D01*
X074086Y016341D01*
X073398Y016341D01*
X074197Y016230D02*
X076200Y016230D01*
X076200Y015911D02*
X074516Y015911D01*
X074573Y015593D02*
X076200Y015593D01*
X076200Y015274D02*
X074573Y015274D01*
X074362Y014956D02*
X076200Y014956D01*
X076200Y014637D02*
X072370Y014637D01*
X072370Y014956D02*
X073122Y014956D01*
X072912Y015274D02*
X072370Y015274D01*
X071650Y015274D02*
X071108Y015274D01*
X071108Y015166D02*
X070622Y014679D01*
X069934Y014679D01*
X069447Y015166D01*
X069447Y015854D01*
X069934Y016341D01*
X070622Y016341D01*
X071108Y015854D01*
X071108Y015166D01*
X070898Y014956D02*
X071650Y014956D01*
X071650Y014637D02*
X063370Y014637D01*
X063370Y014956D02*
X064122Y014956D01*
X063912Y015166D02*
X064398Y014679D01*
X065086Y014679D01*
X065573Y015166D01*
X065573Y015854D01*
X065086Y016341D01*
X064398Y016341D01*
X063912Y015854D01*
X063912Y015166D01*
X063912Y015274D02*
X063370Y015274D01*
X062650Y015274D02*
X062108Y015274D01*
X062108Y015166D02*
X061622Y014679D01*
X060934Y014679D01*
X060447Y015166D01*
X060447Y015854D01*
X060934Y016341D01*
X061622Y016341D01*
X062108Y015854D01*
X062108Y015166D01*
X061898Y014956D02*
X062650Y014956D01*
X062650Y014637D02*
X053870Y014637D01*
X053870Y014956D02*
X054622Y014956D01*
X054412Y015166D02*
X054898Y014679D01*
X055586Y014679D01*
X056073Y015166D01*
X056073Y015854D01*
X055586Y016341D01*
X054898Y016341D01*
X054412Y015854D01*
X054412Y015166D01*
X054412Y015274D02*
X053870Y015274D01*
X053150Y015274D02*
X052608Y015274D01*
X052398Y014956D02*
X053150Y014956D01*
X053150Y014637D02*
X042142Y014637D01*
X042898Y014956D02*
X045122Y014956D01*
X044912Y015274D02*
X043108Y015274D01*
X043108Y015593D02*
X044912Y015593D01*
X044969Y015911D02*
X043051Y015911D01*
X041447Y015698D02*
X041447Y015322D01*
X041392Y015345D01*
X041303Y015434D01*
X041119Y015510D01*
X040401Y015510D01*
X041119Y015510D01*
X041303Y015586D01*
X041392Y015675D01*
X041447Y015698D01*
X041447Y015593D02*
X041310Y015593D01*
X040217Y015586D02*
X040076Y015727D01*
X040000Y015911D01*
X040050Y016230D02*
X038470Y016230D01*
X038211Y016548D02*
X040309Y016548D01*
X040401Y016510D02*
X041119Y016510D01*
X040401Y016510D01*
X041119Y016510D02*
X041303Y016586D01*
X041367Y016650D01*
X041391Y016650D01*
X041212Y016472D01*
X041119Y016510D01*
X041211Y016548D02*
X041289Y016548D01*
X040018Y016867D02*
X038502Y016867D01*
X038489Y017185D02*
X040031Y017185D01*
X040385Y017504D02*
X038135Y017504D01*
X038119Y017510D02*
X037401Y017510D01*
X037217Y017586D01*
X037153Y017650D01*
X035659Y017650D01*
X035379Y017370D01*
X037153Y017370D01*
X037217Y017434D01*
X037401Y017510D01*
X038119Y017510D01*
X038483Y017822D02*
X040037Y017822D01*
X040401Y017510D02*
X041119Y017510D01*
X041303Y017434D01*
X041367Y017370D01*
X041391Y017370D01*
X041212Y017548D01*
X041119Y017510D01*
X040401Y017510D01*
X041135Y017504D02*
X041257Y017504D01*
X041639Y018141D02*
X046313Y018141D01*
X046243Y018211D02*
X046414Y018039D01*
X046639Y017946D01*
X046881Y017946D01*
X047106Y018039D01*
X047260Y018194D01*
X047414Y018039D01*
X047639Y017946D01*
X047881Y017946D01*
X048106Y018039D01*
X048260Y018194D01*
X048414Y018039D01*
X048639Y017946D01*
X048881Y017946D01*
X049106Y018039D01*
X049251Y018185D01*
X049279Y018146D01*
X049350Y018076D01*
X049430Y018017D01*
X049518Y017972D01*
X049612Y017942D01*
X049710Y017926D01*
X049760Y017926D01*
X049760Y018556D01*
X049760Y018556D01*
X049760Y019186D01*
X049710Y019186D01*
X049612Y019171D01*
X049518Y019140D01*
X049430Y019095D01*
X049350Y019037D01*
X049279Y018967D01*
X049251Y018928D01*
X049106Y019073D01*
X048881Y019166D01*
X048639Y019166D01*
X048414Y019073D01*
X048260Y018919D01*
X048106Y019073D01*
X047881Y019166D01*
X047639Y019166D01*
X047414Y019073D01*
X047260Y018919D01*
X047106Y019073D01*
X046881Y019166D01*
X046639Y019166D01*
X046414Y019073D01*
X046243Y018902D01*
X046150Y018678D01*
X046150Y018435D01*
X046243Y018211D01*
X046150Y018459D02*
X043207Y018459D01*
X043010Y018459D02*
X043010Y018459D01*
X042813Y018459D02*
X042156Y018459D01*
X041864Y018459D02*
X041243Y018459D01*
X040277Y018459D02*
X038243Y018459D01*
X038119Y018510D02*
X037401Y018510D01*
X037217Y018586D01*
X037153Y018650D01*
X035909Y018650D01*
X035629Y018370D01*
X037153Y018370D01*
X037217Y018434D01*
X037401Y018510D01*
X038119Y018510D01*
X038465Y018778D02*
X040055Y018778D01*
X040000Y019096D02*
X038520Y019096D01*
X037277Y018459D02*
X035718Y018459D01*
X034700Y018459D02*
X031370Y018459D01*
X031370Y018435D02*
X031370Y018678D01*
X031277Y018902D01*
X031106Y019073D01*
X030881Y019166D01*
X030639Y019166D01*
X030414Y019073D01*
X030260Y018919D01*
X030106Y019073D01*
X029881Y019166D01*
X029639Y019166D01*
X029414Y019073D01*
X029260Y018919D01*
X029106Y019073D01*
X028881Y019166D01*
X028639Y019166D01*
X028414Y019073D01*
X028260Y018919D01*
X028106Y019073D01*
X027881Y019166D01*
X027639Y019166D01*
X027414Y019073D01*
X027243Y018902D01*
X027150Y018678D01*
X027150Y018435D01*
X027243Y018211D01*
X027414Y018039D01*
X027639Y017946D01*
X027881Y017946D01*
X028106Y018039D01*
X028260Y018194D01*
X028414Y018039D01*
X028639Y017946D01*
X028881Y017946D01*
X029106Y018039D01*
X029260Y018194D01*
X029414Y018039D01*
X029639Y017946D01*
X029881Y017946D01*
X030106Y018039D01*
X030260Y018194D01*
X030414Y018039D01*
X030639Y017946D01*
X030881Y017946D01*
X031106Y018039D01*
X031277Y018211D01*
X031370Y018435D01*
X031207Y018141D02*
X034381Y018141D01*
X035018Y018778D02*
X031329Y018778D01*
X031051Y019096D02*
X035337Y019096D01*
X038507Y018141D02*
X040013Y018141D01*
X041465Y018778D02*
X041495Y018778D01*
X043010Y018778D02*
X043010Y018778D01*
X043010Y019096D02*
X043010Y019096D01*
X043589Y019096D02*
X046469Y019096D01*
X046191Y018778D02*
X043548Y018778D01*
X047051Y019096D02*
X047469Y019096D01*
X048051Y019096D02*
X048469Y019096D01*
X049051Y019096D02*
X049432Y019096D01*
X049760Y019096D02*
X049760Y019096D01*
X049760Y018778D02*
X049760Y018778D01*
X049760Y018556D02*
X049760Y018556D01*
X049760Y018459D02*
X049760Y018459D01*
X049760Y018141D02*
X049760Y018141D01*
X050235Y018141D02*
X050313Y018141D01*
X049285Y018141D02*
X049207Y018141D01*
X048313Y018141D02*
X048207Y018141D01*
X047313Y018141D02*
X047207Y018141D01*
X050088Y019096D02*
X050469Y019096D01*
X053481Y016548D02*
X062463Y016548D01*
X062650Y016230D02*
X061733Y016230D01*
X062051Y015911D02*
X062650Y015911D01*
X062650Y015593D02*
X062108Y015593D01*
X063370Y015593D02*
X063912Y015593D01*
X063969Y015911D02*
X063370Y015911D01*
X063370Y016230D02*
X064287Y016230D01*
X065197Y016230D02*
X069823Y016230D01*
X070733Y016230D02*
X071650Y016230D01*
X071650Y016548D02*
X063370Y016548D01*
X063163Y016867D02*
X071644Y016867D01*
X071650Y015911D02*
X071051Y015911D01*
X071108Y015593D02*
X071650Y015593D01*
X072370Y015593D02*
X072912Y015593D01*
X072969Y015911D02*
X072370Y015911D01*
X069504Y015911D02*
X065516Y015911D01*
X065573Y015593D02*
X069447Y015593D01*
X069447Y015274D02*
X065573Y015274D01*
X065362Y014956D02*
X069658Y014956D01*
X071650Y014319D02*
X063370Y014319D01*
X063370Y014000D02*
X071650Y014000D01*
X072370Y014000D02*
X076200Y014000D01*
X076200Y014319D02*
X072370Y014319D01*
X072370Y013682D02*
X076200Y013682D01*
X076200Y013363D02*
X073415Y013363D01*
X072574Y013363D02*
X072430Y013363D01*
X071590Y013363D02*
X071498Y013363D01*
X071650Y013682D02*
X063370Y013682D01*
X063430Y013363D02*
X063574Y013363D01*
X064415Y013363D02*
X070553Y013363D01*
X070533Y013355D02*
X070490Y013326D01*
X070454Y013290D01*
X070425Y013247D01*
X070406Y013200D01*
X070396Y013150D01*
X070396Y012754D01*
X070396Y012358D01*
X070406Y012308D01*
X070425Y012261D01*
X070454Y012218D01*
X070490Y012182D01*
X070533Y012154D01*
X070580Y012134D01*
X070630Y012124D01*
X071026Y012124D01*
X071026Y012754D01*
X071026Y012754D01*
X071026Y012754D01*
X070396Y012754D01*
X071026Y012754D01*
X071026Y012754D01*
X071026Y013384D01*
X070630Y013384D01*
X070580Y013374D01*
X070533Y013355D01*
X071026Y013363D02*
X071026Y013363D01*
X071026Y013045D02*
X071026Y013045D01*
X071026Y012726D02*
X071026Y012726D01*
X070396Y012726D02*
X064604Y012726D01*
X064604Y013045D02*
X070396Y013045D01*
X070396Y012408D02*
X064604Y012408D01*
X062026Y012408D02*
X062026Y012408D01*
X062026Y012124D02*
X061630Y012124D01*
X061580Y012134D01*
X061533Y012154D01*
X061490Y012182D01*
X061454Y012218D01*
X061425Y012261D01*
X061406Y012308D01*
X061396Y012358D01*
X061396Y012754D01*
X062026Y012754D01*
X062026Y012754D01*
X062026Y012754D01*
X062026Y012124D01*
X061396Y012408D02*
X055104Y012408D01*
X054296Y012089D02*
X076200Y012089D01*
X076200Y012408D02*
X073604Y012408D01*
X073604Y012726D02*
X076200Y012726D01*
X076200Y013045D02*
X073604Y013045D01*
X071026Y012408D02*
X071026Y012408D01*
X076200Y011771D02*
X054679Y011771D01*
X054772Y011677D02*
X054772Y011677D01*
X054887Y011452D02*
X076200Y011452D01*
X076200Y011134D02*
X055011Y011134D01*
X055061Y010815D02*
X076200Y010815D01*
X076200Y010497D02*
X055028Y010497D01*
X054994Y010278D02*
X054994Y010278D01*
X054943Y010178D02*
X076200Y010178D01*
X076200Y009860D02*
X054780Y009860D01*
X054470Y009541D02*
X076200Y009541D01*
X076200Y009223D02*
X053652Y009223D01*
X053510Y009200D02*
X053510Y009200D01*
X053368Y009223D02*
X043520Y009223D01*
X043010Y009223D02*
X043010Y009223D01*
X043010Y009541D02*
X043010Y009541D01*
X043010Y009860D02*
X043010Y009860D01*
X043479Y009860D02*
X052240Y009860D01*
X052248Y009843D02*
X052248Y009843D01*
X052550Y009541D02*
X043595Y009541D01*
X042541Y009860D02*
X042460Y009860D01*
X041560Y009860D02*
X041378Y009860D01*
X040142Y009860D02*
X039620Y009860D01*
X039620Y009541D02*
X040000Y009541D01*
X040080Y009223D02*
X039620Y009223D01*
X039620Y008904D02*
X040187Y008904D01*
X041333Y008904D02*
X076200Y008904D01*
X076200Y008586D02*
X041694Y008586D01*
X040059Y008267D02*
X039620Y008267D01*
X039620Y008586D02*
X040000Y008586D01*
X038900Y008586D02*
X038520Y008586D01*
X038461Y008267D02*
X038900Y008267D01*
X038119Y008010D02*
X037401Y008010D01*
X037217Y008086D01*
X037153Y008150D01*
X032108Y008150D01*
X032138Y008120D01*
X036582Y008120D01*
X036714Y008065D01*
X036909Y007870D01*
X037153Y007870D01*
X037217Y007934D01*
X037401Y008010D01*
X038119Y008010D01*
X038268Y007949D02*
X038900Y007949D01*
X038900Y007630D02*
X038511Y007630D01*
X039620Y007630D02*
X040009Y007630D01*
X040252Y007949D02*
X039620Y007949D01*
X041268Y007949D02*
X041312Y007949D01*
X040041Y007312D02*
X039620Y007312D01*
X039620Y006993D02*
X040360Y006993D01*
X040027Y006675D02*
X039620Y006675D01*
X038900Y006675D02*
X038493Y006675D01*
X038160Y006993D02*
X038900Y006993D01*
X038900Y007312D02*
X038479Y007312D01*
X038119Y007010D02*
X037401Y007010D01*
X037217Y007086D01*
X037153Y007150D01*
X037129Y007150D01*
X037308Y006972D01*
X037401Y007010D01*
X038119Y007010D01*
X037360Y006993D02*
X037286Y006993D01*
X038497Y006356D02*
X038900Y006356D01*
X038900Y006038D02*
X038186Y006038D01*
X038119Y006010D02*
X037401Y006010D01*
X037217Y006086D01*
X037128Y006175D01*
X037073Y006198D01*
X037073Y005822D01*
X037128Y005845D01*
X037217Y005934D01*
X037401Y006010D01*
X038119Y006010D01*
X038475Y005719D02*
X038900Y005719D01*
X038900Y005401D02*
X038516Y005401D01*
X039620Y005401D02*
X040004Y005401D01*
X040045Y005719D02*
X039620Y005719D01*
X039620Y006038D02*
X040334Y006038D01*
X040023Y006356D02*
X039620Y006356D01*
X041186Y006038D02*
X041447Y006038D01*
X041234Y006993D02*
X041160Y006993D01*
X037334Y006038D02*
X037073Y006038D01*
X035412Y006038D02*
X033608Y006038D01*
X033606Y006356D02*
X035414Y006356D01*
X035412Y005719D02*
X033608Y005719D01*
X033343Y005401D02*
X035677Y005401D01*
X036323Y005082D02*
X031370Y005082D01*
X031268Y004764D02*
X036004Y004764D01*
X037023Y004764D02*
X037046Y004764D01*
X036984Y004445D02*
X036704Y004445D01*
X036386Y004127D02*
X037148Y004127D01*
X037760Y004127D02*
X037760Y004127D01*
X037760Y004445D02*
X037760Y004445D01*
X038372Y004127D02*
X038900Y004127D01*
X038900Y004445D02*
X038536Y004445D01*
X039620Y004445D02*
X040000Y004445D01*
X040176Y004127D02*
X039620Y004127D01*
X038900Y003808D02*
X038446Y003808D01*
X038540Y003490D02*
X039021Y003490D01*
X039388Y003171D02*
X038416Y003171D01*
X038413Y002853D02*
X040135Y002853D01*
X040000Y002534D02*
X038540Y002534D01*
X038449Y002216D02*
X040087Y002216D01*
X040864Y001897D02*
X003988Y001897D01*
X014526Y002853D02*
X014526Y002853D01*
X014526Y003171D02*
X014526Y003171D01*
X014526Y003490D02*
X014526Y003490D01*
X014526Y003808D02*
X014526Y003808D01*
X015870Y004127D02*
X024650Y004127D01*
X024650Y004445D02*
X015870Y004445D01*
X015870Y004764D02*
X018252Y004764D01*
X018243Y004773D02*
X018414Y004601D01*
X018639Y004508D01*
X018881Y004508D01*
X019106Y004601D01*
X019260Y004756D01*
X019414Y004601D01*
X019639Y004508D01*
X019881Y004508D01*
X020106Y004601D01*
X020260Y004756D01*
X020414Y004601D01*
X020639Y004508D01*
X020881Y004508D01*
X021106Y004601D01*
X021260Y004756D01*
X021414Y004601D01*
X021639Y004508D01*
X021881Y004508D01*
X022106Y004601D01*
X022277Y004773D01*
X022370Y004997D01*
X022370Y005240D01*
X022277Y005464D01*
X022106Y005635D01*
X021881Y005728D01*
X021639Y005728D01*
X021414Y005635D01*
X021260Y005481D01*
X021106Y005635D01*
X020881Y005728D01*
X020639Y005728D01*
X020414Y005635D01*
X020260Y005481D01*
X020106Y005635D01*
X019881Y005728D01*
X019639Y005728D01*
X019414Y005635D01*
X019260Y005481D01*
X019106Y005635D01*
X018881Y005728D01*
X018639Y005728D01*
X018414Y005635D01*
X018243Y005464D01*
X018150Y005240D01*
X018150Y004997D01*
X018243Y004773D01*
X018150Y005082D02*
X015870Y005082D01*
X016412Y005666D02*
X016898Y005179D01*
X017586Y005179D01*
X018073Y005666D01*
X018073Y006354D01*
X017586Y006841D01*
X016898Y006841D01*
X016412Y006354D01*
X016412Y005666D01*
X016412Y005719D02*
X015870Y005719D01*
X015870Y005401D02*
X016677Y005401D01*
X017807Y005401D02*
X018217Y005401D01*
X018073Y005719D02*
X018616Y005719D01*
X018904Y005719D02*
X019616Y005719D01*
X019904Y005719D02*
X020616Y005719D01*
X020904Y005719D02*
X021616Y005719D01*
X021904Y005719D02*
X022447Y005719D01*
X022447Y005666D02*
X022934Y005179D01*
X023622Y005179D01*
X024108Y005666D01*
X024108Y006354D01*
X023622Y006841D01*
X022934Y006841D01*
X022447Y006354D01*
X022447Y005666D01*
X022303Y005401D02*
X022713Y005401D01*
X023843Y005401D02*
X024650Y005401D01*
X024650Y005719D02*
X024108Y005719D01*
X024108Y006038D02*
X024650Y006038D01*
X024650Y006356D02*
X024106Y006356D01*
X023788Y006675D02*
X024688Y006675D01*
X024984Y006993D02*
X015870Y006993D01*
X015870Y006675D02*
X016732Y006675D01*
X017752Y006675D02*
X022768Y006675D01*
X022449Y006356D02*
X018071Y006356D01*
X018073Y006038D02*
X022447Y006038D01*
X025370Y006038D02*
X025912Y006038D01*
X025914Y006356D02*
X025370Y006356D01*
X025370Y005719D02*
X025912Y005719D01*
X026177Y005401D02*
X025370Y005401D01*
X025370Y005082D02*
X027150Y005082D01*
X027252Y004764D02*
X025370Y004764D01*
X024650Y004764D02*
X022268Y004764D01*
X022370Y005082D02*
X024650Y005082D01*
X025370Y004445D02*
X034686Y004445D01*
X034367Y004127D02*
X025370Y004127D01*
X026520Y003808D02*
X032972Y003808D01*
X032990Y003826D02*
X032954Y003790D01*
X032925Y003747D01*
X032906Y003700D01*
X032896Y003650D01*
X032896Y003254D01*
X032896Y002858D01*
X032906Y002808D01*
X032925Y002761D01*
X032954Y002718D01*
X032990Y002682D01*
X033033Y002654D01*
X033080Y002634D01*
X033130Y002624D01*
X033526Y002624D01*
X033526Y003254D01*
X033526Y003254D01*
X033526Y003254D01*
X032896Y003254D01*
X033526Y003254D01*
X033526Y003254D01*
X033526Y003884D01*
X033130Y003884D01*
X033080Y003874D01*
X033033Y003855D01*
X032990Y003826D01*
X032896Y003490D02*
X026604Y003490D01*
X026604Y003171D02*
X032896Y003171D01*
X032897Y002853D02*
X026604Y002853D01*
X024026Y002853D02*
X024026Y002853D01*
X024026Y002624D02*
X024026Y003254D01*
X024026Y003254D01*
X024026Y003254D01*
X023396Y003254D01*
X023396Y002858D01*
X023406Y002808D01*
X023425Y002761D01*
X023454Y002718D01*
X023490Y002682D01*
X023533Y002654D01*
X023580Y002634D01*
X023630Y002624D01*
X024026Y002624D01*
X023397Y002853D02*
X017104Y002853D01*
X017104Y003171D02*
X023396Y003171D01*
X023396Y003254D02*
X024026Y003254D01*
X024026Y003254D01*
X024026Y003884D01*
X023630Y003884D01*
X023580Y003874D01*
X023533Y003855D01*
X023490Y003826D01*
X023454Y003790D01*
X023425Y003747D01*
X023406Y003700D01*
X023396Y003650D01*
X023396Y003254D01*
X023396Y003490D02*
X017104Y003490D01*
X017020Y003808D02*
X023472Y003808D01*
X024026Y003808D02*
X024026Y003808D01*
X024026Y003490D02*
X024026Y003490D01*
X024026Y003171D02*
X024026Y003171D01*
X031303Y005401D02*
X032213Y005401D01*
X031947Y005719D02*
X030904Y005719D01*
X030616Y005719D02*
X029904Y005719D01*
X029616Y005719D02*
X028904Y005719D01*
X028616Y005719D02*
X027904Y005719D01*
X027616Y005719D02*
X027573Y005719D01*
X027573Y006038D02*
X031947Y006038D01*
X031949Y006356D02*
X027571Y006356D01*
X025302Y007312D02*
X015870Y007312D01*
X015150Y007312D02*
X006370Y007312D01*
X006370Y007630D02*
X015150Y007630D01*
X015150Y007949D02*
X006370Y007949D01*
X006370Y008267D02*
X015258Y008267D01*
X015576Y008586D02*
X006595Y008586D01*
X015870Y007630D02*
X027279Y007630D01*
X027303Y007949D02*
X015958Y007949D01*
X015870Y006356D02*
X016414Y006356D01*
X016412Y006038D02*
X015870Y006038D01*
X025927Y009498D02*
X025927Y009498D01*
X025970Y009541D02*
X027315Y009541D01*
X027275Y009860D02*
X026280Y009860D01*
X026443Y010178D02*
X027440Y010178D01*
X028330Y010178D02*
X028690Y010178D01*
X029580Y010178D02*
X029940Y010178D01*
X030830Y010178D02*
X031190Y010178D01*
X031025Y009860D02*
X030995Y009860D01*
X030955Y009541D02*
X031065Y009541D01*
X029815Y009541D02*
X029705Y009541D01*
X029745Y009860D02*
X029775Y009860D01*
X028525Y009860D02*
X028495Y009860D01*
X028455Y009541D02*
X028565Y009541D01*
X026494Y010278D02*
X026494Y010278D01*
X026528Y010497D02*
X038900Y010497D01*
X038900Y010178D02*
X032080Y010178D01*
X032245Y009860D02*
X037142Y009860D01*
X036782Y009541D02*
X032205Y009541D01*
X037129Y008870D02*
X037308Y009048D01*
X037401Y009010D01*
X038119Y009010D01*
X037401Y009010D01*
X037217Y008934D01*
X037153Y008870D01*
X037129Y008870D01*
X037163Y008904D02*
X037187Y008904D01*
X038333Y008904D02*
X038900Y008904D01*
X038900Y009223D02*
X038440Y009223D01*
X038520Y009541D02*
X038900Y009541D01*
X038900Y009860D02*
X038378Y009860D01*
X039620Y010178D02*
X052077Y010178D01*
X051992Y010497D02*
X039620Y010497D01*
X039620Y010815D02*
X051959Y010815D01*
X052009Y011134D02*
X039620Y011134D01*
X038900Y011134D02*
X026511Y011134D01*
X026494Y011242D02*
X026494Y011242D01*
X026387Y011452D02*
X038900Y011452D01*
X038900Y011771D02*
X038482Y011771D01*
X038465Y011737D02*
X038502Y011810D01*
X038527Y011888D01*
X038540Y011969D01*
X038540Y012010D01*
X038540Y012051D01*
X038527Y012132D01*
X038502Y012210D01*
X038465Y012283D01*
X038417Y012349D01*
X038359Y012407D01*
X038293Y012455D01*
X038220Y012492D01*
X038164Y012510D01*
X038220Y012528D01*
X038293Y012565D01*
X038359Y012613D01*
X038417Y012671D01*
X038465Y012737D01*
X038502Y012810D01*
X038527Y012888D01*
X038540Y012969D01*
X038540Y013010D01*
X038540Y013051D01*
X038527Y013132D01*
X038502Y013210D01*
X038465Y013283D01*
X038417Y013349D01*
X038359Y013407D01*
X038293Y013455D01*
X038220Y013492D01*
X038164Y013510D01*
X038220Y013528D01*
X038293Y013565D01*
X038359Y013613D01*
X038417Y013671D01*
X038465Y013737D01*
X038502Y013810D01*
X038527Y013888D01*
X038540Y013969D01*
X038540Y014010D01*
X037760Y014010D01*
X037760Y014010D01*
X037760Y014010D01*
X037760Y013530D01*
X037760Y013010D01*
X038540Y013010D01*
X037760Y013010D01*
X037760Y013010D01*
X037760Y013010D01*
X037760Y013010D01*
X036980Y013010D01*
X036980Y013051D01*
X036993Y013132D01*
X037018Y013210D01*
X037055Y013283D01*
X037103Y013349D01*
X037161Y013407D01*
X037227Y013455D01*
X037300Y013492D01*
X037356Y013510D01*
X037300Y013528D01*
X037227Y013565D01*
X037161Y013613D01*
X037103Y013671D01*
X037055Y013737D01*
X037018Y013810D01*
X036993Y013888D01*
X036980Y013969D01*
X036980Y014010D01*
X037760Y014010D01*
X037760Y014010D01*
X037760Y013010D01*
X037760Y012010D01*
X038540Y012010D01*
X037760Y012010D01*
X037760Y012010D01*
X037760Y012010D01*
X037760Y011490D01*
X038061Y011490D01*
X038142Y011503D01*
X038220Y011528D01*
X038293Y011565D01*
X038359Y011613D01*
X038417Y011671D01*
X038465Y011737D01*
X037760Y011771D02*
X037760Y011771D01*
X037760Y012010D02*
X037760Y011490D01*
X037459Y011490D01*
X037378Y011503D01*
X037300Y011528D01*
X037227Y011565D01*
X037161Y011613D01*
X037103Y011671D01*
X037055Y011737D01*
X037018Y011810D01*
X036993Y011888D01*
X036980Y011969D01*
X036980Y012010D01*
X037760Y012010D01*
X037760Y012010D01*
X037760Y012010D01*
X037760Y012490D01*
X037760Y013010D01*
X037760Y013010D01*
X036980Y013010D01*
X036980Y012969D01*
X036993Y012888D01*
X037018Y012810D01*
X037055Y012737D01*
X037103Y012671D01*
X037161Y012613D01*
X037227Y012565D01*
X037300Y012528D01*
X037356Y012510D01*
X037300Y012492D01*
X037227Y012455D01*
X037161Y012407D01*
X037103Y012349D01*
X037055Y012283D01*
X037018Y012210D01*
X036993Y012132D01*
X036980Y012051D01*
X036980Y012010D01*
X037760Y012010D01*
X037760Y012089D02*
X037760Y012089D01*
X037760Y012408D02*
X037760Y012408D01*
X037162Y012408D02*
X036104Y012408D01*
X036986Y012089D02*
X025796Y012089D01*
X025927Y012022D02*
X025927Y012022D01*
X026179Y011771D02*
X037038Y011771D01*
X038534Y012089D02*
X038900Y012089D01*
X038900Y012408D02*
X038358Y012408D01*
X039620Y012408D02*
X040190Y012408D01*
X040000Y012089D02*
X039620Y012089D01*
X039620Y011771D02*
X040058Y011771D01*
X039620Y011452D02*
X052133Y011452D01*
X052026Y011242D02*
X052026Y011242D01*
X052341Y011771D02*
X041462Y011771D01*
X041520Y012089D02*
X052724Y012089D01*
X052593Y012022D02*
X052593Y012022D01*
X052526Y012124D02*
X052130Y012124D01*
X052080Y012134D01*
X052033Y012154D01*
X051990Y012182D01*
X051954Y012218D01*
X051925Y012261D01*
X051906Y012308D01*
X051896Y012358D01*
X051896Y012754D01*
X052526Y012754D01*
X052526Y012754D01*
X052526Y012754D01*
X052526Y012124D01*
X052526Y012408D02*
X052526Y012408D01*
X051896Y012408D02*
X045604Y012408D01*
X045604Y012726D02*
X051896Y012726D01*
X051896Y012754D02*
X052526Y012754D01*
X052526Y012754D01*
X052526Y013384D01*
X052130Y013384D01*
X052080Y013374D01*
X052033Y013355D01*
X051990Y013326D01*
X051954Y013290D01*
X051925Y013247D01*
X051906Y013200D01*
X051896Y013150D01*
X051896Y012754D01*
X051896Y013045D02*
X045604Y013045D01*
X045415Y013363D02*
X052053Y013363D01*
X052526Y013363D02*
X052526Y013363D01*
X052998Y013363D02*
X053090Y013363D01*
X053150Y013682D02*
X044098Y013682D01*
X044430Y013363D02*
X044574Y013363D01*
X043026Y013363D02*
X043026Y013363D01*
X043026Y013384D02*
X042630Y013384D01*
X042580Y013374D01*
X042533Y013355D01*
X042490Y013326D01*
X042454Y013290D01*
X042425Y013247D01*
X042406Y013200D01*
X042396Y013150D01*
X042396Y012754D01*
X042396Y012358D01*
X042406Y012308D01*
X042425Y012261D01*
X042454Y012218D01*
X042490Y012182D01*
X042533Y012154D01*
X042580Y012134D01*
X042630Y012124D01*
X043026Y012124D01*
X043026Y012754D01*
X043026Y012754D01*
X043026Y012754D01*
X042396Y012754D01*
X043026Y012754D01*
X043026Y012754D01*
X043026Y013384D01*
X042553Y013363D02*
X041374Y013363D01*
X041399Y013682D02*
X042079Y013682D01*
X041761Y014000D02*
X041520Y014000D01*
X041442Y014319D02*
X041419Y014319D01*
X042461Y014319D02*
X053150Y014319D01*
X053150Y014000D02*
X043779Y014000D01*
X046362Y014956D02*
X051158Y014956D01*
X050947Y015274D02*
X046573Y015274D01*
X046573Y015593D02*
X050947Y015593D01*
X051004Y015911D02*
X046516Y015911D01*
X052551Y015911D02*
X053100Y015911D01*
X053150Y015593D02*
X052608Y015593D01*
X053870Y015593D02*
X054412Y015593D01*
X054469Y015911D02*
X053870Y015911D01*
X053800Y016230D02*
X054787Y016230D01*
X055697Y016230D02*
X060823Y016230D01*
X060504Y015911D02*
X056016Y015911D01*
X056073Y015593D02*
X060447Y015593D01*
X060447Y015274D02*
X056073Y015274D01*
X055862Y014956D02*
X060658Y014956D01*
X062650Y014319D02*
X053870Y014319D01*
X053870Y014000D02*
X062650Y014000D01*
X062650Y013682D02*
X053870Y013682D01*
X053930Y013363D02*
X054074Y013363D01*
X054915Y013363D02*
X061553Y013363D01*
X061533Y013355D02*
X061490Y013326D01*
X061454Y013290D01*
X061425Y013247D01*
X061406Y013200D01*
X061396Y013150D01*
X061396Y012754D01*
X062026Y012754D01*
X062026Y012754D01*
X062026Y013384D01*
X061630Y013384D01*
X061580Y013374D01*
X061533Y013355D01*
X062026Y013363D02*
X062026Y013363D01*
X062498Y013363D02*
X062590Y013363D01*
X062026Y013045D02*
X062026Y013045D01*
X062026Y012726D02*
X062026Y012726D01*
X061396Y012726D02*
X055104Y012726D01*
X055104Y013045D02*
X061396Y013045D01*
X052526Y013045D02*
X052526Y013045D01*
X052526Y012726D02*
X052526Y012726D01*
X043026Y012726D02*
X043026Y012726D01*
X043026Y013045D02*
X043026Y013045D01*
X042396Y013045D02*
X041520Y013045D01*
X041443Y012726D02*
X042396Y012726D01*
X042396Y012408D02*
X041330Y012408D01*
X043026Y012408D02*
X043026Y012408D01*
X039422Y013363D02*
X038402Y013363D01*
X038424Y013682D02*
X040121Y013682D01*
X040000Y014000D02*
X038540Y014000D01*
X038439Y014319D02*
X040101Y014319D01*
X040166Y014637D02*
X038354Y014637D01*
X038520Y014956D02*
X040000Y014956D01*
X040068Y015274D02*
X038452Y015274D01*
X038119Y015510D02*
X037401Y015510D01*
X037217Y015586D01*
X037128Y015675D01*
X037073Y015698D01*
X037073Y015322D01*
X037128Y015345D01*
X037217Y015434D01*
X037401Y015510D01*
X038119Y015510D01*
X037210Y015593D02*
X037073Y015593D01*
X035469Y015911D02*
X035420Y015911D01*
X035412Y015593D02*
X035370Y015593D01*
X035370Y015274D02*
X035412Y015274D01*
X035370Y014956D02*
X035622Y014956D01*
X035214Y014705D02*
X035214Y014705D01*
X035146Y014637D02*
X036378Y014637D01*
X036059Y014319D02*
X034828Y014319D01*
X034741Y014000D02*
X034509Y014000D01*
X034422Y013682D02*
X034191Y013682D01*
X034065Y013556D02*
X034065Y013556D01*
X034090Y013363D02*
X033998Y013363D01*
X033526Y013363D02*
X033526Y013363D01*
X033526Y013384D02*
X033130Y013384D01*
X033080Y013374D01*
X033033Y013355D01*
X032990Y013326D01*
X032954Y013290D01*
X032925Y013247D01*
X032906Y013200D01*
X032896Y013150D01*
X032896Y012754D01*
X032896Y012358D01*
X032906Y012308D01*
X032925Y012261D01*
X032954Y012218D01*
X032990Y012182D01*
X033033Y012154D01*
X033080Y012134D01*
X033130Y012124D01*
X033526Y012124D01*
X033526Y012754D01*
X033526Y012754D01*
X033526Y012754D01*
X032896Y012754D01*
X033526Y012754D01*
X033526Y012754D01*
X033526Y013384D01*
X033053Y013363D02*
X026415Y013363D01*
X026604Y013045D02*
X032896Y013045D01*
X032896Y012726D02*
X026604Y012726D01*
X026604Y012408D02*
X032896Y012408D01*
X033526Y012408D02*
X033526Y012408D01*
X033526Y012726D02*
X033526Y012726D01*
X033526Y013045D02*
X033526Y013045D01*
X035915Y013363D02*
X037118Y013363D01*
X037096Y013682D02*
X036441Y013682D01*
X036759Y014000D02*
X036980Y014000D01*
X037078Y014319D02*
X037081Y014319D01*
X037760Y014000D02*
X037760Y014000D01*
X037760Y013682D02*
X037760Y013682D01*
X037760Y013363D02*
X037760Y013363D01*
X037760Y013045D02*
X037760Y013045D01*
X037760Y012726D02*
X037760Y012726D01*
X038456Y012726D02*
X038900Y012726D01*
X039035Y013045D02*
X038540Y013045D01*
X037064Y012726D02*
X036104Y012726D01*
X036104Y013045D02*
X036980Y013045D01*
X033378Y014637D02*
X022621Y014637D01*
X021649Y014637D02*
X021371Y014637D01*
X020399Y014637D02*
X020121Y014637D01*
X019149Y014637D02*
X018871Y014637D01*
X017775Y014319D02*
X015870Y014319D01*
X015870Y014000D02*
X017832Y014000D01*
X015150Y014000D02*
X006370Y014000D01*
X006370Y014319D02*
X015150Y014319D01*
X013158Y014956D02*
X008362Y014956D01*
X008573Y015274D02*
X012947Y015274D01*
X012947Y015593D02*
X008573Y015593D01*
X008516Y015911D02*
X013004Y015911D01*
X006969Y015911D02*
X006370Y015911D01*
X006370Y015593D02*
X006912Y015593D01*
X005650Y015593D02*
X005108Y015593D01*
X005051Y015911D02*
X005650Y015911D01*
X005650Y016230D02*
X004733Y016230D01*
X005650Y016548D02*
X001820Y016548D01*
X001820Y016230D02*
X003823Y016230D01*
X003504Y015911D02*
X001820Y015911D01*
X001820Y015593D02*
X003447Y015593D01*
X003447Y015274D02*
X001820Y015274D01*
X001820Y014956D02*
X003658Y014956D01*
X005026Y013045D02*
X005026Y013045D01*
X005026Y012726D02*
X005026Y012726D01*
X014526Y012408D02*
X014526Y012408D01*
X018984Y012408D02*
X019036Y012408D01*
X019046Y012089D02*
X018974Y012089D01*
X020224Y012089D02*
X020296Y012089D01*
X020286Y012408D02*
X020234Y012408D01*
X021484Y012408D02*
X021536Y012408D01*
X021546Y012089D02*
X021474Y012089D01*
X022724Y012089D02*
X024224Y012089D01*
X024093Y012022D02*
X024093Y012022D01*
X024026Y012408D02*
X024026Y012408D01*
X023396Y012408D02*
X022734Y012408D01*
X024026Y012726D02*
X024026Y012726D01*
X024026Y013045D02*
X024026Y013045D01*
X026272Y011677D02*
X026272Y011677D01*
X026561Y010815D02*
X038900Y010815D01*
X041440Y009223D02*
X041518Y009223D01*
X037252Y007949D02*
X036831Y007949D01*
X046277Y006650D02*
X046573Y006354D01*
X046573Y005701D01*
X046639Y005728D01*
X046881Y005728D01*
X047106Y005635D01*
X047260Y005481D01*
X047414Y005635D01*
X047639Y005728D01*
X047881Y005728D01*
X048106Y005635D01*
X048260Y005481D01*
X048414Y005635D01*
X048639Y005728D01*
X048881Y005728D01*
X049106Y005635D01*
X049251Y005490D01*
X049279Y005529D01*
X049350Y005599D01*
X049430Y005657D01*
X049518Y005702D01*
X049612Y005733D01*
X049710Y005748D01*
X049760Y005748D01*
X049760Y005118D01*
X049760Y005748D01*
X049810Y005748D01*
X049908Y005733D01*
X050002Y005702D01*
X050090Y005657D01*
X050170Y005599D01*
X050241Y005529D01*
X050269Y005490D01*
X050414Y005635D01*
X050639Y005728D01*
X050881Y005728D01*
X050947Y005701D01*
X050947Y006354D01*
X051243Y006650D01*
X046277Y006650D01*
X046571Y006356D02*
X050949Y006356D01*
X050947Y006038D02*
X046573Y006038D01*
X046573Y005719D02*
X046616Y005719D01*
X046904Y005719D02*
X047616Y005719D01*
X047904Y005719D02*
X048616Y005719D01*
X048904Y005719D02*
X049570Y005719D01*
X049760Y005719D02*
X049760Y005719D01*
X049950Y005719D02*
X050616Y005719D01*
X050904Y005719D02*
X050947Y005719D01*
X049760Y005401D02*
X049760Y005401D01*
X049760Y005118D02*
X049760Y005118D01*
X049760Y005082D02*
X049760Y005082D01*
X049760Y004764D02*
X049760Y004764D01*
X049120Y004445D02*
X053150Y004445D01*
X053150Y004127D02*
X049120Y004127D01*
X049120Y003808D02*
X051972Y003808D01*
X051990Y003826D02*
X051954Y003790D01*
X051925Y003747D01*
X051906Y003700D01*
X051896Y003650D01*
X051896Y003254D01*
X051896Y002858D01*
X051906Y002808D01*
X051925Y002761D01*
X051954Y002718D01*
X051990Y002682D01*
X052033Y002654D01*
X052080Y002634D01*
X052130Y002624D01*
X052526Y002624D01*
X052526Y003254D01*
X051896Y003254D01*
X052526Y003254D01*
X052526Y003254D01*
X052526Y003884D01*
X052130Y003884D01*
X052080Y003874D01*
X052033Y003855D01*
X051990Y003826D01*
X051896Y003490D02*
X049120Y003490D01*
X049113Y003171D02*
X051896Y003171D01*
X051897Y002853D02*
X048862Y002853D01*
X048543Y002534D02*
X073841Y002534D01*
X073891Y002216D02*
X048225Y002216D01*
X047906Y001897D02*
X074032Y001897D01*
X071026Y002624D02*
X070630Y002624D01*
X070580Y002634D01*
X070533Y002654D01*
X070490Y002682D01*
X070454Y002718D01*
X070425Y002761D01*
X070406Y002808D01*
X070396Y002858D01*
X070396Y003254D01*
X071026Y003254D01*
X071026Y002624D01*
X071026Y002853D02*
X071026Y002853D01*
X071026Y003171D02*
X071026Y003171D01*
X071026Y003254D02*
X071026Y003254D01*
X071026Y003884D01*
X070630Y003884D01*
X070580Y003874D01*
X070533Y003855D01*
X070490Y003826D01*
X070454Y003790D01*
X070425Y003747D01*
X070406Y003700D01*
X070396Y003650D01*
X070396Y003254D01*
X071026Y003254D01*
X071026Y003490D02*
X071026Y003490D01*
X071026Y003808D02*
X071026Y003808D01*
X070472Y003808D02*
X064520Y003808D01*
X064604Y003490D02*
X070396Y003490D01*
X070396Y003171D02*
X064604Y003171D01*
X064604Y002853D02*
X070397Y002853D01*
X073604Y002853D02*
X073859Y002853D01*
X073929Y003171D02*
X073604Y003171D01*
X073604Y003490D02*
X074091Y003490D01*
X074379Y003808D02*
X073520Y003808D01*
X072370Y004127D02*
X074953Y004127D01*
X075817Y004127D02*
X076200Y004127D01*
X076200Y004445D02*
X072370Y004445D01*
X071650Y004445D02*
X063370Y004445D01*
X063370Y004127D02*
X071650Y004127D01*
X071650Y004764D02*
X063370Y004764D01*
X063370Y005082D02*
X071650Y005082D01*
X072370Y005082D02*
X076200Y005082D01*
X076200Y004764D02*
X072370Y004764D01*
X072912Y005666D02*
X073398Y005179D01*
X074086Y005179D01*
X074573Y005666D01*
X074573Y006354D01*
X074086Y006841D01*
X073398Y006841D01*
X072912Y006354D01*
X072912Y005666D01*
X072912Y005719D02*
X072370Y005719D01*
X072370Y005401D02*
X073177Y005401D01*
X074307Y005401D02*
X076200Y005401D01*
X076200Y005719D02*
X074573Y005719D01*
X074573Y006038D02*
X076200Y006038D01*
X076200Y006356D02*
X074571Y006356D01*
X074252Y006675D02*
X076200Y006675D01*
X076200Y006993D02*
X072370Y006993D01*
X072370Y006675D02*
X073232Y006675D01*
X072914Y006356D02*
X072370Y006356D01*
X072370Y006038D02*
X072912Y006038D01*
X071650Y006038D02*
X071108Y006038D01*
X071108Y006354D02*
X070622Y006841D01*
X069934Y006841D01*
X069447Y006354D01*
X069447Y005666D01*
X069934Y005179D01*
X070622Y005179D01*
X071108Y005666D01*
X071108Y006354D01*
X071106Y006356D02*
X071650Y006356D01*
X071650Y006675D02*
X070788Y006675D01*
X071650Y006993D02*
X063370Y006993D01*
X063370Y006675D02*
X064232Y006675D01*
X064398Y006841D02*
X063912Y006354D01*
X063912Y005666D01*
X064398Y005179D01*
X065086Y005179D01*
X065573Y005666D01*
X065573Y006354D01*
X065086Y006841D01*
X064398Y006841D01*
X065252Y006675D02*
X069768Y006675D01*
X069449Y006356D02*
X065571Y006356D01*
X065573Y006038D02*
X069447Y006038D01*
X069447Y005719D02*
X065573Y005719D01*
X065307Y005401D02*
X069713Y005401D01*
X070843Y005401D02*
X071650Y005401D01*
X071650Y005719D02*
X071108Y005719D01*
X071650Y007312D02*
X063218Y007312D01*
X062518Y006993D02*
X053536Y006993D01*
X053832Y006675D02*
X054732Y006675D01*
X054898Y006841D02*
X054412Y006354D01*
X054412Y005666D01*
X054898Y005179D01*
X055586Y005179D01*
X056073Y005666D01*
X056073Y006354D01*
X055586Y006841D01*
X054898Y006841D01*
X055752Y006675D02*
X060768Y006675D01*
X060934Y006841D02*
X060447Y006354D01*
X060447Y005666D01*
X060934Y005179D01*
X061622Y005179D01*
X062108Y005666D01*
X062108Y006354D01*
X061622Y006841D01*
X060934Y006841D01*
X061788Y006675D02*
X062650Y006675D01*
X062650Y006356D02*
X062106Y006356D01*
X062108Y006038D02*
X062650Y006038D01*
X063370Y006038D02*
X063912Y006038D01*
X063914Y006356D02*
X063370Y006356D01*
X063370Y005719D02*
X063912Y005719D01*
X064177Y005401D02*
X063370Y005401D01*
X062650Y005401D02*
X061843Y005401D01*
X062108Y005719D02*
X062650Y005719D01*
X062650Y005082D02*
X053870Y005082D01*
X053870Y004764D02*
X062650Y004764D01*
X062650Y004445D02*
X053870Y004445D01*
X053870Y004127D02*
X062650Y004127D01*
X062026Y003884D02*
X061630Y003884D01*
X061580Y003874D01*
X061533Y003855D01*
X061490Y003826D01*
X061454Y003790D01*
X061425Y003747D01*
X061406Y003700D01*
X061396Y003650D01*
X061396Y003254D01*
X061396Y002858D01*
X061406Y002808D01*
X061425Y002761D01*
X061454Y002718D01*
X061490Y002682D01*
X061533Y002654D01*
X061580Y002634D01*
X061630Y002624D01*
X062026Y002624D01*
X062026Y003254D01*
X061396Y003254D01*
X062026Y003254D01*
X062026Y003254D01*
X062026Y003884D01*
X062026Y003808D02*
X062026Y003808D01*
X062026Y003490D02*
X062026Y003490D01*
X061396Y003490D02*
X055104Y003490D01*
X055020Y003808D02*
X061472Y003808D01*
X061396Y003171D02*
X055104Y003171D01*
X055104Y002853D02*
X061397Y002853D01*
X062026Y002853D02*
X062026Y002853D01*
X062026Y003171D02*
X062026Y003171D01*
X060713Y005401D02*
X055807Y005401D01*
X056073Y005719D02*
X060447Y005719D01*
X060447Y006038D02*
X056073Y006038D01*
X056071Y006356D02*
X060449Y006356D01*
X062899Y007630D02*
X071381Y007630D01*
X072081Y007949D02*
X076200Y007949D01*
X076200Y007630D02*
X072350Y007630D01*
X072370Y007312D02*
X076200Y007312D01*
X076200Y008267D02*
X071762Y008267D01*
X054677Y005401D02*
X053870Y005401D01*
X053870Y005719D02*
X054412Y005719D01*
X053150Y005719D02*
X052608Y005719D01*
X052343Y005401D02*
X053150Y005401D01*
X053150Y005082D02*
X051370Y005082D01*
X051268Y004764D02*
X053150Y004764D01*
X052526Y003808D02*
X052526Y003808D01*
X052526Y003490D02*
X052526Y003490D01*
X052526Y003171D02*
X052526Y003171D01*
X052526Y002853D02*
X052526Y002853D01*
X043026Y003254D02*
X043026Y003884D01*
X042630Y003884D01*
X042580Y003874D01*
X042533Y003855D01*
X042490Y003826D01*
X042454Y003790D01*
X042425Y003747D01*
X042406Y003700D01*
X042396Y003650D01*
X042396Y003254D01*
X043026Y003254D01*
X043026Y003254D01*
X043026Y003490D02*
X043026Y003490D01*
X043026Y003808D02*
X043026Y003808D01*
X042472Y003808D02*
X041471Y003808D01*
X041790Y003490D02*
X042396Y003490D01*
X042396Y003171D02*
X042108Y003171D01*
X041408Y002853D02*
X041385Y002853D01*
X041520Y002534D02*
X041727Y002534D01*
X037760Y002534D02*
X037760Y002534D01*
X037760Y002216D02*
X037760Y002216D01*
X037760Y002853D02*
X037760Y002853D01*
X037760Y003171D02*
X037760Y003171D01*
X037104Y003171D02*
X036104Y003171D01*
X036104Y002853D02*
X037107Y002853D01*
X036980Y003490D02*
X036104Y003490D01*
X036020Y003808D02*
X037074Y003808D01*
X037760Y003808D02*
X037760Y003808D01*
X037760Y003490D02*
X037760Y003490D01*
X041344Y004127D02*
X042134Y004127D01*
X041816Y004445D02*
X041520Y004445D01*
X041497Y004764D02*
X041456Y004764D01*
X040227Y005082D02*
X039620Y005082D01*
X039620Y004764D02*
X040064Y004764D01*
X038900Y004764D02*
X038474Y004764D01*
X038293Y005082D02*
X038900Y005082D01*
X033526Y003808D02*
X033526Y003808D01*
X033526Y003490D02*
X033526Y003490D01*
X033526Y003171D02*
X033526Y003171D01*
X033526Y002853D02*
X033526Y002853D01*
X052608Y006038D02*
X053150Y006038D01*
X053150Y006356D02*
X052606Y006356D01*
X053870Y006356D02*
X054414Y006356D01*
X054412Y006038D02*
X053870Y006038D01*
X053992Y009276D02*
X053992Y009276D01*
X054427Y009498D02*
X054427Y009498D01*
X053028Y009276D02*
X053028Y009276D01*
X052593Y009498D02*
X052593Y009498D01*
X033696Y014956D02*
X033398Y014956D01*
X033608Y015274D02*
X034015Y015274D01*
X034150Y015593D02*
X033608Y015593D01*
X033551Y015911D02*
X034150Y015911D01*
X032004Y015911D02*
X027516Y015911D01*
X027573Y015593D02*
X031947Y015593D01*
X031947Y015274D02*
X027573Y015274D01*
X027362Y014956D02*
X032158Y014956D01*
X037129Y016650D02*
X037308Y016472D01*
X037401Y016510D01*
X038119Y016510D01*
X037401Y016510D01*
X037217Y016586D01*
X037153Y016650D01*
X037129Y016650D01*
X037231Y016548D02*
X037309Y016548D01*
X037385Y017504D02*
X035513Y017504D01*
X030313Y018141D02*
X030207Y018141D01*
X029313Y018141D02*
X029207Y018141D01*
X028313Y018141D02*
X028207Y018141D01*
X027313Y018141D02*
X022207Y018141D01*
X022370Y018459D02*
X027150Y018459D01*
X027191Y018778D02*
X022329Y018778D01*
X022051Y019096D02*
X027469Y019096D01*
X028051Y019096D02*
X028469Y019096D01*
X029051Y019096D02*
X029469Y019096D01*
X030051Y019096D02*
X030469Y019096D01*
X021469Y019096D02*
X021051Y019096D01*
X020469Y019096D02*
X020051Y019096D01*
X019469Y019096D02*
X019051Y019096D01*
X019207Y018141D02*
X019313Y018141D01*
X020207Y018141D02*
X020313Y018141D01*
X021207Y018141D02*
X021313Y018141D01*
X024051Y015911D02*
X025969Y015911D01*
X025912Y015593D02*
X024108Y015593D01*
X024108Y015274D02*
X025912Y015274D01*
X026122Y014956D02*
X023898Y014956D01*
X001952Y017504D02*
X001820Y017504D01*
M02*
