%
M48
M72
T01C0.0276
T02C0.0320
T03C0.0354
T04C0.0394
T05C0.0400
T06C0.0472
T07C0.0787
T08C0.1102
%
T01
X42010Y9510
X43010Y9510
X43010Y19010
X42010Y19010
T02
X40760Y19010
X37760Y19010
X37760Y18010
X37760Y17010
X40760Y17010
X40760Y18010
X40760Y16010
X37760Y16010
X37760Y15010
X37760Y14010
X40760Y14010
X40760Y15010
X40760Y13010
X37760Y13010
X37760Y12010
X40760Y12010
X40760Y9510
X37760Y9510
X37760Y8510
X40760Y8510
X40760Y7510
X40760Y6510
X37760Y6510
X37760Y7510
X37760Y5510
X40760Y5510
X40760Y4510
X40760Y3510
X37760Y3510
X37760Y4510
X37760Y2510
X40760Y2510
T03
X35510Y2260
X33510Y2260
X31635Y8510
X30385Y8510
X29135Y8510
X27885Y8510
X27885Y10510
X29135Y10510
X30385Y10510
X31635Y10510
X22135Y12260
X20885Y12260
X19635Y12260
X18385Y12260
X18385Y14260
X19635Y14260
X20885Y14260
X22135Y14260
T04
X24026Y12754
X25010Y12754
X25994Y12754
X33526Y12754
X34510Y12754
X35494Y12754
X43026Y12754
X44010Y12754
X44994Y12754
X52526Y12754
X53510Y12754
X54494Y12754
X62026Y12754
X63010Y12754
X63994Y12754
X71026Y12754
X72010Y12754
X72994Y12754
X16494Y12754
X15510Y12754
X14526Y12754
X6994Y12754
X6010Y12754
X5026Y12754
T05
X18760Y18556
X19760Y18556
X20760Y18556
X21760Y18556
X27760Y18556
X28760Y18556
X29760Y18556
X30760Y18556
X46760Y18556
X47760Y18556
X48760Y18556
X49760Y18556
X50760Y18556
X50760Y5118
X49760Y5118
X48760Y5118
X47760Y5118
X46760Y5118
X30760Y5118
X29760Y5118
X28760Y5118
X27760Y5118
X21760Y5118
X20760Y5118
X19760Y5118
X18760Y5118
T06
X16494Y3549
X14526Y3549
X6994Y3549
X5026Y3549
X5026Y8471
X6994Y8471
X14526Y8471
X16494Y8471
X24026Y8471
X25994Y8471
X33526Y8471
X35494Y8471
X43026Y8471
X44994Y8471
X52526Y8471
X54494Y8471
X62026Y8471
X63994Y8471
X71026Y8471
X72994Y8471
X72994Y3549
X71026Y3549
X63994Y3549
X62026Y3549
X54494Y3549
X52526Y3549
X44994Y3549
X43026Y3549
X35494Y3549
X33526Y3549
X25994Y3549
X24026Y3549
T07
X23278Y15510
X26742Y15510
X32778Y15510
X36242Y15510
X42278Y15510
X45742Y15510
X51778Y15510
X55242Y15510
X61278Y15510
X64742Y15510
X70278Y15510
X73742Y15510
X17242Y15510
X13778Y15510
X7742Y15510
X4278Y15510
T08
X2635Y2635
X25010Y10760
X53510Y10760
X75385Y18885
X75385Y2635
X2635Y18885
M30
