G75*
G70*
%OFA0B0*%
%FSLAX24Y24*%
%IPPOS*%
%LPD*%
%AMOC8*
5,1,8,0,0,1.08239X$1,22.5*
%
%ADD10R,0.0820X0.0820*%
%ADD11OC8,0.1261*%
%ADD12C,0.0600*%
%ADD13C,0.1182*%
%ADD14C,0.0820*%
%ADD15C,0.0730*%
%ADD16C,0.0930*%
D10*
X005026Y012754D03*
X006010Y012754D03*
X006994Y012754D03*
X014526Y012754D03*
X015510Y012754D03*
X016494Y012754D03*
X024026Y012754D03*
X025010Y012754D03*
X025994Y012754D03*
X033526Y012754D03*
X034510Y012754D03*
X035494Y012754D03*
X043026Y012754D03*
X044010Y012754D03*
X044994Y012754D03*
X052526Y012754D03*
X053510Y012754D03*
X054494Y012754D03*
X062026Y012754D03*
X063010Y012754D03*
X063994Y012754D03*
X071026Y012754D03*
X072010Y012754D03*
X072994Y012754D03*
D11*
X073742Y015510D03*
X070278Y015510D03*
X064742Y015510D03*
X061278Y015510D03*
X055242Y015510D03*
X051778Y015510D03*
X045742Y015510D03*
X042278Y015510D03*
X036242Y015510D03*
X032778Y015510D03*
X026742Y015510D03*
X023278Y015510D03*
X017242Y015510D03*
X013778Y015510D03*
X007742Y015510D03*
X004278Y015510D03*
D12*
X037500Y015010D02*
X038020Y015010D01*
X040500Y015010D02*
X041020Y015010D01*
X041020Y014010D02*
X040500Y014010D01*
X038020Y014010D02*
X037500Y014010D01*
X037500Y013010D02*
X038020Y013010D01*
X040500Y013010D02*
X041020Y013010D01*
X041020Y012010D02*
X040500Y012010D01*
X038020Y012010D02*
X037500Y012010D01*
X037500Y009510D02*
X038020Y009510D01*
X040500Y009510D02*
X041020Y009510D01*
X041020Y008510D02*
X040500Y008510D01*
X038020Y008510D02*
X037500Y008510D01*
X037500Y007510D02*
X038020Y007510D01*
X040500Y007510D02*
X041020Y007510D01*
X041020Y006510D02*
X040500Y006510D01*
X038020Y006510D02*
X037500Y006510D01*
X037500Y005510D02*
X038020Y005510D01*
X040500Y005510D02*
X041020Y005510D01*
X041020Y004510D02*
X040500Y004510D01*
X038020Y004510D02*
X037500Y004510D01*
X037500Y003510D02*
X038020Y003510D01*
X040500Y003510D02*
X041020Y003510D01*
X041020Y002510D02*
X040500Y002510D01*
X038020Y002510D02*
X037500Y002510D01*
X037500Y016010D02*
X038020Y016010D01*
X040500Y016010D02*
X041020Y016010D01*
X041020Y017010D02*
X040500Y017010D01*
X038020Y017010D02*
X037500Y017010D01*
X037500Y018010D02*
X038020Y018010D01*
X040500Y018010D02*
X041020Y018010D01*
X041020Y019010D02*
X040500Y019010D01*
X038020Y019010D02*
X037500Y019010D01*
D13*
X002635Y002635D03*
X025010Y010760D03*
X053510Y010760D03*
X075385Y018885D03*
X075385Y002635D03*
X002635Y018885D03*
D14*
X018760Y018556D03*
X019760Y018556D03*
X020760Y018556D03*
X021760Y018556D03*
X027760Y018556D03*
X028760Y018556D03*
X029760Y018556D03*
X030760Y018556D03*
X022135Y014260D03*
X020885Y014260D03*
X019635Y014260D03*
X018385Y014260D03*
X018385Y012260D03*
X019635Y012260D03*
X020885Y012260D03*
X022135Y012260D03*
X027885Y010510D03*
X029135Y010510D03*
X030385Y010510D03*
X031635Y010510D03*
X031635Y008510D03*
X030385Y008510D03*
X029135Y008510D03*
X027885Y008510D03*
X027760Y005118D03*
X028760Y005118D03*
X029760Y005118D03*
X030760Y005118D03*
X021760Y005118D03*
X020760Y005118D03*
X019760Y005118D03*
X018760Y005118D03*
X033510Y002260D03*
X035510Y002260D03*
X046760Y005118D03*
X047760Y005118D03*
X048760Y005118D03*
X049760Y005118D03*
X050760Y005118D03*
X050760Y018556D03*
X049760Y018556D03*
X048760Y018556D03*
X047760Y018556D03*
X046760Y018556D03*
D15*
X043010Y019010D03*
X042010Y019010D03*
X042010Y009510D03*
X043010Y009510D03*
D16*
X043026Y008471D03*
X044994Y008471D03*
X052526Y008471D03*
X054494Y008471D03*
X062026Y008471D03*
X063994Y008471D03*
X071026Y008471D03*
X072994Y008471D03*
X072994Y003549D03*
X071026Y003549D03*
X063994Y003549D03*
X062026Y003549D03*
X054494Y003549D03*
X052526Y003549D03*
X044994Y003549D03*
X043026Y003549D03*
X035494Y003549D03*
X033526Y003549D03*
X025994Y003549D03*
X024026Y003549D03*
X016494Y003549D03*
X014526Y003549D03*
X006994Y003549D03*
X005026Y003549D03*
X005026Y008471D03*
X006994Y008471D03*
X014526Y008471D03*
X016494Y008471D03*
X024026Y008471D03*
X025994Y008471D03*
X033526Y008471D03*
X035494Y008471D03*
M02*
