G75*
G70*
%OFA0B0*%
%FSLAX24Y24*%
%IPPOS*%
%LPD*%
%AMOC8*
5,1,8,0,0,1.08239X$1,22.5*
%
%ADD10R,0.0740X0.0740*%
%ADD11OC8,0.1181*%
%ADD12C,0.0520*%
%ADD13C,0.0740*%
%ADD14C,0.0650*%
%ADD15C,0.0850*%
%ADD16C,0.0320*%
%ADD17C,0.0240*%
D10*
X005026Y012754D03*
X006010Y012754D03*
X006994Y012754D03*
X014526Y012754D03*
X015510Y012754D03*
X016494Y012754D03*
X024026Y012754D03*
X025010Y012754D03*
X025994Y012754D03*
X033526Y012754D03*
X034510Y012754D03*
X035494Y012754D03*
X043026Y012754D03*
X044010Y012754D03*
X044994Y012754D03*
X052526Y012754D03*
X053510Y012754D03*
X054494Y012754D03*
X062026Y012754D03*
X063010Y012754D03*
X063994Y012754D03*
X071026Y012754D03*
X072010Y012754D03*
X072994Y012754D03*
D11*
X073742Y015510D03*
X070278Y015510D03*
X064742Y015510D03*
X061278Y015510D03*
X055242Y015510D03*
X051778Y015510D03*
X045742Y015510D03*
X042278Y015510D03*
X036242Y015510D03*
X032778Y015510D03*
X026742Y015510D03*
X023278Y015510D03*
X017242Y015510D03*
X013778Y015510D03*
X007742Y015510D03*
X004278Y015510D03*
D12*
X037500Y015010D02*
X038020Y015010D01*
X040500Y015010D02*
X041020Y015010D01*
X041020Y014010D02*
X040500Y014010D01*
X038020Y014010D02*
X037500Y014010D01*
X037500Y013010D02*
X038020Y013010D01*
X040500Y013010D02*
X041020Y013010D01*
X041020Y012010D02*
X040500Y012010D01*
X038020Y012010D02*
X037500Y012010D01*
X037500Y009510D02*
X038020Y009510D01*
X040500Y009510D02*
X041020Y009510D01*
X041020Y008510D02*
X040500Y008510D01*
X038020Y008510D02*
X037500Y008510D01*
X037500Y007510D02*
X038020Y007510D01*
X040500Y007510D02*
X041020Y007510D01*
X041020Y006510D02*
X040500Y006510D01*
X038020Y006510D02*
X037500Y006510D01*
X037500Y005510D02*
X038020Y005510D01*
X040500Y005510D02*
X041020Y005510D01*
X041020Y004510D02*
X040500Y004510D01*
X038020Y004510D02*
X037500Y004510D01*
X037500Y003510D02*
X038020Y003510D01*
X040500Y003510D02*
X041020Y003510D01*
X041020Y002510D02*
X040500Y002510D01*
X038020Y002510D02*
X037500Y002510D01*
X037500Y016010D02*
X038020Y016010D01*
X040500Y016010D02*
X041020Y016010D01*
X041020Y017010D02*
X040500Y017010D01*
X038020Y017010D02*
X037500Y017010D01*
X037500Y018010D02*
X038020Y018010D01*
X040500Y018010D02*
X041020Y018010D01*
X041020Y019010D02*
X040500Y019010D01*
X038020Y019010D02*
X037500Y019010D01*
D13*
X030760Y018556D03*
X029760Y018556D03*
X028760Y018556D03*
X027760Y018556D03*
X021760Y018556D03*
X020760Y018556D03*
X019760Y018556D03*
X018760Y018556D03*
X018385Y014260D03*
X019635Y014260D03*
X020885Y014260D03*
X022135Y014260D03*
X022135Y012260D03*
X020885Y012260D03*
X019635Y012260D03*
X018385Y012260D03*
X027885Y010510D03*
X029135Y010510D03*
X030385Y010510D03*
X031635Y010510D03*
X031635Y008510D03*
X030385Y008510D03*
X029135Y008510D03*
X027885Y008510D03*
X027760Y005118D03*
X028760Y005118D03*
X029760Y005118D03*
X030760Y005118D03*
X021760Y005118D03*
X020760Y005118D03*
X019760Y005118D03*
X018760Y005118D03*
X033510Y002260D03*
X035510Y002260D03*
X046760Y005118D03*
X047760Y005118D03*
X048760Y005118D03*
X049760Y005118D03*
X050760Y005118D03*
X050760Y018556D03*
X049760Y018556D03*
X048760Y018556D03*
X047760Y018556D03*
X046760Y018556D03*
D14*
X043010Y019010D03*
X042010Y019010D03*
X042010Y009510D03*
X043010Y009510D03*
D15*
X043026Y008471D03*
X044994Y008471D03*
X052526Y008471D03*
X054494Y008471D03*
X062026Y008471D03*
X063994Y008471D03*
X071026Y008471D03*
X072994Y008471D03*
X072994Y003549D03*
X071026Y003549D03*
X063994Y003549D03*
X062026Y003549D03*
X054494Y003549D03*
X052526Y003549D03*
X044994Y003549D03*
X043026Y003549D03*
X035494Y003549D03*
X033526Y003549D03*
X025994Y003549D03*
X024026Y003549D03*
X016494Y003549D03*
X014526Y003549D03*
X006994Y003549D03*
X005026Y003549D03*
X005026Y008471D03*
X006994Y008471D03*
X014526Y008471D03*
X016494Y008471D03*
X024026Y008471D03*
X025994Y008471D03*
X033526Y008471D03*
X035494Y008471D03*
D16*
X004119Y002153D02*
X003949Y001820D01*
X033087Y001820D01*
X032993Y001914D01*
X032900Y002139D01*
X032900Y002381D01*
X032993Y002606D01*
X033164Y002777D01*
X033389Y002870D01*
X033438Y002870D01*
X033392Y002876D01*
X033305Y002899D01*
X033222Y002934D01*
X033144Y002979D01*
X033073Y003033D01*
X033010Y003097D01*
X032955Y003168D01*
X032910Y003246D01*
X032876Y003329D01*
X032852Y003415D01*
X032841Y003504D01*
X032841Y003549D01*
X033526Y003549D01*
X033526Y003549D01*
X034211Y003549D01*
X034211Y003504D01*
X034199Y003415D01*
X034176Y003329D01*
X034141Y003246D01*
X034097Y003168D01*
X034042Y003097D01*
X033978Y003033D01*
X033907Y002979D01*
X033829Y002934D01*
X033746Y002899D01*
X033660Y002876D01*
X033613Y002870D01*
X033631Y002870D01*
X033856Y002777D01*
X034027Y002606D01*
X034120Y002381D01*
X034120Y002139D01*
X034027Y001914D01*
X033933Y001820D01*
X035087Y001820D01*
X034993Y001914D01*
X034900Y002139D01*
X034900Y002381D01*
X034993Y002606D01*
X035164Y002777D01*
X035389Y002870D01*
X035611Y002870D01*
X035625Y002884D01*
X035362Y002884D01*
X035118Y002986D01*
X034930Y003173D01*
X034829Y003417D01*
X034829Y003682D01*
X034930Y003926D01*
X035118Y004113D01*
X035362Y004214D01*
X035627Y004214D01*
X035871Y004113D01*
X036058Y003926D01*
X036150Y003704D01*
X036150Y007332D01*
X036205Y007464D01*
X036306Y007565D01*
X036556Y007815D01*
X036688Y007870D01*
X037153Y007870D01*
X037217Y007934D01*
X037401Y008010D01*
X038119Y008010D01*
X038303Y008086D01*
X038444Y008227D01*
X038520Y008411D01*
X038520Y008609D01*
X038444Y008793D01*
X038303Y008934D01*
X038119Y009010D01*
X038303Y009086D01*
X038444Y009227D01*
X038520Y009411D01*
X038520Y009609D01*
X038444Y009793D01*
X038303Y009934D01*
X038119Y010010D01*
X037401Y010010D01*
X037217Y009934D01*
X037076Y009793D01*
X037000Y009609D01*
X037000Y009411D01*
X037076Y009227D01*
X037217Y009086D01*
X037401Y009010D01*
X038119Y009010D01*
X037401Y009010D01*
X037217Y008934D01*
X037076Y008793D01*
X037000Y008609D01*
X037000Y008411D01*
X037076Y008227D01*
X037217Y008086D01*
X037401Y008010D01*
X038119Y008010D01*
X038303Y007934D01*
X038444Y007793D01*
X038520Y007609D01*
X038520Y007411D01*
X038444Y007227D01*
X038303Y007086D01*
X038119Y007010D01*
X038303Y006934D01*
X038444Y006793D01*
X038520Y006609D01*
X038520Y006411D01*
X038444Y006227D01*
X038303Y006086D01*
X038119Y006010D01*
X037401Y006010D01*
X037217Y006086D01*
X037076Y006227D01*
X037000Y006411D01*
X037000Y006609D01*
X037076Y006793D01*
X037217Y006934D01*
X037401Y007010D01*
X038119Y007010D01*
X037401Y007010D01*
X037217Y007086D01*
X037153Y007150D01*
X036909Y007150D01*
X036870Y007111D01*
X036870Y003188D01*
X036815Y003056D01*
X036120Y002361D01*
X036120Y002139D01*
X036027Y001914D01*
X035933Y001820D01*
X074071Y001820D01*
X073901Y002153D01*
X073901Y002153D01*
X073825Y002635D01*
X073825Y002635D01*
X073901Y003117D01*
X073901Y003117D01*
X074123Y003552D01*
X074123Y003552D01*
X074468Y003897D01*
X074468Y003897D01*
X074903Y004119D01*
X074903Y004119D01*
X075385Y004195D01*
X075385Y004195D01*
X075867Y004119D01*
X075867Y004119D01*
X076200Y003949D01*
X076200Y017571D01*
X075867Y017401D01*
X075867Y017401D01*
X075385Y017325D01*
X075385Y017325D01*
X074903Y017401D01*
X074903Y017401D01*
X074468Y017623D01*
X074468Y017623D01*
X074123Y017968D01*
X074123Y017968D01*
X073901Y018403D01*
X073901Y018403D01*
X073825Y018885D01*
X073825Y018885D01*
X073901Y019367D01*
X073901Y019367D01*
X074071Y019700D01*
X003949Y019700D01*
X004119Y019367D01*
X004119Y019367D01*
X004195Y018885D01*
X004119Y018403D01*
X004119Y018403D01*
X003897Y017968D01*
X003897Y017968D01*
X003552Y017623D01*
X003552Y017623D01*
X003117Y017401D01*
X003117Y017401D01*
X002635Y017325D01*
X002635Y017325D01*
X002153Y017401D01*
X002153Y017401D01*
X001820Y017571D01*
X001820Y003949D01*
X002153Y004119D01*
X002153Y004119D01*
X002635Y004195D01*
X002635Y004195D01*
X003117Y004119D01*
X003117Y004119D01*
X003552Y003897D01*
X003552Y003897D01*
X003897Y003552D01*
X003897Y003552D01*
X004119Y003117D01*
X004119Y003117D01*
X004195Y002635D01*
X004119Y002153D01*
X004119Y002153D01*
X004129Y002216D02*
X032900Y002216D01*
X032963Y002534D02*
X004179Y002534D01*
X004161Y002853D02*
X033346Y002853D01*
X033674Y002853D02*
X035346Y002853D01*
X034932Y003171D02*
X034098Y003171D01*
X032953Y003171D02*
X026556Y003171D01*
X026558Y003173D02*
X026659Y003417D01*
X026659Y003682D01*
X026558Y003926D01*
X026371Y004113D01*
X026127Y004214D01*
X025862Y004214D01*
X025618Y004113D01*
X025430Y003926D01*
X025329Y003682D01*
X025329Y003417D01*
X025430Y003173D01*
X025618Y002986D01*
X025862Y002884D01*
X026127Y002884D01*
X026371Y002986D01*
X026558Y003173D01*
X026659Y003490D02*
X032843Y003490D01*
X032841Y003549D02*
X033526Y003549D01*
X034211Y003549D01*
X034211Y003594D01*
X034199Y003683D01*
X034176Y003770D01*
X034141Y003853D01*
X034097Y003931D01*
X034042Y004002D01*
X033978Y004065D01*
X033907Y004120D01*
X033829Y004165D01*
X033746Y004199D01*
X033660Y004223D01*
X033571Y004234D01*
X033526Y004234D01*
X033526Y003549D01*
X033526Y003549D01*
X033526Y003549D01*
X033526Y004234D01*
X033481Y004234D01*
X033392Y004223D01*
X033305Y004199D01*
X033222Y004165D01*
X033144Y004120D01*
X033073Y004065D01*
X033010Y004002D01*
X032955Y003931D01*
X032910Y003853D01*
X032876Y003770D01*
X032852Y003683D01*
X032841Y003594D01*
X032841Y003549D01*
X032891Y003808D02*
X026607Y003808D01*
X026339Y004127D02*
X033155Y004127D01*
X033526Y004127D02*
X033526Y004127D01*
X033896Y004127D02*
X035150Y004127D01*
X035839Y004127D02*
X036150Y004127D01*
X036150Y004445D02*
X001820Y004445D01*
X001820Y004127D02*
X002203Y004127D01*
X003067Y004127D02*
X004655Y004127D01*
X004644Y004120D02*
X004573Y004065D01*
X004510Y004002D01*
X004455Y003931D01*
X004410Y003853D01*
X004376Y003770D01*
X004352Y003683D01*
X004341Y003594D01*
X004341Y003549D01*
X004341Y003504D01*
X004352Y003415D01*
X004376Y003329D01*
X004410Y003246D01*
X004455Y003168D01*
X004510Y003097D01*
X004573Y003033D01*
X004644Y002979D01*
X004722Y002934D01*
X004805Y002899D01*
X004892Y002876D01*
X004981Y002864D01*
X005026Y002864D01*
X005071Y002864D01*
X005160Y002876D01*
X005246Y002899D01*
X005329Y002934D01*
X005407Y002979D01*
X005478Y003033D01*
X005542Y003097D01*
X005597Y003168D01*
X005641Y003246D01*
X005676Y003329D01*
X005699Y003415D01*
X005711Y003504D01*
X005711Y003549D01*
X005026Y003549D01*
X005026Y002864D01*
X005026Y003549D01*
X005026Y003549D01*
X005026Y003549D01*
X005711Y003549D01*
X005711Y003594D01*
X005699Y003683D01*
X005676Y003770D01*
X005641Y003853D01*
X005597Y003931D01*
X005542Y004002D01*
X005478Y004065D01*
X005407Y004120D01*
X005329Y004165D01*
X005246Y004199D01*
X005160Y004223D01*
X005071Y004234D01*
X005026Y004234D01*
X005026Y003549D01*
X004341Y003549D01*
X005026Y003549D01*
X005026Y003549D01*
X005026Y003549D01*
X005026Y004234D01*
X004981Y004234D01*
X004892Y004223D01*
X004805Y004199D01*
X004722Y004165D01*
X004644Y004120D01*
X005026Y004127D02*
X005026Y004127D01*
X005396Y004127D02*
X006650Y004127D01*
X006618Y004113D02*
X006430Y003926D01*
X006329Y003682D01*
X006329Y003417D01*
X006430Y003173D01*
X006618Y002986D01*
X006862Y002884D01*
X007127Y002884D01*
X007371Y002986D01*
X007558Y003173D01*
X007659Y003417D01*
X007659Y003682D01*
X007558Y003926D01*
X007371Y004113D01*
X007127Y004214D01*
X006862Y004214D01*
X006618Y004113D01*
X007339Y004127D02*
X014155Y004127D01*
X014144Y004120D02*
X014073Y004065D01*
X014010Y004002D01*
X013955Y003931D01*
X013910Y003853D01*
X013876Y003770D01*
X013852Y003683D01*
X013841Y003594D01*
X013841Y003549D01*
X013841Y003504D01*
X013852Y003415D01*
X013876Y003329D01*
X013910Y003246D01*
X013955Y003168D01*
X014010Y003097D01*
X014073Y003033D01*
X014144Y002979D01*
X014222Y002934D01*
X014305Y002899D01*
X014392Y002876D01*
X014481Y002864D01*
X014526Y002864D01*
X014571Y002864D01*
X014660Y002876D01*
X014746Y002899D01*
X014829Y002934D01*
X014907Y002979D01*
X014978Y003033D01*
X015042Y003097D01*
X015097Y003168D01*
X015141Y003246D01*
X015176Y003329D01*
X015199Y003415D01*
X015211Y003504D01*
X015211Y003549D01*
X014526Y003549D01*
X014526Y002864D01*
X014526Y003549D01*
X014526Y003549D01*
X014526Y003549D01*
X015211Y003549D01*
X015211Y003594D01*
X015199Y003683D01*
X015176Y003770D01*
X015141Y003853D01*
X015097Y003931D01*
X015042Y004002D01*
X014978Y004065D01*
X014907Y004120D01*
X014829Y004165D01*
X014746Y004199D01*
X014660Y004223D01*
X014571Y004234D01*
X014526Y004234D01*
X014526Y003549D01*
X013841Y003549D01*
X014526Y003549D01*
X014526Y003549D01*
X014526Y003549D01*
X014526Y004234D01*
X014481Y004234D01*
X014392Y004223D01*
X014305Y004199D01*
X014222Y004165D01*
X014144Y004120D01*
X014526Y004127D02*
X014526Y004127D01*
X014896Y004127D02*
X016150Y004127D01*
X016118Y004113D02*
X015930Y003926D01*
X015829Y003682D01*
X015829Y003417D01*
X015930Y003173D01*
X016118Y002986D01*
X016362Y002884D01*
X016627Y002884D01*
X016871Y002986D01*
X017058Y003173D01*
X017159Y003417D01*
X017159Y003682D01*
X017058Y003926D01*
X016871Y004113D01*
X016627Y004214D01*
X016362Y004214D01*
X016118Y004113D01*
X016839Y004127D02*
X023655Y004127D01*
X023644Y004120D02*
X023573Y004065D01*
X023510Y004002D01*
X023455Y003931D01*
X023410Y003853D01*
X023376Y003770D01*
X023352Y003683D01*
X023341Y003594D01*
X023341Y003549D01*
X023341Y003504D01*
X023352Y003415D01*
X023376Y003329D01*
X023410Y003246D01*
X023455Y003168D01*
X023510Y003097D01*
X023573Y003033D01*
X023644Y002979D01*
X023722Y002934D01*
X023805Y002899D01*
X023892Y002876D01*
X023981Y002864D01*
X024026Y002864D01*
X024071Y002864D01*
X024160Y002876D01*
X024246Y002899D01*
X024329Y002934D01*
X024407Y002979D01*
X024478Y003033D01*
X024542Y003097D01*
X024597Y003168D01*
X024641Y003246D01*
X024676Y003329D01*
X024699Y003415D01*
X024711Y003504D01*
X024711Y003549D01*
X024026Y003549D01*
X024026Y002864D01*
X024026Y003549D01*
X024026Y003549D01*
X024026Y003549D01*
X024711Y003549D01*
X024711Y003594D01*
X024699Y003683D01*
X024676Y003770D01*
X024641Y003853D01*
X024597Y003931D01*
X024542Y004002D01*
X024478Y004065D01*
X024407Y004120D01*
X024329Y004165D01*
X024246Y004199D01*
X024160Y004223D01*
X024071Y004234D01*
X024026Y004234D01*
X024026Y003549D01*
X023341Y003549D01*
X024026Y003549D01*
X024026Y003549D01*
X024026Y003549D01*
X024026Y004234D01*
X023981Y004234D01*
X023892Y004223D01*
X023805Y004199D01*
X023722Y004165D01*
X023644Y004120D01*
X024026Y004127D02*
X024026Y004127D01*
X024396Y004127D02*
X025650Y004127D01*
X025382Y003808D02*
X024660Y003808D01*
X024709Y003490D02*
X025329Y003490D01*
X025432Y003171D02*
X024598Y003171D01*
X024026Y003171D02*
X024026Y003171D01*
X023453Y003171D02*
X017056Y003171D01*
X015932Y003171D02*
X015098Y003171D01*
X014526Y003171D02*
X014526Y003171D01*
X013953Y003171D02*
X007556Y003171D01*
X006432Y003171D02*
X005598Y003171D01*
X005026Y003171D02*
X005026Y003171D01*
X004453Y003171D02*
X004091Y003171D01*
X003929Y003490D02*
X004343Y003490D01*
X004391Y003808D02*
X003641Y003808D01*
X005026Y003808D02*
X005026Y003808D01*
X005026Y003490D02*
X005026Y003490D01*
X005709Y003490D02*
X006329Y003490D01*
X006382Y003808D02*
X005660Y003808D01*
X007607Y003808D02*
X013891Y003808D01*
X013843Y003490D02*
X007659Y003490D01*
X001820Y004764D02*
X018252Y004764D01*
X018243Y004773D02*
X018414Y004601D01*
X018639Y004508D01*
X018881Y004508D01*
X019106Y004601D01*
X019260Y004756D01*
X019414Y004601D01*
X019639Y004508D01*
X019881Y004508D01*
X020106Y004601D01*
X020260Y004756D01*
X020414Y004601D01*
X020639Y004508D01*
X020881Y004508D01*
X021106Y004601D01*
X021260Y004756D01*
X021414Y004601D01*
X021639Y004508D01*
X021881Y004508D01*
X022106Y004601D01*
X022277Y004773D01*
X022370Y004997D01*
X022370Y005240D01*
X022277Y005464D01*
X022120Y005621D01*
X022120Y011650D01*
X022256Y011650D01*
X022481Y011743D01*
X022652Y011914D01*
X022745Y012139D01*
X022745Y012361D01*
X023065Y012681D01*
X023120Y012813D01*
X023120Y014679D01*
X023622Y014679D01*
X024108Y015166D01*
X024108Y015854D01*
X023622Y016341D01*
X022934Y016341D01*
X022447Y015854D01*
X022447Y015457D01*
X022120Y015784D01*
X022120Y018054D01*
X022277Y018211D01*
X022370Y018435D01*
X022370Y018678D01*
X022277Y018902D01*
X022106Y019073D01*
X021881Y019166D01*
X021639Y019166D01*
X021414Y019073D01*
X021260Y018919D01*
X021106Y019073D01*
X020881Y019166D01*
X020639Y019166D01*
X020414Y019073D01*
X020260Y018919D01*
X020106Y019073D01*
X019881Y019166D01*
X019639Y019166D01*
X019414Y019073D01*
X019260Y018919D01*
X019106Y019073D01*
X018881Y019166D01*
X018639Y019166D01*
X018414Y019073D01*
X018243Y018902D01*
X018150Y018678D01*
X018150Y018435D01*
X018243Y018211D01*
X018400Y018054D01*
X018400Y014870D01*
X018264Y014870D01*
X018039Y014777D01*
X017868Y014606D01*
X017775Y014381D01*
X017775Y014139D01*
X017868Y013914D01*
X018039Y013743D01*
X018264Y013650D01*
X018506Y013650D01*
X018650Y013710D01*
X018650Y013034D01*
X018486Y012870D01*
X018264Y012870D01*
X018039Y012777D01*
X017868Y012606D01*
X017775Y012381D01*
X017775Y012139D01*
X017868Y011914D01*
X018039Y011743D01*
X018264Y011650D01*
X018361Y011650D01*
X018400Y011611D01*
X018400Y005621D01*
X018243Y005464D01*
X018150Y005240D01*
X018150Y004997D01*
X018243Y004773D01*
X018150Y005082D02*
X001820Y005082D01*
X001820Y005401D02*
X018217Y005401D01*
X018400Y005719D02*
X001820Y005719D01*
X001820Y006038D02*
X018400Y006038D01*
X018400Y006356D02*
X001820Y006356D01*
X001820Y006675D02*
X018400Y006675D01*
X018400Y006993D02*
X001820Y006993D01*
X001820Y007312D02*
X018400Y007312D01*
X018400Y007630D02*
X001820Y007630D01*
X001820Y007949D02*
X004607Y007949D01*
X004649Y007907D02*
X004893Y007806D01*
X005158Y007806D01*
X005402Y007907D01*
X005590Y008094D01*
X005691Y008338D01*
X005691Y008603D01*
X005590Y008847D01*
X005402Y009034D01*
X005158Y009136D01*
X004893Y009136D01*
X004649Y009034D01*
X004462Y008847D01*
X004361Y008603D01*
X004361Y008338D01*
X004462Y008094D01*
X004649Y007907D01*
X005444Y007949D02*
X006576Y007949D01*
X006618Y007907D02*
X006862Y007806D01*
X007127Y007806D01*
X007371Y007907D01*
X007558Y008094D01*
X007659Y008338D01*
X007659Y008603D01*
X007558Y008847D01*
X007371Y009034D01*
X007127Y009136D01*
X006862Y009136D01*
X006618Y009034D01*
X006430Y008847D01*
X006329Y008603D01*
X006329Y008338D01*
X006430Y008094D01*
X006618Y007907D01*
X007413Y007949D02*
X014107Y007949D01*
X014149Y007907D02*
X014393Y007806D01*
X014658Y007806D01*
X014902Y007907D01*
X015090Y008094D01*
X015191Y008338D01*
X015191Y008603D01*
X015090Y008847D01*
X014902Y009034D01*
X014658Y009136D01*
X014393Y009136D01*
X014149Y009034D01*
X013962Y008847D01*
X013861Y008603D01*
X013861Y008338D01*
X013962Y008094D01*
X014149Y007907D01*
X014944Y007949D02*
X016076Y007949D01*
X016118Y007907D02*
X016362Y007806D01*
X016627Y007806D01*
X016871Y007907D01*
X017058Y008094D01*
X017159Y008338D01*
X017159Y008603D01*
X017058Y008847D01*
X016871Y009034D01*
X016627Y009136D01*
X016362Y009136D01*
X016118Y009034D01*
X015930Y008847D01*
X015829Y008603D01*
X015829Y008338D01*
X015930Y008094D01*
X016118Y007907D01*
X016913Y007949D02*
X018400Y007949D01*
X018400Y008267D02*
X017130Y008267D01*
X017159Y008586D02*
X018400Y008586D01*
X018400Y008904D02*
X017001Y008904D01*
X015987Y008904D02*
X015033Y008904D01*
X015191Y008586D02*
X015829Y008586D01*
X015859Y008267D02*
X015161Y008267D01*
X013890Y008267D02*
X007630Y008267D01*
X007659Y008586D02*
X013861Y008586D01*
X014019Y008904D02*
X007501Y008904D01*
X006487Y008904D02*
X005533Y008904D01*
X005691Y008586D02*
X006329Y008586D01*
X006359Y008267D02*
X005661Y008267D01*
X004390Y008267D02*
X001820Y008267D01*
X001820Y008586D02*
X004361Y008586D01*
X004519Y008904D02*
X001820Y008904D01*
X001820Y009223D02*
X018400Y009223D01*
X018400Y009541D02*
X001820Y009541D01*
X001820Y009860D02*
X018400Y009860D01*
X018400Y010178D02*
X001820Y010178D01*
X001820Y010497D02*
X018400Y010497D01*
X018400Y010815D02*
X001820Y010815D01*
X001820Y011134D02*
X018400Y011134D01*
X018400Y011452D02*
X001820Y011452D01*
X001820Y011771D02*
X018012Y011771D01*
X017796Y012089D02*
X001820Y012089D01*
X001820Y012408D02*
X004416Y012408D01*
X004416Y012336D02*
X004452Y012248D01*
X004520Y012181D01*
X004608Y012144D01*
X005443Y012144D01*
X005518Y012175D01*
X005592Y012144D01*
X006428Y012144D01*
X006482Y012167D01*
X006501Y012154D01*
X006548Y012134D01*
X006599Y012124D01*
X006994Y012124D01*
X006994Y012754D01*
X006994Y012754D01*
X006994Y013384D01*
X006599Y013384D01*
X006548Y013374D01*
X006501Y013355D01*
X006482Y013342D01*
X006428Y013364D01*
X005592Y013364D01*
X005518Y013333D01*
X005443Y013364D01*
X004608Y013364D01*
X004520Y013328D01*
X004452Y013260D01*
X004416Y013172D01*
X004416Y012336D01*
X004416Y012726D02*
X001820Y012726D01*
X001820Y013045D02*
X004416Y013045D01*
X004605Y013363D02*
X001820Y013363D01*
X001820Y013682D02*
X018188Y013682D01*
X018582Y013682D02*
X018650Y013682D01*
X018650Y013363D02*
X016967Y013363D01*
X016987Y013355D02*
X016940Y013374D01*
X016890Y013384D01*
X016494Y013384D01*
X016099Y013384D01*
X016048Y013374D01*
X016001Y013355D01*
X015982Y013342D01*
X015928Y013364D01*
X015092Y013364D01*
X015018Y013333D01*
X014943Y013364D01*
X014108Y013364D01*
X014020Y013328D01*
X013952Y013260D01*
X013916Y013172D01*
X013916Y012336D01*
X013952Y012248D01*
X014020Y012181D01*
X014108Y012144D01*
X014943Y012144D01*
X015018Y012175D01*
X015092Y012144D01*
X015928Y012144D01*
X015982Y012167D01*
X016001Y012154D01*
X016048Y012134D01*
X016099Y012124D01*
X016494Y012124D01*
X016494Y012754D01*
X016494Y012754D01*
X016494Y013384D01*
X016494Y012754D01*
X016494Y012754D01*
X016494Y012124D01*
X016890Y012124D01*
X016940Y012134D01*
X016987Y012154D01*
X017030Y012182D01*
X017066Y012218D01*
X017095Y012261D01*
X017114Y012308D01*
X017124Y012358D01*
X017124Y012754D01*
X016494Y012754D01*
X016494Y012754D01*
X017124Y012754D01*
X017124Y013150D01*
X017114Y013200D01*
X017095Y013247D01*
X017066Y013290D01*
X017030Y013326D01*
X016987Y013355D01*
X016494Y013363D02*
X016494Y013363D01*
X016022Y013363D02*
X015930Y013363D01*
X015090Y013363D02*
X014946Y013363D01*
X014105Y013363D02*
X007467Y013363D01*
X007487Y013355D02*
X007440Y013374D01*
X007390Y013384D01*
X006994Y013384D01*
X006994Y012754D01*
X006994Y012754D01*
X006994Y012124D01*
X007390Y012124D01*
X007440Y012134D01*
X007487Y012154D01*
X007530Y012182D01*
X007566Y012218D01*
X007595Y012261D01*
X007614Y012308D01*
X007624Y012358D01*
X007624Y012754D01*
X006994Y012754D01*
X006994Y012754D01*
X007624Y012754D01*
X007624Y013150D01*
X007614Y013200D01*
X007595Y013247D01*
X007566Y013290D01*
X007530Y013326D01*
X007487Y013355D01*
X006994Y013363D02*
X006994Y013363D01*
X006522Y013363D02*
X006430Y013363D01*
X005590Y013363D02*
X005446Y013363D01*
X006994Y013045D02*
X006994Y013045D01*
X006994Y012726D02*
X006994Y012726D01*
X007624Y012726D02*
X013916Y012726D01*
X013916Y013045D02*
X007624Y013045D01*
X007624Y012408D02*
X013916Y012408D01*
X016494Y012408D02*
X016494Y012408D01*
X017124Y012408D02*
X017786Y012408D01*
X017988Y012726D02*
X017124Y012726D01*
X017124Y013045D02*
X018650Y013045D01*
X016494Y013045D02*
X016494Y013045D01*
X016494Y012726D02*
X016494Y012726D01*
X017832Y014000D02*
X001820Y014000D01*
X001820Y014319D02*
X017775Y014319D01*
X017899Y014637D02*
X001820Y014637D01*
X001820Y014956D02*
X003658Y014956D01*
X003447Y015166D02*
X003934Y014679D01*
X004622Y014679D01*
X005108Y015166D01*
X005108Y015854D01*
X004622Y016341D01*
X003934Y016341D01*
X003447Y015854D01*
X003447Y015166D01*
X003447Y015274D02*
X001820Y015274D01*
X001820Y015593D02*
X003447Y015593D01*
X003504Y015911D02*
X001820Y015911D01*
X001820Y016230D02*
X003823Y016230D01*
X004733Y016230D02*
X007287Y016230D01*
X007398Y016341D02*
X006912Y015854D01*
X006912Y015166D01*
X007398Y014679D01*
X008086Y014679D01*
X008573Y015166D01*
X008573Y015854D01*
X008086Y016341D01*
X007398Y016341D01*
X008197Y016230D02*
X013323Y016230D01*
X013434Y016341D02*
X012947Y015854D01*
X012947Y015166D01*
X013434Y014679D01*
X014122Y014679D01*
X014608Y015166D01*
X014608Y015854D01*
X014122Y016341D01*
X013434Y016341D01*
X014233Y016230D02*
X016787Y016230D01*
X016898Y016341D02*
X016412Y015854D01*
X016412Y015166D01*
X016898Y014679D01*
X017586Y014679D01*
X018073Y015166D01*
X018073Y015854D01*
X017586Y016341D01*
X016898Y016341D01*
X017697Y016230D02*
X018400Y016230D01*
X018400Y016548D02*
X001820Y016548D01*
X001820Y016867D02*
X018400Y016867D01*
X018400Y017185D02*
X001820Y017185D01*
X001820Y017504D02*
X001952Y017504D01*
X003318Y017504D02*
X018400Y017504D01*
X018400Y017822D02*
X003751Y017822D01*
X003985Y018141D02*
X018313Y018141D01*
X018150Y018459D02*
X004128Y018459D01*
X004178Y018778D02*
X018191Y018778D01*
X018469Y019096D02*
X004162Y019096D01*
X004094Y019415D02*
X037197Y019415D01*
X037217Y019434D02*
X037076Y019293D01*
X037000Y019109D01*
X037000Y018911D01*
X037076Y018727D01*
X037217Y018586D01*
X037401Y018510D01*
X037217Y018434D01*
X037076Y018293D01*
X037000Y018109D01*
X037000Y017911D01*
X037076Y017727D01*
X037217Y017586D01*
X037401Y017510D01*
X037217Y017434D01*
X037076Y017293D01*
X037000Y017109D01*
X037000Y016911D01*
X037076Y016727D01*
X037217Y016586D01*
X037401Y016510D01*
X038119Y016510D01*
X038303Y016586D01*
X038444Y016727D01*
X038520Y016911D01*
X038520Y017109D01*
X038444Y017293D01*
X038303Y017434D01*
X038119Y017510D01*
X037401Y017510D01*
X038119Y017510D01*
X038303Y017586D01*
X038444Y017727D01*
X038520Y017911D01*
X038520Y018109D01*
X038444Y018293D01*
X038303Y018434D01*
X038119Y018510D01*
X037401Y018510D01*
X038119Y018510D01*
X038303Y018586D01*
X038444Y018727D01*
X038520Y018911D01*
X038520Y019109D01*
X038444Y019293D01*
X038303Y019434D01*
X038119Y019510D01*
X037401Y019510D01*
X037217Y019434D01*
X037000Y019096D02*
X031051Y019096D01*
X031106Y019073D02*
X030881Y019166D01*
X030639Y019166D01*
X030414Y019073D01*
X030260Y018919D01*
X030106Y019073D01*
X029881Y019166D01*
X029639Y019166D01*
X029414Y019073D01*
X029260Y018919D01*
X029106Y019073D01*
X028881Y019166D01*
X028639Y019166D01*
X028414Y019073D01*
X028260Y018919D01*
X028106Y019073D01*
X027881Y019166D01*
X027639Y019166D01*
X027414Y019073D01*
X027243Y018902D01*
X027150Y018678D01*
X027150Y018435D01*
X027243Y018211D01*
X027400Y018054D01*
X027400Y016027D01*
X027086Y016341D01*
X026398Y016341D01*
X025912Y015854D01*
X025912Y015166D01*
X026398Y014679D01*
X027086Y014679D01*
X027400Y014993D01*
X027400Y010888D01*
X027368Y010856D01*
X027275Y010631D01*
X027275Y010389D01*
X027368Y010164D01*
X027539Y009993D01*
X027764Y009900D01*
X027986Y009900D01*
X028150Y009736D01*
X028150Y009060D01*
X028006Y009120D01*
X027764Y009120D01*
X027539Y009027D01*
X027368Y008856D01*
X027275Y008631D01*
X027275Y008389D01*
X027368Y008164D01*
X027539Y007993D01*
X027764Y007900D01*
X028006Y007900D01*
X028150Y007960D01*
X028150Y007659D01*
X027556Y007065D01*
X027455Y006964D01*
X027400Y006832D01*
X027400Y005621D01*
X027243Y005464D01*
X027150Y005240D01*
X027150Y004997D01*
X027243Y004773D01*
X027414Y004601D01*
X027639Y004508D01*
X027881Y004508D01*
X028106Y004601D01*
X028260Y004756D01*
X028414Y004601D01*
X028639Y004508D01*
X028881Y004508D01*
X029106Y004601D01*
X029260Y004756D01*
X029414Y004601D01*
X029639Y004508D01*
X029881Y004508D01*
X030106Y004601D01*
X030260Y004756D01*
X030414Y004601D01*
X030639Y004508D01*
X030881Y004508D01*
X031106Y004601D01*
X031277Y004773D01*
X031370Y004997D01*
X031370Y005240D01*
X031277Y005464D01*
X031120Y005621D01*
X031120Y006236D01*
X032565Y007681D01*
X032620Y007813D01*
X032620Y009957D01*
X032565Y010089D01*
X032245Y010409D01*
X032245Y010631D01*
X032152Y010856D01*
X031995Y011013D01*
X031995Y011207D01*
X031940Y011339D01*
X031839Y011440D01*
X031120Y012159D01*
X031120Y018054D01*
X031277Y018211D01*
X031370Y018435D01*
X031370Y018678D01*
X031277Y018902D01*
X031106Y019073D01*
X031329Y018778D02*
X037055Y018778D01*
X037277Y018459D02*
X031370Y018459D01*
X031207Y018141D02*
X037013Y018141D01*
X037037Y017822D02*
X031120Y017822D01*
X031120Y017504D02*
X037385Y017504D01*
X038135Y017504D02*
X040385Y017504D01*
X040401Y017510D02*
X040217Y017434D01*
X040076Y017293D01*
X040000Y017109D01*
X040000Y016911D01*
X040076Y016727D01*
X040217Y016586D01*
X040401Y016510D01*
X041119Y016510D01*
X041303Y016586D01*
X041444Y016727D01*
X041520Y016911D01*
X041520Y017109D01*
X041444Y017293D01*
X041303Y017434D01*
X041119Y017510D01*
X040401Y017510D01*
X041119Y017510D01*
X041303Y017586D01*
X041444Y017727D01*
X041520Y017911D01*
X041520Y018109D01*
X041444Y018293D01*
X041303Y018434D01*
X041138Y018502D01*
X041142Y018503D01*
X041220Y018528D01*
X041293Y018565D01*
X041359Y018613D01*
X041417Y018671D01*
X041465Y018737D01*
X041479Y018765D01*
X041510Y018703D01*
X041564Y018629D01*
X041629Y018564D01*
X041703Y018510D01*
X041785Y018468D01*
X041873Y018439D01*
X041964Y018425D01*
X042010Y018425D01*
X042056Y018425D01*
X042147Y018439D01*
X042235Y018468D01*
X042317Y018510D01*
X042391Y018564D01*
X042456Y018629D01*
X042510Y018703D01*
X042519Y018720D01*
X042531Y018690D01*
X042690Y018531D01*
X042898Y018445D01*
X043122Y018445D01*
X043330Y018531D01*
X043489Y018690D01*
X043575Y018898D01*
X043575Y019122D01*
X043489Y019330D01*
X043330Y019489D01*
X043122Y019575D01*
X042898Y019575D01*
X042690Y019489D01*
X042531Y019330D01*
X042519Y019300D01*
X042510Y019317D01*
X042456Y019391D01*
X042391Y019456D01*
X042317Y019510D01*
X042235Y019552D01*
X042147Y019581D01*
X042056Y019595D01*
X042010Y019595D01*
X042010Y019010D01*
X042010Y019010D01*
X042010Y018425D01*
X042010Y019010D01*
X042010Y019010D01*
X042010Y019595D01*
X041964Y019595D01*
X041873Y019581D01*
X041785Y019552D01*
X041703Y019510D01*
X041629Y019456D01*
X041564Y019391D01*
X041510Y019317D01*
X041479Y019255D01*
X041465Y019283D01*
X041417Y019349D01*
X041359Y019407D01*
X041293Y019455D01*
X041220Y019492D01*
X041142Y019517D01*
X041061Y019530D01*
X040760Y019530D01*
X040760Y019010D01*
X040760Y019010D01*
X042010Y019010D01*
X042010Y019010D01*
X041540Y019010D01*
X040760Y019010D01*
X040760Y019010D01*
X040760Y019010D01*
X039980Y019010D01*
X039980Y019051D01*
X039993Y019132D01*
X040018Y019210D01*
X040055Y019283D01*
X040103Y019349D01*
X040161Y019407D01*
X040227Y019455D01*
X040300Y019492D01*
X040378Y019517D01*
X040459Y019530D01*
X040760Y019530D01*
X040760Y019010D01*
X039980Y019010D01*
X039980Y018969D01*
X039993Y018888D01*
X040018Y018810D01*
X040055Y018737D01*
X040103Y018671D01*
X040161Y018613D01*
X040227Y018565D01*
X040300Y018528D01*
X040378Y018503D01*
X040382Y018502D01*
X040217Y018434D01*
X040076Y018293D01*
X040000Y018109D01*
X040000Y017911D01*
X040076Y017727D01*
X040217Y017586D01*
X040401Y017510D01*
X040037Y017822D02*
X038483Y017822D01*
X038507Y018141D02*
X040013Y018141D01*
X040277Y018459D02*
X038243Y018459D01*
X038465Y018778D02*
X040035Y018778D01*
X039987Y019096D02*
X038520Y019096D01*
X038323Y019415D02*
X040172Y019415D01*
X040760Y019415D02*
X040760Y019415D01*
X041348Y019415D02*
X041587Y019415D01*
X042010Y019415D02*
X042010Y019415D01*
X042433Y019415D02*
X042615Y019415D01*
X043405Y019415D02*
X073926Y019415D01*
X073858Y019096D02*
X051088Y019096D01*
X051090Y019095D02*
X051002Y019140D01*
X050908Y019171D01*
X050810Y019186D01*
X050760Y019186D01*
X050760Y018556D01*
X050760Y017926D01*
X050810Y017926D01*
X050908Y017942D01*
X051002Y017972D01*
X051090Y018017D01*
X051170Y018076D01*
X051241Y018146D01*
X051299Y018226D01*
X051344Y018314D01*
X051374Y018409D01*
X051390Y018507D01*
X051390Y018556D01*
X050760Y018556D01*
X050760Y018556D01*
X050760Y017926D01*
X050710Y017926D01*
X050612Y017942D01*
X050518Y017972D01*
X050430Y018017D01*
X050350Y018076D01*
X050279Y018146D01*
X050251Y018185D01*
X050106Y018039D01*
X049881Y017946D01*
X049639Y017946D01*
X049414Y018039D01*
X049260Y018194D01*
X049120Y018054D01*
X049120Y005621D01*
X049260Y005481D01*
X049414Y005635D01*
X049639Y005728D01*
X049881Y005728D01*
X050106Y005635D01*
X050251Y005490D01*
X050279Y005529D01*
X050350Y005599D01*
X050430Y005657D01*
X050518Y005702D01*
X050612Y005733D01*
X050710Y005748D01*
X050760Y005748D01*
X050760Y005118D01*
X050760Y004488D01*
X050810Y004488D01*
X050908Y004504D01*
X051002Y004534D01*
X051090Y004579D01*
X051170Y004638D01*
X051241Y004708D01*
X051299Y004788D01*
X051344Y004876D01*
X051374Y004971D01*
X051390Y005069D01*
X051390Y005118D01*
X050760Y005118D01*
X050760Y005118D01*
X050760Y004488D01*
X050710Y004488D01*
X050612Y004504D01*
X050518Y004534D01*
X050430Y004579D01*
X050350Y004638D01*
X050279Y004708D01*
X050251Y004747D01*
X050106Y004601D01*
X049881Y004508D01*
X049639Y004508D01*
X049414Y004601D01*
X049260Y004756D01*
X049120Y004616D01*
X049120Y002938D01*
X049065Y002806D01*
X048565Y002306D01*
X048464Y002205D01*
X048332Y002150D01*
X041367Y002150D01*
X041303Y002086D01*
X041119Y002010D01*
X040401Y002010D01*
X040217Y002086D01*
X040153Y002150D01*
X039438Y002150D01*
X039306Y002205D01*
X039205Y002306D01*
X038955Y002556D01*
X038900Y002688D01*
X038900Y011832D01*
X038955Y011964D01*
X039056Y012065D01*
X039306Y012315D01*
X039438Y012370D01*
X040153Y012370D01*
X040217Y012434D01*
X040401Y012510D01*
X041119Y012510D01*
X041303Y012586D01*
X041444Y012727D01*
X041520Y012911D01*
X041520Y013109D01*
X041444Y013293D01*
X041303Y013434D01*
X041119Y013510D01*
X041303Y013586D01*
X041444Y013727D01*
X041520Y013911D01*
X041520Y014109D01*
X041444Y014293D01*
X041303Y014434D01*
X041119Y014510D01*
X040401Y014510D01*
X040217Y014434D01*
X040076Y014293D01*
X040000Y014109D01*
X040000Y013911D01*
X040076Y013727D01*
X040217Y013586D01*
X040401Y013510D01*
X041119Y013510D01*
X040401Y013510D01*
X040217Y013434D01*
X040076Y013293D01*
X040000Y013109D01*
X040000Y012911D01*
X040076Y012727D01*
X040217Y012586D01*
X040401Y012510D01*
X041119Y012510D01*
X041303Y012434D01*
X041444Y012293D01*
X041520Y012109D01*
X041520Y011911D01*
X041444Y011727D01*
X041303Y011586D01*
X041119Y011510D01*
X040401Y011510D01*
X040217Y011586D01*
X040153Y011650D01*
X039659Y011650D01*
X039620Y011611D01*
X039620Y002909D01*
X039659Y002870D01*
X040153Y002870D01*
X040217Y002934D01*
X040401Y003010D01*
X041119Y003010D01*
X041303Y002934D01*
X041367Y002870D01*
X042938Y002870D01*
X042892Y002876D01*
X042805Y002899D01*
X042722Y002934D01*
X042644Y002979D01*
X042573Y003033D01*
X042510Y003097D01*
X042455Y003168D01*
X042410Y003246D01*
X042376Y003329D01*
X042352Y003415D01*
X042341Y003504D01*
X042341Y003549D01*
X043026Y003549D01*
X043026Y003549D01*
X043711Y003549D01*
X043711Y003504D01*
X043699Y003415D01*
X043676Y003329D01*
X043641Y003246D01*
X043597Y003168D01*
X043542Y003097D01*
X043478Y003033D01*
X043407Y002979D01*
X043329Y002934D01*
X043246Y002899D01*
X043160Y002876D01*
X043113Y002870D01*
X048111Y002870D01*
X048400Y003159D01*
X048400Y004616D01*
X048260Y004756D01*
X048106Y004601D01*
X048079Y004590D01*
X048065Y004556D01*
X047565Y004056D01*
X047464Y003955D01*
X047332Y003900D01*
X045569Y003900D01*
X045659Y003682D01*
X045659Y003417D01*
X045558Y003173D01*
X045371Y002986D01*
X045127Y002884D01*
X044862Y002884D01*
X044618Y002986D01*
X044430Y003173D01*
X044329Y003417D01*
X044329Y003682D01*
X044420Y003900D01*
X043614Y003900D01*
X043641Y003853D01*
X043676Y003770D01*
X043699Y003683D01*
X043711Y003594D01*
X043711Y003549D01*
X043026Y003549D01*
X043026Y003549D01*
X042341Y003549D01*
X042341Y003582D01*
X042065Y003306D01*
X041964Y003205D01*
X041832Y003150D01*
X041367Y003150D01*
X041303Y003086D01*
X041119Y003010D01*
X040401Y003010D01*
X040217Y003086D01*
X040076Y003227D01*
X040000Y003411D01*
X040000Y003609D01*
X040076Y003793D01*
X040217Y003934D01*
X040401Y004010D01*
X041119Y004010D01*
X041303Y003934D01*
X041367Y003870D01*
X041611Y003870D01*
X041933Y004192D01*
X041832Y004150D01*
X041367Y004150D01*
X041303Y004086D01*
X041119Y004010D01*
X040401Y004010D01*
X040217Y004086D01*
X040076Y004227D01*
X040000Y004411D01*
X040000Y004609D01*
X040076Y004793D01*
X040217Y004934D01*
X040401Y005010D01*
X041119Y005010D01*
X041303Y004934D01*
X041367Y004870D01*
X041611Y004870D01*
X042164Y005423D01*
X042297Y005478D01*
X046257Y005478D01*
X046400Y005621D01*
X046400Y014993D01*
X046086Y014679D01*
X045398Y014679D01*
X044912Y015166D01*
X044912Y015854D01*
X045398Y016341D01*
X046086Y016341D01*
X046400Y016027D01*
X046400Y018054D01*
X046243Y018211D01*
X046150Y018435D01*
X046150Y018678D01*
X046243Y018902D01*
X046414Y019073D01*
X046639Y019166D01*
X046881Y019166D01*
X047106Y019073D01*
X047260Y018919D01*
X047414Y019073D01*
X047639Y019166D01*
X047881Y019166D01*
X048106Y019073D01*
X048260Y018919D01*
X048414Y019073D01*
X048639Y019166D01*
X048881Y019166D01*
X049106Y019073D01*
X049260Y018919D01*
X049414Y019073D01*
X049639Y019166D01*
X049881Y019166D01*
X050106Y019073D01*
X050251Y018928D01*
X050279Y018967D01*
X050350Y019037D01*
X050430Y019095D01*
X050518Y019140D01*
X050612Y019171D01*
X050710Y019186D01*
X050760Y019186D01*
X050760Y018556D01*
X050760Y018556D01*
X051390Y018556D01*
X051390Y018606D01*
X051374Y018704D01*
X051344Y018798D01*
X051299Y018886D01*
X051241Y018967D01*
X051170Y019037D01*
X051090Y019095D01*
X050760Y019096D02*
X050760Y019096D01*
X050760Y018778D02*
X050760Y018778D01*
X050760Y018556D02*
X050760Y018556D01*
X050760Y018459D02*
X050760Y018459D01*
X050760Y018141D02*
X050760Y018141D01*
X051235Y018141D02*
X074035Y018141D01*
X073892Y018459D02*
X051382Y018459D01*
X050285Y018141D02*
X050207Y018141D01*
X049313Y018141D02*
X049207Y018141D01*
X049120Y017822D02*
X074269Y017822D01*
X074702Y017504D02*
X049120Y017504D01*
X049120Y017185D02*
X076200Y017185D01*
X076200Y016867D02*
X049120Y016867D01*
X049120Y016548D02*
X076200Y016548D01*
X076200Y016230D02*
X074197Y016230D01*
X074086Y016341D02*
X073398Y016341D01*
X072912Y015854D01*
X072912Y015166D01*
X073398Y014679D01*
X074086Y014679D01*
X074573Y015166D01*
X074573Y015854D01*
X074086Y016341D01*
X073287Y016230D02*
X070733Y016230D01*
X070622Y016341D02*
X069934Y016341D01*
X069447Y015854D01*
X069447Y015166D01*
X069934Y014679D01*
X070622Y014679D01*
X071108Y015166D01*
X071108Y015854D01*
X070622Y016341D01*
X069823Y016230D02*
X065197Y016230D01*
X065086Y016341D02*
X064398Y016341D01*
X063912Y015854D01*
X063912Y015166D01*
X064398Y014679D01*
X065086Y014679D01*
X065573Y015166D01*
X065573Y015854D01*
X065086Y016341D01*
X064287Y016230D02*
X061733Y016230D01*
X061622Y016341D02*
X060934Y016341D01*
X060447Y015854D01*
X060447Y015166D01*
X060934Y014679D01*
X061622Y014679D01*
X062108Y015166D01*
X062108Y015854D01*
X061622Y016341D01*
X060823Y016230D02*
X055697Y016230D01*
X055586Y016341D02*
X054898Y016341D01*
X054412Y015854D01*
X054412Y015166D01*
X054898Y014679D01*
X055586Y014679D01*
X056073Y015166D01*
X056073Y015854D01*
X055586Y016341D01*
X054787Y016230D02*
X052233Y016230D01*
X052122Y016341D02*
X051434Y016341D01*
X050947Y015854D01*
X050947Y015166D01*
X051434Y014679D01*
X052122Y014679D01*
X052608Y015166D01*
X052608Y015854D01*
X052122Y016341D01*
X051323Y016230D02*
X049120Y016230D01*
X049120Y015911D02*
X051004Y015911D01*
X050947Y015593D02*
X049120Y015593D01*
X049120Y015274D02*
X050947Y015274D01*
X051158Y014956D02*
X049120Y014956D01*
X049120Y014637D02*
X076200Y014637D01*
X076200Y014956D02*
X074362Y014956D01*
X074573Y015274D02*
X076200Y015274D01*
X076200Y015593D02*
X074573Y015593D01*
X074516Y015911D02*
X076200Y015911D01*
X073122Y014956D02*
X070898Y014956D01*
X071108Y015274D02*
X072912Y015274D01*
X072912Y015593D02*
X071108Y015593D01*
X071051Y015911D02*
X072969Y015911D01*
X069658Y014956D02*
X065362Y014956D01*
X065573Y015274D02*
X069447Y015274D01*
X069447Y015593D02*
X065573Y015593D01*
X065516Y015911D02*
X069504Y015911D01*
X064122Y014956D02*
X061898Y014956D01*
X062108Y015274D02*
X063912Y015274D01*
X063912Y015593D02*
X062108Y015593D01*
X062051Y015911D02*
X063969Y015911D01*
X060658Y014956D02*
X055862Y014956D01*
X056073Y015274D02*
X060447Y015274D01*
X060447Y015593D02*
X056073Y015593D01*
X056016Y015911D02*
X060504Y015911D01*
X054622Y014956D02*
X052398Y014956D01*
X052608Y015274D02*
X054412Y015274D01*
X054412Y015593D02*
X052608Y015593D01*
X052551Y015911D02*
X054469Y015911D01*
X049120Y014319D02*
X076200Y014319D01*
X076200Y014000D02*
X049120Y014000D01*
X049120Y013682D02*
X076200Y013682D01*
X076200Y013363D02*
X073467Y013363D01*
X073487Y013355D02*
X073440Y013374D01*
X073390Y013384D01*
X072994Y013384D01*
X072599Y013384D01*
X072548Y013374D01*
X072501Y013355D01*
X072482Y013342D01*
X072428Y013364D01*
X071592Y013364D01*
X071518Y013333D01*
X071443Y013364D01*
X070608Y013364D01*
X070520Y013328D01*
X070452Y013260D01*
X070416Y013172D01*
X070416Y012336D01*
X070452Y012248D01*
X070520Y012181D01*
X070608Y012144D01*
X071443Y012144D01*
X071518Y012175D01*
X071592Y012144D01*
X072428Y012144D01*
X072482Y012167D01*
X072501Y012154D01*
X072548Y012134D01*
X072599Y012124D01*
X072994Y012124D01*
X072994Y012754D01*
X072994Y012754D01*
X072994Y013384D01*
X072994Y012754D01*
X072994Y012754D01*
X072994Y012124D01*
X073390Y012124D01*
X073440Y012134D01*
X073487Y012154D01*
X073530Y012182D01*
X073566Y012218D01*
X073595Y012261D01*
X073614Y012308D01*
X073624Y012358D01*
X073624Y012754D01*
X072994Y012754D01*
X072994Y012754D01*
X073624Y012754D01*
X073624Y013150D01*
X073614Y013200D01*
X073595Y013247D01*
X073566Y013290D01*
X073530Y013326D01*
X073487Y013355D01*
X072994Y013363D02*
X072994Y013363D01*
X072522Y013363D02*
X072430Y013363D01*
X071590Y013363D02*
X071446Y013363D01*
X070605Y013363D02*
X064467Y013363D01*
X064487Y013355D02*
X064440Y013374D01*
X064390Y013384D01*
X063994Y013384D01*
X063599Y013384D01*
X063548Y013374D01*
X063501Y013355D01*
X063482Y013342D01*
X063428Y013364D01*
X062592Y013364D01*
X062518Y013333D01*
X062443Y013364D01*
X061608Y013364D01*
X061520Y013328D01*
X061452Y013260D01*
X061416Y013172D01*
X061416Y012336D01*
X061452Y012248D01*
X061520Y012181D01*
X061608Y012144D01*
X062443Y012144D01*
X062518Y012175D01*
X062592Y012144D01*
X063428Y012144D01*
X063482Y012167D01*
X063501Y012154D01*
X063548Y012134D01*
X063599Y012124D01*
X063994Y012124D01*
X063994Y012754D01*
X063994Y012754D01*
X063994Y013384D01*
X063994Y012754D01*
X063994Y012754D01*
X063994Y012124D01*
X064390Y012124D01*
X064440Y012134D01*
X064487Y012154D01*
X064530Y012182D01*
X064566Y012218D01*
X064595Y012261D01*
X064614Y012308D01*
X064624Y012358D01*
X064624Y012754D01*
X063994Y012754D01*
X063994Y012754D01*
X064624Y012754D01*
X064624Y013150D01*
X064614Y013200D01*
X064595Y013247D01*
X064566Y013290D01*
X064530Y013326D01*
X064487Y013355D01*
X063994Y013363D02*
X063994Y013363D01*
X063522Y013363D02*
X063430Y013363D01*
X062590Y013363D02*
X062446Y013363D01*
X061605Y013363D02*
X054967Y013363D01*
X054987Y013355D02*
X054940Y013374D01*
X054890Y013384D01*
X054494Y013384D01*
X054099Y013384D01*
X054048Y013374D01*
X054001Y013355D01*
X053982Y013342D01*
X053928Y013364D01*
X053092Y013364D01*
X053018Y013333D01*
X052943Y013364D01*
X052108Y013364D01*
X052020Y013328D01*
X051952Y013260D01*
X051916Y013172D01*
X051916Y012336D01*
X051952Y012248D01*
X052020Y012181D01*
X052108Y012144D01*
X052833Y012144D01*
X052593Y012022D01*
X052248Y011677D01*
X052248Y011677D01*
X052026Y011242D01*
X051950Y010760D01*
X051950Y010760D01*
X052026Y010278D01*
X052026Y010278D01*
X052248Y009843D01*
X052593Y009498D01*
X053028Y009276D01*
X053510Y009200D01*
X053992Y009276D01*
X054427Y009498D01*
X054772Y009843D01*
X054772Y009843D01*
X054994Y010278D01*
X055070Y010760D01*
X054994Y011242D01*
X054772Y011677D01*
X054427Y012022D01*
X054227Y012124D01*
X054494Y012124D01*
X054494Y012754D01*
X054494Y012754D01*
X054494Y013384D01*
X054494Y012754D01*
X054494Y012754D01*
X054494Y012124D01*
X054890Y012124D01*
X054940Y012134D01*
X054987Y012154D01*
X055030Y012182D01*
X055066Y012218D01*
X055095Y012261D01*
X055114Y012308D01*
X055124Y012358D01*
X055124Y012754D01*
X054494Y012754D01*
X054494Y012754D01*
X055124Y012754D01*
X055124Y013150D01*
X055114Y013200D01*
X055095Y013247D01*
X055066Y013290D01*
X055030Y013326D01*
X054987Y013355D01*
X054494Y013363D02*
X054494Y013363D01*
X054022Y013363D02*
X053930Y013363D01*
X053090Y013363D02*
X052946Y013363D01*
X052105Y013363D02*
X049120Y013363D01*
X049120Y013045D02*
X051916Y013045D01*
X051916Y012726D02*
X049120Y012726D01*
X049120Y012408D02*
X051916Y012408D01*
X052724Y012089D02*
X049120Y012089D01*
X049120Y011771D02*
X052341Y011771D01*
X052593Y012022D02*
X052593Y012022D01*
X052133Y011452D02*
X049120Y011452D01*
X049120Y011134D02*
X052009Y011134D01*
X052026Y011242D02*
X052026Y011242D01*
X051959Y010815D02*
X049120Y010815D01*
X049120Y010497D02*
X051992Y010497D01*
X052077Y010178D02*
X049120Y010178D01*
X049120Y009860D02*
X052240Y009860D01*
X052248Y009843D02*
X052248Y009843D01*
X052550Y009541D02*
X049120Y009541D01*
X049120Y009223D02*
X053368Y009223D01*
X053510Y009200D02*
X053510Y009200D01*
X053652Y009223D02*
X076200Y009223D01*
X076200Y008904D02*
X073501Y008904D01*
X073558Y008847D02*
X073371Y009034D01*
X073127Y009136D01*
X072862Y009136D01*
X072618Y009034D01*
X072430Y008847D01*
X072329Y008603D01*
X072329Y008338D01*
X072430Y008094D01*
X072618Y007907D01*
X072862Y007806D01*
X073127Y007806D01*
X073371Y007907D01*
X073558Y008094D01*
X073659Y008338D01*
X073659Y008603D01*
X073558Y008847D01*
X073659Y008586D02*
X076200Y008586D01*
X076200Y008267D02*
X073630Y008267D01*
X073413Y007949D02*
X076200Y007949D01*
X076200Y007630D02*
X049120Y007630D01*
X049120Y007949D02*
X052107Y007949D01*
X052149Y007907D02*
X052393Y007806D01*
X052658Y007806D01*
X052902Y007907D01*
X053090Y008094D01*
X053191Y008338D01*
X053191Y008603D01*
X053090Y008847D01*
X052902Y009034D01*
X052658Y009136D01*
X052393Y009136D01*
X052149Y009034D01*
X051962Y008847D01*
X051861Y008603D01*
X051861Y008338D01*
X051962Y008094D01*
X052149Y007907D01*
X052944Y007949D02*
X054076Y007949D01*
X054118Y007907D02*
X054362Y007806D01*
X054627Y007806D01*
X054871Y007907D01*
X055058Y008094D01*
X055159Y008338D01*
X055159Y008603D01*
X055058Y008847D01*
X054871Y009034D01*
X054627Y009136D01*
X054362Y009136D01*
X054118Y009034D01*
X053930Y008847D01*
X053829Y008603D01*
X053829Y008338D01*
X053930Y008094D01*
X054118Y007907D01*
X054913Y007949D02*
X061607Y007949D01*
X061649Y007907D02*
X061462Y008094D01*
X061361Y008338D01*
X061361Y008603D01*
X061462Y008847D01*
X061649Y009034D01*
X061893Y009136D01*
X062158Y009136D01*
X062402Y009034D01*
X062590Y008847D01*
X062691Y008603D01*
X062691Y008338D01*
X062590Y008094D01*
X062402Y007907D01*
X062158Y007806D01*
X061893Y007806D01*
X061649Y007907D01*
X062444Y007949D02*
X063576Y007949D01*
X063618Y007907D02*
X063862Y007806D01*
X064127Y007806D01*
X064371Y007907D01*
X064558Y008094D01*
X064659Y008338D01*
X064659Y008603D01*
X064558Y008847D01*
X064371Y009034D01*
X064127Y009136D01*
X063862Y009136D01*
X063618Y009034D01*
X063430Y008847D01*
X063329Y008603D01*
X063329Y008338D01*
X063430Y008094D01*
X063618Y007907D01*
X064413Y007949D02*
X070607Y007949D01*
X070649Y007907D02*
X070893Y007806D01*
X071158Y007806D01*
X071402Y007907D01*
X071590Y008094D01*
X071691Y008338D01*
X071691Y008603D01*
X071590Y008847D01*
X071402Y009034D01*
X071158Y009136D01*
X070893Y009136D01*
X070649Y009034D01*
X070462Y008847D01*
X070361Y008603D01*
X070361Y008338D01*
X070462Y008094D01*
X070649Y007907D01*
X071444Y007949D02*
X072576Y007949D01*
X072359Y008267D02*
X071661Y008267D01*
X071691Y008586D02*
X072329Y008586D01*
X072487Y008904D02*
X071533Y008904D01*
X070519Y008904D02*
X064501Y008904D01*
X063487Y008904D02*
X062533Y008904D01*
X062691Y008586D02*
X063329Y008586D01*
X063359Y008267D02*
X062661Y008267D01*
X061390Y008267D02*
X055130Y008267D01*
X055159Y008586D02*
X061361Y008586D01*
X061519Y008904D02*
X055001Y008904D01*
X053987Y008904D02*
X053033Y008904D01*
X052019Y008904D02*
X049120Y008904D01*
X049120Y008586D02*
X051861Y008586D01*
X051890Y008267D02*
X049120Y008267D01*
X046400Y008267D02*
X045630Y008267D01*
X045659Y008338D02*
X045558Y008094D01*
X045371Y007907D01*
X045127Y007806D01*
X044862Y007806D01*
X044618Y007907D01*
X044430Y008094D01*
X044329Y008338D01*
X044329Y008603D01*
X044430Y008847D01*
X044618Y009034D01*
X044862Y009136D01*
X045127Y009136D01*
X045371Y009034D01*
X045558Y008847D01*
X045659Y008603D01*
X045659Y008338D01*
X045659Y008586D02*
X046400Y008586D01*
X046400Y008904D02*
X045501Y008904D01*
X046400Y009223D02*
X043502Y009223D01*
X043489Y009190D02*
X043575Y009398D01*
X043575Y009622D01*
X043489Y009830D01*
X043330Y009989D01*
X043122Y010075D01*
X042898Y010075D01*
X042690Y009989D01*
X042531Y009830D01*
X042519Y009800D01*
X042510Y009817D01*
X042456Y009891D01*
X042391Y009956D01*
X042317Y010010D01*
X042235Y010052D01*
X042147Y010081D01*
X042056Y010095D01*
X042010Y010095D01*
X042010Y009510D01*
X042010Y009510D01*
X042010Y008925D01*
X042056Y008925D01*
X042147Y008939D01*
X042235Y008968D01*
X042317Y009010D01*
X042391Y009064D01*
X042456Y009129D01*
X042510Y009203D01*
X042519Y009220D01*
X042531Y009190D01*
X042676Y009045D01*
X042649Y009034D01*
X042462Y008847D01*
X042361Y008603D01*
X042361Y008338D01*
X042462Y008094D01*
X042649Y007907D01*
X042893Y007806D01*
X043158Y007806D01*
X043402Y007907D01*
X043590Y008094D01*
X043691Y008338D01*
X043691Y008603D01*
X043590Y008847D01*
X043402Y009034D01*
X043354Y009055D01*
X043489Y009190D01*
X043533Y008904D02*
X044487Y008904D01*
X044329Y008586D02*
X043691Y008586D01*
X043661Y008267D02*
X044359Y008267D01*
X044576Y007949D02*
X043444Y007949D01*
X042607Y007949D02*
X041268Y007949D01*
X041303Y007934D02*
X041119Y008010D01*
X040401Y008010D01*
X040217Y007934D01*
X040076Y007793D01*
X040000Y007609D01*
X040000Y007411D01*
X040076Y007227D01*
X040217Y007086D01*
X040401Y007010D01*
X040217Y006934D01*
X040076Y006793D01*
X040000Y006609D01*
X040000Y006411D01*
X040076Y006227D01*
X040217Y006086D01*
X040401Y006010D01*
X040217Y005934D01*
X040076Y005793D01*
X040000Y005609D01*
X040000Y005411D01*
X040076Y005227D01*
X040217Y005086D01*
X040401Y005010D01*
X041119Y005010D01*
X041303Y005086D01*
X041444Y005227D01*
X041520Y005411D01*
X041520Y005609D01*
X041444Y005793D01*
X041303Y005934D01*
X041119Y006010D01*
X040401Y006010D01*
X041119Y006010D01*
X041303Y006086D01*
X041444Y006227D01*
X041520Y006411D01*
X041520Y006609D01*
X041444Y006793D01*
X041303Y006934D01*
X041119Y007010D01*
X040401Y007010D01*
X041119Y007010D01*
X041303Y007086D01*
X041444Y007227D01*
X041520Y007411D01*
X041520Y007609D01*
X041444Y007793D01*
X041303Y007934D01*
X041303Y008086D02*
X041444Y008227D01*
X041520Y008411D01*
X041520Y008609D01*
X041444Y008793D01*
X041303Y008934D01*
X041138Y009002D01*
X041142Y009003D01*
X041220Y009028D01*
X041293Y009065D01*
X041359Y009113D01*
X041417Y009171D01*
X041465Y009237D01*
X041479Y009265D01*
X041510Y009203D01*
X041564Y009129D01*
X041629Y009064D01*
X041703Y009010D01*
X041785Y008968D01*
X041873Y008939D01*
X041964Y008925D01*
X042010Y008925D01*
X042010Y009510D01*
X042010Y009510D01*
X042010Y010095D01*
X041964Y010095D01*
X041873Y010081D01*
X041785Y010052D01*
X041703Y010010D01*
X041629Y009956D01*
X041564Y009891D01*
X041510Y009817D01*
X041479Y009755D01*
X041465Y009783D01*
X041417Y009849D01*
X041359Y009907D01*
X041293Y009955D01*
X041220Y009992D01*
X041142Y010017D01*
X041061Y010030D01*
X040760Y010030D01*
X040760Y009510D01*
X040760Y009510D01*
X042010Y009510D01*
X042010Y009510D01*
X041540Y009510D01*
X040760Y009510D01*
X040760Y009510D01*
X040760Y009510D01*
X039980Y009510D01*
X039980Y009551D01*
X039993Y009632D01*
X040018Y009710D01*
X040055Y009783D01*
X040103Y009849D01*
X040161Y009907D01*
X040227Y009955D01*
X040300Y009992D01*
X040378Y010017D01*
X040459Y010030D01*
X040760Y010030D01*
X040760Y009510D01*
X039980Y009510D01*
X039980Y009469D01*
X039993Y009388D01*
X040018Y009310D01*
X040055Y009237D01*
X040103Y009171D01*
X040161Y009113D01*
X040227Y009065D01*
X040300Y009028D01*
X040378Y009003D01*
X040382Y009002D01*
X040217Y008934D01*
X040076Y008793D01*
X040000Y008609D01*
X040000Y008411D01*
X040076Y008227D01*
X040217Y008086D01*
X040401Y008010D01*
X041119Y008010D01*
X041303Y008086D01*
X041461Y008267D02*
X042390Y008267D01*
X042361Y008586D02*
X041520Y008586D01*
X041333Y008904D02*
X042519Y008904D01*
X042010Y009223D02*
X042010Y009223D01*
X041500Y009223D02*
X041454Y009223D01*
X042010Y009541D02*
X042010Y009541D01*
X042010Y009860D02*
X042010Y009860D01*
X041541Y009860D02*
X041406Y009860D01*
X040760Y009860D02*
X040760Y009860D01*
X040760Y009541D02*
X040760Y009541D01*
X040114Y009860D02*
X039620Y009860D01*
X039620Y009541D02*
X039980Y009541D01*
X040066Y009223D02*
X039620Y009223D01*
X039620Y008904D02*
X040187Y008904D01*
X040000Y008586D02*
X039620Y008586D01*
X039620Y008267D02*
X040059Y008267D01*
X040252Y007949D02*
X039620Y007949D01*
X039620Y007630D02*
X040009Y007630D01*
X040041Y007312D02*
X039620Y007312D01*
X039620Y006993D02*
X040360Y006993D01*
X040027Y006675D02*
X039620Y006675D01*
X038900Y006675D02*
X038493Y006675D01*
X038160Y006993D02*
X038900Y006993D01*
X038900Y007312D02*
X038479Y007312D01*
X038511Y007630D02*
X038900Y007630D01*
X038900Y007949D02*
X038268Y007949D01*
X038461Y008267D02*
X038900Y008267D01*
X038900Y008586D02*
X038520Y008586D01*
X038333Y008904D02*
X038900Y008904D01*
X038900Y009223D02*
X038440Y009223D01*
X038520Y009541D02*
X038900Y009541D01*
X038900Y009860D02*
X038378Y009860D01*
X038900Y010178D02*
X032476Y010178D01*
X032245Y010497D02*
X038900Y010497D01*
X039620Y010497D02*
X046400Y010497D01*
X046400Y010178D02*
X039620Y010178D01*
X039620Y010815D02*
X046400Y010815D01*
X046400Y011134D02*
X039620Y011134D01*
X038900Y011134D02*
X031995Y011134D01*
X032169Y010815D02*
X038900Y010815D01*
X038900Y011452D02*
X031827Y011452D01*
X031509Y011771D02*
X037058Y011771D01*
X037076Y011727D02*
X037217Y011586D01*
X037401Y011510D01*
X038119Y011510D01*
X038303Y011586D01*
X038444Y011727D01*
X038520Y011911D01*
X038520Y012109D01*
X038444Y012293D01*
X038303Y012434D01*
X038119Y012510D01*
X037401Y012510D01*
X037217Y012434D01*
X037076Y012293D01*
X037000Y012109D01*
X037000Y011911D01*
X037076Y011727D01*
X037000Y012089D02*
X031190Y012089D01*
X031120Y012408D02*
X032916Y012408D01*
X032916Y012336D02*
X032952Y012248D01*
X033020Y012181D01*
X033108Y012144D01*
X033943Y012144D01*
X034018Y012175D01*
X034092Y012144D01*
X034928Y012144D01*
X034982Y012167D01*
X035001Y012154D01*
X035048Y012134D01*
X035099Y012124D01*
X035494Y012124D01*
X035494Y012754D01*
X035494Y012754D01*
X035494Y013384D01*
X035099Y013384D01*
X035048Y013374D01*
X035001Y013355D01*
X034982Y013342D01*
X034928Y013364D01*
X034092Y013364D01*
X034018Y013333D01*
X033943Y013364D01*
X033108Y013364D01*
X033020Y013328D01*
X032952Y013260D01*
X032916Y013172D01*
X032916Y012336D01*
X032916Y012726D02*
X031120Y012726D01*
X031120Y013045D02*
X032916Y013045D01*
X033105Y013363D02*
X031120Y013363D01*
X031120Y013682D02*
X037121Y013682D01*
X037076Y013727D02*
X037217Y013586D01*
X037401Y013510D01*
X037217Y013434D01*
X037076Y013293D01*
X037000Y013109D01*
X037000Y012911D01*
X037076Y012727D01*
X037217Y012586D01*
X037401Y012510D01*
X038119Y012510D01*
X038303Y012586D01*
X038444Y012727D01*
X038520Y012911D01*
X038520Y013109D01*
X038444Y013293D01*
X038303Y013434D01*
X038119Y013510D01*
X037401Y013510D01*
X038119Y013510D01*
X038303Y013586D01*
X038444Y013727D01*
X038520Y013911D01*
X038520Y014109D01*
X038444Y014293D01*
X038303Y014434D01*
X038119Y014510D01*
X038303Y014586D01*
X038444Y014727D01*
X038520Y014911D01*
X038520Y015109D01*
X038444Y015293D01*
X038303Y015434D01*
X038119Y015510D01*
X037401Y015510D01*
X037217Y015434D01*
X037076Y015293D01*
X037073Y015285D01*
X037073Y015735D01*
X037076Y015727D01*
X037217Y015586D01*
X037401Y015510D01*
X038119Y015510D01*
X038303Y015586D01*
X038444Y015727D01*
X038520Y015911D01*
X040000Y015911D01*
X040076Y015727D01*
X040217Y015586D01*
X040401Y015510D01*
X040217Y015434D01*
X040076Y015293D01*
X040000Y015109D01*
X040000Y014911D01*
X040076Y014727D01*
X040217Y014586D01*
X040401Y014510D01*
X041119Y014510D01*
X041303Y014586D01*
X041444Y014727D01*
X041520Y014911D01*
X041520Y015093D01*
X041934Y014679D01*
X042622Y014679D01*
X043108Y015166D01*
X043108Y015854D01*
X042622Y016341D01*
X041934Y016341D01*
X041520Y015927D01*
X041520Y016109D01*
X041444Y016293D01*
X041303Y016434D01*
X041119Y016510D01*
X040401Y016510D01*
X040217Y016434D01*
X040076Y016293D01*
X040000Y016109D01*
X040000Y015911D01*
X040210Y015593D02*
X038310Y015593D01*
X038520Y015911D02*
X038520Y016109D01*
X038444Y016293D01*
X038303Y016434D01*
X038119Y016510D01*
X037401Y016510D01*
X037217Y016434D01*
X037076Y016293D01*
X037000Y016109D01*
X037000Y015927D01*
X036586Y016341D01*
X035898Y016341D01*
X035412Y015854D01*
X035412Y015166D01*
X035898Y014679D01*
X036586Y014679D01*
X037000Y015093D01*
X037000Y014911D01*
X037076Y014727D01*
X037217Y014586D01*
X037401Y014510D01*
X038119Y014510D01*
X037401Y014510D01*
X037217Y014434D01*
X037076Y014293D01*
X037000Y014109D01*
X037000Y013911D01*
X037076Y013727D01*
X037146Y013363D02*
X035967Y013363D01*
X035987Y013355D02*
X035940Y013374D01*
X035890Y013384D01*
X035494Y013384D01*
X035494Y012754D01*
X035494Y012754D01*
X035494Y012124D01*
X035890Y012124D01*
X035940Y012134D01*
X035987Y012154D01*
X036030Y012182D01*
X036066Y012218D01*
X036095Y012261D01*
X036114Y012308D01*
X036124Y012358D01*
X036124Y012754D01*
X035494Y012754D01*
X035494Y012754D01*
X036124Y012754D01*
X036124Y013150D01*
X036114Y013200D01*
X036095Y013247D01*
X036066Y013290D01*
X036030Y013326D01*
X035987Y013355D01*
X035494Y013363D02*
X035494Y013363D01*
X035022Y013363D02*
X034930Y013363D01*
X034090Y013363D02*
X033946Y013363D01*
X035494Y013045D02*
X035494Y013045D01*
X035494Y012726D02*
X035494Y012726D01*
X036124Y012726D02*
X037077Y012726D01*
X037000Y013045D02*
X036124Y013045D01*
X036124Y012408D02*
X037190Y012408D01*
X038330Y012408D02*
X040190Y012408D01*
X041330Y012408D02*
X042416Y012408D01*
X042416Y012336D02*
X042452Y012248D01*
X042520Y012181D01*
X042608Y012144D01*
X043443Y012144D01*
X043518Y012175D01*
X043592Y012144D01*
X044428Y012144D01*
X044482Y012167D01*
X044501Y012154D01*
X044548Y012134D01*
X044599Y012124D01*
X044994Y012124D01*
X044994Y012754D01*
X044994Y012754D01*
X044994Y013384D01*
X044599Y013384D01*
X044548Y013374D01*
X044501Y013355D01*
X044482Y013342D01*
X044428Y013364D01*
X043592Y013364D01*
X043518Y013333D01*
X043443Y013364D01*
X042608Y013364D01*
X042520Y013328D01*
X042452Y013260D01*
X042416Y013172D01*
X042416Y012336D01*
X041520Y012089D02*
X046400Y012089D01*
X046400Y012408D02*
X045624Y012408D01*
X045624Y012358D02*
X045624Y012754D01*
X044994Y012754D01*
X044994Y012754D01*
X044994Y012124D01*
X045390Y012124D01*
X045440Y012134D01*
X045487Y012154D01*
X045530Y012182D01*
X045566Y012218D01*
X045595Y012261D01*
X045614Y012308D01*
X045624Y012358D01*
X044994Y012408D02*
X044994Y012408D01*
X044994Y012726D02*
X044994Y012726D01*
X044994Y012754D02*
X044994Y012754D01*
X044994Y013384D01*
X045390Y013384D01*
X045440Y013374D01*
X045487Y013355D01*
X045530Y013326D01*
X045566Y013290D01*
X045595Y013247D01*
X045614Y013200D01*
X045624Y013150D01*
X045624Y012754D01*
X044994Y012754D01*
X044994Y013045D02*
X044994Y013045D01*
X045624Y013045D02*
X046400Y013045D01*
X046400Y012726D02*
X045624Y012726D01*
X045467Y013363D02*
X046400Y013363D01*
X046400Y013682D02*
X041399Y013682D01*
X041374Y013363D02*
X042605Y013363D01*
X043446Y013363D02*
X043590Y013363D01*
X044430Y013363D02*
X044522Y013363D01*
X044994Y013363D02*
X044994Y013363D01*
X046400Y014000D02*
X041520Y014000D01*
X041419Y014319D02*
X046400Y014319D01*
X046400Y014637D02*
X041354Y014637D01*
X041520Y014956D02*
X041658Y014956D01*
X042898Y014956D02*
X045122Y014956D01*
X044912Y015274D02*
X043108Y015274D01*
X043108Y015593D02*
X044912Y015593D01*
X044969Y015911D02*
X043051Y015911D01*
X042733Y016230D02*
X045287Y016230D01*
X046197Y016230D02*
X046400Y016230D01*
X046400Y016548D02*
X041211Y016548D01*
X041470Y016230D02*
X041823Y016230D01*
X041447Y015735D02*
X041447Y015285D01*
X041444Y015293D01*
X041303Y015434D01*
X041119Y015510D01*
X040401Y015510D01*
X041119Y015510D01*
X041303Y015586D01*
X041444Y015727D01*
X041447Y015735D01*
X041447Y015593D02*
X041310Y015593D01*
X040068Y015274D02*
X038452Y015274D01*
X038520Y014956D02*
X040000Y014956D01*
X040166Y014637D02*
X038354Y014637D01*
X038419Y014319D02*
X040101Y014319D01*
X040000Y014000D02*
X038520Y014000D01*
X038399Y013682D02*
X040121Y013682D01*
X040146Y013363D02*
X038374Y013363D01*
X038520Y013045D02*
X040000Y013045D01*
X040077Y012726D02*
X038443Y012726D01*
X038520Y012089D02*
X039080Y012089D01*
X038900Y011771D02*
X038462Y011771D01*
X039620Y011452D02*
X046400Y011452D01*
X046400Y011771D02*
X041462Y011771D01*
X041443Y012726D02*
X042416Y012726D01*
X042416Y013045D02*
X041520Y013045D01*
X037101Y014319D02*
X031120Y014319D01*
X031120Y014000D02*
X037000Y014000D01*
X037166Y014637D02*
X031120Y014637D01*
X031120Y014956D02*
X032158Y014956D01*
X031947Y015166D02*
X032434Y014679D01*
X033122Y014679D01*
X033608Y015166D01*
X033608Y015854D01*
X033122Y016341D01*
X032434Y016341D01*
X031947Y015854D01*
X031947Y015166D01*
X031947Y015274D02*
X031120Y015274D01*
X031120Y015593D02*
X031947Y015593D01*
X032004Y015911D02*
X031120Y015911D01*
X031120Y016230D02*
X032323Y016230D01*
X033233Y016230D02*
X035787Y016230D01*
X035469Y015911D02*
X033551Y015911D01*
X033608Y015593D02*
X035412Y015593D01*
X035412Y015274D02*
X033608Y015274D01*
X033398Y014956D02*
X035622Y014956D01*
X036862Y014956D02*
X037000Y014956D01*
X037073Y015593D02*
X037210Y015593D01*
X037050Y016230D02*
X036697Y016230D01*
X037309Y016548D02*
X031120Y016548D01*
X031120Y016867D02*
X037018Y016867D01*
X037031Y017185D02*
X031120Y017185D01*
X027400Y017185D02*
X022120Y017185D01*
X022120Y016867D02*
X027400Y016867D01*
X027400Y016548D02*
X022120Y016548D01*
X022120Y016230D02*
X022823Y016230D01*
X023733Y016230D02*
X026287Y016230D01*
X027197Y016230D02*
X027400Y016230D01*
X025969Y015911D02*
X024051Y015911D01*
X024108Y015593D02*
X025912Y015593D01*
X025912Y015274D02*
X024108Y015274D01*
X023898Y014956D02*
X026122Y014956D01*
X027362Y014956D02*
X027400Y014956D01*
X027400Y014637D02*
X023120Y014637D01*
X023120Y014319D02*
X027400Y014319D01*
X027400Y014000D02*
X023120Y014000D01*
X023120Y013682D02*
X027400Y013682D01*
X027400Y013363D02*
X026467Y013363D01*
X026487Y013355D02*
X026440Y013374D01*
X026390Y013384D01*
X025994Y013384D01*
X025599Y013384D01*
X025548Y013374D01*
X025501Y013355D01*
X025482Y013342D01*
X025428Y013364D01*
X024592Y013364D01*
X024518Y013333D01*
X024443Y013364D01*
X023608Y013364D01*
X023520Y013328D01*
X023452Y013260D01*
X023416Y013172D01*
X023416Y012336D01*
X023452Y012248D01*
X023520Y012181D01*
X023608Y012144D01*
X024333Y012144D01*
X024093Y012022D01*
X023748Y011677D01*
X023748Y011677D01*
X023526Y011242D01*
X023450Y010760D01*
X023450Y010760D01*
X023526Y010278D01*
X023526Y010278D01*
X023748Y009843D01*
X024093Y009498D01*
X024528Y009276D01*
X025010Y009200D01*
X025492Y009276D01*
X025927Y009498D01*
X026272Y009843D01*
X026272Y009843D01*
X026494Y010278D01*
X026570Y010760D01*
X026570Y010760D01*
X026494Y011242D01*
X026272Y011677D01*
X025927Y012022D01*
X025927Y012022D01*
X025727Y012124D01*
X025994Y012124D01*
X025994Y012754D01*
X025994Y012754D01*
X025994Y013384D01*
X025994Y012754D01*
X025994Y012754D01*
X025994Y012124D01*
X026390Y012124D01*
X026440Y012134D01*
X026487Y012154D01*
X026530Y012182D01*
X026566Y012218D01*
X026595Y012261D01*
X026614Y012308D01*
X026624Y012358D01*
X026624Y012754D01*
X025994Y012754D01*
X025994Y012754D01*
X026624Y012754D01*
X026624Y013150D01*
X026614Y013200D01*
X026595Y013247D01*
X026566Y013290D01*
X026530Y013326D01*
X026487Y013355D01*
X025994Y013363D02*
X025994Y013363D01*
X025522Y013363D02*
X025430Y013363D01*
X024590Y013363D02*
X024446Y013363D01*
X023605Y013363D02*
X023120Y013363D01*
X023120Y013045D02*
X023416Y013045D01*
X023416Y012726D02*
X023084Y012726D01*
X022792Y012408D02*
X023416Y012408D01*
X022724Y012089D02*
X024224Y012089D01*
X024093Y012022D02*
X024093Y012022D01*
X023841Y011771D02*
X022508Y011771D01*
X022120Y011452D02*
X023633Y011452D01*
X023526Y011242D02*
X023526Y011242D01*
X023509Y011134D02*
X022120Y011134D01*
X022120Y010815D02*
X023459Y010815D01*
X023492Y010497D02*
X022120Y010497D01*
X022120Y010178D02*
X023577Y010178D01*
X023740Y009860D02*
X022120Y009860D01*
X022120Y009541D02*
X024050Y009541D01*
X024093Y009498D02*
X024093Y009498D01*
X023748Y009843D02*
X023748Y009843D01*
X024528Y009276D02*
X024528Y009276D01*
X024402Y009034D02*
X024158Y009136D01*
X023893Y009136D01*
X023649Y009034D01*
X023462Y008847D01*
X023361Y008603D01*
X023361Y008338D01*
X023462Y008094D01*
X023649Y007907D01*
X023893Y007806D01*
X024158Y007806D01*
X024402Y007907D01*
X024590Y008094D01*
X024691Y008338D01*
X024691Y008603D01*
X024590Y008847D01*
X024402Y009034D01*
X024533Y008904D02*
X025487Y008904D01*
X025430Y008847D02*
X025329Y008603D01*
X025329Y008338D01*
X025430Y008094D01*
X025618Y007907D01*
X025862Y007806D01*
X026127Y007806D01*
X026371Y007907D01*
X026558Y008094D01*
X026659Y008338D01*
X026659Y008603D01*
X026558Y008847D01*
X026371Y009034D01*
X026127Y009136D01*
X025862Y009136D01*
X025618Y009034D01*
X025430Y008847D01*
X025152Y009223D02*
X028150Y009223D01*
X027416Y008904D02*
X026501Y008904D01*
X025010Y009200D02*
X025010Y009200D01*
X024868Y009223D02*
X022120Y009223D01*
X022120Y008904D02*
X023519Y008904D01*
X023361Y008586D02*
X022120Y008586D01*
X022120Y008267D02*
X023390Y008267D01*
X023607Y007949D02*
X022120Y007949D01*
X022120Y007630D02*
X028121Y007630D01*
X028123Y007949D02*
X028150Y007949D01*
X027647Y007949D02*
X026413Y007949D01*
X025576Y007949D02*
X024444Y007949D01*
X024661Y008267D02*
X025359Y008267D01*
X025329Y008586D02*
X024691Y008586D01*
X026630Y008267D02*
X027325Y008267D01*
X027275Y008586D02*
X026659Y008586D01*
X025492Y009276D02*
X025492Y009276D01*
X025927Y009498D02*
X025927Y009498D01*
X025970Y009541D02*
X028150Y009541D01*
X028026Y009860D02*
X026280Y009860D01*
X026443Y010178D02*
X027362Y010178D01*
X027275Y010497D02*
X026528Y010497D01*
X026494Y010278D02*
X026494Y010278D01*
X026561Y010815D02*
X027351Y010815D01*
X027400Y011134D02*
X026511Y011134D01*
X026387Y011452D02*
X027400Y011452D01*
X027400Y011771D02*
X026179Y011771D01*
X026272Y011677D02*
X026272Y011677D01*
X025796Y012089D02*
X027400Y012089D01*
X027400Y012408D02*
X026624Y012408D01*
X025994Y012408D02*
X025994Y012408D01*
X025994Y012726D02*
X025994Y012726D01*
X025994Y013045D02*
X025994Y013045D01*
X026624Y013045D02*
X027400Y013045D01*
X027400Y012726D02*
X026624Y012726D01*
X018400Y014956D02*
X017862Y014956D01*
X018073Y015274D02*
X018400Y015274D01*
X018400Y015593D02*
X018073Y015593D01*
X018016Y015911D02*
X018400Y015911D01*
X016469Y015911D02*
X014551Y015911D01*
X014608Y015593D02*
X016412Y015593D01*
X016412Y015274D02*
X014608Y015274D01*
X014398Y014956D02*
X016622Y014956D01*
X013158Y014956D02*
X008362Y014956D01*
X008573Y015274D02*
X012947Y015274D01*
X012947Y015593D02*
X008573Y015593D01*
X008516Y015911D02*
X013004Y015911D01*
X007122Y014956D02*
X004898Y014956D01*
X005108Y015274D02*
X006912Y015274D01*
X006912Y015593D02*
X005108Y015593D01*
X005051Y015911D02*
X006969Y015911D01*
X006994Y012408D02*
X006994Y012408D01*
X022120Y015911D02*
X022504Y015911D01*
X022447Y015593D02*
X022312Y015593D01*
X022120Y017504D02*
X027400Y017504D01*
X027400Y017822D02*
X022120Y017822D01*
X022207Y018141D02*
X027313Y018141D01*
X027150Y018459D02*
X022370Y018459D01*
X022329Y018778D02*
X027191Y018778D01*
X027469Y019096D02*
X022051Y019096D01*
X021469Y019096D02*
X021051Y019096D01*
X020469Y019096D02*
X020051Y019096D01*
X019469Y019096D02*
X019051Y019096D01*
X028051Y019096D02*
X028469Y019096D01*
X029051Y019096D02*
X029469Y019096D01*
X030051Y019096D02*
X030469Y019096D01*
X038489Y017185D02*
X040031Y017185D01*
X040018Y016867D02*
X038502Y016867D01*
X038211Y016548D02*
X040309Y016548D01*
X040050Y016230D02*
X038470Y016230D01*
X041502Y016867D02*
X046400Y016867D01*
X046400Y017185D02*
X041489Y017185D01*
X041135Y017504D02*
X046400Y017504D01*
X046400Y017822D02*
X041483Y017822D01*
X041507Y018141D02*
X046313Y018141D01*
X046150Y018459D02*
X043156Y018459D01*
X042864Y018459D02*
X042207Y018459D01*
X042010Y018459D02*
X042010Y018459D01*
X041813Y018459D02*
X041243Y018459D01*
X042010Y018778D02*
X042010Y018778D01*
X042010Y019096D02*
X042010Y019096D01*
X040760Y019096D02*
X040760Y019096D01*
X043525Y018778D02*
X046191Y018778D01*
X046469Y019096D02*
X043575Y019096D01*
X047051Y019096D02*
X047469Y019096D01*
X048051Y019096D02*
X048469Y019096D01*
X049051Y019096D02*
X049469Y019096D01*
X050051Y019096D02*
X050432Y019096D01*
X051351Y018778D02*
X073842Y018778D01*
X076068Y017504D02*
X076200Y017504D01*
X076200Y013045D02*
X073624Y013045D01*
X073624Y012726D02*
X076200Y012726D01*
X076200Y012408D02*
X073624Y012408D01*
X072994Y012408D02*
X072994Y012408D01*
X072994Y012726D02*
X072994Y012726D01*
X072994Y013045D02*
X072994Y013045D01*
X070416Y013045D02*
X064624Y013045D01*
X064624Y012726D02*
X070416Y012726D01*
X070416Y012408D02*
X064624Y012408D01*
X063994Y012408D02*
X063994Y012408D01*
X063994Y012726D02*
X063994Y012726D01*
X063994Y013045D02*
X063994Y013045D01*
X061416Y013045D02*
X055124Y013045D01*
X055124Y012726D02*
X061416Y012726D01*
X061416Y012408D02*
X055124Y012408D01*
X054494Y012408D02*
X054494Y012408D01*
X054296Y012089D02*
X076200Y012089D01*
X076200Y011771D02*
X054679Y011771D01*
X054772Y011677D02*
X054772Y011677D01*
X054887Y011452D02*
X076200Y011452D01*
X076200Y011134D02*
X055011Y011134D01*
X054994Y011242D02*
X054994Y011242D01*
X055061Y010815D02*
X076200Y010815D01*
X076200Y010497D02*
X055028Y010497D01*
X054994Y010278D02*
X054994Y010278D01*
X054943Y010178D02*
X076200Y010178D01*
X076200Y009860D02*
X054780Y009860D01*
X054470Y009541D02*
X076200Y009541D01*
X070361Y008586D02*
X064659Y008586D01*
X064630Y008267D02*
X070390Y008267D01*
X076200Y007312D02*
X049120Y007312D01*
X049120Y006993D02*
X076200Y006993D01*
X076200Y006675D02*
X049120Y006675D01*
X049120Y006356D02*
X076200Y006356D01*
X076200Y006038D02*
X049120Y006038D01*
X049120Y005719D02*
X049616Y005719D01*
X049904Y005719D02*
X050570Y005719D01*
X050760Y005719D02*
X050760Y005719D01*
X050760Y005748D02*
X050810Y005748D01*
X050908Y005733D01*
X051002Y005702D01*
X051090Y005657D01*
X051170Y005599D01*
X051241Y005529D01*
X051299Y005448D01*
X051344Y005360D01*
X051374Y005266D01*
X051390Y005168D01*
X051390Y005118D01*
X050760Y005118D01*
X050760Y005118D01*
X050760Y005748D01*
X050950Y005719D02*
X076200Y005719D01*
X076200Y005401D02*
X051323Y005401D01*
X050760Y005401D02*
X050760Y005401D01*
X050760Y005118D02*
X050760Y005118D01*
X050760Y005082D02*
X050760Y005082D01*
X050760Y004764D02*
X050760Y004764D01*
X051281Y004764D02*
X076200Y004764D01*
X076200Y005082D02*
X051390Y005082D01*
X049120Y004445D02*
X076200Y004445D01*
X076200Y004127D02*
X075817Y004127D01*
X074953Y004127D02*
X073339Y004127D01*
X073371Y004113D02*
X073127Y004214D01*
X072862Y004214D01*
X072618Y004113D01*
X072430Y003926D01*
X072329Y003682D01*
X072329Y003417D01*
X072430Y003173D01*
X072618Y002986D01*
X072862Y002884D01*
X073127Y002884D01*
X073371Y002986D01*
X073558Y003173D01*
X073659Y003417D01*
X073659Y003682D01*
X073558Y003926D01*
X073371Y004113D01*
X072650Y004127D02*
X071396Y004127D01*
X071407Y004120D02*
X071329Y004165D01*
X071246Y004199D01*
X071160Y004223D01*
X071071Y004234D01*
X071026Y004234D01*
X071026Y003549D01*
X071026Y002864D01*
X071071Y002864D01*
X071160Y002876D01*
X071246Y002899D01*
X071329Y002934D01*
X071407Y002979D01*
X071478Y003033D01*
X071542Y003097D01*
X071597Y003168D01*
X071641Y003246D01*
X071676Y003329D01*
X071699Y003415D01*
X071711Y003504D01*
X071711Y003549D01*
X071026Y003549D01*
X071026Y003549D01*
X071026Y003549D01*
X071026Y002864D01*
X070981Y002864D01*
X070892Y002876D01*
X070805Y002899D01*
X070722Y002934D01*
X070644Y002979D01*
X070573Y003033D01*
X070510Y003097D01*
X070455Y003168D01*
X070410Y003246D01*
X070376Y003329D01*
X070352Y003415D01*
X070341Y003504D01*
X070341Y003549D01*
X071026Y003549D01*
X071711Y003549D01*
X071711Y003594D01*
X071699Y003683D01*
X071676Y003770D01*
X071641Y003853D01*
X071597Y003931D01*
X071542Y004002D01*
X071478Y004065D01*
X071407Y004120D01*
X071026Y004127D02*
X071026Y004127D01*
X071026Y004234D02*
X070981Y004234D01*
X070892Y004223D01*
X070805Y004199D01*
X070722Y004165D01*
X070644Y004120D01*
X070573Y004065D01*
X070510Y004002D01*
X070455Y003931D01*
X070410Y003853D01*
X070376Y003770D01*
X070352Y003683D01*
X070341Y003594D01*
X070341Y003549D01*
X071026Y003549D01*
X071026Y003549D01*
X071026Y003549D01*
X071026Y004234D01*
X070655Y004127D02*
X064339Y004127D01*
X064371Y004113D02*
X064127Y004214D01*
X063862Y004214D01*
X063618Y004113D01*
X063430Y003926D01*
X063329Y003682D01*
X063329Y003417D01*
X063430Y003173D01*
X063618Y002986D01*
X063862Y002884D01*
X064127Y002884D01*
X064371Y002986D01*
X064558Y003173D01*
X064659Y003417D01*
X064659Y003682D01*
X064558Y003926D01*
X064371Y004113D01*
X063650Y004127D02*
X062396Y004127D01*
X062407Y004120D02*
X062329Y004165D01*
X062246Y004199D01*
X062160Y004223D01*
X062071Y004234D01*
X062026Y004234D01*
X062026Y003549D01*
X062026Y002864D01*
X062071Y002864D01*
X062160Y002876D01*
X062246Y002899D01*
X062329Y002934D01*
X062407Y002979D01*
X062478Y003033D01*
X062542Y003097D01*
X062597Y003168D01*
X062641Y003246D01*
X062676Y003329D01*
X062699Y003415D01*
X062711Y003504D01*
X062711Y003549D01*
X062026Y003549D01*
X062026Y003549D01*
X062026Y003549D01*
X062026Y002864D01*
X061981Y002864D01*
X061892Y002876D01*
X061805Y002899D01*
X061722Y002934D01*
X061644Y002979D01*
X061573Y003033D01*
X061510Y003097D01*
X061455Y003168D01*
X061410Y003246D01*
X061376Y003329D01*
X061352Y003415D01*
X061341Y003504D01*
X061341Y003549D01*
X062026Y003549D01*
X062711Y003549D01*
X062711Y003594D01*
X062699Y003683D01*
X062676Y003770D01*
X062641Y003853D01*
X062597Y003931D01*
X062542Y004002D01*
X062478Y004065D01*
X062407Y004120D01*
X062026Y004127D02*
X062026Y004127D01*
X062026Y004234D02*
X061981Y004234D01*
X061892Y004223D01*
X061805Y004199D01*
X061722Y004165D01*
X061644Y004120D01*
X061573Y004065D01*
X061510Y004002D01*
X061455Y003931D01*
X061410Y003853D01*
X061376Y003770D01*
X061352Y003683D01*
X061341Y003594D01*
X061341Y003549D01*
X062026Y003549D01*
X062026Y003549D01*
X062026Y003549D01*
X062026Y004234D01*
X061655Y004127D02*
X054839Y004127D01*
X054871Y004113D02*
X054627Y004214D01*
X054362Y004214D01*
X054118Y004113D01*
X053930Y003926D01*
X053829Y003682D01*
X053829Y003417D01*
X053930Y003173D01*
X054118Y002986D01*
X054362Y002884D01*
X054627Y002884D01*
X054871Y002986D01*
X055058Y003173D01*
X055159Y003417D01*
X055159Y003682D01*
X055058Y003926D01*
X054871Y004113D01*
X054150Y004127D02*
X052896Y004127D01*
X052907Y004120D02*
X052829Y004165D01*
X052746Y004199D01*
X052660Y004223D01*
X052571Y004234D01*
X052526Y004234D01*
X052526Y003549D01*
X052526Y002864D01*
X052571Y002864D01*
X052660Y002876D01*
X052746Y002899D01*
X052829Y002934D01*
X052907Y002979D01*
X052978Y003033D01*
X053042Y003097D01*
X053097Y003168D01*
X053141Y003246D01*
X053176Y003329D01*
X053199Y003415D01*
X053211Y003504D01*
X053211Y003549D01*
X052526Y003549D01*
X052526Y003549D01*
X052526Y003549D01*
X052526Y002864D01*
X052481Y002864D01*
X052392Y002876D01*
X052305Y002899D01*
X052222Y002934D01*
X052144Y002979D01*
X052073Y003033D01*
X052010Y003097D01*
X051955Y003168D01*
X051910Y003246D01*
X051876Y003329D01*
X051852Y003415D01*
X051841Y003504D01*
X051841Y003549D01*
X052526Y003549D01*
X053211Y003549D01*
X053211Y003594D01*
X053199Y003683D01*
X053176Y003770D01*
X053141Y003853D01*
X053097Y003931D01*
X053042Y004002D01*
X052978Y004065D01*
X052907Y004120D01*
X052526Y004127D02*
X052526Y004127D01*
X052526Y004234D02*
X052481Y004234D01*
X052392Y004223D01*
X052305Y004199D01*
X052222Y004165D01*
X052144Y004120D01*
X052073Y004065D01*
X052010Y004002D01*
X051955Y003931D01*
X051910Y003853D01*
X051876Y003770D01*
X051852Y003683D01*
X051841Y003594D01*
X051841Y003549D01*
X052526Y003549D01*
X052526Y003549D01*
X052526Y003549D01*
X052526Y004234D01*
X052155Y004127D02*
X049120Y004127D01*
X048400Y004127D02*
X047636Y004127D01*
X047954Y004445D02*
X048400Y004445D01*
X048400Y003808D02*
X045607Y003808D01*
X045659Y003490D02*
X048400Y003490D01*
X049120Y003490D02*
X051843Y003490D01*
X051891Y003808D02*
X049120Y003808D01*
X049120Y003171D02*
X051953Y003171D01*
X052526Y003171D02*
X052526Y003171D01*
X053098Y003171D02*
X053932Y003171D01*
X055056Y003171D02*
X061453Y003171D01*
X062026Y003171D02*
X062026Y003171D01*
X062598Y003171D02*
X063432Y003171D01*
X064556Y003171D02*
X070453Y003171D01*
X071026Y003171D02*
X071026Y003171D01*
X071598Y003171D02*
X072432Y003171D01*
X072329Y003490D02*
X071709Y003490D01*
X071660Y003808D02*
X072382Y003808D01*
X071026Y003808D02*
X071026Y003808D01*
X071026Y003490D02*
X071026Y003490D01*
X070343Y003490D02*
X064659Y003490D01*
X064607Y003808D02*
X070391Y003808D01*
X073607Y003808D02*
X074379Y003808D01*
X074091Y003490D02*
X073659Y003490D01*
X073556Y003171D02*
X073929Y003171D01*
X073859Y002853D02*
X049084Y002853D01*
X048400Y003171D02*
X045556Y003171D01*
X044432Y003171D02*
X043598Y003171D01*
X042453Y003171D02*
X041882Y003171D01*
X042249Y003490D02*
X042343Y003490D01*
X043660Y003808D02*
X044382Y003808D01*
X044329Y003490D02*
X043709Y003490D01*
X041867Y004127D02*
X041344Y004127D01*
X040176Y004127D02*
X039620Y004127D01*
X039620Y004445D02*
X040000Y004445D01*
X040064Y004764D02*
X039620Y004764D01*
X039620Y005082D02*
X040227Y005082D01*
X041293Y005082D02*
X041823Y005082D01*
X041516Y005401D02*
X042141Y005401D01*
X041475Y005719D02*
X046400Y005719D01*
X046400Y006038D02*
X041186Y006038D01*
X041497Y006356D02*
X046400Y006356D01*
X046400Y006675D02*
X041493Y006675D01*
X041160Y006993D02*
X046400Y006993D01*
X046400Y007312D02*
X041479Y007312D01*
X041511Y007630D02*
X046400Y007630D01*
X046400Y007949D02*
X045413Y007949D01*
X040023Y006356D02*
X039620Y006356D01*
X039620Y006038D02*
X040334Y006038D01*
X040045Y005719D02*
X039620Y005719D01*
X039620Y005401D02*
X040004Y005401D01*
X038900Y005401D02*
X038516Y005401D01*
X038520Y005411D02*
X038520Y005609D01*
X038444Y005793D01*
X038303Y005934D01*
X038119Y006010D01*
X037401Y006010D01*
X037217Y005934D01*
X037076Y005793D01*
X037000Y005609D01*
X037000Y005411D01*
X037076Y005227D01*
X037217Y005086D01*
X037401Y005010D01*
X037217Y004934D01*
X037076Y004793D01*
X037000Y004609D01*
X037000Y004411D01*
X037076Y004227D01*
X037217Y004086D01*
X037401Y004010D01*
X037217Y003934D01*
X037076Y003793D01*
X037000Y003609D01*
X037000Y003411D01*
X037076Y003227D01*
X037217Y003086D01*
X037401Y003010D01*
X038119Y003010D01*
X038303Y003086D01*
X038444Y003227D01*
X038520Y003411D01*
X038520Y003609D01*
X038444Y003793D01*
X038303Y003934D01*
X038119Y004010D01*
X037401Y004010D01*
X038119Y004010D01*
X038303Y004086D01*
X038444Y004227D01*
X038520Y004411D01*
X038520Y004609D01*
X038444Y004793D01*
X038303Y004934D01*
X038119Y005010D01*
X037401Y005010D01*
X038119Y005010D01*
X038303Y005086D01*
X038444Y005227D01*
X038520Y005411D01*
X038475Y005719D02*
X038900Y005719D01*
X038900Y006038D02*
X038186Y006038D01*
X038497Y006356D02*
X038900Y006356D01*
X037334Y006038D02*
X036870Y006038D01*
X036870Y006356D02*
X037023Y006356D01*
X036150Y006356D02*
X031240Y006356D01*
X031120Y006038D02*
X036150Y006038D01*
X036150Y005719D02*
X031120Y005719D01*
X031303Y005401D02*
X036150Y005401D01*
X036870Y005401D02*
X037004Y005401D01*
X037045Y005719D02*
X036870Y005719D01*
X036870Y005082D02*
X037227Y005082D01*
X037064Y004764D02*
X036870Y004764D01*
X036150Y004764D02*
X031268Y004764D01*
X031370Y005082D02*
X036150Y005082D01*
X036870Y004445D02*
X037000Y004445D01*
X036870Y004127D02*
X037176Y004127D01*
X037091Y003808D02*
X036870Y003808D01*
X036870Y003490D02*
X037000Y003490D01*
X036150Y003808D02*
X036107Y003808D01*
X034882Y003808D02*
X034160Y003808D01*
X034209Y003490D02*
X034829Y003490D01*
X033526Y003808D02*
X033526Y003808D01*
X036612Y002853D02*
X037135Y002853D01*
X037076Y002793D02*
X037217Y002934D01*
X037401Y003010D01*
X038119Y003010D01*
X038303Y002934D01*
X038444Y002793D01*
X038520Y002609D01*
X038520Y002411D01*
X038444Y002227D01*
X038303Y002086D01*
X038119Y002010D01*
X037401Y002010D01*
X037217Y002086D01*
X037076Y002227D01*
X037000Y002411D01*
X037000Y002609D01*
X037076Y002793D01*
X037000Y002534D02*
X036293Y002534D01*
X036120Y002216D02*
X037087Y002216D01*
X036010Y001897D02*
X074032Y001897D01*
X073891Y002216D02*
X048475Y002216D01*
X048793Y002534D02*
X073841Y002534D01*
X063382Y003808D02*
X062660Y003808D01*
X062709Y003490D02*
X063329Y003490D01*
X062026Y003490D02*
X062026Y003490D01*
X062026Y003808D02*
X062026Y003808D01*
X061391Y003808D02*
X055107Y003808D01*
X055159Y003490D02*
X061343Y003490D01*
X053882Y003808D02*
X053160Y003808D01*
X053209Y003490D02*
X053829Y003490D01*
X052526Y003490D02*
X052526Y003490D01*
X052526Y003808D02*
X052526Y003808D01*
X040132Y003171D02*
X039620Y003171D01*
X038900Y003171D02*
X038388Y003171D01*
X038385Y002853D02*
X038900Y002853D01*
X038977Y002534D02*
X038520Y002534D01*
X038433Y002216D02*
X039295Y002216D01*
X037132Y003171D02*
X036863Y003171D01*
X038520Y003490D02*
X038900Y003490D01*
X038900Y003808D02*
X038429Y003808D01*
X039620Y003808D02*
X040091Y003808D01*
X040000Y003490D02*
X039620Y003490D01*
X038900Y004127D02*
X038344Y004127D01*
X038520Y004445D02*
X038900Y004445D01*
X038900Y004764D02*
X038456Y004764D01*
X038293Y005082D02*
X038900Y005082D01*
X037027Y006675D02*
X036870Y006675D01*
X036870Y006993D02*
X037360Y006993D01*
X036150Y006993D02*
X031877Y006993D01*
X031559Y006675D02*
X036150Y006675D01*
X036150Y007312D02*
X032196Y007312D01*
X032514Y007630D02*
X036371Y007630D01*
X035913Y007949D02*
X037252Y007949D01*
X036159Y008338D02*
X036058Y008094D01*
X035871Y007907D01*
X035627Y007806D01*
X035362Y007806D01*
X035118Y007907D01*
X034930Y008094D01*
X034829Y008338D01*
X034829Y008603D01*
X034930Y008847D01*
X035118Y009034D01*
X035362Y009136D01*
X035627Y009136D01*
X035871Y009034D01*
X036058Y008847D01*
X036159Y008603D01*
X036159Y008338D01*
X036130Y008267D02*
X037059Y008267D01*
X037000Y008586D02*
X036159Y008586D01*
X036001Y008904D02*
X037187Y008904D01*
X037080Y009223D02*
X032620Y009223D01*
X032620Y008904D02*
X033019Y008904D01*
X032962Y008847D02*
X032861Y008603D01*
X032861Y008338D01*
X032962Y008094D01*
X033149Y007907D01*
X033393Y007806D01*
X033658Y007806D01*
X033902Y007907D01*
X034090Y008094D01*
X034191Y008338D01*
X034191Y008603D01*
X034090Y008847D01*
X033902Y009034D01*
X033658Y009136D01*
X033393Y009136D01*
X033149Y009034D01*
X032962Y008847D01*
X034033Y008904D02*
X034987Y008904D01*
X034829Y008586D02*
X034191Y008586D01*
X034161Y008267D02*
X034859Y008267D01*
X035076Y007949D02*
X033944Y007949D01*
X033107Y007949D02*
X032620Y007949D01*
X032620Y008267D02*
X032890Y008267D01*
X032861Y008586D02*
X032620Y008586D01*
X032620Y009541D02*
X037000Y009541D01*
X037142Y009860D02*
X032620Y009860D01*
X035494Y012408D02*
X035494Y012408D01*
X042479Y009860D02*
X042560Y009860D01*
X043460Y009860D02*
X046400Y009860D01*
X046400Y009541D02*
X043575Y009541D01*
X052593Y009498D02*
X052593Y009498D01*
X053028Y009276D02*
X053028Y009276D01*
X053992Y009276D02*
X053992Y009276D01*
X054427Y009498D02*
X054427Y009498D01*
X053829Y008586D02*
X053191Y008586D01*
X053161Y008267D02*
X053859Y008267D01*
X054427Y012022D02*
X054427Y012022D01*
X054494Y012726D02*
X054494Y012726D01*
X054494Y013045D02*
X054494Y013045D01*
X046400Y014956D02*
X046362Y014956D01*
X027802Y007312D02*
X022120Y007312D01*
X022120Y006993D02*
X027484Y006993D01*
X027400Y006675D02*
X022120Y006675D01*
X022120Y006356D02*
X027400Y006356D01*
X027400Y006038D02*
X022120Y006038D01*
X022120Y005719D02*
X027400Y005719D01*
X027217Y005401D02*
X022303Y005401D01*
X022370Y005082D02*
X027150Y005082D01*
X027252Y004764D02*
X022268Y004764D01*
X023391Y003808D02*
X017107Y003808D01*
X017159Y003490D02*
X023343Y003490D01*
X024026Y003490D02*
X024026Y003490D01*
X024026Y003808D02*
X024026Y003808D01*
X015882Y003808D02*
X015160Y003808D01*
X015209Y003490D02*
X015829Y003490D01*
X014526Y003490D02*
X014526Y003490D01*
X014526Y003808D02*
X014526Y003808D01*
X003988Y001897D02*
X033010Y001897D01*
X034010Y001897D02*
X035010Y001897D01*
X034900Y002216D02*
X034120Y002216D01*
X034057Y002534D02*
X034963Y002534D01*
D17*
X035510Y002260D02*
X036510Y003260D01*
X036510Y007260D01*
X036760Y007510D01*
X037760Y007510D01*
X032260Y007885D02*
X030760Y006385D01*
X030760Y005118D01*
X029760Y005118D02*
X029760Y006760D01*
X031010Y008010D01*
X031010Y009885D01*
X030385Y010510D01*
X030385Y011385D01*
X029760Y012010D01*
X029760Y018556D01*
X030760Y018556D02*
X030760Y012010D01*
X031635Y011135D01*
X031635Y010510D01*
X032260Y009885D01*
X032260Y007885D01*
X029760Y007760D02*
X028760Y006760D01*
X028760Y005118D01*
X027760Y005118D02*
X027760Y006760D01*
X028510Y007510D01*
X028510Y009885D01*
X027885Y010510D01*
X027760Y010635D01*
X027760Y018556D01*
X028760Y018556D02*
X028760Y012010D01*
X029260Y011510D01*
X029260Y010635D01*
X029135Y010510D01*
X029760Y009885D01*
X029760Y007760D01*
X021760Y005118D02*
X021760Y011885D01*
X022135Y012260D01*
X022760Y012885D01*
X022760Y014635D01*
X021760Y015635D01*
X021760Y018556D01*
X020760Y018556D02*
X020760Y015385D01*
X021510Y014635D01*
X021510Y012885D01*
X020885Y012260D01*
X020885Y012135D01*
X020760Y012010D01*
X020760Y005118D01*
X019760Y005118D02*
X019760Y012010D01*
X019635Y012135D01*
X019635Y012260D01*
X020260Y012885D01*
X020260Y014635D01*
X019760Y015135D01*
X019760Y018556D01*
X018760Y018556D02*
X018760Y014885D01*
X019010Y014635D01*
X019010Y012885D01*
X018385Y012260D01*
X018385Y012135D01*
X018760Y011760D01*
X018760Y005118D01*
X039260Y002760D02*
X039510Y002510D01*
X040760Y002510D01*
X048260Y002510D01*
X048760Y003010D01*
X048760Y005118D01*
X048760Y018556D01*
X047760Y018556D02*
X047760Y005118D01*
X047760Y004760D01*
X047260Y004260D01*
X042510Y004260D01*
X041760Y003510D01*
X040760Y003510D01*
X040760Y004510D02*
X041760Y004510D01*
X042368Y005118D01*
X046760Y005118D01*
X046760Y018556D01*
X040760Y012010D02*
X039510Y012010D01*
X039260Y011760D01*
X039260Y002760D01*
M02*
