G75*
G70*
%OFA0B0*%
%FSLAX24Y24*%
%IPPOS*%
%LPD*%
%AMOC8*
5,1,8,0,0,1.08239X$1,22.5*
%
%ADD10R,0.0740X0.0740*%
%ADD11OC8,0.1181*%
%ADD12C,0.0520*%
%ADD13C,0.0740*%
%ADD14C,0.0650*%
%ADD15C,0.0850*%
%ADD16C,0.0240*%
%ADD17C,0.0320*%
D10*
X005026Y012754D03*
X006010Y012754D03*
X006994Y012754D03*
X014526Y012754D03*
X015510Y012754D03*
X016494Y012754D03*
X024026Y012754D03*
X025010Y012754D03*
X025994Y012754D03*
X033526Y012754D03*
X034510Y012754D03*
X035494Y012754D03*
X043026Y012754D03*
X044010Y012754D03*
X044994Y012754D03*
X052526Y012754D03*
X053510Y012754D03*
X054494Y012754D03*
X062026Y012754D03*
X063010Y012754D03*
X063994Y012754D03*
X071026Y012754D03*
X072010Y012754D03*
X072994Y012754D03*
D11*
X073742Y015510D03*
X070278Y015510D03*
X064742Y015510D03*
X061278Y015510D03*
X055242Y015510D03*
X051778Y015510D03*
X045742Y015510D03*
X042278Y015510D03*
X036242Y015510D03*
X032778Y015510D03*
X026742Y015510D03*
X023278Y015510D03*
X017242Y015510D03*
X013778Y015510D03*
X007742Y015510D03*
X004278Y015510D03*
D12*
X037500Y015010D02*
X038020Y015010D01*
X040500Y015010D02*
X041020Y015010D01*
X041020Y014010D02*
X040500Y014010D01*
X038020Y014010D02*
X037500Y014010D01*
X037500Y013010D02*
X038020Y013010D01*
X040500Y013010D02*
X041020Y013010D01*
X041020Y012010D02*
X040500Y012010D01*
X038020Y012010D02*
X037500Y012010D01*
X037500Y009510D02*
X038020Y009510D01*
X040500Y009510D02*
X041020Y009510D01*
X041020Y008510D02*
X040500Y008510D01*
X038020Y008510D02*
X037500Y008510D01*
X037500Y007510D02*
X038020Y007510D01*
X040500Y007510D02*
X041020Y007510D01*
X041020Y006510D02*
X040500Y006510D01*
X038020Y006510D02*
X037500Y006510D01*
X037500Y005510D02*
X038020Y005510D01*
X040500Y005510D02*
X041020Y005510D01*
X041020Y004510D02*
X040500Y004510D01*
X038020Y004510D02*
X037500Y004510D01*
X037500Y003510D02*
X038020Y003510D01*
X040500Y003510D02*
X041020Y003510D01*
X041020Y002510D02*
X040500Y002510D01*
X038020Y002510D02*
X037500Y002510D01*
X037500Y016010D02*
X038020Y016010D01*
X040500Y016010D02*
X041020Y016010D01*
X041020Y017010D02*
X040500Y017010D01*
X038020Y017010D02*
X037500Y017010D01*
X037500Y018010D02*
X038020Y018010D01*
X040500Y018010D02*
X041020Y018010D01*
X041020Y019010D02*
X040500Y019010D01*
X038020Y019010D02*
X037500Y019010D01*
D13*
X030760Y018556D03*
X029760Y018556D03*
X028760Y018556D03*
X027760Y018556D03*
X021760Y018556D03*
X020760Y018556D03*
X019760Y018556D03*
X018760Y018556D03*
X018385Y014260D03*
X019635Y014260D03*
X020885Y014260D03*
X022135Y014260D03*
X022135Y012260D03*
X020885Y012260D03*
X019635Y012260D03*
X018385Y012260D03*
X027885Y010510D03*
X029135Y010510D03*
X030385Y010510D03*
X031635Y010510D03*
X031635Y008510D03*
X030385Y008510D03*
X029135Y008510D03*
X027885Y008510D03*
X027760Y005118D03*
X028760Y005118D03*
X029760Y005118D03*
X030760Y005118D03*
X021760Y005118D03*
X020760Y005118D03*
X019760Y005118D03*
X018760Y005118D03*
X033510Y002260D03*
X035510Y002260D03*
X046760Y005118D03*
X047760Y005118D03*
X048760Y005118D03*
X049760Y005118D03*
X050760Y005118D03*
X050760Y018556D03*
X049760Y018556D03*
X048760Y018556D03*
X047760Y018556D03*
X046760Y018556D03*
D14*
X043010Y019010D03*
X042010Y019010D03*
X042010Y009510D03*
X043010Y009510D03*
D15*
X043026Y008471D03*
X044994Y008471D03*
X052526Y008471D03*
X054494Y008471D03*
X062026Y008471D03*
X063994Y008471D03*
X071026Y008471D03*
X072994Y008471D03*
X072994Y003549D03*
X071026Y003549D03*
X063994Y003549D03*
X062026Y003549D03*
X054494Y003549D03*
X052526Y003549D03*
X044994Y003549D03*
X043026Y003549D03*
X035494Y003549D03*
X033526Y003549D03*
X025994Y003549D03*
X024026Y003549D03*
X016494Y003549D03*
X014526Y003549D03*
X006994Y003549D03*
X005026Y003549D03*
X005026Y008471D03*
X006994Y008471D03*
X014526Y008471D03*
X016494Y008471D03*
X024026Y008471D03*
X025994Y008471D03*
X033526Y008471D03*
X035494Y008471D03*
D16*
X036510Y009260D02*
X037260Y008510D01*
X037760Y008510D01*
X036510Y009260D02*
X017010Y009260D01*
X016510Y008760D01*
X016510Y003565D01*
X016494Y003549D01*
X025994Y003549D02*
X026010Y003565D01*
X026010Y006010D01*
X026510Y006510D01*
X037760Y006510D01*
X037760Y007510D02*
X032760Y007510D01*
X031760Y008510D01*
X031635Y008510D01*
X030385Y008510D01*
X029135Y008510D01*
X027885Y008510D01*
X036760Y009760D02*
X037010Y009510D01*
X037760Y009510D01*
X036760Y009760D02*
X007510Y009760D01*
X007010Y009260D01*
X007010Y003565D01*
X006994Y003549D01*
X035494Y003549D02*
X035510Y003565D01*
X035510Y005010D01*
X036010Y005510D01*
X037760Y005510D01*
X040760Y005510D02*
X044510Y005510D01*
X045010Y005010D01*
X045010Y003565D01*
X044994Y003549D01*
X041760Y004260D02*
X041510Y004510D01*
X040760Y004510D01*
X041760Y004260D02*
X041760Y002260D01*
X041260Y001760D01*
X039010Y001760D01*
X038760Y002010D01*
X038760Y013760D01*
X039010Y014010D01*
X040760Y014010D01*
X041260Y015010D02*
X042510Y013760D01*
X043510Y013760D01*
X044010Y013260D01*
X044010Y012754D01*
X040760Y013010D02*
X039510Y013010D01*
X039260Y012760D01*
X039260Y003760D01*
X039510Y003510D01*
X040760Y003510D01*
X040760Y006510D02*
X054010Y006510D01*
X054510Y006010D01*
X054510Y003565D01*
X054494Y003549D01*
X063994Y003549D02*
X064010Y003565D01*
X064010Y006760D01*
X063510Y007260D01*
X041510Y007260D01*
X041260Y007510D01*
X040760Y007510D01*
X041760Y007760D02*
X072510Y007760D01*
X073010Y007260D01*
X073010Y003565D01*
X072994Y003549D01*
X041760Y007760D02*
X041010Y008510D01*
X040760Y008510D01*
X034510Y012754D02*
X034510Y013260D01*
X035010Y013760D01*
X036010Y013760D01*
X037260Y015010D01*
X037760Y015010D01*
X035010Y015010D02*
X033760Y013760D01*
X025510Y013760D01*
X025010Y013260D01*
X025010Y012754D01*
X022135Y014260D02*
X020885Y014260D01*
X019635Y014260D01*
X018385Y014260D01*
X022135Y014260D02*
X033510Y014260D01*
X034510Y015260D01*
X034510Y016260D01*
X035260Y017010D01*
X037760Y017010D01*
X036760Y016510D02*
X035510Y016510D01*
X035010Y016010D01*
X035010Y015010D01*
X036760Y016510D02*
X037260Y016010D01*
X037760Y016010D01*
X040760Y016010D02*
X041260Y016010D01*
X041760Y016510D01*
X053010Y016510D01*
X053510Y016010D01*
X053510Y012754D01*
X063010Y012754D02*
X063010Y016510D01*
X062510Y017010D01*
X040760Y017010D01*
X041760Y017510D02*
X071510Y017510D01*
X072010Y017010D01*
X072010Y012754D01*
X041760Y017510D02*
X041260Y018010D01*
X040760Y018010D01*
X037760Y018010D02*
X035510Y018010D01*
X034510Y017010D01*
X016010Y017010D01*
X015510Y016510D01*
X015510Y012754D01*
X006010Y012754D02*
X006010Y017010D01*
X006510Y017510D01*
X034260Y017510D01*
X035760Y019010D01*
X037760Y019010D01*
X040760Y015010D02*
X041260Y015010D01*
D17*
X004119Y002153D02*
X003949Y001820D01*
X033059Y001820D01*
X033029Y001850D01*
X032971Y001930D01*
X032926Y002018D01*
X032896Y002112D01*
X032880Y002210D01*
X032880Y002260D01*
X033510Y002260D01*
X034140Y002260D01*
X034140Y002310D01*
X034124Y002408D01*
X034094Y002502D01*
X034049Y002590D01*
X033991Y002670D01*
X033920Y002741D01*
X033840Y002799D01*
X033752Y002844D01*
X033658Y002874D01*
X033595Y002884D01*
X033658Y002884D01*
X033902Y002986D01*
X034090Y003173D01*
X034191Y003417D01*
X034191Y003682D01*
X034090Y003926D01*
X033902Y004113D01*
X033658Y004214D01*
X033393Y004214D01*
X033149Y004113D01*
X032962Y003926D01*
X032861Y003682D01*
X032861Y003417D01*
X032962Y003173D01*
X033149Y002986D01*
X033393Y002884D01*
X033425Y002884D01*
X033362Y002874D01*
X033268Y002844D01*
X033180Y002799D01*
X033100Y002741D01*
X033029Y002670D01*
X032971Y002590D01*
X032926Y002502D01*
X032896Y002408D01*
X032880Y002310D01*
X032880Y002260D01*
X033510Y002260D01*
X033510Y002260D01*
X033510Y002260D01*
X034140Y002260D01*
X034140Y002210D01*
X034124Y002112D01*
X034094Y002018D01*
X034049Y001930D01*
X033991Y001850D01*
X033961Y001820D01*
X035087Y001820D01*
X034993Y001914D01*
X034900Y002139D01*
X034900Y002381D01*
X034993Y002606D01*
X035164Y002777D01*
X035389Y002870D01*
X035631Y002870D01*
X035856Y002777D01*
X036027Y002606D01*
X036120Y002381D01*
X036120Y002139D01*
X036027Y001914D01*
X035933Y001820D01*
X038449Y001820D01*
X038400Y001938D01*
X038400Y002155D01*
X038359Y002113D01*
X038293Y002065D01*
X038220Y002028D01*
X038142Y002003D01*
X038061Y001990D01*
X037760Y001990D01*
X037760Y002510D01*
X037760Y002510D01*
X037760Y003510D01*
X037760Y003510D01*
X037760Y003990D01*
X037760Y004510D01*
X037760Y004510D01*
X036980Y004510D01*
X036980Y004551D01*
X036993Y004632D01*
X037018Y004710D01*
X037055Y004783D01*
X037103Y004849D01*
X037161Y004907D01*
X037227Y004955D01*
X037300Y004992D01*
X037378Y005017D01*
X037382Y005018D01*
X037217Y005086D01*
X037153Y005150D01*
X036159Y005150D01*
X035870Y004861D01*
X035870Y004114D01*
X035871Y004113D01*
X036058Y003926D01*
X036159Y003682D01*
X036159Y003417D01*
X036058Y003173D01*
X035871Y002986D01*
X035627Y002884D01*
X035362Y002884D01*
X035118Y002986D01*
X034930Y003173D01*
X034829Y003417D01*
X034829Y003682D01*
X034930Y003926D01*
X035118Y004113D01*
X035150Y004127D01*
X035150Y005082D01*
X031370Y005082D01*
X031370Y004997D02*
X031370Y005240D01*
X031277Y005464D01*
X031106Y005635D01*
X030881Y005728D01*
X030639Y005728D01*
X030414Y005635D01*
X030260Y005481D01*
X030106Y005635D01*
X029881Y005728D01*
X029639Y005728D01*
X029414Y005635D01*
X029260Y005481D01*
X029106Y005635D01*
X028881Y005728D01*
X028639Y005728D01*
X028414Y005635D01*
X028260Y005481D01*
X028106Y005635D01*
X027881Y005728D01*
X027639Y005728D01*
X027414Y005635D01*
X027243Y005464D01*
X027150Y005240D01*
X027150Y004997D01*
X027243Y004773D01*
X027414Y004601D01*
X027639Y004508D01*
X027881Y004508D01*
X028106Y004601D01*
X028260Y004756D01*
X028414Y004601D01*
X028639Y004508D01*
X028881Y004508D01*
X029106Y004601D01*
X029260Y004756D01*
X029414Y004601D01*
X029639Y004508D01*
X029881Y004508D01*
X030106Y004601D01*
X030260Y004756D01*
X030414Y004601D01*
X030639Y004508D01*
X030881Y004508D01*
X031106Y004601D01*
X031277Y004773D01*
X031370Y004997D01*
X031268Y004764D02*
X035150Y004764D01*
X035150Y005082D02*
X035205Y005214D01*
X035306Y005315D01*
X035806Y005815D01*
X035938Y005870D01*
X037153Y005870D01*
X037217Y005934D01*
X037401Y006010D01*
X038119Y006010D01*
X038303Y005934D01*
X038400Y005837D01*
X038400Y006183D01*
X038303Y006086D01*
X038119Y006010D01*
X037401Y006010D01*
X037217Y006086D01*
X037153Y006150D01*
X026659Y006150D01*
X026370Y005861D01*
X026370Y004114D01*
X026371Y004113D01*
X026558Y003926D01*
X026659Y003682D01*
X026659Y003417D01*
X026558Y003173D01*
X026371Y002986D01*
X026127Y002884D01*
X025862Y002884D01*
X025618Y002986D01*
X025430Y003173D01*
X025329Y003417D01*
X025329Y003682D01*
X025430Y003926D01*
X025618Y004113D01*
X025650Y004127D01*
X025650Y006082D01*
X025705Y006214D01*
X025806Y006315D01*
X026306Y006815D01*
X026438Y006870D01*
X037153Y006870D01*
X037217Y006934D01*
X037401Y007010D01*
X038119Y007010D01*
X038303Y006934D01*
X038400Y006837D01*
X038400Y007183D01*
X038303Y007086D01*
X038119Y007010D01*
X037401Y007010D01*
X037217Y007086D01*
X037153Y007150D01*
X032688Y007150D01*
X032556Y007205D01*
X032455Y007306D01*
X031830Y007931D01*
X031756Y007900D01*
X031514Y007900D01*
X031289Y007993D01*
X031132Y008150D01*
X030888Y008150D01*
X030731Y007993D01*
X030506Y007900D01*
X030264Y007900D01*
X030039Y007993D01*
X029882Y008150D01*
X029638Y008150D01*
X029481Y007993D01*
X029256Y007900D01*
X029014Y007900D01*
X028789Y007993D01*
X028632Y008150D01*
X028388Y008150D01*
X028231Y007993D01*
X028006Y007900D01*
X027764Y007900D01*
X027539Y007993D01*
X027368Y008164D01*
X027275Y008389D01*
X027275Y008631D01*
X027368Y008856D01*
X027412Y008900D01*
X026505Y008900D01*
X026558Y008847D01*
X026659Y008603D01*
X026659Y008338D01*
X026558Y008094D01*
X026371Y007907D01*
X026127Y007806D01*
X025862Y007806D01*
X025618Y007907D01*
X025430Y008094D01*
X025329Y008338D01*
X025329Y008603D01*
X025430Y008847D01*
X025483Y008900D01*
X024537Y008900D01*
X024590Y008847D01*
X024691Y008603D01*
X024691Y008338D01*
X024590Y008094D01*
X024402Y007907D01*
X024158Y007806D01*
X023893Y007806D01*
X023649Y007907D01*
X023462Y008094D01*
X023361Y008338D01*
X023361Y008603D01*
X023462Y008847D01*
X023515Y008900D01*
X017159Y008900D01*
X017072Y008813D01*
X017159Y008603D01*
X017159Y008338D01*
X017058Y008094D01*
X016871Y007907D01*
X016870Y007906D01*
X016870Y004114D01*
X016871Y004113D01*
X017058Y003926D01*
X017159Y003682D01*
X017159Y003417D01*
X017058Y003173D01*
X016871Y002986D01*
X016627Y002884D01*
X016362Y002884D01*
X016118Y002986D01*
X015930Y003173D01*
X015829Y003417D01*
X015829Y003682D01*
X015930Y003926D01*
X016118Y004113D01*
X016150Y004127D01*
X016150Y007893D01*
X016118Y007907D01*
X015930Y008094D01*
X015829Y008338D01*
X015829Y008603D01*
X015930Y008847D01*
X016118Y009034D01*
X016362Y009136D01*
X016377Y009136D01*
X016641Y009400D01*
X007659Y009400D01*
X007370Y009111D01*
X007370Y009035D01*
X007371Y009034D01*
X007558Y008847D01*
X007659Y008603D01*
X007659Y008338D01*
X007558Y008094D01*
X007371Y007907D01*
X007370Y007906D01*
X007370Y004114D01*
X007371Y004113D01*
X007558Y003926D01*
X007659Y003682D01*
X007659Y003417D01*
X007558Y003173D01*
X007371Y002986D01*
X007127Y002884D01*
X006862Y002884D01*
X006618Y002986D01*
X006430Y003173D01*
X006329Y003417D01*
X006329Y003682D01*
X006430Y003926D01*
X006618Y004113D01*
X006650Y004127D01*
X006650Y007893D01*
X006618Y007907D01*
X006430Y008094D01*
X006329Y008338D01*
X006329Y008603D01*
X006430Y008847D01*
X006618Y009034D01*
X006650Y009048D01*
X006650Y009332D01*
X006705Y009464D01*
X006806Y009565D01*
X007306Y010065D01*
X007438Y010120D01*
X023607Y010120D01*
X023526Y010278D01*
X023526Y010278D01*
X023450Y010760D01*
X023450Y010760D01*
X023526Y011242D01*
X023526Y011242D01*
X023748Y011677D01*
X023748Y011677D01*
X024093Y012022D01*
X024093Y012022D01*
X024293Y012124D01*
X024026Y012124D01*
X024026Y012754D01*
X024026Y012754D01*
X024026Y012754D01*
X024026Y013384D01*
X024421Y013384D01*
X024472Y013374D01*
X024519Y013355D01*
X024538Y013342D01*
X024592Y013364D01*
X024663Y013364D01*
X024705Y013464D01*
X024806Y013565D01*
X025141Y013900D01*
X022638Y013900D01*
X022481Y013743D01*
X022256Y013650D01*
X022014Y013650D01*
X021789Y013743D01*
X021632Y013900D01*
X021388Y013900D01*
X021231Y013743D01*
X021006Y013650D01*
X020764Y013650D01*
X020539Y013743D01*
X020382Y013900D01*
X020138Y013900D01*
X019981Y013743D01*
X019756Y013650D01*
X019514Y013650D01*
X019289Y013743D01*
X019132Y013900D01*
X018888Y013900D01*
X018731Y013743D01*
X018506Y013650D01*
X018264Y013650D01*
X018039Y013743D01*
X017868Y013914D01*
X017775Y014139D01*
X017775Y014381D01*
X017868Y014606D01*
X018039Y014777D01*
X018264Y014870D01*
X018506Y014870D01*
X018731Y014777D01*
X018888Y014620D01*
X019132Y014620D01*
X019289Y014777D01*
X019514Y014870D01*
X019756Y014870D01*
X019981Y014777D01*
X020138Y014620D01*
X020382Y014620D01*
X020539Y014777D01*
X020764Y014870D01*
X021006Y014870D01*
X021231Y014777D01*
X021388Y014620D01*
X021632Y014620D01*
X021789Y014777D01*
X022014Y014870D01*
X022256Y014870D01*
X022481Y014777D01*
X022638Y014620D01*
X033361Y014620D01*
X034150Y015409D01*
X034150Y016332D01*
X034205Y016464D01*
X034391Y016650D01*
X016159Y016650D01*
X015870Y016361D01*
X015870Y013364D01*
X015928Y013364D01*
X016002Y013333D01*
X016077Y013364D01*
X016912Y013364D01*
X017000Y013328D01*
X017068Y013260D01*
X017104Y013172D01*
X017104Y012336D01*
X017068Y012248D01*
X017000Y012181D01*
X016912Y012144D01*
X016077Y012144D01*
X016002Y012175D01*
X015928Y012144D01*
X015092Y012144D01*
X015038Y012167D01*
X015019Y012154D01*
X014972Y012134D01*
X014921Y012124D01*
X014526Y012124D01*
X014526Y012754D01*
X014526Y012754D01*
X014526Y012754D01*
X014526Y013384D01*
X014921Y013384D01*
X014972Y013374D01*
X015019Y013355D01*
X015038Y013342D01*
X015092Y013364D01*
X015150Y013364D01*
X015150Y016582D01*
X015205Y016714D01*
X015306Y016815D01*
X015641Y017150D01*
X006659Y017150D01*
X006370Y016861D01*
X006370Y013364D01*
X006428Y013364D01*
X006502Y013333D01*
X006577Y013364D01*
X007412Y013364D01*
X007500Y013328D01*
X007568Y013260D01*
X007604Y013172D01*
X007604Y012336D01*
X007568Y012248D01*
X007500Y012181D01*
X007412Y012144D01*
X006577Y012144D01*
X006502Y012175D01*
X006428Y012144D01*
X005592Y012144D01*
X005538Y012167D01*
X005519Y012154D01*
X005472Y012134D01*
X005421Y012124D01*
X005026Y012124D01*
X005026Y012754D01*
X005026Y012754D01*
X005026Y012754D01*
X005026Y013384D01*
X005421Y013384D01*
X005472Y013374D01*
X005519Y013355D01*
X005538Y013342D01*
X005592Y013364D01*
X005650Y013364D01*
X005650Y017082D01*
X005705Y017214D01*
X005806Y017315D01*
X006306Y017815D01*
X006438Y017870D01*
X034111Y017870D01*
X035556Y019315D01*
X035688Y019370D01*
X037153Y019370D01*
X037217Y019434D01*
X037401Y019510D01*
X038119Y019510D01*
X038303Y019434D01*
X038444Y019293D01*
X038520Y019109D01*
X038520Y018911D01*
X038444Y018727D01*
X038303Y018586D01*
X038119Y018510D01*
X037401Y018510D01*
X037217Y018586D01*
X037153Y018650D01*
X035909Y018650D01*
X035629Y018370D01*
X037153Y018370D01*
X037217Y018434D01*
X037401Y018510D01*
X038119Y018510D01*
X038303Y018434D01*
X038444Y018293D01*
X038520Y018109D01*
X038520Y017911D01*
X038444Y017727D01*
X038303Y017586D01*
X038119Y017510D01*
X037401Y017510D01*
X037217Y017586D01*
X037153Y017650D01*
X035659Y017650D01*
X035379Y017370D01*
X037153Y017370D01*
X037217Y017434D01*
X037401Y017510D01*
X038119Y017510D01*
X038303Y017434D01*
X038444Y017293D01*
X038520Y017109D01*
X038520Y016911D01*
X038444Y016727D01*
X038303Y016586D01*
X038119Y016510D01*
X037401Y016510D01*
X037217Y016586D01*
X037153Y016650D01*
X037129Y016650D01*
X037308Y016472D01*
X037401Y016510D01*
X038119Y016510D01*
X038303Y016434D01*
X038444Y016293D01*
X038520Y016109D01*
X038520Y015911D01*
X040000Y015911D01*
X040076Y015727D01*
X040217Y015586D01*
X040401Y015510D01*
X040217Y015434D01*
X040076Y015293D01*
X040000Y015109D01*
X040000Y014911D01*
X040076Y014727D01*
X040217Y014586D01*
X040401Y014510D01*
X041119Y014510D01*
X041212Y014548D01*
X042205Y013556D01*
X042306Y013455D01*
X042438Y013400D01*
X043361Y013400D01*
X043377Y013384D01*
X043026Y013384D01*
X043026Y012754D01*
X043026Y012124D01*
X043421Y012124D01*
X043472Y012134D01*
X043519Y012154D01*
X043538Y012167D01*
X043592Y012144D01*
X044428Y012144D01*
X044502Y012175D01*
X044577Y012144D01*
X045412Y012144D01*
X045500Y012181D01*
X045568Y012248D01*
X045604Y012336D01*
X045604Y013172D01*
X045568Y013260D01*
X045500Y013328D01*
X045412Y013364D01*
X044577Y013364D01*
X044502Y013333D01*
X044428Y013364D01*
X044357Y013364D01*
X044315Y013464D01*
X044214Y013565D01*
X043714Y014065D01*
X043582Y014120D01*
X042659Y014120D01*
X042100Y014679D01*
X042622Y014679D01*
X043108Y015166D01*
X043108Y015854D01*
X042812Y016150D01*
X045208Y016150D01*
X044912Y015854D01*
X044912Y015166D01*
X045398Y014679D01*
X046086Y014679D01*
X046573Y015166D01*
X046573Y015854D01*
X046277Y016150D01*
X051243Y016150D01*
X050947Y015854D01*
X050947Y015166D01*
X051434Y014679D01*
X052122Y014679D01*
X052608Y015166D01*
X052608Y015854D01*
X052312Y016150D01*
X052861Y016150D01*
X053150Y015861D01*
X053150Y013364D01*
X053092Y013364D01*
X053038Y013342D01*
X053019Y013355D01*
X052972Y013374D01*
X052921Y013384D01*
X052526Y013384D01*
X052526Y012754D01*
X052526Y012124D01*
X052793Y012124D01*
X052593Y012022D01*
X052248Y011677D01*
X052248Y011677D01*
X052026Y011242D01*
X051950Y010760D01*
X051950Y010760D01*
X052026Y010278D01*
X052026Y010278D01*
X052248Y009843D01*
X052593Y009498D01*
X053028Y009276D01*
X053510Y009200D01*
X053992Y009276D01*
X054427Y009498D01*
X054772Y009843D01*
X054772Y009843D01*
X054994Y010278D01*
X055070Y010760D01*
X054994Y011242D01*
X054772Y011677D01*
X054427Y012022D01*
X054187Y012144D01*
X054912Y012144D01*
X055000Y012181D01*
X055068Y012248D01*
X055104Y012336D01*
X055104Y013172D01*
X055068Y013260D01*
X055000Y013328D01*
X054912Y013364D01*
X054077Y013364D01*
X054002Y013333D01*
X053928Y013364D01*
X053870Y013364D01*
X053870Y016082D01*
X053815Y016214D01*
X053714Y016315D01*
X053714Y016315D01*
X053379Y016650D01*
X062361Y016650D01*
X062650Y016361D01*
X062650Y013364D01*
X062592Y013364D01*
X062538Y013342D01*
X062519Y013355D01*
X062472Y013374D01*
X062421Y013384D01*
X062026Y013384D01*
X062026Y012754D01*
X062026Y012124D01*
X062421Y012124D01*
X062472Y012134D01*
X062519Y012154D01*
X062538Y012167D01*
X062592Y012144D01*
X063428Y012144D01*
X063502Y012175D01*
X063577Y012144D01*
X064412Y012144D01*
X064500Y012181D01*
X064568Y012248D01*
X064604Y012336D01*
X064604Y013172D01*
X064568Y013260D01*
X064500Y013328D01*
X064412Y013364D01*
X063577Y013364D01*
X063502Y013333D01*
X063428Y013364D01*
X063370Y013364D01*
X063370Y016582D01*
X063315Y016714D01*
X063214Y016815D01*
X062879Y017150D01*
X071361Y017150D01*
X071650Y016861D01*
X071650Y013364D01*
X071592Y013364D01*
X071538Y013342D01*
X071519Y013355D01*
X071472Y013374D01*
X071421Y013384D01*
X071026Y013384D01*
X071026Y012754D01*
X071026Y012124D01*
X071421Y012124D01*
X071472Y012134D01*
X071519Y012154D01*
X071538Y012167D01*
X071592Y012144D01*
X072428Y012144D01*
X072502Y012175D01*
X072577Y012144D01*
X073412Y012144D01*
X073500Y012181D01*
X073568Y012248D01*
X073604Y012336D01*
X073604Y013172D01*
X073568Y013260D01*
X073500Y013328D01*
X073412Y013364D01*
X072577Y013364D01*
X072502Y013333D01*
X072428Y013364D01*
X072370Y013364D01*
X072370Y017082D01*
X072315Y017214D01*
X072214Y017315D01*
X071714Y017815D01*
X071582Y017870D01*
X041909Y017870D01*
X041464Y018315D01*
X041392Y018345D01*
X041303Y018434D01*
X041119Y018510D01*
X040401Y018510D01*
X040217Y018434D01*
X040076Y018293D01*
X040000Y018109D01*
X040000Y017911D01*
X040076Y017727D01*
X040217Y017586D01*
X040401Y017510D01*
X040217Y017434D01*
X040076Y017293D01*
X040000Y017109D01*
X040000Y016911D01*
X040076Y016727D01*
X040217Y016586D01*
X040401Y016510D01*
X040217Y016434D01*
X040076Y016293D01*
X040000Y016109D01*
X040000Y015911D01*
X040210Y015593D02*
X038310Y015593D01*
X038303Y015586D02*
X038444Y015727D01*
X038520Y015911D01*
X038303Y015586D02*
X038119Y015510D01*
X037401Y015510D01*
X037217Y015586D01*
X037128Y015675D01*
X037073Y015698D01*
X037073Y015322D01*
X037128Y015345D01*
X037217Y015434D01*
X037401Y015510D01*
X038119Y015510D01*
X038303Y015434D01*
X038444Y015293D01*
X038520Y015109D01*
X038520Y014911D01*
X038444Y014727D01*
X038303Y014586D01*
X038138Y014518D01*
X038142Y014517D01*
X038220Y014492D01*
X038293Y014455D01*
X038359Y014407D01*
X038417Y014349D01*
X038465Y014283D01*
X038502Y014210D01*
X038527Y014132D01*
X038540Y014051D01*
X038540Y014049D01*
X038556Y014065D01*
X038806Y014315D01*
X038938Y014370D01*
X040153Y014370D01*
X040217Y014434D01*
X040401Y014510D01*
X041119Y014510D01*
X041303Y014434D01*
X041444Y014293D01*
X041520Y014109D01*
X041520Y013911D01*
X041444Y013727D01*
X041303Y013586D01*
X041119Y013510D01*
X040401Y013510D01*
X040217Y013586D01*
X040153Y013650D01*
X039159Y013650D01*
X039120Y013611D01*
X039120Y013129D01*
X039306Y013315D01*
X039438Y013370D01*
X040153Y013370D01*
X040217Y013434D01*
X040401Y013510D01*
X041119Y013510D01*
X041303Y013434D01*
X041444Y013293D01*
X041520Y013109D01*
X041520Y012911D01*
X041444Y012727D01*
X041303Y012586D01*
X041119Y012510D01*
X041303Y012434D01*
X041444Y012293D01*
X041520Y012109D01*
X041520Y011911D01*
X041444Y011727D01*
X041303Y011586D01*
X041119Y011510D01*
X040401Y011510D01*
X040217Y011586D01*
X040076Y011727D01*
X040000Y011911D01*
X040000Y012109D01*
X040076Y012293D01*
X040217Y012434D01*
X040401Y012510D01*
X041119Y012510D01*
X040401Y012510D01*
X040217Y012586D01*
X040153Y012650D01*
X039659Y012650D01*
X039620Y012611D01*
X039620Y003909D01*
X039659Y003870D01*
X040153Y003870D01*
X040217Y003934D01*
X040401Y004010D01*
X041119Y004010D01*
X041303Y003934D01*
X041400Y003837D01*
X041400Y004111D01*
X041364Y004147D01*
X041303Y004086D01*
X041119Y004010D01*
X040401Y004010D01*
X040217Y004086D01*
X040076Y004227D01*
X040000Y004411D01*
X040000Y004609D01*
X040076Y004793D01*
X040217Y004934D01*
X040401Y005010D01*
X041119Y005010D01*
X041303Y005086D01*
X041367Y005150D01*
X044361Y005150D01*
X044650Y004861D01*
X044650Y004127D01*
X044618Y004113D01*
X044430Y003926D01*
X044329Y003682D01*
X044329Y003417D01*
X044430Y003173D01*
X044618Y002986D01*
X044862Y002884D01*
X045127Y002884D01*
X045371Y002986D01*
X045558Y003173D01*
X045659Y003417D01*
X045659Y003682D01*
X045558Y003926D01*
X045371Y004113D01*
X045370Y004114D01*
X045370Y005082D01*
X046150Y005082D01*
X046150Y004997D02*
X046243Y004773D01*
X046414Y004601D01*
X046639Y004508D01*
X046881Y004508D01*
X047106Y004601D01*
X047260Y004756D01*
X047414Y004601D01*
X047639Y004508D01*
X047881Y004508D01*
X048106Y004601D01*
X048260Y004756D01*
X048414Y004601D01*
X048639Y004508D01*
X048881Y004508D01*
X049106Y004601D01*
X049251Y004747D01*
X049279Y004708D01*
X049350Y004638D01*
X049430Y004579D01*
X049518Y004534D01*
X049612Y004504D01*
X049710Y004488D01*
X049760Y004488D01*
X049810Y004488D01*
X049908Y004504D01*
X050002Y004534D01*
X050090Y004579D01*
X050170Y004638D01*
X050241Y004708D01*
X050269Y004747D01*
X050414Y004601D01*
X050639Y004508D01*
X050881Y004508D01*
X051106Y004601D01*
X051277Y004773D01*
X051370Y004997D01*
X051370Y005240D01*
X051277Y005464D01*
X051106Y005635D01*
X050881Y005728D01*
X050639Y005728D01*
X050414Y005635D01*
X050269Y005490D01*
X050241Y005529D01*
X050170Y005599D01*
X050090Y005657D01*
X050002Y005702D01*
X049908Y005733D01*
X049810Y005748D01*
X049760Y005748D01*
X049760Y005118D01*
X049760Y004488D01*
X049760Y005118D01*
X049760Y005118D01*
X049760Y005748D01*
X049710Y005748D01*
X049612Y005733D01*
X049518Y005702D01*
X049430Y005657D01*
X049350Y005599D01*
X049279Y005529D01*
X049251Y005490D01*
X049106Y005635D01*
X048881Y005728D01*
X048639Y005728D01*
X048414Y005635D01*
X048260Y005481D01*
X048106Y005635D01*
X047881Y005728D01*
X047639Y005728D01*
X047414Y005635D01*
X047260Y005481D01*
X047106Y005635D01*
X046881Y005728D01*
X046639Y005728D01*
X046414Y005635D01*
X046243Y005464D01*
X046150Y005240D01*
X046150Y004997D01*
X046252Y004764D02*
X045370Y004764D01*
X045370Y005082D02*
X045315Y005214D01*
X045214Y005315D01*
X044714Y005815D01*
X044582Y005870D01*
X041367Y005870D01*
X041303Y005934D01*
X041119Y006010D01*
X041303Y006086D01*
X041367Y006150D01*
X053861Y006150D01*
X054150Y005861D01*
X054150Y004127D01*
X054118Y004113D01*
X053930Y003926D01*
X053829Y003682D01*
X053829Y003417D01*
X053930Y003173D01*
X054118Y002986D01*
X054362Y002884D01*
X054627Y002884D01*
X054871Y002986D01*
X055058Y003173D01*
X055159Y003417D01*
X055159Y003682D01*
X055058Y003926D01*
X054871Y004113D01*
X054870Y004114D01*
X054870Y006082D01*
X054815Y006214D01*
X054714Y006315D01*
X054214Y006815D01*
X054082Y006870D01*
X041367Y006870D01*
X041303Y006934D01*
X041119Y007010D01*
X041212Y007048D01*
X041306Y006955D01*
X041438Y006900D01*
X063361Y006900D01*
X063650Y006611D01*
X063650Y004127D01*
X063618Y004113D01*
X063430Y003926D01*
X063329Y003682D01*
X063329Y003417D01*
X063430Y003173D01*
X063618Y002986D01*
X063862Y002884D01*
X064127Y002884D01*
X064371Y002986D01*
X064558Y003173D01*
X064659Y003417D01*
X064659Y003682D01*
X064558Y003926D01*
X064371Y004113D01*
X064370Y004114D01*
X064370Y006832D01*
X064315Y006964D01*
X064214Y007065D01*
X064214Y007065D01*
X063879Y007400D01*
X072361Y007400D01*
X072650Y007111D01*
X072650Y004127D01*
X072618Y004113D01*
X072430Y003926D01*
X072329Y003682D01*
X072329Y003417D01*
X072430Y003173D01*
X072618Y002986D01*
X072862Y002884D01*
X073127Y002884D01*
X073371Y002986D01*
X073558Y003173D01*
X073659Y003417D01*
X073659Y003682D01*
X073558Y003926D01*
X073371Y004113D01*
X073370Y004114D01*
X073370Y007332D01*
X073315Y007464D01*
X073214Y007565D01*
X072973Y007806D01*
X073127Y007806D01*
X073371Y007907D01*
X073558Y008094D01*
X073659Y008338D01*
X073659Y008603D01*
X073558Y008847D01*
X073371Y009034D01*
X073127Y009136D01*
X072862Y009136D01*
X072618Y009034D01*
X072430Y008847D01*
X072329Y008603D01*
X072329Y008338D01*
X072420Y008120D01*
X071600Y008120D01*
X071691Y008338D01*
X071691Y008603D01*
X071590Y008847D01*
X071402Y009034D01*
X071158Y009136D01*
X070893Y009136D01*
X070649Y009034D01*
X070462Y008847D01*
X070361Y008603D01*
X070361Y008338D01*
X070451Y008120D01*
X064569Y008120D01*
X064659Y008338D01*
X064659Y008603D01*
X064558Y008847D01*
X064371Y009034D01*
X064127Y009136D01*
X063862Y009136D01*
X063618Y009034D01*
X063430Y008847D01*
X063329Y008603D01*
X063329Y008338D01*
X063420Y008120D01*
X062600Y008120D01*
X062691Y008338D01*
X062691Y008603D01*
X062590Y008847D01*
X062402Y009034D01*
X062158Y009136D01*
X061893Y009136D01*
X061649Y009034D01*
X061462Y008847D01*
X061361Y008603D01*
X061361Y008338D01*
X061451Y008120D01*
X055069Y008120D01*
X055159Y008338D01*
X055159Y008603D01*
X055058Y008847D01*
X054871Y009034D01*
X054627Y009136D01*
X054362Y009136D01*
X054118Y009034D01*
X053930Y008847D01*
X053829Y008603D01*
X053829Y008338D01*
X053920Y008120D01*
X053100Y008120D01*
X053191Y008338D01*
X053191Y008603D01*
X053090Y008847D01*
X052902Y009034D01*
X052658Y009136D01*
X052393Y009136D01*
X052149Y009034D01*
X051962Y008847D01*
X051861Y008603D01*
X051861Y008338D01*
X051951Y008120D01*
X045569Y008120D01*
X045659Y008338D01*
X045659Y008603D01*
X045558Y008847D01*
X045371Y009034D01*
X045127Y009136D01*
X044862Y009136D01*
X044618Y009034D01*
X044430Y008847D01*
X044329Y008603D01*
X044329Y008338D01*
X044420Y008120D01*
X043600Y008120D01*
X043691Y008338D01*
X043691Y008603D01*
X043590Y008847D01*
X043402Y009034D01*
X043369Y009048D01*
X043391Y009064D01*
X043456Y009129D01*
X043510Y009203D01*
X043552Y009285D01*
X043581Y009373D01*
X043595Y009464D01*
X043595Y009510D01*
X043595Y009556D01*
X043581Y009647D01*
X043552Y009735D01*
X043510Y009817D01*
X043456Y009891D01*
X043391Y009956D01*
X043317Y010010D01*
X043235Y010052D01*
X043147Y010081D01*
X043056Y010095D01*
X043010Y010095D01*
X043010Y009510D01*
X043010Y009510D01*
X043595Y009510D01*
X043010Y009510D01*
X043010Y009510D01*
X043010Y010095D01*
X042964Y010095D01*
X042873Y010081D01*
X042785Y010052D01*
X042703Y010010D01*
X042629Y009956D01*
X042564Y009891D01*
X042510Y009817D01*
X042501Y009800D01*
X042489Y009830D01*
X042330Y009989D01*
X042122Y010075D01*
X041898Y010075D01*
X041690Y009989D01*
X041531Y009830D01*
X041480Y009706D01*
X041444Y009793D01*
X041303Y009934D01*
X041119Y010010D01*
X040401Y010010D01*
X040217Y009934D01*
X040076Y009793D01*
X040000Y009609D01*
X040000Y009411D01*
X040076Y009227D01*
X040217Y009086D01*
X040401Y009010D01*
X040217Y008934D01*
X040076Y008793D01*
X040000Y008609D01*
X040000Y008411D01*
X040076Y008227D01*
X040217Y008086D01*
X040401Y008010D01*
X040217Y007934D01*
X040076Y007793D01*
X040000Y007609D01*
X040000Y007411D01*
X040076Y007227D01*
X040217Y007086D01*
X040401Y007010D01*
X041119Y007010D01*
X040401Y007010D01*
X040217Y006934D01*
X040076Y006793D01*
X040000Y006609D01*
X040000Y006411D01*
X040076Y006227D01*
X040217Y006086D01*
X040401Y006010D01*
X041119Y006010D01*
X040401Y006010D01*
X040217Y005934D01*
X040076Y005793D01*
X040000Y005609D01*
X040000Y005411D01*
X040076Y005227D01*
X040217Y005086D01*
X040401Y005010D01*
X041119Y005010D01*
X041303Y004934D01*
X041367Y004870D01*
X041582Y004870D01*
X041714Y004815D01*
X041815Y004714D01*
X042065Y004464D01*
X042120Y004332D01*
X042120Y002188D01*
X042065Y002056D01*
X041964Y001955D01*
X041829Y001820D01*
X074071Y001820D01*
X073901Y002153D01*
X073901Y002153D01*
X073825Y002635D01*
X073825Y002635D01*
X073901Y003117D01*
X073901Y003117D01*
X074123Y003552D01*
X074123Y003552D01*
X074468Y003897D01*
X074468Y003897D01*
X074903Y004119D01*
X074903Y004119D01*
X075385Y004195D01*
X075385Y004195D01*
X075867Y004119D01*
X075867Y004119D01*
X076200Y003949D01*
X076200Y017571D01*
X075867Y017401D01*
X075867Y017401D01*
X075385Y017325D01*
X075385Y017325D01*
X074903Y017401D01*
X074903Y017401D01*
X074468Y017623D01*
X074468Y017623D01*
X074123Y017968D01*
X074123Y017968D01*
X073901Y018403D01*
X073825Y018885D01*
X073901Y019367D01*
X073901Y019367D01*
X074071Y019700D01*
X003949Y019700D01*
X004119Y019367D01*
X004119Y019367D01*
X004195Y018885D01*
X004119Y018403D01*
X004119Y018403D01*
X003897Y017968D01*
X003897Y017968D01*
X003552Y017623D01*
X003552Y017623D01*
X003117Y017401D01*
X003117Y017401D01*
X002635Y017325D01*
X002635Y017325D01*
X002153Y017401D01*
X002153Y017401D01*
X001820Y017571D01*
X001820Y003949D01*
X002153Y004119D01*
X002153Y004119D01*
X002635Y004195D01*
X002635Y004195D01*
X003117Y004119D01*
X003117Y004119D01*
X003552Y003897D01*
X003552Y003897D01*
X003897Y003552D01*
X003897Y003552D01*
X004119Y003117D01*
X004119Y003117D01*
X004195Y002635D01*
X004119Y002153D01*
X004119Y002153D01*
X004129Y002216D02*
X032880Y002216D01*
X032943Y002534D02*
X004179Y002534D01*
X004161Y002853D02*
X033295Y002853D01*
X033725Y002853D02*
X035346Y002853D01*
X035674Y002853D02*
X037107Y002853D01*
X037103Y002849D02*
X037055Y002783D01*
X037018Y002710D01*
X036993Y002632D01*
X036980Y002551D01*
X036980Y002510D01*
X037760Y002510D01*
X037760Y002510D01*
X037760Y002510D01*
X037760Y003030D01*
X037760Y003510D01*
X037760Y003510D01*
X036980Y003510D01*
X036980Y003551D01*
X036993Y003632D01*
X037018Y003710D01*
X037055Y003783D01*
X037103Y003849D01*
X037161Y003907D01*
X037227Y003955D01*
X037300Y003992D01*
X037356Y004010D01*
X037300Y004028D01*
X037227Y004065D01*
X037161Y004113D01*
X037103Y004171D01*
X037055Y004237D01*
X037018Y004310D01*
X036993Y004388D01*
X036980Y004469D01*
X036980Y004510D01*
X037760Y004510D01*
X037760Y004510D01*
X037760Y003510D01*
X037760Y003510D01*
X036980Y003510D01*
X036980Y003469D01*
X036993Y003388D01*
X037018Y003310D01*
X037055Y003237D01*
X037103Y003171D01*
X037161Y003113D01*
X037227Y003065D01*
X037300Y003028D01*
X037356Y003010D01*
X037300Y002992D01*
X037227Y002955D01*
X037161Y002907D01*
X037103Y002849D01*
X037104Y003171D02*
X036056Y003171D01*
X036159Y003490D02*
X036980Y003490D01*
X037074Y003808D02*
X036107Y003808D01*
X035870Y004127D02*
X037148Y004127D01*
X036984Y004445D02*
X035870Y004445D01*
X035150Y004445D02*
X026370Y004445D01*
X026370Y004127D02*
X033181Y004127D01*
X033870Y004127D02*
X035150Y004127D01*
X034882Y003808D02*
X034138Y003808D01*
X034191Y003490D02*
X034829Y003490D01*
X034932Y003171D02*
X034088Y003171D01*
X032964Y003171D02*
X026556Y003171D01*
X026659Y003490D02*
X032861Y003490D01*
X032913Y003808D02*
X026607Y003808D01*
X025650Y004127D02*
X024370Y004127D01*
X024402Y004113D02*
X024158Y004214D01*
X023893Y004214D01*
X023649Y004113D01*
X023462Y003926D01*
X023361Y003682D01*
X023361Y003417D01*
X023462Y003173D01*
X023649Y002986D01*
X023893Y002884D01*
X024158Y002884D01*
X024402Y002986D01*
X024590Y003173D01*
X024691Y003417D01*
X024691Y003682D01*
X024590Y003926D01*
X024402Y004113D01*
X023681Y004127D02*
X016870Y004127D01*
X016870Y004445D02*
X025650Y004445D01*
X025650Y004764D02*
X022268Y004764D01*
X022277Y004773D02*
X022370Y004997D01*
X022370Y005240D01*
X022277Y005464D01*
X022106Y005635D01*
X021881Y005728D01*
X021639Y005728D01*
X021414Y005635D01*
X021260Y005481D01*
X021106Y005635D01*
X020881Y005728D01*
X020639Y005728D01*
X020414Y005635D01*
X020260Y005481D01*
X020106Y005635D01*
X019881Y005728D01*
X019639Y005728D01*
X019414Y005635D01*
X019260Y005481D01*
X019106Y005635D01*
X018881Y005728D01*
X018639Y005728D01*
X018414Y005635D01*
X018243Y005464D01*
X018150Y005240D01*
X018150Y004997D01*
X018243Y004773D01*
X018414Y004601D01*
X018639Y004508D01*
X018881Y004508D01*
X019106Y004601D01*
X019260Y004756D01*
X019414Y004601D01*
X019639Y004508D01*
X019881Y004508D01*
X020106Y004601D01*
X020260Y004756D01*
X020414Y004601D01*
X020639Y004508D01*
X020881Y004508D01*
X021106Y004601D01*
X021260Y004756D01*
X021414Y004601D01*
X021639Y004508D01*
X021881Y004508D01*
X022106Y004601D01*
X022277Y004773D01*
X022370Y005082D02*
X025650Y005082D01*
X026370Y005082D02*
X027150Y005082D01*
X027252Y004764D02*
X026370Y004764D01*
X026370Y005401D02*
X027217Y005401D01*
X027616Y005719D02*
X026370Y005719D01*
X025650Y005719D02*
X021904Y005719D01*
X021616Y005719D02*
X020904Y005719D01*
X020616Y005719D02*
X019904Y005719D01*
X019616Y005719D02*
X018904Y005719D01*
X018616Y005719D02*
X016870Y005719D01*
X016870Y005401D02*
X018217Y005401D01*
X018150Y005082D02*
X016870Y005082D01*
X016870Y004764D02*
X018252Y004764D01*
X016150Y004764D02*
X007370Y004764D01*
X007370Y005082D02*
X016150Y005082D01*
X016150Y005401D02*
X007370Y005401D01*
X007370Y005719D02*
X016150Y005719D01*
X016150Y006038D02*
X007370Y006038D01*
X007370Y006356D02*
X016150Y006356D01*
X016870Y006356D02*
X025847Y006356D01*
X025650Y006038D02*
X016870Y006038D01*
X016870Y006675D02*
X026165Y006675D01*
X026547Y006038D02*
X037334Y006038D01*
X038186Y006038D02*
X038400Y006038D01*
X039620Y006038D02*
X040334Y006038D01*
X040023Y006356D02*
X039620Y006356D01*
X039620Y006675D02*
X040027Y006675D01*
X040360Y006993D02*
X039620Y006993D01*
X039620Y007312D02*
X040041Y007312D01*
X041160Y006993D02*
X041268Y006993D01*
X040009Y007630D02*
X039620Y007630D01*
X039620Y007949D02*
X040252Y007949D01*
X040401Y008010D02*
X041001Y008010D01*
X041001Y008010D01*
X040401Y008010D01*
X040059Y008267D02*
X039620Y008267D01*
X039620Y008586D02*
X040000Y008586D01*
X040187Y008904D02*
X039620Y008904D01*
X039620Y009223D02*
X040080Y009223D01*
X040401Y009010D02*
X041119Y009010D01*
X041303Y008934D01*
X041444Y008793D01*
X041520Y008609D01*
X041520Y008509D01*
X041909Y008120D01*
X042451Y008120D01*
X042361Y008338D01*
X042361Y008603D01*
X042462Y008847D01*
X042649Y009034D01*
X042662Y009040D01*
X042629Y009064D01*
X042564Y009129D01*
X042510Y009203D01*
X042501Y009220D01*
X042489Y009190D01*
X042330Y009031D01*
X042122Y008945D01*
X041898Y008945D01*
X041690Y009031D01*
X041531Y009190D01*
X041480Y009314D01*
X041444Y009227D01*
X041303Y009086D01*
X041119Y009010D01*
X040401Y009010D01*
X041333Y008904D02*
X042519Y008904D01*
X043533Y008904D02*
X044487Y008904D01*
X045501Y008904D02*
X052019Y008904D01*
X053033Y008904D02*
X053987Y008904D01*
X053652Y009223D02*
X076200Y009223D01*
X076200Y008904D02*
X073501Y008904D01*
X073659Y008586D02*
X076200Y008586D01*
X076200Y008267D02*
X073630Y008267D01*
X073413Y007949D02*
X076200Y007949D01*
X076200Y007630D02*
X073149Y007630D01*
X073370Y007312D02*
X076200Y007312D01*
X076200Y006993D02*
X073370Y006993D01*
X073370Y006675D02*
X076200Y006675D01*
X076200Y006356D02*
X073370Y006356D01*
X073370Y006038D02*
X076200Y006038D01*
X076200Y005719D02*
X073370Y005719D01*
X073370Y005401D02*
X076200Y005401D01*
X076200Y005082D02*
X073370Y005082D01*
X073370Y004764D02*
X076200Y004764D01*
X076200Y004445D02*
X073370Y004445D01*
X073370Y004127D02*
X074953Y004127D01*
X075817Y004127D02*
X076200Y004127D01*
X074379Y003808D02*
X073607Y003808D01*
X073659Y003490D02*
X074091Y003490D01*
X073929Y003171D02*
X073556Y003171D01*
X073859Y002853D02*
X042120Y002853D01*
X042120Y003171D02*
X042464Y003171D01*
X042462Y003173D02*
X042649Y002986D01*
X042893Y002884D01*
X043158Y002884D01*
X043402Y002986D01*
X043590Y003173D01*
X043691Y003417D01*
X043691Y003682D01*
X043590Y003926D01*
X043402Y004113D01*
X043158Y004214D01*
X042893Y004214D01*
X042649Y004113D01*
X042462Y003926D01*
X042361Y003682D01*
X042361Y003417D01*
X042462Y003173D01*
X043588Y003171D02*
X044432Y003171D01*
X044329Y003490D02*
X043691Y003490D01*
X043638Y003808D02*
X044382Y003808D01*
X044650Y004127D02*
X043370Y004127D01*
X042681Y004127D02*
X042120Y004127D01*
X042073Y004445D02*
X044650Y004445D01*
X045370Y004445D02*
X054150Y004445D01*
X054150Y004127D02*
X052870Y004127D01*
X052902Y004113D02*
X052658Y004214D01*
X052393Y004214D01*
X052149Y004113D01*
X051962Y003926D01*
X051861Y003682D01*
X051861Y003417D01*
X051962Y003173D01*
X052149Y002986D01*
X052393Y002884D01*
X052658Y002884D01*
X052902Y002986D01*
X053090Y003173D01*
X053191Y003417D01*
X053191Y003682D01*
X053090Y003926D01*
X052902Y004113D01*
X052181Y004127D02*
X045370Y004127D01*
X045607Y003808D02*
X051913Y003808D01*
X051861Y003490D02*
X045659Y003490D01*
X045556Y003171D02*
X051964Y003171D01*
X053088Y003171D02*
X053932Y003171D01*
X055056Y003171D02*
X061464Y003171D01*
X061462Y003173D02*
X061649Y002986D01*
X061893Y002884D01*
X062158Y002884D01*
X062402Y002986D01*
X062590Y003173D01*
X062691Y003417D01*
X062691Y003682D01*
X062590Y003926D01*
X062402Y004113D01*
X062158Y004214D01*
X061893Y004214D01*
X061649Y004113D01*
X061462Y003926D01*
X061361Y003682D01*
X061361Y003417D01*
X061462Y003173D01*
X061361Y003490D02*
X055159Y003490D01*
X055107Y003808D02*
X061413Y003808D01*
X061681Y004127D02*
X054870Y004127D01*
X054870Y004445D02*
X063650Y004445D01*
X063650Y004127D02*
X062370Y004127D01*
X062638Y003808D02*
X063382Y003808D01*
X063329Y003490D02*
X062691Y003490D01*
X062588Y003171D02*
X063432Y003171D01*
X064556Y003171D02*
X070464Y003171D01*
X070462Y003173D02*
X070649Y002986D01*
X070893Y002884D01*
X071158Y002884D01*
X071402Y002986D01*
X071590Y003173D01*
X071691Y003417D01*
X071691Y003682D01*
X071590Y003926D01*
X071402Y004113D01*
X071158Y004214D01*
X070893Y004214D01*
X070649Y004113D01*
X070462Y003926D01*
X070361Y003682D01*
X070361Y003417D01*
X070462Y003173D01*
X071588Y003171D02*
X072432Y003171D01*
X072329Y003490D02*
X071691Y003490D01*
X071638Y003808D02*
X072382Y003808D01*
X072650Y004127D02*
X071370Y004127D01*
X070681Y004127D02*
X064370Y004127D01*
X064370Y004445D02*
X072650Y004445D01*
X072650Y004764D02*
X064370Y004764D01*
X064370Y005082D02*
X072650Y005082D01*
X072650Y005401D02*
X064370Y005401D01*
X064370Y005719D02*
X072650Y005719D01*
X072650Y006038D02*
X064370Y006038D01*
X064370Y006356D02*
X072650Y006356D01*
X072650Y006675D02*
X064370Y006675D01*
X064286Y006993D02*
X072650Y006993D01*
X072449Y007312D02*
X063968Y007312D01*
X063586Y006675D02*
X054355Y006675D01*
X054673Y006356D02*
X063650Y006356D01*
X063650Y006038D02*
X054870Y006038D01*
X053973Y006038D02*
X041186Y006038D01*
X040045Y005719D02*
X039620Y005719D01*
X039620Y005401D02*
X040004Y005401D01*
X040227Y005082D02*
X039620Y005082D01*
X039620Y004764D02*
X040064Y004764D01*
X041293Y005082D02*
X044429Y005082D01*
X044650Y004764D02*
X041766Y004764D01*
X040000Y004445D02*
X039620Y004445D01*
X039620Y004127D02*
X040176Y004127D01*
X041344Y004127D02*
X041384Y004127D01*
X042120Y003808D02*
X042413Y003808D01*
X042361Y003490D02*
X042120Y003490D01*
X042120Y002534D02*
X073841Y002534D01*
X073891Y002216D02*
X042120Y002216D01*
X041906Y001897D02*
X074032Y001897D01*
X070361Y003490D02*
X064659Y003490D01*
X064607Y003808D02*
X070413Y003808D01*
X063650Y004764D02*
X054870Y004764D01*
X054870Y005082D02*
X063650Y005082D01*
X063650Y005401D02*
X054870Y005401D01*
X054870Y005719D02*
X063650Y005719D01*
X063359Y008267D02*
X062661Y008267D01*
X062691Y008586D02*
X063329Y008586D01*
X064659Y008586D02*
X070361Y008586D01*
X070390Y008267D02*
X064630Y008267D01*
X064501Y008904D02*
X070519Y008904D01*
X071533Y008904D02*
X072487Y008904D01*
X072329Y008586D02*
X071691Y008586D01*
X071661Y008267D02*
X072359Y008267D01*
X076200Y009541D02*
X054470Y009541D01*
X054427Y009498D02*
X054427Y009498D01*
X053992Y009276D02*
X053992Y009276D01*
X053510Y009200D02*
X053510Y009200D01*
X053368Y009223D02*
X043520Y009223D01*
X043595Y009541D02*
X052550Y009541D01*
X052593Y009498D02*
X052593Y009498D01*
X052248Y009843D02*
X052248Y009843D01*
X052240Y009860D02*
X043479Y009860D01*
X043010Y009860D02*
X043010Y009860D01*
X043010Y009541D02*
X043010Y009541D01*
X042541Y009860D02*
X042460Y009860D01*
X041560Y009860D02*
X041378Y009860D01*
X040142Y009860D02*
X039620Y009860D01*
X039620Y009541D02*
X040000Y009541D01*
X041440Y009223D02*
X041518Y009223D01*
X041520Y008586D02*
X042361Y008586D01*
X042390Y008267D02*
X041762Y008267D01*
X043661Y008267D02*
X044359Y008267D01*
X044329Y008586D02*
X043691Y008586D01*
X045630Y008267D02*
X051890Y008267D01*
X051861Y008586D02*
X045659Y008586D01*
X039620Y010178D02*
X052077Y010178D01*
X051992Y010497D02*
X039620Y010497D01*
X038400Y010497D02*
X032245Y010497D01*
X032245Y010389D02*
X032152Y010164D01*
X032108Y010120D01*
X036832Y010120D01*
X036964Y010065D01*
X037065Y009964D01*
X037156Y009873D01*
X037217Y009934D01*
X037401Y010010D01*
X038119Y010010D01*
X038303Y009934D01*
X038400Y009837D01*
X038400Y011655D01*
X038359Y011613D01*
X038293Y011565D01*
X038220Y011528D01*
X038142Y011503D01*
X038061Y011490D01*
X037760Y011490D01*
X037760Y012010D01*
X037760Y012010D01*
X037760Y013010D01*
X037760Y013010D01*
X037760Y013530D01*
X037760Y014010D01*
X037760Y014010D01*
X037760Y014010D01*
X036980Y014010D01*
X036980Y014051D01*
X036993Y014132D01*
X037018Y014210D01*
X037055Y014283D01*
X037091Y014332D01*
X036315Y013556D01*
X036214Y013455D01*
X036082Y013400D01*
X035159Y013400D01*
X035123Y013364D01*
X035912Y013364D01*
X036000Y013328D01*
X036068Y013260D01*
X036104Y013172D01*
X036104Y012336D01*
X036068Y012248D01*
X036000Y012181D01*
X035912Y012144D01*
X035077Y012144D01*
X035002Y012175D01*
X034928Y012144D01*
X034092Y012144D01*
X034038Y012167D01*
X034019Y012154D01*
X033972Y012134D01*
X033921Y012124D01*
X033526Y012124D01*
X033526Y012754D01*
X033526Y012754D01*
X033526Y012754D01*
X033526Y013384D01*
X033921Y013384D01*
X033972Y013374D01*
X034019Y013355D01*
X034038Y013342D01*
X034092Y013364D01*
X034163Y013364D01*
X034205Y013464D01*
X034306Y013565D01*
X034806Y014065D01*
X034938Y014120D01*
X035861Y014120D01*
X036420Y014679D01*
X035898Y014679D01*
X035412Y015166D01*
X035412Y015854D01*
X035708Y016150D01*
X035659Y016150D01*
X035370Y015861D01*
X035370Y014938D01*
X035315Y014806D01*
X034065Y013556D01*
X034065Y013556D01*
X033964Y013455D01*
X033832Y013400D01*
X025659Y013400D01*
X025623Y013364D01*
X026412Y013364D01*
X026500Y013328D01*
X026568Y013260D01*
X026604Y013172D01*
X026604Y012336D01*
X026568Y012248D01*
X026500Y012181D01*
X026412Y012144D01*
X025687Y012144D01*
X025927Y012022D01*
X025927Y012022D01*
X026272Y011677D01*
X026272Y011677D01*
X026494Y011242D01*
X026494Y011242D01*
X026570Y010760D01*
X026494Y010278D01*
X026494Y010278D01*
X026413Y010120D01*
X027412Y010120D01*
X027368Y010164D01*
X027275Y010389D01*
X027275Y010631D01*
X027368Y010856D01*
X027539Y011027D01*
X027764Y011120D01*
X028006Y011120D01*
X028231Y011027D01*
X028402Y010856D01*
X028495Y010631D01*
X028495Y010389D01*
X028402Y010164D01*
X028358Y010120D01*
X028662Y010120D01*
X028618Y010164D01*
X028525Y010389D01*
X028525Y010631D01*
X028618Y010856D01*
X028789Y011027D01*
X029014Y011120D01*
X029256Y011120D01*
X029481Y011027D01*
X029652Y010856D01*
X029745Y010631D01*
X029745Y010389D01*
X029652Y010164D01*
X029608Y010120D01*
X029912Y010120D01*
X029868Y010164D01*
X029775Y010389D01*
X029775Y010631D01*
X029868Y010856D01*
X030039Y011027D01*
X030264Y011120D01*
X030506Y011120D01*
X030731Y011027D01*
X030902Y010856D01*
X030995Y010631D01*
X030995Y010389D01*
X030902Y010164D01*
X030858Y010120D01*
X031162Y010120D01*
X031118Y010164D01*
X031025Y010389D01*
X031025Y010631D01*
X031118Y010856D01*
X031289Y011027D01*
X031514Y011120D01*
X031756Y011120D01*
X031981Y011027D01*
X032152Y010856D01*
X032245Y010631D01*
X032245Y010389D01*
X032158Y010178D02*
X038400Y010178D01*
X038378Y009860D02*
X038400Y009860D01*
X038400Y010815D02*
X032169Y010815D01*
X031101Y010815D02*
X030919Y010815D01*
X029851Y010815D02*
X029669Y010815D01*
X029745Y010497D02*
X029775Y010497D01*
X029862Y010178D02*
X029658Y010178D01*
X030908Y010178D02*
X031112Y010178D01*
X031025Y010497D02*
X030995Y010497D01*
X028612Y010178D02*
X028408Y010178D01*
X028495Y010497D02*
X028525Y010497D01*
X027362Y010178D02*
X026443Y010178D01*
X026528Y010497D02*
X027275Y010497D01*
X027351Y010815D02*
X026561Y010815D01*
X026511Y011134D02*
X038400Y011134D01*
X039620Y011134D02*
X052009Y011134D01*
X052026Y011242D02*
X052026Y011242D01*
X052133Y011452D02*
X039620Y011452D01*
X039620Y011771D02*
X040058Y011771D01*
X040000Y012089D02*
X039620Y012089D01*
X039620Y012408D02*
X040190Y012408D01*
X041330Y012408D02*
X042396Y012408D01*
X042396Y012358D02*
X042406Y012308D01*
X042425Y012261D01*
X042454Y012218D01*
X042490Y012182D01*
X042533Y012154D01*
X042580Y012134D01*
X042630Y012124D01*
X043026Y012124D01*
X043026Y012754D01*
X043026Y012754D01*
X043026Y012754D01*
X042396Y012754D01*
X042396Y012358D01*
X043026Y012408D02*
X043026Y012408D01*
X043026Y012726D02*
X043026Y012726D01*
X043026Y012754D02*
X043026Y012754D01*
X043026Y013384D01*
X042630Y013384D01*
X042580Y013374D01*
X042533Y013355D01*
X042490Y013326D01*
X042454Y013290D01*
X042425Y013247D01*
X042406Y013200D01*
X042396Y013150D01*
X042396Y012754D01*
X043026Y012754D01*
X043026Y013045D02*
X043026Y013045D01*
X042396Y013045D02*
X041520Y013045D01*
X041443Y012726D02*
X042396Y012726D01*
X042553Y013363D02*
X041374Y013363D01*
X041399Y013682D02*
X042079Y013682D01*
X041761Y014000D02*
X041520Y014000D01*
X041442Y014319D02*
X041419Y014319D01*
X042461Y014319D02*
X053150Y014319D01*
X053150Y014000D02*
X043779Y014000D01*
X044098Y013682D02*
X053150Y013682D01*
X053090Y013363D02*
X052998Y013363D01*
X052526Y013363D02*
X052526Y013363D01*
X052526Y013384D02*
X052130Y013384D01*
X052080Y013374D01*
X052033Y013355D01*
X051990Y013326D01*
X051954Y013290D01*
X051925Y013247D01*
X051906Y013200D01*
X051896Y013150D01*
X051896Y012754D01*
X051896Y012358D01*
X051906Y012308D01*
X051925Y012261D01*
X051954Y012218D01*
X051990Y012182D01*
X052033Y012154D01*
X052080Y012134D01*
X052130Y012124D01*
X052526Y012124D01*
X052526Y012754D01*
X052526Y012754D01*
X052526Y012754D01*
X051896Y012754D01*
X052526Y012754D01*
X052526Y012754D01*
X052526Y013384D01*
X052053Y013363D02*
X045415Y013363D01*
X044574Y013363D02*
X044430Y013363D01*
X043026Y013363D02*
X043026Y013363D01*
X045604Y013045D02*
X051896Y013045D01*
X051896Y012726D02*
X045604Y012726D01*
X045604Y012408D02*
X051896Y012408D01*
X052526Y012408D02*
X052526Y012408D01*
X052724Y012089D02*
X041520Y012089D01*
X041462Y011771D02*
X052341Y011771D01*
X052593Y012022D02*
X052593Y012022D01*
X054296Y012089D02*
X076200Y012089D01*
X076200Y012408D02*
X073604Y012408D01*
X073604Y012726D02*
X076200Y012726D01*
X076200Y013045D02*
X073604Y013045D01*
X073415Y013363D02*
X076200Y013363D01*
X076200Y013682D02*
X072370Y013682D01*
X072430Y013363D02*
X072574Y013363D01*
X071650Y013682D02*
X063370Y013682D01*
X063430Y013363D02*
X063574Y013363D01*
X064415Y013363D02*
X070553Y013363D01*
X070533Y013355D02*
X070490Y013326D01*
X070454Y013290D01*
X070425Y013247D01*
X070406Y013200D01*
X070396Y013150D01*
X070396Y012754D01*
X070396Y012358D01*
X070406Y012308D01*
X070425Y012261D01*
X070454Y012218D01*
X070490Y012182D01*
X070533Y012154D01*
X070580Y012134D01*
X070630Y012124D01*
X071026Y012124D01*
X071026Y012754D01*
X071026Y012754D01*
X071026Y012754D01*
X070396Y012754D01*
X071026Y012754D01*
X071026Y012754D01*
X071026Y013384D01*
X070630Y013384D01*
X070580Y013374D01*
X070533Y013355D01*
X071026Y013363D02*
X071026Y013363D01*
X071498Y013363D02*
X071590Y013363D01*
X071026Y013045D02*
X071026Y013045D01*
X071026Y012726D02*
X071026Y012726D01*
X070396Y012726D02*
X064604Y012726D01*
X064604Y013045D02*
X070396Y013045D01*
X070396Y012408D02*
X064604Y012408D01*
X062026Y012408D02*
X062026Y012408D01*
X062026Y012124D02*
X061630Y012124D01*
X061580Y012134D01*
X061533Y012154D01*
X061490Y012182D01*
X061454Y012218D01*
X061425Y012261D01*
X061406Y012308D01*
X061396Y012358D01*
X061396Y012754D01*
X062026Y012754D01*
X062026Y012754D01*
X062026Y012754D01*
X062026Y012124D01*
X061396Y012408D02*
X055104Y012408D01*
X055104Y012726D02*
X061396Y012726D01*
X061396Y012754D02*
X062026Y012754D01*
X062026Y012754D01*
X062026Y013384D01*
X061630Y013384D01*
X061580Y013374D01*
X061533Y013355D01*
X061490Y013326D01*
X061454Y013290D01*
X061425Y013247D01*
X061406Y013200D01*
X061396Y013150D01*
X061396Y012754D01*
X061396Y013045D02*
X055104Y013045D01*
X054915Y013363D02*
X061553Y013363D01*
X062026Y013363D02*
X062026Y013363D01*
X062498Y013363D02*
X062590Y013363D01*
X062650Y013682D02*
X053870Y013682D01*
X053930Y013363D02*
X054074Y013363D01*
X052526Y013045D02*
X052526Y013045D01*
X052526Y012726D02*
X052526Y012726D01*
X054679Y011771D02*
X076200Y011771D01*
X076200Y011452D02*
X054887Y011452D01*
X054772Y011677D02*
X054772Y011677D01*
X055011Y011134D02*
X076200Y011134D01*
X076200Y010815D02*
X055061Y010815D01*
X055028Y010497D02*
X076200Y010497D01*
X076200Y010178D02*
X054943Y010178D01*
X054994Y010278D02*
X054994Y010278D01*
X054780Y009860D02*
X076200Y009860D01*
X071026Y012408D02*
X071026Y012408D01*
X071650Y014000D02*
X063370Y014000D01*
X063370Y014319D02*
X071650Y014319D01*
X072370Y014319D02*
X076200Y014319D01*
X076200Y014000D02*
X072370Y014000D01*
X072370Y014637D02*
X076200Y014637D01*
X076200Y014956D02*
X074362Y014956D01*
X074573Y015166D02*
X074086Y014679D01*
X073398Y014679D01*
X072912Y015166D01*
X072912Y015854D01*
X073398Y016341D01*
X074086Y016341D01*
X074573Y015854D01*
X074573Y015166D01*
X074573Y015274D02*
X076200Y015274D01*
X076200Y015593D02*
X074573Y015593D01*
X074516Y015911D02*
X076200Y015911D01*
X076200Y016230D02*
X074197Y016230D01*
X073287Y016230D02*
X072370Y016230D01*
X072370Y016548D02*
X076200Y016548D01*
X076200Y016867D02*
X072370Y016867D01*
X072327Y017185D02*
X076200Y017185D01*
X076200Y017504D02*
X076068Y017504D01*
X074702Y017504D02*
X072026Y017504D01*
X071697Y017822D02*
X074269Y017822D01*
X074035Y018141D02*
X051207Y018141D01*
X051277Y018211D02*
X051370Y018435D01*
X051370Y018678D01*
X051277Y018902D01*
X051106Y019073D01*
X050881Y019166D01*
X050639Y019166D01*
X050414Y019073D01*
X050269Y018928D01*
X050241Y018967D01*
X050170Y019037D01*
X050090Y019095D01*
X050002Y019140D01*
X049908Y019171D01*
X049810Y019186D01*
X049760Y019186D01*
X049760Y018556D01*
X049760Y017926D01*
X049810Y017926D01*
X049908Y017942D01*
X050002Y017972D01*
X050090Y018017D01*
X050170Y018076D01*
X050241Y018146D01*
X050269Y018185D01*
X050414Y018039D01*
X050639Y017946D01*
X050881Y017946D01*
X051106Y018039D01*
X051277Y018211D01*
X051370Y018459D02*
X073892Y018459D01*
X073842Y018778D02*
X051329Y018778D01*
X051051Y019096D02*
X073858Y019096D01*
X073926Y019415D02*
X043433Y019415D01*
X043456Y019391D02*
X043391Y019456D01*
X043317Y019510D01*
X043235Y019552D01*
X043147Y019581D01*
X043056Y019595D01*
X043010Y019595D01*
X043010Y019010D01*
X043595Y019010D01*
X043595Y019056D01*
X043581Y019147D01*
X043552Y019235D01*
X043510Y019317D01*
X043456Y019391D01*
X043010Y019415D02*
X043010Y019415D01*
X043010Y019595D02*
X042964Y019595D01*
X042873Y019581D01*
X042785Y019552D01*
X042703Y019510D01*
X042629Y019456D01*
X042564Y019391D01*
X042510Y019317D01*
X042501Y019300D01*
X042489Y019330D01*
X042330Y019489D01*
X042122Y019575D01*
X041898Y019575D01*
X041690Y019489D01*
X041531Y019330D01*
X041480Y019206D01*
X041444Y019293D01*
X041303Y019434D01*
X041119Y019510D01*
X040401Y019510D01*
X040217Y019434D01*
X040076Y019293D01*
X040000Y019109D01*
X040000Y018911D01*
X040076Y018727D01*
X040217Y018586D01*
X040401Y018510D01*
X041119Y018510D01*
X041303Y018586D01*
X041444Y018727D01*
X041480Y018814D01*
X041531Y018690D01*
X041690Y018531D01*
X041898Y018445D01*
X042122Y018445D01*
X042330Y018531D01*
X042489Y018690D01*
X042501Y018720D01*
X042510Y018703D01*
X042564Y018629D01*
X042629Y018564D01*
X042703Y018510D01*
X042785Y018468D01*
X042873Y018439D01*
X042964Y018425D01*
X043010Y018425D01*
X043056Y018425D01*
X043147Y018439D01*
X043235Y018468D01*
X043317Y018510D01*
X043391Y018564D01*
X043456Y018629D01*
X043510Y018703D01*
X043552Y018785D01*
X043581Y018873D01*
X043595Y018964D01*
X043595Y019010D01*
X043010Y019010D01*
X043010Y019010D01*
X043010Y019010D01*
X043010Y018425D01*
X043010Y019010D01*
X043010Y019010D01*
X043010Y019595D01*
X042587Y019415D02*
X042405Y019415D01*
X041615Y019415D02*
X041323Y019415D01*
X040197Y019415D02*
X038323Y019415D01*
X038520Y019096D02*
X040000Y019096D01*
X040055Y018778D02*
X038465Y018778D01*
X038243Y018459D02*
X040277Y018459D01*
X040013Y018141D02*
X038507Y018141D01*
X038483Y017822D02*
X040037Y017822D01*
X040385Y017504D02*
X038135Y017504D01*
X037385Y017504D02*
X035513Y017504D01*
X034381Y018141D02*
X031207Y018141D01*
X031277Y018211D02*
X031106Y018039D01*
X030881Y017946D01*
X030639Y017946D01*
X030414Y018039D01*
X030260Y018194D01*
X030106Y018039D01*
X029881Y017946D01*
X029639Y017946D01*
X029414Y018039D01*
X029260Y018194D01*
X029106Y018039D01*
X028881Y017946D01*
X028639Y017946D01*
X028414Y018039D01*
X028260Y018194D01*
X028106Y018039D01*
X027881Y017946D01*
X027639Y017946D01*
X027414Y018039D01*
X027243Y018211D01*
X027150Y018435D01*
X027150Y018678D01*
X027243Y018902D01*
X027414Y019073D01*
X027639Y019166D01*
X027881Y019166D01*
X028106Y019073D01*
X028260Y018919D01*
X028414Y019073D01*
X028639Y019166D01*
X028881Y019166D01*
X029106Y019073D01*
X029260Y018919D01*
X029414Y019073D01*
X029639Y019166D01*
X029881Y019166D01*
X030106Y019073D01*
X030260Y018919D01*
X030414Y019073D01*
X030639Y019166D01*
X030881Y019166D01*
X031106Y019073D01*
X031277Y018902D01*
X031370Y018678D01*
X031370Y018435D01*
X031277Y018211D01*
X031370Y018459D02*
X034700Y018459D01*
X035718Y018459D02*
X037277Y018459D01*
X035337Y019096D02*
X031051Y019096D01*
X031329Y018778D02*
X035018Y018778D01*
X037197Y019415D02*
X004094Y019415D01*
X004162Y019096D02*
X018469Y019096D01*
X018414Y019073D02*
X018243Y018902D01*
X018150Y018678D01*
X018150Y018435D01*
X018243Y018211D01*
X018414Y018039D01*
X018639Y017946D01*
X018881Y017946D01*
X019106Y018039D01*
X019260Y018194D01*
X019414Y018039D01*
X019639Y017946D01*
X019881Y017946D01*
X020106Y018039D01*
X020260Y018194D01*
X020414Y018039D01*
X020639Y017946D01*
X020881Y017946D01*
X021106Y018039D01*
X021260Y018194D01*
X021414Y018039D01*
X021639Y017946D01*
X021881Y017946D01*
X022106Y018039D01*
X022277Y018211D01*
X022370Y018435D01*
X022370Y018678D01*
X022277Y018902D01*
X022106Y019073D01*
X021881Y019166D01*
X021639Y019166D01*
X021414Y019073D01*
X021260Y018919D01*
X021106Y019073D01*
X020881Y019166D01*
X020639Y019166D01*
X020414Y019073D01*
X020260Y018919D01*
X020106Y019073D01*
X019881Y019166D01*
X019639Y019166D01*
X019414Y019073D01*
X019260Y018919D01*
X019106Y019073D01*
X018881Y019166D01*
X018639Y019166D01*
X018414Y019073D01*
X018191Y018778D02*
X004178Y018778D01*
X004128Y018459D02*
X018150Y018459D01*
X018313Y018141D02*
X003985Y018141D01*
X003751Y017822D02*
X006323Y017822D01*
X005994Y017504D02*
X003318Y017504D01*
X001952Y017504D02*
X001820Y017504D01*
X001820Y017185D02*
X005693Y017185D01*
X005650Y016867D02*
X001820Y016867D01*
X001820Y016548D02*
X005650Y016548D01*
X005650Y016230D02*
X004733Y016230D01*
X004622Y016341D02*
X003934Y016341D01*
X003447Y015854D01*
X003447Y015166D01*
X003934Y014679D01*
X004622Y014679D01*
X005108Y015166D01*
X005108Y015854D01*
X004622Y016341D01*
X003823Y016230D02*
X001820Y016230D01*
X001820Y015911D02*
X003504Y015911D01*
X003447Y015593D02*
X001820Y015593D01*
X001820Y015274D02*
X003447Y015274D01*
X003658Y014956D02*
X001820Y014956D01*
X001820Y014637D02*
X005650Y014637D01*
X005650Y014956D02*
X004898Y014956D01*
X005108Y015274D02*
X005650Y015274D01*
X006370Y015274D02*
X006912Y015274D01*
X006912Y015166D02*
X007398Y014679D01*
X008086Y014679D01*
X008573Y015166D01*
X008573Y015854D01*
X008086Y016341D01*
X007398Y016341D01*
X006912Y015854D01*
X006912Y015166D01*
X007122Y014956D02*
X006370Y014956D01*
X006370Y014637D02*
X015150Y014637D01*
X015150Y014956D02*
X014398Y014956D01*
X014608Y015166D02*
X014122Y014679D01*
X013434Y014679D01*
X012947Y015166D01*
X012947Y015854D01*
X013434Y016341D01*
X014122Y016341D01*
X014608Y015854D01*
X014608Y015166D01*
X014608Y015274D02*
X015150Y015274D01*
X015870Y015274D02*
X016412Y015274D01*
X016412Y015166D02*
X016898Y014679D01*
X017586Y014679D01*
X018073Y015166D01*
X018073Y015854D01*
X017586Y016341D01*
X016898Y016341D01*
X016412Y015854D01*
X016412Y015166D01*
X016622Y014956D02*
X015870Y014956D01*
X015870Y014637D02*
X017899Y014637D01*
X017862Y014956D02*
X022658Y014956D01*
X022447Y015166D02*
X022934Y014679D01*
X023622Y014679D01*
X024108Y015166D01*
X024108Y015854D01*
X023622Y016341D01*
X022934Y016341D01*
X022447Y015854D01*
X022447Y015166D01*
X022447Y015274D02*
X018073Y015274D01*
X018073Y015593D02*
X022447Y015593D01*
X022504Y015911D02*
X018016Y015911D01*
X017697Y016230D02*
X022823Y016230D01*
X023733Y016230D02*
X026287Y016230D01*
X026398Y016341D02*
X025912Y015854D01*
X025912Y015166D01*
X026398Y014679D01*
X027086Y014679D01*
X027573Y015166D01*
X027573Y015854D01*
X027086Y016341D01*
X026398Y016341D01*
X027197Y016230D02*
X032323Y016230D01*
X032434Y016341D02*
X031947Y015854D01*
X031947Y015166D01*
X032434Y014679D01*
X033122Y014679D01*
X033608Y015166D01*
X033608Y015854D01*
X033122Y016341D01*
X032434Y016341D01*
X033233Y016230D02*
X034150Y016230D01*
X034289Y016548D02*
X016057Y016548D01*
X015870Y016230D02*
X016787Y016230D01*
X016469Y015911D02*
X015870Y015911D01*
X015870Y015593D02*
X016412Y015593D01*
X015150Y015593D02*
X014608Y015593D01*
X014551Y015911D02*
X015150Y015911D01*
X015150Y016230D02*
X014233Y016230D01*
X013323Y016230D02*
X008197Y016230D01*
X007287Y016230D02*
X006370Y016230D01*
X006370Y016548D02*
X015150Y016548D01*
X015357Y016867D02*
X006376Y016867D01*
X006370Y015911D02*
X006969Y015911D01*
X006912Y015593D02*
X006370Y015593D01*
X005650Y015593D02*
X005108Y015593D01*
X005051Y015911D02*
X005650Y015911D01*
X008516Y015911D02*
X013004Y015911D01*
X012947Y015593D02*
X008573Y015593D01*
X008573Y015274D02*
X012947Y015274D01*
X013158Y014956D02*
X008362Y014956D01*
X006370Y014319D02*
X015150Y014319D01*
X015150Y014000D02*
X006370Y014000D01*
X005650Y014000D02*
X001820Y014000D01*
X001820Y014319D02*
X005650Y014319D01*
X005650Y013682D02*
X001820Y013682D01*
X001820Y013363D02*
X004553Y013363D01*
X004533Y013355D02*
X004490Y013326D01*
X004454Y013290D01*
X004425Y013247D01*
X004406Y013200D01*
X004396Y013150D01*
X004396Y012754D01*
X004396Y012358D01*
X004406Y012308D01*
X004425Y012261D01*
X004454Y012218D01*
X004490Y012182D01*
X004533Y012154D01*
X004580Y012134D01*
X004630Y012124D01*
X005026Y012124D01*
X005026Y012754D01*
X004396Y012754D01*
X005026Y012754D01*
X005026Y012754D01*
X005026Y013384D01*
X004630Y013384D01*
X004580Y013374D01*
X004533Y013355D01*
X005026Y013363D02*
X005026Y013363D01*
X005498Y013363D02*
X005590Y013363D01*
X006430Y013363D02*
X006574Y013363D01*
X006370Y013682D02*
X015150Y013682D01*
X015090Y013363D02*
X014998Y013363D01*
X014526Y013363D02*
X014526Y013363D01*
X014526Y013384D02*
X014130Y013384D01*
X014080Y013374D01*
X014033Y013355D01*
X013990Y013326D01*
X013954Y013290D01*
X013925Y013247D01*
X013906Y013200D01*
X013896Y013150D01*
X013896Y012754D01*
X013896Y012358D01*
X013906Y012308D01*
X013925Y012261D01*
X013954Y012218D01*
X013990Y012182D01*
X014033Y012154D01*
X014080Y012134D01*
X014130Y012124D01*
X014526Y012124D01*
X014526Y012754D01*
X013896Y012754D01*
X014526Y012754D01*
X014526Y012754D01*
X014526Y013384D01*
X014053Y013363D02*
X007415Y013363D01*
X007604Y013045D02*
X013896Y013045D01*
X013896Y012726D02*
X007604Y012726D01*
X007604Y012408D02*
X013896Y012408D01*
X014526Y012408D02*
X014526Y012408D01*
X014526Y012726D02*
X014526Y012726D01*
X014526Y013045D02*
X014526Y013045D01*
X015930Y013363D02*
X016074Y013363D01*
X015870Y013682D02*
X018188Y013682D01*
X018582Y013682D02*
X019438Y013682D01*
X019832Y013682D02*
X020688Y013682D01*
X021082Y013682D02*
X021938Y013682D01*
X022332Y013682D02*
X024922Y013682D01*
X024590Y013363D02*
X024498Y013363D01*
X024026Y013363D02*
X024026Y013363D01*
X024026Y013384D02*
X023630Y013384D01*
X023580Y013374D01*
X023533Y013355D01*
X023490Y013326D01*
X023454Y013290D01*
X023425Y013247D01*
X023406Y013200D01*
X023396Y013150D01*
X023396Y012754D01*
X023396Y012358D01*
X023406Y012308D01*
X023425Y012261D01*
X023454Y012218D01*
X023490Y012182D01*
X023533Y012154D01*
X023580Y012134D01*
X023630Y012124D01*
X024026Y012124D01*
X024026Y012754D01*
X023396Y012754D01*
X024026Y012754D01*
X024026Y012754D01*
X024026Y013384D01*
X023553Y013363D02*
X016915Y013363D01*
X017104Y013045D02*
X023396Y013045D01*
X023396Y012726D02*
X022532Y012726D01*
X022481Y012777D02*
X022256Y012870D01*
X022014Y012870D01*
X021789Y012777D01*
X021618Y012606D01*
X021525Y012381D01*
X021525Y012139D01*
X021618Y011914D01*
X021789Y011743D01*
X022014Y011650D01*
X022256Y011650D01*
X022481Y011743D01*
X022652Y011914D01*
X022745Y012139D01*
X022745Y012381D01*
X022652Y012606D01*
X022481Y012777D01*
X021738Y012726D02*
X021282Y012726D01*
X021231Y012777D02*
X021006Y012870D01*
X020764Y012870D01*
X020539Y012777D01*
X020368Y012606D01*
X020275Y012381D01*
X020275Y012139D01*
X020368Y011914D01*
X020539Y011743D01*
X020764Y011650D01*
X021006Y011650D01*
X021231Y011743D01*
X021402Y011914D01*
X021495Y012139D01*
X021495Y012381D01*
X021402Y012606D01*
X021231Y012777D01*
X020488Y012726D02*
X020032Y012726D01*
X019981Y012777D02*
X019756Y012870D01*
X019514Y012870D01*
X019289Y012777D01*
X019118Y012606D01*
X019025Y012381D01*
X019025Y012139D01*
X019118Y011914D01*
X019289Y011743D01*
X019514Y011650D01*
X019756Y011650D01*
X019981Y011743D01*
X020152Y011914D01*
X020245Y012139D01*
X020245Y012381D01*
X020152Y012606D01*
X019981Y012777D01*
X019238Y012726D02*
X018782Y012726D01*
X018731Y012777D02*
X018506Y012870D01*
X018264Y012870D01*
X018039Y012777D01*
X017868Y012606D01*
X017775Y012381D01*
X017775Y012139D01*
X017868Y011914D01*
X018039Y011743D01*
X018264Y011650D01*
X018506Y011650D01*
X018731Y011743D01*
X018902Y011914D01*
X018995Y012139D01*
X018995Y012381D01*
X018902Y012606D01*
X018731Y012777D01*
X017988Y012726D02*
X017104Y012726D01*
X017104Y012408D02*
X017786Y012408D01*
X017796Y012089D02*
X001820Y012089D01*
X001820Y012408D02*
X004396Y012408D01*
X005026Y012408D02*
X005026Y012408D01*
X005026Y012726D02*
X005026Y012726D01*
X005026Y013045D02*
X005026Y013045D01*
X004396Y013045D02*
X001820Y013045D01*
X001820Y012726D02*
X004396Y012726D01*
X001820Y011771D02*
X018012Y011771D01*
X018758Y011771D02*
X019262Y011771D01*
X020008Y011771D02*
X020512Y011771D01*
X021258Y011771D02*
X021762Y011771D01*
X022508Y011771D02*
X023841Y011771D01*
X023633Y011452D02*
X001820Y011452D01*
X001820Y011134D02*
X023509Y011134D01*
X023459Y010815D02*
X001820Y010815D01*
X001820Y010497D02*
X023492Y010497D01*
X023577Y010178D02*
X001820Y010178D01*
X001820Y009860D02*
X007100Y009860D01*
X006782Y009541D02*
X001820Y009541D01*
X001820Y009223D02*
X006650Y009223D01*
X006487Y008904D02*
X005533Y008904D01*
X005590Y008847D02*
X005402Y009034D01*
X005158Y009136D01*
X004893Y009136D01*
X004649Y009034D01*
X004462Y008847D01*
X004361Y008603D01*
X004361Y008338D01*
X004462Y008094D01*
X004649Y007907D01*
X004893Y007806D01*
X005158Y007806D01*
X005402Y007907D01*
X005590Y008094D01*
X005691Y008338D01*
X005691Y008603D01*
X005590Y008847D01*
X005691Y008586D02*
X006329Y008586D01*
X006359Y008267D02*
X005661Y008267D01*
X005444Y007949D02*
X006576Y007949D01*
X006650Y007630D02*
X001820Y007630D01*
X001820Y007949D02*
X004607Y007949D01*
X004390Y008267D02*
X001820Y008267D01*
X001820Y008586D02*
X004361Y008586D01*
X004519Y008904D02*
X001820Y008904D01*
X007482Y009223D02*
X016463Y009223D01*
X015987Y008904D02*
X015033Y008904D01*
X015090Y008847D02*
X014902Y009034D01*
X014658Y009136D01*
X014393Y009136D01*
X014149Y009034D01*
X013962Y008847D01*
X013861Y008603D01*
X013861Y008338D01*
X013962Y008094D01*
X014149Y007907D01*
X014393Y007806D01*
X014658Y007806D01*
X014902Y007907D01*
X015090Y008094D01*
X015191Y008338D01*
X015191Y008603D01*
X015090Y008847D01*
X015191Y008586D02*
X015829Y008586D01*
X015859Y008267D02*
X015161Y008267D01*
X014944Y007949D02*
X016076Y007949D01*
X016150Y007630D02*
X007370Y007630D01*
X007413Y007949D02*
X014107Y007949D01*
X013890Y008267D02*
X007630Y008267D01*
X007659Y008586D02*
X013861Y008586D01*
X014019Y008904D02*
X007501Y008904D01*
X007370Y007312D02*
X016150Y007312D01*
X016150Y006993D02*
X007370Y006993D01*
X007370Y006675D02*
X016150Y006675D01*
X016870Y006993D02*
X037360Y006993D01*
X038160Y006993D02*
X038400Y006993D01*
X035710Y005719D02*
X030904Y005719D01*
X030616Y005719D02*
X029904Y005719D01*
X029616Y005719D02*
X028904Y005719D01*
X028616Y005719D02*
X027904Y005719D01*
X025650Y005401D02*
X022303Y005401D01*
X023413Y003808D02*
X017107Y003808D01*
X017159Y003490D02*
X023361Y003490D01*
X023464Y003171D02*
X017056Y003171D01*
X015932Y003171D02*
X015088Y003171D01*
X015090Y003173D02*
X015191Y003417D01*
X015191Y003682D01*
X015090Y003926D01*
X014902Y004113D01*
X014658Y004214D01*
X014393Y004214D01*
X014149Y004113D01*
X013962Y003926D01*
X013861Y003682D01*
X013861Y003417D01*
X013962Y003173D01*
X014149Y002986D01*
X014393Y002884D01*
X014658Y002884D01*
X014902Y002986D01*
X015090Y003173D01*
X015191Y003490D02*
X015829Y003490D01*
X015882Y003808D02*
X015138Y003808D01*
X014870Y004127D02*
X016150Y004127D01*
X016150Y004445D02*
X007370Y004445D01*
X007370Y004127D02*
X014181Y004127D01*
X013913Y003808D02*
X007607Y003808D01*
X007659Y003490D02*
X013861Y003490D01*
X013964Y003171D02*
X007556Y003171D01*
X006432Y003171D02*
X005588Y003171D01*
X005590Y003173D02*
X005691Y003417D01*
X005691Y003682D01*
X005590Y003926D01*
X005402Y004113D01*
X005158Y004214D01*
X004893Y004214D01*
X004649Y004113D01*
X004462Y003926D01*
X004361Y003682D01*
X004361Y003417D01*
X004462Y003173D01*
X004649Y002986D01*
X004893Y002884D01*
X005158Y002884D01*
X005402Y002986D01*
X005590Y003173D01*
X005691Y003490D02*
X006329Y003490D01*
X006382Y003808D02*
X005638Y003808D01*
X005370Y004127D02*
X006650Y004127D01*
X006650Y004445D02*
X001820Y004445D01*
X001820Y004127D02*
X002203Y004127D01*
X003067Y004127D02*
X004681Y004127D01*
X004413Y003808D02*
X003641Y003808D01*
X003929Y003490D02*
X004361Y003490D01*
X004464Y003171D02*
X004091Y003171D01*
X003988Y001897D02*
X032995Y001897D01*
X034025Y001897D02*
X035010Y001897D01*
X034900Y002216D02*
X034140Y002216D01*
X034077Y002534D02*
X034963Y002534D01*
X036057Y002534D02*
X036980Y002534D01*
X036980Y002510D02*
X036980Y002469D01*
X036993Y002388D01*
X037018Y002310D01*
X037055Y002237D01*
X037103Y002171D01*
X037161Y002113D01*
X037227Y002065D01*
X037300Y002028D01*
X037378Y002003D01*
X037459Y001990D01*
X037760Y001990D01*
X037760Y002510D01*
X036980Y002510D01*
X037071Y002216D02*
X036120Y002216D01*
X036010Y001897D02*
X038417Y001897D01*
X037760Y002216D02*
X037760Y002216D01*
X037760Y002534D02*
X037760Y002534D01*
X037760Y002853D02*
X037760Y002853D01*
X037760Y003171D02*
X037760Y003171D01*
X037760Y003490D02*
X037760Y003490D01*
X037760Y003808D02*
X037760Y003808D01*
X037760Y004127D02*
X037760Y004127D01*
X037760Y004445D02*
X037760Y004445D01*
X037046Y004764D02*
X035870Y004764D01*
X036091Y005082D02*
X037227Y005082D01*
X035391Y005401D02*
X031303Y005401D01*
X032449Y007312D02*
X016870Y007312D01*
X016870Y007630D02*
X032131Y007630D01*
X031397Y007949D02*
X030623Y007949D01*
X030147Y007949D02*
X029373Y007949D01*
X028897Y007949D02*
X028123Y007949D01*
X027647Y007949D02*
X026413Y007949D01*
X025576Y007949D02*
X024444Y007949D01*
X023607Y007949D02*
X016913Y007949D01*
X017130Y008267D02*
X023390Y008267D01*
X023361Y008586D02*
X017159Y008586D01*
X024661Y008267D02*
X025359Y008267D01*
X025329Y008586D02*
X024691Y008586D01*
X026630Y008267D02*
X027325Y008267D01*
X027275Y008586D02*
X026659Y008586D01*
X028419Y010815D02*
X028601Y010815D01*
X026387Y011452D02*
X038400Y011452D01*
X037760Y011490D02*
X037760Y012010D01*
X037760Y012490D01*
X037760Y013010D01*
X037760Y013010D01*
X037760Y014010D01*
X036980Y014010D01*
X036980Y013969D01*
X036993Y013888D01*
X037018Y013810D01*
X037055Y013737D01*
X037103Y013671D01*
X037161Y013613D01*
X037227Y013565D01*
X037300Y013528D01*
X037356Y013510D01*
X037300Y013492D01*
X037227Y013455D01*
X037161Y013407D01*
X037103Y013349D01*
X037055Y013283D01*
X037018Y013210D01*
X036993Y013132D01*
X036980Y013051D01*
X036980Y013010D01*
X037760Y013010D01*
X037760Y013010D01*
X036980Y013010D01*
X036980Y012969D01*
X036993Y012888D01*
X037018Y012810D01*
X037055Y012737D01*
X037103Y012671D01*
X037161Y012613D01*
X037227Y012565D01*
X037300Y012528D01*
X037356Y012510D01*
X037300Y012492D01*
X037227Y012455D01*
X037161Y012407D01*
X037103Y012349D01*
X037055Y012283D01*
X037018Y012210D01*
X036993Y012132D01*
X036980Y012051D01*
X036980Y012010D01*
X037760Y012010D01*
X037760Y012010D01*
X037760Y012010D01*
X036980Y012010D01*
X036980Y011969D01*
X036993Y011888D01*
X037018Y011810D01*
X037055Y011737D01*
X037103Y011671D01*
X037161Y011613D01*
X037227Y011565D01*
X037300Y011528D01*
X037378Y011503D01*
X037459Y011490D01*
X037760Y011490D01*
X037760Y011771D02*
X037760Y011771D01*
X037038Y011771D02*
X026179Y011771D01*
X025796Y012089D02*
X036986Y012089D01*
X037162Y012408D02*
X036104Y012408D01*
X036104Y012726D02*
X037064Y012726D01*
X036980Y013045D02*
X036104Y013045D01*
X035915Y013363D02*
X037118Y013363D01*
X037096Y013682D02*
X036441Y013682D01*
X036759Y014000D02*
X036980Y014000D01*
X037078Y014319D02*
X037081Y014319D01*
X037760Y014000D02*
X037760Y014000D01*
X038439Y014319D02*
X038814Y014319D01*
X038354Y014637D02*
X040166Y014637D01*
X040000Y014956D02*
X038520Y014956D01*
X038452Y015274D02*
X040068Y015274D01*
X041119Y015510D02*
X041303Y015434D01*
X041392Y015345D01*
X041447Y015322D01*
X041447Y015698D01*
X041392Y015675D01*
X041303Y015586D01*
X041119Y015510D01*
X040401Y015510D01*
X041119Y015510D01*
X041310Y015593D02*
X041447Y015593D01*
X043051Y015911D02*
X044969Y015911D01*
X044912Y015593D02*
X043108Y015593D01*
X043108Y015274D02*
X044912Y015274D01*
X045122Y014956D02*
X042898Y014956D01*
X042142Y014637D02*
X053150Y014637D01*
X053150Y014956D02*
X052398Y014956D01*
X052608Y015274D02*
X053150Y015274D01*
X053870Y015274D02*
X054412Y015274D01*
X054412Y015166D02*
X054898Y014679D01*
X055586Y014679D01*
X056073Y015166D01*
X056073Y015854D01*
X055586Y016341D01*
X054898Y016341D01*
X054412Y015854D01*
X054412Y015166D01*
X054622Y014956D02*
X053870Y014956D01*
X053870Y014637D02*
X062650Y014637D01*
X062650Y014956D02*
X061898Y014956D01*
X062108Y015166D02*
X061622Y014679D01*
X060934Y014679D01*
X060447Y015166D01*
X060447Y015854D01*
X060934Y016341D01*
X061622Y016341D01*
X062108Y015854D01*
X062108Y015166D01*
X062108Y015274D02*
X062650Y015274D01*
X063370Y015274D02*
X063912Y015274D01*
X063912Y015166D02*
X064398Y014679D01*
X065086Y014679D01*
X065573Y015166D01*
X065573Y015854D01*
X065086Y016341D01*
X064398Y016341D01*
X063912Y015854D01*
X063912Y015166D01*
X064122Y014956D02*
X063370Y014956D01*
X063370Y014637D02*
X071650Y014637D01*
X071650Y014956D02*
X070898Y014956D01*
X071108Y015166D02*
X070622Y014679D01*
X069934Y014679D01*
X069447Y015166D01*
X069447Y015854D01*
X069934Y016341D01*
X070622Y016341D01*
X071108Y015854D01*
X071108Y015166D01*
X071108Y015274D02*
X071650Y015274D01*
X072370Y015274D02*
X072912Y015274D01*
X073122Y014956D02*
X072370Y014956D01*
X072370Y015593D02*
X072912Y015593D01*
X072969Y015911D02*
X072370Y015911D01*
X071650Y015911D02*
X071051Y015911D01*
X071108Y015593D02*
X071650Y015593D01*
X069504Y015911D02*
X065516Y015911D01*
X065573Y015593D02*
X069447Y015593D01*
X069447Y015274D02*
X065573Y015274D01*
X065362Y014956D02*
X069658Y014956D01*
X069823Y016230D02*
X065197Y016230D01*
X064287Y016230D02*
X063370Y016230D01*
X063370Y016548D02*
X071650Y016548D01*
X071650Y016230D02*
X070733Y016230D01*
X071644Y016867D02*
X063163Y016867D01*
X062463Y016548D02*
X053481Y016548D01*
X053800Y016230D02*
X054787Y016230D01*
X055697Y016230D02*
X060823Y016230D01*
X060504Y015911D02*
X056016Y015911D01*
X056073Y015593D02*
X060447Y015593D01*
X060447Y015274D02*
X056073Y015274D01*
X055862Y014956D02*
X060658Y014956D01*
X062108Y015593D02*
X062650Y015593D01*
X062650Y015911D02*
X062051Y015911D01*
X061733Y016230D02*
X062650Y016230D01*
X063370Y015911D02*
X063969Y015911D01*
X063912Y015593D02*
X063370Y015593D01*
X062650Y014319D02*
X053870Y014319D01*
X053870Y014000D02*
X062650Y014000D01*
X062026Y013045D02*
X062026Y013045D01*
X062026Y012726D02*
X062026Y012726D01*
X054412Y015593D02*
X053870Y015593D01*
X053870Y015911D02*
X054469Y015911D01*
X053150Y015593D02*
X052608Y015593D01*
X052551Y015911D02*
X053100Y015911D01*
X051004Y015911D02*
X046516Y015911D01*
X046573Y015593D02*
X050947Y015593D01*
X050947Y015274D02*
X046573Y015274D01*
X046362Y014956D02*
X051158Y014956D01*
X041391Y016650D02*
X041212Y016472D01*
X041119Y016510D01*
X040401Y016510D01*
X041119Y016510D01*
X041303Y016586D01*
X041367Y016650D01*
X041391Y016650D01*
X041289Y016548D02*
X041211Y016548D01*
X040309Y016548D02*
X038211Y016548D01*
X038470Y016230D02*
X040050Y016230D01*
X040018Y016867D02*
X038502Y016867D01*
X038489Y017185D02*
X040031Y017185D01*
X040401Y017510D02*
X041119Y017510D01*
X041303Y017434D01*
X041367Y017370D01*
X041391Y017370D01*
X041212Y017548D01*
X041119Y017510D01*
X040401Y017510D01*
X041135Y017504D02*
X041257Y017504D01*
X041639Y018141D02*
X046313Y018141D01*
X046243Y018211D02*
X046414Y018039D01*
X046639Y017946D01*
X046881Y017946D01*
X047106Y018039D01*
X047260Y018194D01*
X047414Y018039D01*
X047639Y017946D01*
X047881Y017946D01*
X048106Y018039D01*
X048260Y018194D01*
X048414Y018039D01*
X048639Y017946D01*
X048881Y017946D01*
X049106Y018039D01*
X049251Y018185D01*
X049279Y018146D01*
X049350Y018076D01*
X049430Y018017D01*
X049518Y017972D01*
X049612Y017942D01*
X049710Y017926D01*
X049760Y017926D01*
X049760Y018556D01*
X049760Y018556D01*
X049760Y019186D01*
X049710Y019186D01*
X049612Y019171D01*
X049518Y019140D01*
X049430Y019095D01*
X049350Y019037D01*
X049279Y018967D01*
X049251Y018928D01*
X049106Y019073D01*
X048881Y019166D01*
X048639Y019166D01*
X048414Y019073D01*
X048260Y018919D01*
X048106Y019073D01*
X047881Y019166D01*
X047639Y019166D01*
X047414Y019073D01*
X047260Y018919D01*
X047106Y019073D01*
X046881Y019166D01*
X046639Y019166D01*
X046414Y019073D01*
X046243Y018902D01*
X046150Y018678D01*
X046150Y018435D01*
X046243Y018211D01*
X046150Y018459D02*
X043207Y018459D01*
X043010Y018459D02*
X043010Y018459D01*
X042813Y018459D02*
X042156Y018459D01*
X041864Y018459D02*
X041243Y018459D01*
X041465Y018778D02*
X041495Y018778D01*
X043010Y018778D02*
X043010Y018778D01*
X043010Y019096D02*
X043010Y019096D01*
X043589Y019096D02*
X046469Y019096D01*
X046191Y018778D02*
X043548Y018778D01*
X047051Y019096D02*
X047469Y019096D01*
X048051Y019096D02*
X048469Y019096D01*
X049051Y019096D02*
X049432Y019096D01*
X049760Y019096D02*
X049760Y019096D01*
X049760Y018778D02*
X049760Y018778D01*
X049760Y018556D02*
X049760Y018556D01*
X049760Y018459D02*
X049760Y018459D01*
X049760Y018141D02*
X049760Y018141D01*
X050235Y018141D02*
X050313Y018141D01*
X049285Y018141D02*
X049207Y018141D01*
X048313Y018141D02*
X048207Y018141D01*
X047313Y018141D02*
X047207Y018141D01*
X050088Y019096D02*
X050469Y019096D01*
X037309Y016548D02*
X037231Y016548D01*
X035469Y015911D02*
X035420Y015911D01*
X035412Y015593D02*
X035370Y015593D01*
X035370Y015274D02*
X035412Y015274D01*
X035370Y014956D02*
X035622Y014956D01*
X035146Y014637D02*
X036378Y014637D01*
X036059Y014319D02*
X034828Y014319D01*
X034741Y014000D02*
X034509Y014000D01*
X034422Y013682D02*
X034191Y013682D01*
X034090Y013363D02*
X033998Y013363D01*
X033526Y013363D02*
X033526Y013363D01*
X033526Y013384D02*
X033130Y013384D01*
X033080Y013374D01*
X033033Y013355D01*
X032990Y013326D01*
X032954Y013290D01*
X032925Y013247D01*
X032906Y013200D01*
X032896Y013150D01*
X032896Y012754D01*
X032896Y012358D01*
X032906Y012308D01*
X032925Y012261D01*
X032954Y012218D01*
X032990Y012182D01*
X033033Y012154D01*
X033080Y012134D01*
X033130Y012124D01*
X033526Y012124D01*
X033526Y012754D01*
X032896Y012754D01*
X033526Y012754D01*
X033526Y012754D01*
X033526Y013384D01*
X033053Y013363D02*
X026415Y013363D01*
X026604Y013045D02*
X032896Y013045D01*
X032896Y012726D02*
X026604Y012726D01*
X026604Y012408D02*
X032896Y012408D01*
X033526Y012408D02*
X033526Y012408D01*
X033526Y012726D02*
X033526Y012726D01*
X033526Y013045D02*
X033526Y013045D01*
X037760Y013045D02*
X037760Y013045D01*
X037760Y012726D02*
X037760Y012726D01*
X037760Y012408D02*
X037760Y012408D01*
X037760Y012089D02*
X037760Y012089D01*
X037760Y013363D02*
X037760Y013363D01*
X037760Y013682D02*
X037760Y013682D01*
X039120Y013363D02*
X039422Y013363D01*
X033696Y014956D02*
X033398Y014956D01*
X033378Y014637D02*
X022621Y014637D01*
X021649Y014637D02*
X021371Y014637D01*
X020399Y014637D02*
X020121Y014637D01*
X019149Y014637D02*
X018871Y014637D01*
X017775Y014319D02*
X015870Y014319D01*
X015870Y014000D02*
X017832Y014000D01*
X018984Y012408D02*
X019036Y012408D01*
X019046Y012089D02*
X018974Y012089D01*
X020224Y012089D02*
X020296Y012089D01*
X020286Y012408D02*
X020234Y012408D01*
X021484Y012408D02*
X021536Y012408D01*
X021546Y012089D02*
X021474Y012089D01*
X022724Y012089D02*
X024224Y012089D01*
X024026Y012408D02*
X024026Y012408D01*
X023396Y012408D02*
X022734Y012408D01*
X024026Y012726D02*
X024026Y012726D01*
X024026Y013045D02*
X024026Y013045D01*
X023898Y014956D02*
X026122Y014956D01*
X025912Y015274D02*
X024108Y015274D01*
X024108Y015593D02*
X025912Y015593D01*
X025969Y015911D02*
X024051Y015911D01*
X027362Y014956D02*
X032158Y014956D01*
X031947Y015274D02*
X027573Y015274D01*
X027573Y015593D02*
X031947Y015593D01*
X032004Y015911D02*
X027516Y015911D01*
X033551Y015911D02*
X034150Y015911D01*
X034150Y015593D02*
X033608Y015593D01*
X033608Y015274D02*
X034015Y015274D01*
X037073Y015593D02*
X037210Y015593D01*
X030313Y018141D02*
X030207Y018141D01*
X029313Y018141D02*
X029207Y018141D01*
X028313Y018141D02*
X028207Y018141D01*
X027313Y018141D02*
X022207Y018141D01*
X022370Y018459D02*
X027150Y018459D01*
X027191Y018778D02*
X022329Y018778D01*
X022051Y019096D02*
X027469Y019096D01*
X028051Y019096D02*
X028469Y019096D01*
X029051Y019096D02*
X029469Y019096D01*
X030051Y019096D02*
X030469Y019096D01*
X021469Y019096D02*
X021051Y019096D01*
X020469Y019096D02*
X020051Y019096D01*
X019469Y019096D02*
X019051Y019096D01*
X019207Y018141D02*
X019313Y018141D01*
X020207Y018141D02*
X020313Y018141D01*
X021207Y018141D02*
X021313Y018141D01*
X039620Y010815D02*
X051959Y010815D01*
X053028Y009276D02*
X053028Y009276D01*
X055001Y008904D02*
X061519Y008904D01*
X061361Y008586D02*
X055159Y008586D01*
X055130Y008267D02*
X061390Y008267D01*
X062533Y008904D02*
X063487Y008904D01*
X053859Y008267D02*
X053161Y008267D01*
X053191Y008586D02*
X053829Y008586D01*
X054150Y005719D02*
X050904Y005719D01*
X050616Y005719D02*
X049950Y005719D01*
X049760Y005719D02*
X049760Y005719D01*
X049570Y005719D02*
X048904Y005719D01*
X048616Y005719D02*
X047904Y005719D01*
X047616Y005719D02*
X046904Y005719D01*
X046616Y005719D02*
X044810Y005719D01*
X045129Y005401D02*
X046217Y005401D01*
X049760Y005401D02*
X049760Y005401D01*
X049760Y005118D02*
X049760Y005118D01*
X049760Y005082D02*
X049760Y005082D01*
X049760Y004764D02*
X049760Y004764D01*
X051268Y004764D02*
X054150Y004764D01*
X054150Y005082D02*
X051370Y005082D01*
X051303Y005401D02*
X054150Y005401D01*
X053882Y003808D02*
X053138Y003808D01*
X053191Y003490D02*
X053829Y003490D01*
X025432Y003171D02*
X024588Y003171D01*
X024691Y003490D02*
X025329Y003490D01*
X025382Y003808D02*
X024638Y003808D01*
X006650Y004764D02*
X001820Y004764D01*
X001820Y005082D02*
X006650Y005082D01*
X006650Y005401D02*
X001820Y005401D01*
X001820Y005719D02*
X006650Y005719D01*
X006650Y006038D02*
X001820Y006038D01*
X001820Y006356D02*
X006650Y006356D01*
X006650Y006675D02*
X001820Y006675D01*
X001820Y006993D02*
X006650Y006993D01*
X006650Y007312D02*
X001820Y007312D01*
M02*
