%
M48
M72
T01C0.0276
T02C0.0320
T03C0.0354
T04C0.0394
T05C0.0400
T06C0.1102
%
T01
X39760Y15510
X40760Y15510
T02
X40760Y14260
X37760Y14260
X37760Y13260
X40760Y13260
X40760Y12260
X40760Y11260
X37760Y11260
X37760Y12260
X37760Y10260
X37760Y9260
X40760Y9260
X40760Y10260
X40760Y8260
X37760Y8260
X37760Y7260
X40760Y7260
T03
X31635Y12260
X30385Y12260
X29135Y12260
X27885Y12260
X22135Y12260
X20885Y12260
X19635Y12260
X18385Y12260
X18385Y14260
X19635Y14260
X20885Y14260
X22135Y14260
X27885Y14260
X29135Y14260
X30385Y14260
X31635Y14260
T04
X5223Y2197
X14723Y2197
X24223Y2197
X33723Y2197
X43223Y2197
X52723Y2197
X62223Y2197
X71223Y2197
X71223Y19323
X72797Y19323
X63797Y19323
X62223Y19323
X54297Y19323
X52723Y19323
X44797Y19323
X43223Y19323
X35297Y19323
X33723Y19323
X25797Y19323
X24223Y19323
X16297Y19323
X14723Y19323
X6797Y19323
X5223Y19323
T05
X18760Y18556
X19760Y18556
X20760Y18556
X21760Y18556
X27760Y18556
X28760Y18556
X29760Y18556
X30760Y18556
X46760Y18556
X47760Y18556
X48760Y18556
X49760Y18556
X50760Y18556
X50760Y5118
X49760Y5118
X48760Y5118
X47760Y5118
X46760Y5118
X30760Y5118
X29760Y5118
X28760Y5118
X27760Y5118
X21760Y5118
X20760Y5118
X19760Y5118
X18760Y5118
T06
X2635Y2635
X39260Y2635
X75385Y2635
X75385Y18885
X39010Y18885
X2635Y18885
M30
