G75*
G70*
%OFA0B0*%
%FSLAX24Y24*%
%IPPOS*%
%LPD*%
%AMOC8*
5,1,8,0,0,1.08239X$1,22.5*
%
%ADD10C,0.0660*%
%ADD11C,0.0520*%
%ADD12C,0.0740*%
%ADD13C,0.0650*%
%ADD14C,0.0320*%
%ADD15C,0.0240*%
D10*
X005223Y002197D03*
X014723Y002197D03*
X024223Y002197D03*
X033723Y002197D03*
X043223Y002197D03*
X052723Y002197D03*
X062223Y002197D03*
X071223Y002197D03*
X071223Y019323D03*
X072797Y019323D03*
X063797Y019323D03*
X062223Y019323D03*
X054297Y019323D03*
X052723Y019323D03*
X044797Y019323D03*
X043223Y019323D03*
X035297Y019323D03*
X033723Y019323D03*
X025797Y019323D03*
X024223Y019323D03*
X016297Y019323D03*
X014723Y019323D03*
X006797Y019323D03*
X005223Y019323D03*
D11*
X037500Y014260D02*
X038020Y014260D01*
X040500Y014260D02*
X041020Y014260D01*
X041020Y013260D02*
X040500Y013260D01*
X038020Y013260D02*
X037500Y013260D01*
X037500Y012260D02*
X038020Y012260D01*
X040500Y012260D02*
X041020Y012260D01*
X041020Y011260D02*
X040500Y011260D01*
X038020Y011260D02*
X037500Y011260D01*
X037500Y010260D02*
X038020Y010260D01*
X040500Y010260D02*
X041020Y010260D01*
X041020Y009260D02*
X040500Y009260D01*
X038020Y009260D02*
X037500Y009260D01*
X037500Y008260D02*
X038020Y008260D01*
X040500Y008260D02*
X041020Y008260D01*
X041020Y007260D02*
X040500Y007260D01*
X038020Y007260D02*
X037500Y007260D01*
D12*
X030760Y005118D03*
X029760Y005118D03*
X028760Y005118D03*
X027760Y005118D03*
X021760Y005118D03*
X020760Y005118D03*
X019760Y005118D03*
X018760Y005118D03*
X018385Y012260D03*
X019635Y012260D03*
X020885Y012260D03*
X022135Y012260D03*
X027885Y012260D03*
X029135Y012260D03*
X030385Y012260D03*
X031635Y012260D03*
X031635Y014260D03*
X030385Y014260D03*
X029135Y014260D03*
X027885Y014260D03*
X022135Y014260D03*
X020885Y014260D03*
X019635Y014260D03*
X018385Y014260D03*
X018760Y018556D03*
X019760Y018556D03*
X020760Y018556D03*
X021760Y018556D03*
X027760Y018556D03*
X028760Y018556D03*
X029760Y018556D03*
X030760Y018556D03*
X046760Y018556D03*
X047760Y018556D03*
X048760Y018556D03*
X049760Y018556D03*
X050760Y018556D03*
X050760Y005118D03*
X049760Y005118D03*
X048760Y005118D03*
X047760Y005118D03*
X046760Y005118D03*
D13*
X040760Y015510D03*
X039760Y015510D03*
D14*
X004119Y002153D02*
X003949Y001820D01*
X004794Y001820D01*
X004739Y001874D01*
X004653Y002084D01*
X004653Y002310D01*
X004739Y002520D01*
X004900Y002680D01*
X005109Y002767D01*
X005336Y002767D01*
X005545Y002680D01*
X005706Y002520D01*
X005793Y002310D01*
X005793Y002084D01*
X005706Y001874D01*
X005652Y001820D01*
X014294Y001820D01*
X014239Y001874D01*
X014153Y002084D01*
X014153Y002310D01*
X014239Y002520D01*
X014400Y002680D01*
X014609Y002767D01*
X014836Y002767D01*
X015045Y002680D01*
X015206Y002520D01*
X015293Y002310D01*
X015293Y002084D01*
X015206Y001874D01*
X015152Y001820D01*
X023794Y001820D01*
X023739Y001874D01*
X023653Y002084D01*
X023653Y002310D01*
X023739Y002520D01*
X023900Y002680D01*
X024109Y002767D01*
X024336Y002767D01*
X024545Y002680D01*
X024706Y002520D01*
X024793Y002310D01*
X024793Y002084D01*
X024706Y001874D01*
X024652Y001820D01*
X033294Y001820D01*
X033239Y001874D01*
X033153Y002084D01*
X033153Y002310D01*
X033239Y002520D01*
X033400Y002680D01*
X033609Y002767D01*
X033836Y002767D01*
X034045Y002680D01*
X034206Y002520D01*
X034293Y002310D01*
X034293Y002084D01*
X034206Y001874D01*
X034152Y001820D01*
X037946Y001820D01*
X037776Y002153D01*
X037776Y002153D01*
X037700Y002635D01*
X037700Y002635D01*
X037776Y003117D01*
X037776Y003117D01*
X037998Y003552D01*
X037998Y003552D01*
X038343Y003897D01*
X038343Y003897D01*
X038778Y004119D01*
X038778Y004119D01*
X039260Y004195D01*
X039260Y004195D01*
X039742Y004119D01*
X039742Y004119D01*
X040177Y003897D01*
X040177Y003897D01*
X040522Y003552D01*
X040522Y003552D01*
X040744Y003117D01*
X040744Y003117D01*
X040820Y002635D01*
X040744Y002153D01*
X040744Y002153D01*
X040574Y001820D01*
X042794Y001820D01*
X042739Y001874D01*
X042653Y002084D01*
X042653Y002310D01*
X042739Y002520D01*
X042900Y002680D01*
X043109Y002767D01*
X043336Y002767D01*
X043545Y002680D01*
X043706Y002520D01*
X043793Y002310D01*
X043793Y002084D01*
X043706Y001874D01*
X043652Y001820D01*
X052294Y001820D01*
X052239Y001874D01*
X052153Y002084D01*
X052153Y002310D01*
X052239Y002520D01*
X052400Y002680D01*
X052609Y002767D01*
X052836Y002767D01*
X053045Y002680D01*
X053206Y002520D01*
X053293Y002310D01*
X053293Y002084D01*
X053206Y001874D01*
X053152Y001820D01*
X061794Y001820D01*
X061739Y001874D01*
X061653Y002084D01*
X061653Y002310D01*
X061739Y002520D01*
X061900Y002680D01*
X062109Y002767D01*
X062336Y002767D01*
X062545Y002680D01*
X062706Y002520D01*
X062793Y002310D01*
X062793Y002084D01*
X062706Y001874D01*
X062652Y001820D01*
X070794Y001820D01*
X070739Y001874D01*
X070653Y002084D01*
X070653Y002310D01*
X070739Y002520D01*
X070900Y002680D01*
X071109Y002767D01*
X071336Y002767D01*
X071545Y002680D01*
X071706Y002520D01*
X071793Y002310D01*
X071793Y002084D01*
X071706Y001874D01*
X071652Y001820D01*
X074071Y001820D01*
X073901Y002153D01*
X073901Y002153D01*
X073825Y002635D01*
X073825Y002635D01*
X073901Y003117D01*
X073901Y003117D01*
X074123Y003552D01*
X074123Y003552D01*
X074468Y003897D01*
X074468Y003897D01*
X074903Y004119D01*
X074903Y004119D01*
X075385Y004195D01*
X075385Y004195D01*
X075867Y004119D01*
X075867Y004119D01*
X076200Y003949D01*
X076200Y017571D01*
X075867Y017401D01*
X075867Y017401D01*
X075385Y017325D01*
X075385Y017325D01*
X074903Y017401D01*
X074903Y017401D01*
X074468Y017623D01*
X074468Y017623D01*
X074123Y017968D01*
X074123Y017968D01*
X073901Y018403D01*
X073901Y018403D01*
X073825Y018885D01*
X073825Y018885D01*
X073901Y019367D01*
X073901Y019367D01*
X074071Y019700D01*
X073226Y019700D01*
X073281Y019646D01*
X073367Y019436D01*
X073367Y019210D01*
X073281Y019000D01*
X073120Y018840D01*
X072911Y018753D01*
X072684Y018753D01*
X072475Y018840D01*
X072314Y019000D01*
X072227Y019210D01*
X072227Y019436D01*
X072314Y019646D01*
X072368Y019700D01*
X071678Y019700D01*
X071727Y019632D01*
X071769Y019549D01*
X071798Y019461D01*
X071813Y019369D01*
X071813Y019323D01*
X071223Y019323D01*
X071223Y019323D01*
X071813Y019323D01*
X071813Y019277D01*
X071798Y019185D01*
X071769Y019097D01*
X071727Y019014D01*
X071673Y018939D01*
X071607Y018873D01*
X071532Y018818D01*
X071449Y018776D01*
X071361Y018748D01*
X071269Y018733D01*
X071223Y018733D01*
X071223Y019323D01*
X071223Y019323D01*
X071223Y018733D01*
X071176Y018733D01*
X071084Y018748D01*
X070996Y018776D01*
X070913Y018818D01*
X070838Y018873D01*
X070773Y018939D01*
X070718Y019014D01*
X070676Y019097D01*
X070647Y019185D01*
X070633Y019277D01*
X070633Y019323D01*
X071223Y019323D01*
X071223Y019323D01*
X070633Y019323D01*
X070633Y019369D01*
X070647Y019461D01*
X070676Y019549D01*
X070718Y019632D01*
X070767Y019700D01*
X064226Y019700D01*
X064281Y019646D01*
X064367Y019436D01*
X064367Y019210D01*
X064281Y019000D01*
X064120Y018840D01*
X063911Y018753D01*
X063684Y018753D01*
X063475Y018840D01*
X063314Y019000D01*
X063227Y019210D01*
X063227Y019436D01*
X063314Y019646D01*
X063368Y019700D01*
X062678Y019700D01*
X062727Y019632D01*
X062769Y019549D01*
X062798Y019461D01*
X062813Y019369D01*
X062813Y019323D01*
X062223Y019323D01*
X062223Y019323D01*
X062813Y019323D01*
X062813Y019277D01*
X062798Y019185D01*
X062769Y019097D01*
X062727Y019014D01*
X062673Y018939D01*
X062607Y018873D01*
X062532Y018818D01*
X062449Y018776D01*
X062361Y018748D01*
X062269Y018733D01*
X062223Y018733D01*
X062223Y019323D01*
X062223Y019323D01*
X062223Y018733D01*
X062176Y018733D01*
X062084Y018748D01*
X061996Y018776D01*
X061913Y018818D01*
X061838Y018873D01*
X061773Y018939D01*
X061718Y019014D01*
X061676Y019097D01*
X061647Y019185D01*
X061633Y019277D01*
X061633Y019323D01*
X062223Y019323D01*
X062223Y019323D01*
X061633Y019323D01*
X061633Y019369D01*
X061647Y019461D01*
X061676Y019549D01*
X061718Y019632D01*
X061767Y019700D01*
X054726Y019700D01*
X054781Y019646D01*
X054867Y019436D01*
X054867Y019210D01*
X054781Y019000D01*
X054620Y018840D01*
X054411Y018753D01*
X054184Y018753D01*
X053975Y018840D01*
X053814Y019000D01*
X053727Y019210D01*
X053727Y019436D01*
X053814Y019646D01*
X053868Y019700D01*
X053178Y019700D01*
X053227Y019632D01*
X053269Y019549D01*
X053298Y019461D01*
X053313Y019369D01*
X053313Y019323D01*
X052723Y019323D01*
X052723Y019323D01*
X053313Y019323D01*
X053313Y019277D01*
X053298Y019185D01*
X053269Y019097D01*
X053227Y019014D01*
X053173Y018939D01*
X053107Y018873D01*
X053032Y018818D01*
X052949Y018776D01*
X052861Y018748D01*
X052769Y018733D01*
X052723Y018733D01*
X052723Y019323D01*
X052723Y019323D01*
X052723Y018733D01*
X052676Y018733D01*
X052584Y018748D01*
X052496Y018776D01*
X052413Y018818D01*
X052338Y018873D01*
X052273Y018939D01*
X052218Y019014D01*
X052176Y019097D01*
X052147Y019185D01*
X052133Y019277D01*
X052133Y019323D01*
X052723Y019323D01*
X052723Y019323D01*
X052133Y019323D01*
X052133Y019369D01*
X052147Y019461D01*
X052176Y019549D01*
X052218Y019632D01*
X052267Y019700D01*
X045226Y019700D01*
X045281Y019646D01*
X045367Y019436D01*
X045367Y019210D01*
X045281Y019000D01*
X045120Y018840D01*
X044911Y018753D01*
X044684Y018753D01*
X044475Y018840D01*
X044314Y019000D01*
X044227Y019210D01*
X044227Y019436D01*
X044314Y019646D01*
X044368Y019700D01*
X043678Y019700D01*
X043727Y019632D01*
X043769Y019549D01*
X043798Y019461D01*
X043813Y019369D01*
X043813Y019323D01*
X043223Y019323D01*
X043223Y019323D01*
X043813Y019323D01*
X043813Y019277D01*
X043798Y019185D01*
X043769Y019097D01*
X043727Y019014D01*
X043673Y018939D01*
X043607Y018873D01*
X043532Y018818D01*
X043449Y018776D01*
X043361Y018748D01*
X043269Y018733D01*
X043223Y018733D01*
X043223Y019323D01*
X043223Y019323D01*
X043223Y018733D01*
X043176Y018733D01*
X043084Y018748D01*
X042996Y018776D01*
X042913Y018818D01*
X042838Y018873D01*
X042773Y018939D01*
X042718Y019014D01*
X042676Y019097D01*
X042647Y019185D01*
X042633Y019277D01*
X042633Y019323D01*
X043223Y019323D01*
X043223Y019323D01*
X042633Y019323D01*
X042633Y019369D01*
X042647Y019461D01*
X042676Y019549D01*
X042718Y019632D01*
X042767Y019700D01*
X040324Y019700D01*
X040494Y019367D01*
X040570Y018885D01*
X040570Y018885D01*
X040494Y018403D01*
X040494Y018403D01*
X040272Y017968D01*
X040272Y017968D01*
X039927Y017623D01*
X039927Y017623D01*
X039492Y017401D01*
X039492Y017401D01*
X039010Y017325D01*
X039010Y017325D01*
X038528Y017401D01*
X038528Y017401D01*
X038093Y017623D01*
X038093Y017623D01*
X037748Y017968D01*
X037748Y017968D01*
X037526Y018403D01*
X037526Y018403D01*
X037450Y018885D01*
X037450Y018885D01*
X037526Y019367D01*
X037526Y019367D01*
X037696Y019700D01*
X035726Y019700D01*
X035781Y019646D01*
X035867Y019436D01*
X035867Y019210D01*
X035781Y019000D01*
X035620Y018840D01*
X035411Y018753D01*
X035184Y018753D01*
X034975Y018840D01*
X034814Y019000D01*
X034727Y019210D01*
X034727Y019436D01*
X034814Y019646D01*
X034868Y019700D01*
X034178Y019700D01*
X034227Y019632D01*
X034269Y019549D01*
X034298Y019461D01*
X034313Y019369D01*
X034313Y019323D01*
X033723Y019323D01*
X033723Y019323D01*
X034313Y019323D01*
X034313Y019277D01*
X034298Y019185D01*
X034269Y019097D01*
X034227Y019014D01*
X034173Y018939D01*
X034107Y018873D01*
X034032Y018818D01*
X033949Y018776D01*
X033861Y018748D01*
X033769Y018733D01*
X033723Y018733D01*
X033723Y019323D01*
X033723Y019323D01*
X033723Y018733D01*
X033676Y018733D01*
X033584Y018748D01*
X033496Y018776D01*
X033413Y018818D01*
X033338Y018873D01*
X033273Y018939D01*
X033218Y019014D01*
X033176Y019097D01*
X033147Y019185D01*
X033133Y019277D01*
X033133Y019323D01*
X033723Y019323D01*
X033723Y019323D01*
X033133Y019323D01*
X033133Y019369D01*
X033147Y019461D01*
X033176Y019549D01*
X033218Y019632D01*
X033267Y019700D01*
X026226Y019700D01*
X026281Y019646D01*
X026367Y019436D01*
X026367Y019210D01*
X026281Y019000D01*
X026120Y018840D01*
X025911Y018753D01*
X025684Y018753D01*
X025475Y018840D01*
X025314Y019000D01*
X025227Y019210D01*
X025227Y019436D01*
X025314Y019646D01*
X025368Y019700D01*
X024678Y019700D01*
X024727Y019632D01*
X024769Y019549D01*
X024798Y019461D01*
X024813Y019369D01*
X024813Y019323D01*
X024223Y019323D01*
X024223Y019323D01*
X024813Y019323D01*
X024813Y019277D01*
X024798Y019185D01*
X024769Y019097D01*
X024727Y019014D01*
X024673Y018939D01*
X024607Y018873D01*
X024532Y018818D01*
X024449Y018776D01*
X024361Y018748D01*
X024269Y018733D01*
X024223Y018733D01*
X024223Y019323D01*
X024223Y019323D01*
X024223Y018733D01*
X024176Y018733D01*
X024084Y018748D01*
X023996Y018776D01*
X023913Y018818D01*
X023838Y018873D01*
X023773Y018939D01*
X023718Y019014D01*
X023676Y019097D01*
X023647Y019185D01*
X023633Y019277D01*
X023633Y019323D01*
X024223Y019323D01*
X024223Y019323D01*
X023633Y019323D01*
X023633Y019369D01*
X023647Y019461D01*
X023676Y019549D01*
X023718Y019632D01*
X023767Y019700D01*
X016726Y019700D01*
X016781Y019646D01*
X016867Y019436D01*
X016867Y019210D01*
X016781Y019000D01*
X016620Y018840D01*
X016411Y018753D01*
X016184Y018753D01*
X015975Y018840D01*
X015814Y019000D01*
X015727Y019210D01*
X015727Y019436D01*
X015814Y019646D01*
X015868Y019700D01*
X015178Y019700D01*
X015227Y019632D01*
X015269Y019549D01*
X015298Y019461D01*
X015313Y019369D01*
X015313Y019323D01*
X014723Y019323D01*
X014723Y019323D01*
X015313Y019323D01*
X015313Y019277D01*
X015298Y019185D01*
X015269Y019097D01*
X015227Y019014D01*
X015173Y018939D01*
X015107Y018873D01*
X015032Y018818D01*
X014949Y018776D01*
X014861Y018748D01*
X014769Y018733D01*
X014723Y018733D01*
X014723Y019323D01*
X014723Y019323D01*
X014723Y018733D01*
X014676Y018733D01*
X014584Y018748D01*
X014496Y018776D01*
X014413Y018818D01*
X014338Y018873D01*
X014273Y018939D01*
X014218Y019014D01*
X014176Y019097D01*
X014147Y019185D01*
X014133Y019277D01*
X014133Y019323D01*
X014723Y019323D01*
X014723Y019323D01*
X014133Y019323D01*
X014133Y019369D01*
X014147Y019461D01*
X014176Y019549D01*
X014218Y019632D01*
X014267Y019700D01*
X007226Y019700D01*
X007281Y019646D01*
X007367Y019436D01*
X007367Y019210D01*
X007281Y019000D01*
X007120Y018840D01*
X006911Y018753D01*
X006684Y018753D01*
X006475Y018840D01*
X006314Y019000D01*
X006227Y019210D01*
X006227Y019436D01*
X006314Y019646D01*
X006368Y019700D01*
X005678Y019700D01*
X005727Y019632D01*
X005769Y019549D01*
X005798Y019461D01*
X005813Y019369D01*
X005813Y019323D01*
X005223Y019323D01*
X005223Y019323D01*
X005813Y019323D01*
X005813Y019277D01*
X005798Y019185D01*
X005769Y019097D01*
X005727Y019014D01*
X005673Y018939D01*
X005607Y018873D01*
X005532Y018818D01*
X005449Y018776D01*
X005361Y018748D01*
X005269Y018733D01*
X005223Y018733D01*
X005223Y019323D01*
X005223Y019323D01*
X005223Y018733D01*
X005176Y018733D01*
X005084Y018748D01*
X004996Y018776D01*
X004913Y018818D01*
X004838Y018873D01*
X004773Y018939D01*
X004718Y019014D01*
X004676Y019097D01*
X004647Y019185D01*
X004633Y019277D01*
X004633Y019323D01*
X005223Y019323D01*
X005223Y019323D01*
X004633Y019323D01*
X004633Y019369D01*
X004647Y019461D01*
X004676Y019549D01*
X004718Y019632D01*
X004767Y019700D01*
X003949Y019700D01*
X004119Y019367D01*
X004119Y019367D01*
X004195Y018885D01*
X004119Y018403D01*
X004119Y018403D01*
X003897Y017968D01*
X003897Y017968D01*
X003552Y017623D01*
X003552Y017623D01*
X003117Y017401D01*
X003117Y017401D01*
X002635Y017325D01*
X002635Y017325D01*
X002153Y017401D01*
X002153Y017401D01*
X001820Y017571D01*
X001820Y003949D01*
X002153Y004119D01*
X002153Y004119D01*
X002635Y004195D01*
X002635Y004195D01*
X003117Y004119D01*
X003117Y004119D01*
X003552Y003897D01*
X003552Y003897D01*
X003897Y003552D01*
X003897Y003552D01*
X004119Y003117D01*
X004119Y003117D01*
X004195Y002635D01*
X004119Y002153D01*
X004119Y002153D01*
X004129Y002216D02*
X004653Y002216D01*
X004753Y002534D02*
X004179Y002534D01*
X004161Y002853D02*
X037734Y002853D01*
X037804Y003171D02*
X004091Y003171D01*
X003929Y003490D02*
X037966Y003490D01*
X038254Y003808D02*
X003641Y003808D01*
X003067Y004127D02*
X038828Y004127D01*
X039692Y004127D02*
X074953Y004127D01*
X075817Y004127D02*
X076200Y004127D01*
X076200Y004445D02*
X001820Y004445D01*
X001820Y004127D02*
X002203Y004127D01*
X001820Y004764D02*
X018252Y004764D01*
X018243Y004773D02*
X018414Y004601D01*
X018639Y004508D01*
X018881Y004508D01*
X019106Y004601D01*
X019260Y004756D01*
X019414Y004601D01*
X019639Y004508D01*
X019881Y004508D01*
X020106Y004601D01*
X020260Y004756D01*
X020414Y004601D01*
X020639Y004508D01*
X020881Y004508D01*
X021106Y004601D01*
X021260Y004756D01*
X021414Y004601D01*
X021639Y004508D01*
X021881Y004508D01*
X022106Y004601D01*
X022277Y004773D01*
X022370Y004997D01*
X022370Y005240D01*
X022277Y005464D01*
X022120Y005621D01*
X022120Y011650D01*
X022256Y011650D01*
X022481Y011743D01*
X022652Y011914D01*
X022745Y012139D01*
X022745Y012361D01*
X023065Y012681D01*
X023120Y012813D01*
X023120Y014832D01*
X023065Y014964D01*
X022964Y015065D01*
X022120Y015909D01*
X022120Y018054D01*
X022277Y018211D01*
X022370Y018435D01*
X022370Y018678D01*
X022277Y018902D01*
X022106Y019073D01*
X021881Y019166D01*
X021639Y019166D01*
X021414Y019073D01*
X021260Y018919D01*
X021106Y019073D01*
X020881Y019166D01*
X020639Y019166D01*
X020414Y019073D01*
X020260Y018919D01*
X020106Y019073D01*
X019881Y019166D01*
X019639Y019166D01*
X019414Y019073D01*
X019260Y018919D01*
X019106Y019073D01*
X018881Y019166D01*
X018639Y019166D01*
X018414Y019073D01*
X018243Y018902D01*
X018150Y018678D01*
X018150Y018435D01*
X018243Y018211D01*
X018400Y018054D01*
X018400Y014938D01*
X018428Y014870D01*
X018264Y014870D01*
X018039Y014777D01*
X017868Y014606D01*
X017775Y014381D01*
X017775Y014139D01*
X017868Y013914D01*
X018039Y013743D01*
X018264Y013650D01*
X018506Y013650D01*
X018650Y013710D01*
X018650Y013034D01*
X018486Y012870D01*
X018264Y012870D01*
X018039Y012777D01*
X017868Y012606D01*
X017775Y012381D01*
X017775Y012139D01*
X017868Y011914D01*
X018039Y011743D01*
X018264Y011650D01*
X018361Y011650D01*
X018400Y011611D01*
X018400Y005621D01*
X018243Y005464D01*
X018150Y005240D01*
X018150Y004997D01*
X018243Y004773D01*
X018150Y005082D02*
X001820Y005082D01*
X001820Y005401D02*
X018217Y005401D01*
X018400Y005719D02*
X001820Y005719D01*
X001820Y006038D02*
X018400Y006038D01*
X018400Y006356D02*
X001820Y006356D01*
X001820Y006675D02*
X018400Y006675D01*
X018400Y006993D02*
X001820Y006993D01*
X001820Y007312D02*
X018400Y007312D01*
X018400Y007630D02*
X001820Y007630D01*
X001820Y007949D02*
X018400Y007949D01*
X018400Y008267D02*
X001820Y008267D01*
X001820Y008586D02*
X018400Y008586D01*
X018400Y008904D02*
X001820Y008904D01*
X001820Y009223D02*
X018400Y009223D01*
X018400Y009541D02*
X001820Y009541D01*
X001820Y009860D02*
X018400Y009860D01*
X018400Y010178D02*
X001820Y010178D01*
X001820Y010497D02*
X018400Y010497D01*
X018400Y010815D02*
X001820Y010815D01*
X001820Y011134D02*
X018400Y011134D01*
X018400Y011452D02*
X001820Y011452D01*
X001820Y011771D02*
X018012Y011771D01*
X017796Y012089D02*
X001820Y012089D01*
X001820Y012408D02*
X017786Y012408D01*
X017988Y012726D02*
X001820Y012726D01*
X001820Y013045D02*
X018650Y013045D01*
X018650Y013363D02*
X001820Y013363D01*
X001820Y013682D02*
X018188Y013682D01*
X018582Y013682D02*
X018650Y013682D01*
X017832Y014000D02*
X001820Y014000D01*
X001820Y014319D02*
X017775Y014319D01*
X017899Y014637D02*
X001820Y014637D01*
X001820Y014956D02*
X018400Y014956D01*
X018400Y015274D02*
X001820Y015274D01*
X001820Y015593D02*
X018400Y015593D01*
X018400Y015911D02*
X001820Y015911D01*
X001820Y016230D02*
X018400Y016230D01*
X018400Y016548D02*
X001820Y016548D01*
X001820Y016867D02*
X018400Y016867D01*
X018400Y017185D02*
X001820Y017185D01*
X001820Y017504D02*
X001952Y017504D01*
X003318Y017504D02*
X018400Y017504D01*
X018400Y017822D02*
X003751Y017822D01*
X003985Y018141D02*
X018313Y018141D01*
X018150Y018459D02*
X004128Y018459D01*
X004178Y018778D02*
X004994Y018778D01*
X005223Y018778D02*
X005223Y018778D01*
X005452Y018778D02*
X006625Y018778D01*
X006970Y018778D02*
X014494Y018778D01*
X014723Y018778D02*
X014723Y018778D01*
X014952Y018778D02*
X016125Y018778D01*
X016470Y018778D02*
X018191Y018778D01*
X018469Y019096D02*
X016820Y019096D01*
X015774Y019096D02*
X015269Y019096D01*
X014723Y019096D02*
X014723Y019096D01*
X014176Y019096D02*
X007320Y019096D01*
X006274Y019096D02*
X005769Y019096D01*
X005223Y019096D02*
X005223Y019096D01*
X004676Y019096D02*
X004162Y019096D01*
X004094Y019415D02*
X004640Y019415D01*
X005805Y019415D02*
X006227Y019415D01*
X007367Y019415D02*
X014140Y019415D01*
X015305Y019415D02*
X015727Y019415D01*
X016867Y019415D02*
X023640Y019415D01*
X024805Y019415D02*
X025227Y019415D01*
X026367Y019415D02*
X033140Y019415D01*
X034305Y019415D02*
X034727Y019415D01*
X035867Y019415D02*
X037551Y019415D01*
X037483Y019096D02*
X035820Y019096D01*
X035470Y018778D02*
X037467Y018778D01*
X037517Y018459D02*
X031370Y018459D01*
X031370Y018435D02*
X031370Y018678D01*
X031277Y018902D01*
X031106Y019073D01*
X030881Y019166D01*
X030639Y019166D01*
X030414Y019073D01*
X030260Y018919D01*
X030106Y019073D01*
X029881Y019166D01*
X029639Y019166D01*
X029414Y019073D01*
X029260Y018919D01*
X029106Y019073D01*
X028881Y019166D01*
X028639Y019166D01*
X028414Y019073D01*
X028260Y018919D01*
X028106Y019073D01*
X027881Y019166D01*
X027639Y019166D01*
X027414Y019073D01*
X027243Y018902D01*
X027150Y018678D01*
X027150Y018435D01*
X027243Y018211D01*
X027400Y018054D01*
X027400Y015438D01*
X027455Y015306D01*
X027891Y014870D01*
X027764Y014870D01*
X027539Y014777D01*
X027368Y014606D01*
X027275Y014381D01*
X027275Y014139D01*
X027368Y013914D01*
X027539Y013743D01*
X027764Y013650D01*
X028006Y013650D01*
X028150Y013710D01*
X028150Y013034D01*
X027986Y012870D01*
X027764Y012870D01*
X027539Y012777D01*
X027368Y012606D01*
X027275Y012381D01*
X027275Y012139D01*
X027368Y011914D01*
X027400Y011882D01*
X027400Y005621D01*
X027243Y005464D01*
X027150Y005240D01*
X027150Y004997D01*
X027243Y004773D01*
X027414Y004601D01*
X027639Y004508D01*
X027881Y004508D01*
X028106Y004601D01*
X028260Y004756D01*
X028414Y004601D01*
X028639Y004508D01*
X028881Y004508D01*
X029106Y004601D01*
X029260Y004756D01*
X029414Y004601D01*
X029639Y004508D01*
X029881Y004508D01*
X030106Y004601D01*
X030260Y004756D01*
X030414Y004601D01*
X030639Y004508D01*
X030881Y004508D01*
X031106Y004601D01*
X031277Y004773D01*
X031370Y004997D01*
X031370Y005240D01*
X031277Y005464D01*
X031120Y005621D01*
X031120Y010780D01*
X031674Y011650D01*
X031756Y011650D01*
X031981Y011743D01*
X032152Y011914D01*
X032245Y012139D01*
X032245Y012361D01*
X032565Y012681D01*
X032620Y012813D01*
X032620Y014832D01*
X032565Y014964D01*
X032464Y015065D01*
X031120Y016409D01*
X031120Y018054D01*
X031277Y018211D01*
X031370Y018435D01*
X031207Y018141D02*
X037660Y018141D01*
X037894Y017822D02*
X031120Y017822D01*
X031120Y017504D02*
X038327Y017504D01*
X039693Y017504D02*
X046400Y017504D01*
X046400Y017822D02*
X040126Y017822D01*
X040360Y018141D02*
X046313Y018141D01*
X046243Y018211D02*
X046400Y018054D01*
X046400Y009620D01*
X041367Y009620D01*
X041303Y009684D01*
X041119Y009760D01*
X040401Y009760D01*
X040217Y009684D01*
X040076Y009543D01*
X040000Y009359D01*
X040000Y009161D01*
X040076Y008977D01*
X040217Y008836D01*
X040401Y008760D01*
X040217Y008684D01*
X040076Y008543D01*
X040000Y008359D01*
X040000Y008161D01*
X040076Y007977D01*
X040217Y007836D01*
X040401Y007760D01*
X040217Y007684D01*
X040076Y007543D01*
X040000Y007359D01*
X040000Y007161D01*
X040076Y006977D01*
X040217Y006836D01*
X040401Y006760D01*
X041119Y006760D01*
X041303Y006836D01*
X041444Y006977D01*
X041520Y007161D01*
X041520Y007359D01*
X041444Y007543D01*
X041303Y007684D01*
X041119Y007760D01*
X040401Y007760D01*
X041119Y007760D01*
X041303Y007836D01*
X041444Y007977D01*
X041520Y008161D01*
X041520Y008359D01*
X041444Y008543D01*
X041303Y008684D01*
X041119Y008760D01*
X040401Y008760D01*
X041119Y008760D01*
X041303Y008836D01*
X041367Y008900D01*
X046400Y008900D01*
X046400Y005621D01*
X046243Y005464D01*
X046150Y005240D01*
X046150Y004997D01*
X046243Y004773D01*
X046414Y004601D01*
X046639Y004508D01*
X046881Y004508D01*
X047106Y004601D01*
X047260Y004756D01*
X047414Y004601D01*
X047639Y004508D01*
X047881Y004508D01*
X048106Y004601D01*
X048260Y004756D01*
X048414Y004601D01*
X048639Y004508D01*
X048881Y004508D01*
X049106Y004601D01*
X049260Y004756D01*
X049414Y004601D01*
X049639Y004508D01*
X049881Y004508D01*
X050106Y004601D01*
X050251Y004747D01*
X050279Y004708D01*
X050350Y004638D01*
X050430Y004579D01*
X050518Y004534D01*
X050612Y004504D01*
X050710Y004488D01*
X050760Y004488D01*
X050810Y004488D01*
X050908Y004504D01*
X051002Y004534D01*
X051090Y004579D01*
X051170Y004638D01*
X051241Y004708D01*
X051299Y004788D01*
X051344Y004876D01*
X051374Y004971D01*
X051390Y005069D01*
X051390Y005118D01*
X050760Y005118D01*
X050760Y004488D01*
X050760Y005118D01*
X050760Y005118D01*
X050760Y005118D01*
X051390Y005118D01*
X051390Y005168D01*
X051374Y005266D01*
X051344Y005360D01*
X051299Y005448D01*
X051241Y005529D01*
X051170Y005599D01*
X051090Y005657D01*
X051002Y005702D01*
X050908Y005733D01*
X050810Y005748D01*
X050760Y005748D01*
X050760Y005118D01*
X050760Y005748D01*
X050710Y005748D01*
X050612Y005733D01*
X050518Y005702D01*
X050430Y005657D01*
X050350Y005599D01*
X050279Y005529D01*
X050251Y005490D01*
X050106Y005635D01*
X049881Y005728D01*
X049639Y005728D01*
X049414Y005635D01*
X049260Y005481D01*
X049120Y005621D01*
X049120Y018054D01*
X049260Y018194D01*
X049414Y018039D01*
X049639Y017946D01*
X049881Y017946D01*
X050106Y018039D01*
X050251Y018185D01*
X050279Y018146D01*
X050350Y018076D01*
X050430Y018017D01*
X050518Y017972D01*
X050612Y017942D01*
X050710Y017926D01*
X050760Y017926D01*
X050810Y017926D01*
X050908Y017942D01*
X051002Y017972D01*
X051090Y018017D01*
X051170Y018076D01*
X051241Y018146D01*
X051299Y018226D01*
X051344Y018314D01*
X051374Y018409D01*
X051390Y018507D01*
X051390Y018556D01*
X050760Y018556D01*
X050760Y017926D01*
X050760Y018556D01*
X050760Y018556D01*
X050760Y018556D01*
X051390Y018556D01*
X051390Y018606D01*
X051374Y018704D01*
X051344Y018798D01*
X051299Y018886D01*
X051241Y018967D01*
X051170Y019037D01*
X051090Y019095D01*
X051002Y019140D01*
X050908Y019171D01*
X050810Y019186D01*
X050760Y019186D01*
X050760Y018556D01*
X050760Y019186D01*
X050710Y019186D01*
X050612Y019171D01*
X050518Y019140D01*
X050430Y019095D01*
X050350Y019037D01*
X050279Y018967D01*
X050251Y018928D01*
X050106Y019073D01*
X049881Y019166D01*
X049639Y019166D01*
X049414Y019073D01*
X049260Y018919D01*
X049106Y019073D01*
X048881Y019166D01*
X048639Y019166D01*
X048414Y019073D01*
X048260Y018919D01*
X048106Y019073D01*
X047881Y019166D01*
X047639Y019166D01*
X047414Y019073D01*
X047260Y018919D01*
X047106Y019073D01*
X046881Y019166D01*
X046639Y019166D01*
X046414Y019073D01*
X046243Y018902D01*
X046150Y018678D01*
X046150Y018435D01*
X046243Y018211D01*
X046150Y018459D02*
X040503Y018459D01*
X040553Y018778D02*
X042994Y018778D01*
X043223Y018778D02*
X043223Y018778D01*
X043452Y018778D02*
X044625Y018778D01*
X044970Y018778D02*
X046191Y018778D01*
X046469Y019096D02*
X045320Y019096D01*
X045367Y019415D02*
X052140Y019415D01*
X052176Y019096D02*
X051088Y019096D01*
X050760Y019096D02*
X050760Y019096D01*
X050760Y018778D02*
X050760Y018778D01*
X050760Y018556D02*
X050760Y018556D01*
X050760Y018459D02*
X050760Y018459D01*
X050760Y018141D02*
X050760Y018141D01*
X051235Y018141D02*
X074035Y018141D01*
X073892Y018459D02*
X051382Y018459D01*
X050285Y018141D02*
X050207Y018141D01*
X049313Y018141D02*
X049207Y018141D01*
X049120Y017822D02*
X074269Y017822D01*
X074702Y017504D02*
X049120Y017504D01*
X049120Y017185D02*
X076200Y017185D01*
X076200Y016867D02*
X049120Y016867D01*
X049120Y016548D02*
X076200Y016548D01*
X076200Y016230D02*
X049120Y016230D01*
X049120Y015911D02*
X076200Y015911D01*
X076200Y015593D02*
X049120Y015593D01*
X049120Y015274D02*
X076200Y015274D01*
X076200Y014956D02*
X049120Y014956D01*
X049120Y014637D02*
X076200Y014637D01*
X076200Y014319D02*
X049120Y014319D01*
X049120Y014000D02*
X076200Y014000D01*
X076200Y013682D02*
X049120Y013682D01*
X049120Y013363D02*
X076200Y013363D01*
X076200Y013045D02*
X049120Y013045D01*
X049120Y012726D02*
X076200Y012726D01*
X076200Y012408D02*
X049120Y012408D01*
X049120Y012089D02*
X076200Y012089D01*
X076200Y011771D02*
X049120Y011771D01*
X049120Y011452D02*
X076200Y011452D01*
X076200Y011134D02*
X049120Y011134D01*
X049120Y010815D02*
X076200Y010815D01*
X076200Y010497D02*
X049120Y010497D01*
X049120Y010178D02*
X076200Y010178D01*
X076200Y009860D02*
X049120Y009860D01*
X049120Y009541D02*
X076200Y009541D01*
X076200Y009223D02*
X049120Y009223D01*
X049120Y008904D02*
X076200Y008904D01*
X076200Y008586D02*
X049120Y008586D01*
X049120Y008267D02*
X076200Y008267D01*
X076200Y007949D02*
X049120Y007949D01*
X049120Y007630D02*
X076200Y007630D01*
X076200Y007312D02*
X049120Y007312D01*
X049120Y006993D02*
X076200Y006993D01*
X076200Y006675D02*
X049120Y006675D01*
X049120Y006356D02*
X076200Y006356D01*
X076200Y006038D02*
X049120Y006038D01*
X049120Y005719D02*
X049616Y005719D01*
X049904Y005719D02*
X050570Y005719D01*
X050760Y005719D02*
X050760Y005719D01*
X050950Y005719D02*
X076200Y005719D01*
X076200Y005401D02*
X051323Y005401D01*
X050760Y005401D02*
X050760Y005401D01*
X050760Y005118D02*
X050760Y005118D01*
X050760Y005082D02*
X050760Y005082D01*
X050760Y004764D02*
X050760Y004764D01*
X051281Y004764D02*
X076200Y004764D01*
X076200Y005082D02*
X051390Y005082D01*
X046400Y005719D02*
X031120Y005719D01*
X031303Y005401D02*
X046217Y005401D01*
X046150Y005082D02*
X031370Y005082D01*
X031268Y004764D02*
X046252Y004764D01*
X046400Y006038D02*
X031120Y006038D01*
X031120Y006356D02*
X046400Y006356D01*
X046400Y006675D02*
X031120Y006675D01*
X031120Y006993D02*
X037069Y006993D01*
X037076Y006977D02*
X037217Y006836D01*
X037401Y006760D01*
X038119Y006760D01*
X038303Y006836D01*
X038444Y006977D01*
X038520Y007161D01*
X038520Y007359D01*
X038444Y007543D01*
X038303Y007684D01*
X038119Y007760D01*
X038303Y007836D01*
X038444Y007977D01*
X038520Y008161D01*
X038520Y008359D01*
X038444Y008543D01*
X038303Y008684D01*
X038119Y008760D01*
X037401Y008760D01*
X037217Y008684D01*
X037076Y008543D01*
X037000Y008359D01*
X037000Y008161D01*
X037076Y007977D01*
X037217Y007836D01*
X037401Y007760D01*
X038119Y007760D01*
X037401Y007760D01*
X037217Y007684D01*
X037076Y007543D01*
X037000Y007359D01*
X037000Y007161D01*
X037076Y006977D01*
X037000Y007312D02*
X031120Y007312D01*
X031120Y007630D02*
X037163Y007630D01*
X037104Y007949D02*
X031120Y007949D01*
X031120Y008267D02*
X037000Y008267D01*
X037118Y008586D02*
X031120Y008586D01*
X031120Y008904D02*
X037149Y008904D01*
X037217Y008836D02*
X037401Y008760D01*
X038119Y008760D01*
X038303Y008836D01*
X038444Y008977D01*
X038520Y009161D01*
X038520Y009359D01*
X038444Y009543D01*
X038303Y009684D01*
X038119Y009760D01*
X037401Y009760D01*
X037217Y009684D01*
X037076Y009543D01*
X037000Y009359D01*
X037000Y009161D01*
X037076Y008977D01*
X037217Y008836D01*
X037000Y009223D02*
X031120Y009223D01*
X031120Y009541D02*
X037075Y009541D01*
X037217Y009836D02*
X037401Y009760D01*
X038119Y009760D01*
X038303Y009836D01*
X038444Y009977D01*
X038520Y010161D01*
X038520Y010359D01*
X038444Y010543D01*
X038303Y010684D01*
X038119Y010760D01*
X038303Y010836D01*
X038444Y010977D01*
X038520Y011161D01*
X038520Y011359D01*
X038444Y011543D01*
X038303Y011684D01*
X038119Y011760D01*
X038303Y011836D01*
X038444Y011977D01*
X038520Y012161D01*
X038520Y012359D01*
X038444Y012543D01*
X038303Y012684D01*
X038119Y012760D01*
X038303Y012836D01*
X038444Y012977D01*
X038520Y013161D01*
X038520Y013359D01*
X038444Y013543D01*
X038303Y013684D01*
X038119Y013760D01*
X038303Y013836D01*
X038444Y013977D01*
X038520Y014161D01*
X038520Y014359D01*
X038444Y014543D01*
X038303Y014684D01*
X038119Y014760D01*
X037401Y014760D01*
X037217Y014684D01*
X037076Y014543D01*
X037000Y014359D01*
X037000Y014161D01*
X037076Y013977D01*
X037217Y013836D01*
X037401Y013760D01*
X038119Y013760D01*
X037401Y013760D01*
X037217Y013684D01*
X037076Y013543D01*
X037000Y013359D01*
X037000Y013161D01*
X037076Y012977D01*
X037217Y012836D01*
X037401Y012760D01*
X038119Y012760D01*
X037401Y012760D01*
X037217Y012684D01*
X037076Y012543D01*
X037000Y012359D01*
X037000Y012161D01*
X037076Y011977D01*
X037217Y011836D01*
X037401Y011760D01*
X038119Y011760D01*
X037401Y011760D01*
X037217Y011684D01*
X037076Y011543D01*
X037000Y011359D01*
X037000Y011161D01*
X037076Y010977D01*
X037217Y010836D01*
X037401Y010760D01*
X038119Y010760D01*
X037401Y010760D01*
X037217Y010684D01*
X037076Y010543D01*
X037000Y010359D01*
X037000Y010161D01*
X037076Y009977D01*
X037217Y009836D01*
X037193Y009860D02*
X031120Y009860D01*
X031120Y010178D02*
X037000Y010178D01*
X037057Y010497D02*
X031120Y010497D01*
X031142Y010815D02*
X037268Y010815D01*
X037011Y011134D02*
X031345Y011134D01*
X031548Y011452D02*
X037038Y011452D01*
X037375Y011771D02*
X032008Y011771D01*
X032224Y012089D02*
X037030Y012089D01*
X037020Y012408D02*
X032292Y012408D01*
X032584Y012726D02*
X037318Y012726D01*
X037048Y013045D02*
X032620Y013045D01*
X032620Y013363D02*
X037001Y013363D01*
X037214Y013682D02*
X032620Y013682D01*
X032620Y014000D02*
X037066Y014000D01*
X037000Y014319D02*
X032620Y014319D01*
X032620Y014637D02*
X037170Y014637D01*
X038350Y014637D02*
X040142Y014637D01*
X040161Y014657D02*
X040103Y014599D01*
X040055Y014533D01*
X040018Y014460D01*
X039993Y014382D01*
X039980Y014301D01*
X039980Y014260D01*
X040760Y014260D01*
X040760Y014260D01*
X040760Y014780D01*
X041061Y014780D01*
X041142Y014767D01*
X041220Y014742D01*
X041293Y014705D01*
X041359Y014657D01*
X041417Y014599D01*
X041465Y014533D01*
X041502Y014460D01*
X041527Y014382D01*
X041540Y014301D01*
X041540Y014260D01*
X040760Y014260D01*
X040760Y014260D01*
X040760Y014260D01*
X040760Y014780D01*
X040459Y014780D01*
X040378Y014767D01*
X040300Y014742D01*
X040227Y014705D01*
X040161Y014657D01*
X040080Y015031D02*
X040239Y015190D01*
X040251Y015220D01*
X040260Y015203D01*
X040314Y015129D01*
X040379Y015064D01*
X040453Y015010D01*
X040535Y014968D01*
X040623Y014939D01*
X040714Y014925D01*
X040760Y014925D01*
X040806Y014925D01*
X040897Y014939D01*
X040985Y014968D01*
X041067Y015010D01*
X041141Y015064D01*
X041206Y015129D01*
X041260Y015203D01*
X041302Y015285D01*
X041331Y015373D01*
X041345Y015464D01*
X041345Y015510D01*
X041345Y015556D01*
X041331Y015647D01*
X041302Y015735D01*
X041260Y015817D01*
X041206Y015891D01*
X041141Y015956D01*
X041067Y016010D01*
X040985Y016052D01*
X040897Y016081D01*
X040806Y016095D01*
X040760Y016095D01*
X040760Y015510D01*
X041345Y015510D01*
X040760Y015510D01*
X040760Y015510D01*
X040760Y015510D01*
X040760Y014925D01*
X040760Y015510D01*
X040760Y015510D01*
X040760Y016095D01*
X040714Y016095D01*
X040623Y016081D01*
X040535Y016052D01*
X040453Y016010D01*
X040379Y015956D01*
X040314Y015891D01*
X040260Y015817D01*
X040251Y015800D01*
X040239Y015830D01*
X040080Y015989D01*
X039872Y016075D01*
X039648Y016075D01*
X039440Y015989D01*
X039281Y015830D01*
X039195Y015622D01*
X039195Y015398D01*
X039281Y015190D01*
X039440Y015031D01*
X039648Y014945D01*
X039872Y014945D01*
X040080Y015031D01*
X039898Y014956D02*
X040573Y014956D01*
X040760Y014956D02*
X040760Y014956D01*
X040947Y014956D02*
X046400Y014956D01*
X046400Y015274D02*
X041296Y015274D01*
X040760Y015274D02*
X040760Y015274D01*
X040760Y015593D02*
X040760Y015593D01*
X040760Y015911D02*
X040760Y015911D01*
X041186Y015911D02*
X046400Y015911D01*
X046400Y015593D02*
X041339Y015593D01*
X040334Y015911D02*
X040158Y015911D01*
X039362Y015911D02*
X031618Y015911D01*
X031937Y015593D02*
X039195Y015593D01*
X039246Y015274D02*
X032255Y015274D01*
X032569Y014956D02*
X039622Y014956D01*
X040760Y014637D02*
X040760Y014637D01*
X041378Y014637D02*
X046400Y014637D01*
X046400Y014319D02*
X041537Y014319D01*
X041540Y014260D02*
X040760Y014260D01*
X039980Y014260D01*
X039980Y014219D01*
X039993Y014138D01*
X040018Y014060D01*
X040055Y013987D01*
X040103Y013921D01*
X040161Y013863D01*
X040227Y013815D01*
X040300Y013778D01*
X040378Y013753D01*
X040382Y013752D01*
X040217Y013684D01*
X040076Y013543D01*
X040000Y013359D01*
X040000Y013161D01*
X040076Y012977D01*
X040217Y012836D01*
X040401Y012760D01*
X040217Y012684D01*
X040076Y012543D01*
X040000Y012359D01*
X040000Y012161D01*
X040076Y011977D01*
X040217Y011836D01*
X040401Y011760D01*
X040217Y011684D01*
X040076Y011543D01*
X040000Y011359D01*
X040000Y011161D01*
X040076Y010977D01*
X040217Y010836D01*
X040401Y010760D01*
X040217Y010684D01*
X040076Y010543D01*
X040000Y010359D01*
X040000Y010161D01*
X040076Y009977D01*
X040217Y009836D01*
X040401Y009760D01*
X041119Y009760D01*
X041303Y009836D01*
X041444Y009977D01*
X041520Y010161D01*
X041520Y010359D01*
X041444Y010543D01*
X041303Y010684D01*
X041119Y010760D01*
X040401Y010760D01*
X041119Y010760D01*
X041303Y010836D01*
X041444Y010977D01*
X041520Y011161D01*
X041520Y011359D01*
X041444Y011543D01*
X041303Y011684D01*
X041119Y011760D01*
X040401Y011760D01*
X041119Y011760D01*
X041303Y011836D01*
X041444Y011977D01*
X041520Y012161D01*
X041520Y012359D01*
X041444Y012543D01*
X041303Y012684D01*
X041119Y012760D01*
X040401Y012760D01*
X041119Y012760D01*
X041303Y012836D01*
X041444Y012977D01*
X041520Y013161D01*
X041520Y013359D01*
X041444Y013543D01*
X041303Y013684D01*
X041138Y013752D01*
X041142Y013753D01*
X041220Y013778D01*
X041293Y013815D01*
X041359Y013863D01*
X041417Y013921D01*
X041465Y013987D01*
X041502Y014060D01*
X041527Y014138D01*
X041540Y014219D01*
X041540Y014260D01*
X041471Y014000D02*
X046400Y014000D01*
X046400Y013682D02*
X041306Y013682D01*
X041519Y013363D02*
X046400Y013363D01*
X046400Y013045D02*
X041472Y013045D01*
X041202Y012726D02*
X046400Y012726D01*
X046400Y012408D02*
X041500Y012408D01*
X041490Y012089D02*
X046400Y012089D01*
X046400Y011771D02*
X041145Y011771D01*
X041482Y011452D02*
X046400Y011452D01*
X046400Y011134D02*
X041509Y011134D01*
X041252Y010815D02*
X046400Y010815D01*
X046400Y010497D02*
X041463Y010497D01*
X041520Y010178D02*
X046400Y010178D01*
X046400Y009860D02*
X041327Y009860D01*
X040193Y009860D02*
X038327Y009860D01*
X038445Y009541D02*
X040075Y009541D01*
X040000Y009223D02*
X038520Y009223D01*
X038371Y008904D02*
X040149Y008904D01*
X040118Y008586D02*
X038402Y008586D01*
X038520Y008267D02*
X040000Y008267D01*
X040104Y007949D02*
X038416Y007949D01*
X038357Y007630D02*
X040163Y007630D01*
X040000Y007312D02*
X038520Y007312D01*
X038451Y006993D02*
X040069Y006993D01*
X041451Y006993D02*
X046400Y006993D01*
X046400Y007312D02*
X041520Y007312D01*
X041357Y007630D02*
X046400Y007630D01*
X046400Y007949D02*
X041416Y007949D01*
X041520Y008267D02*
X046400Y008267D01*
X046400Y008586D02*
X041402Y008586D01*
X040000Y010178D02*
X038520Y010178D01*
X038463Y010497D02*
X040057Y010497D01*
X040268Y010815D02*
X038252Y010815D01*
X038509Y011134D02*
X040011Y011134D01*
X040038Y011452D02*
X038482Y011452D01*
X038145Y011771D02*
X040375Y011771D01*
X040030Y012089D02*
X038490Y012089D01*
X038500Y012408D02*
X040020Y012408D01*
X040318Y012726D02*
X038202Y012726D01*
X038472Y013045D02*
X040048Y013045D01*
X040001Y013363D02*
X038519Y013363D01*
X038306Y013682D02*
X040214Y013682D01*
X040049Y014000D02*
X038454Y014000D01*
X038520Y014319D02*
X039983Y014319D01*
X040760Y014319D02*
X040760Y014319D01*
X046400Y016230D02*
X031300Y016230D01*
X031120Y016548D02*
X046400Y016548D01*
X046400Y016867D02*
X031120Y016867D01*
X031120Y017185D02*
X046400Y017185D01*
X051351Y018778D02*
X052494Y018778D01*
X052723Y018778D02*
X052723Y018778D01*
X052952Y018778D02*
X054125Y018778D01*
X054470Y018778D02*
X061994Y018778D01*
X062223Y018778D02*
X062223Y018778D01*
X062452Y018778D02*
X063625Y018778D01*
X063970Y018778D02*
X070994Y018778D01*
X071223Y018778D02*
X071223Y018778D01*
X071452Y018778D02*
X072625Y018778D01*
X072970Y018778D02*
X073842Y018778D01*
X073858Y019096D02*
X073320Y019096D01*
X072274Y019096D02*
X071769Y019096D01*
X071223Y019096D02*
X071223Y019096D01*
X070676Y019096D02*
X064320Y019096D01*
X063274Y019096D02*
X062769Y019096D01*
X062223Y019096D02*
X062223Y019096D01*
X061676Y019096D02*
X054820Y019096D01*
X054867Y019415D02*
X061640Y019415D01*
X062805Y019415D02*
X063227Y019415D01*
X064367Y019415D02*
X070640Y019415D01*
X071805Y019415D02*
X072227Y019415D01*
X073367Y019415D02*
X073926Y019415D01*
X076068Y017504D02*
X076200Y017504D01*
X053774Y019096D02*
X053269Y019096D01*
X052723Y019096D02*
X052723Y019096D01*
X053305Y019415D02*
X053727Y019415D01*
X050432Y019096D02*
X050051Y019096D01*
X049469Y019096D02*
X049051Y019096D01*
X048469Y019096D02*
X048051Y019096D01*
X047469Y019096D02*
X047051Y019096D01*
X044274Y019096D02*
X043769Y019096D01*
X043223Y019096D02*
X043223Y019096D01*
X042676Y019096D02*
X040537Y019096D01*
X040469Y019415D02*
X042640Y019415D01*
X043805Y019415D02*
X044227Y019415D01*
X035125Y018778D02*
X033952Y018778D01*
X033723Y018778D02*
X033723Y018778D01*
X033494Y018778D02*
X031329Y018778D01*
X031051Y019096D02*
X033176Y019096D01*
X033723Y019096D02*
X033723Y019096D01*
X034269Y019096D02*
X034774Y019096D01*
X030469Y019096D02*
X030051Y019096D01*
X029469Y019096D02*
X029051Y019096D01*
X028469Y019096D02*
X028051Y019096D01*
X027469Y019096D02*
X026320Y019096D01*
X025970Y018778D02*
X027191Y018778D01*
X027150Y018459D02*
X022370Y018459D01*
X022207Y018141D02*
X027313Y018141D01*
X027400Y017822D02*
X022120Y017822D01*
X022120Y017504D02*
X027400Y017504D01*
X027400Y017185D02*
X022120Y017185D01*
X022120Y016867D02*
X027400Y016867D01*
X027400Y016548D02*
X022120Y016548D01*
X022120Y016230D02*
X027400Y016230D01*
X027400Y015911D02*
X022120Y015911D01*
X022437Y015593D02*
X027400Y015593D01*
X027487Y015274D02*
X022755Y015274D01*
X023069Y014956D02*
X027805Y014956D01*
X027399Y014637D02*
X023120Y014637D01*
X023120Y014319D02*
X027275Y014319D01*
X027332Y014000D02*
X023120Y014000D01*
X023120Y013682D02*
X027688Y013682D01*
X028082Y013682D02*
X028150Y013682D01*
X028150Y013363D02*
X023120Y013363D01*
X023120Y013045D02*
X028150Y013045D01*
X027488Y012726D02*
X023084Y012726D01*
X022792Y012408D02*
X027286Y012408D01*
X027296Y012089D02*
X022724Y012089D01*
X022508Y011771D02*
X027400Y011771D01*
X027400Y011452D02*
X022120Y011452D01*
X022120Y011134D02*
X027400Y011134D01*
X027400Y010815D02*
X022120Y010815D01*
X022120Y010497D02*
X027400Y010497D01*
X027400Y010178D02*
X022120Y010178D01*
X022120Y009860D02*
X027400Y009860D01*
X027400Y009541D02*
X022120Y009541D01*
X022120Y009223D02*
X027400Y009223D01*
X027400Y008904D02*
X022120Y008904D01*
X022120Y008586D02*
X027400Y008586D01*
X027400Y008267D02*
X022120Y008267D01*
X022120Y007949D02*
X027400Y007949D01*
X027400Y007630D02*
X022120Y007630D01*
X022120Y007312D02*
X027400Y007312D01*
X027400Y006993D02*
X022120Y006993D01*
X022120Y006675D02*
X027400Y006675D01*
X027400Y006356D02*
X022120Y006356D01*
X022120Y006038D02*
X027400Y006038D01*
X027400Y005719D02*
X022120Y005719D01*
X022303Y005401D02*
X027217Y005401D01*
X027150Y005082D02*
X022370Y005082D01*
X022268Y004764D02*
X027252Y004764D01*
X024692Y002534D02*
X033253Y002534D01*
X033153Y002216D02*
X024793Y002216D01*
X023753Y002534D02*
X015192Y002534D01*
X015293Y002216D02*
X023653Y002216D01*
X023730Y001897D02*
X015215Y001897D01*
X014230Y001897D02*
X005715Y001897D01*
X004730Y001897D02*
X003988Y001897D01*
X005793Y002216D02*
X014153Y002216D01*
X014253Y002534D02*
X005692Y002534D01*
X024715Y001897D02*
X033230Y001897D01*
X034215Y001897D02*
X037907Y001897D01*
X037766Y002216D02*
X034293Y002216D01*
X034192Y002534D02*
X037716Y002534D01*
X040613Y001897D02*
X042730Y001897D01*
X042653Y002216D02*
X040754Y002216D01*
X040804Y002534D02*
X042753Y002534D01*
X043692Y002534D02*
X052253Y002534D01*
X052153Y002216D02*
X043793Y002216D01*
X043715Y001897D02*
X052230Y001897D01*
X053215Y001897D02*
X061730Y001897D01*
X062715Y001897D02*
X070730Y001897D01*
X071715Y001897D02*
X074032Y001897D01*
X073891Y002216D02*
X071793Y002216D01*
X071692Y002534D02*
X073841Y002534D01*
X073859Y002853D02*
X040786Y002853D01*
X040716Y003171D02*
X073929Y003171D01*
X074091Y003490D02*
X040554Y003490D01*
X040266Y003808D02*
X074379Y003808D01*
X070753Y002534D02*
X062692Y002534D01*
X062793Y002216D02*
X070653Y002216D01*
X061753Y002534D02*
X053192Y002534D01*
X053293Y002216D02*
X061653Y002216D01*
X025625Y018778D02*
X024452Y018778D01*
X024223Y018778D02*
X024223Y018778D01*
X023994Y018778D02*
X022329Y018778D01*
X022051Y019096D02*
X023676Y019096D01*
X024223Y019096D02*
X024223Y019096D01*
X024769Y019096D02*
X025274Y019096D01*
X021469Y019096D02*
X021051Y019096D01*
X020469Y019096D02*
X020051Y019096D01*
X019469Y019096D02*
X019051Y019096D01*
D15*
X018760Y018556D02*
X018760Y015010D01*
X019010Y014760D01*
X019010Y012885D01*
X018385Y012260D01*
X018385Y012135D01*
X018760Y011760D01*
X018760Y005118D01*
X019760Y005118D02*
X019760Y012010D01*
X019635Y012135D01*
X019635Y012260D01*
X020260Y012885D01*
X020260Y014760D01*
X019760Y015260D01*
X019760Y018556D01*
X020760Y018556D02*
X020760Y015510D01*
X021510Y014760D01*
X021510Y012885D01*
X020885Y012260D01*
X020885Y012135D01*
X020760Y012010D01*
X020760Y005118D01*
X021760Y005118D02*
X021760Y011885D01*
X022135Y012260D01*
X022760Y012885D01*
X022760Y014760D01*
X021760Y015760D01*
X021760Y018556D01*
X027760Y018556D02*
X027760Y015510D01*
X028510Y014760D01*
X028510Y012885D01*
X027885Y012260D01*
X027760Y012135D01*
X027760Y005118D01*
X028760Y005118D02*
X028760Y011885D01*
X029135Y012260D01*
X029760Y012885D01*
X029760Y014760D01*
X028760Y015760D01*
X028760Y018556D01*
X029760Y018556D02*
X029760Y016010D01*
X031010Y014760D01*
X031010Y012885D01*
X030385Y012260D01*
X029760Y011635D01*
X029760Y005118D01*
X030760Y005118D02*
X030760Y010885D01*
X031635Y012260D01*
X032260Y012885D01*
X032260Y014760D01*
X030760Y016260D01*
X030760Y018556D01*
X046760Y018556D02*
X046760Y009260D01*
X040760Y009260D01*
X046760Y009260D02*
X046760Y005118D01*
X047760Y005118D02*
X047760Y018556D01*
X048760Y018556D02*
X048760Y005118D01*
M02*
