G75*
G70*
%OFA0B0*%
%FSLAX24Y24*%
%IPPOS*%
%LPD*%
%AMOC8*
5,1,8,0,0,1.08239X$1,22.5*
%
%ADD10C,0.0000*%
D10*
X002510Y001260D02*
X075510Y001260D01*
X075578Y001262D01*
X075645Y001267D01*
X075712Y001276D01*
X075779Y001289D01*
X075844Y001306D01*
X075909Y001325D01*
X075973Y001349D01*
X076035Y001376D01*
X076096Y001406D01*
X076154Y001439D01*
X076211Y001475D01*
X076266Y001515D01*
X076319Y001557D01*
X076370Y001603D01*
X076417Y001650D01*
X076463Y001701D01*
X076505Y001754D01*
X076545Y001809D01*
X076581Y001866D01*
X076614Y001924D01*
X076644Y001985D01*
X076671Y002047D01*
X076695Y002111D01*
X076714Y002176D01*
X076731Y002241D01*
X076744Y002308D01*
X076753Y002375D01*
X076758Y002442D01*
X076760Y002510D01*
X076760Y019010D01*
X076758Y019078D01*
X076753Y019145D01*
X076744Y019212D01*
X076731Y019279D01*
X076714Y019344D01*
X076695Y019409D01*
X076671Y019473D01*
X076644Y019535D01*
X076614Y019596D01*
X076581Y019654D01*
X076545Y019711D01*
X076505Y019766D01*
X076463Y019819D01*
X076417Y019870D01*
X076370Y019917D01*
X076319Y019963D01*
X076266Y020005D01*
X076211Y020045D01*
X076154Y020081D01*
X076096Y020114D01*
X076035Y020144D01*
X075973Y020171D01*
X075909Y020195D01*
X075844Y020214D01*
X075779Y020231D01*
X075712Y020244D01*
X075645Y020253D01*
X075578Y020258D01*
X075510Y020260D01*
X002510Y020260D01*
X002442Y020258D01*
X002375Y020253D01*
X002308Y020244D01*
X002241Y020231D01*
X002176Y020214D01*
X002111Y020195D01*
X002047Y020171D01*
X001985Y020144D01*
X001924Y020114D01*
X001866Y020081D01*
X001809Y020045D01*
X001754Y020005D01*
X001701Y019963D01*
X001650Y019917D01*
X001603Y019870D01*
X001557Y019819D01*
X001515Y019766D01*
X001475Y019711D01*
X001439Y019654D01*
X001406Y019596D01*
X001376Y019535D01*
X001349Y019473D01*
X001325Y019409D01*
X001306Y019344D01*
X001289Y019279D01*
X001276Y019212D01*
X001267Y019145D01*
X001262Y019078D01*
X001260Y019010D01*
X001260Y002510D01*
X001262Y002442D01*
X001267Y002375D01*
X001276Y002308D01*
X001289Y002241D01*
X001306Y002176D01*
X001325Y002111D01*
X001349Y002047D01*
X001376Y001985D01*
X001406Y001924D01*
X001439Y001866D01*
X001475Y001809D01*
X001515Y001754D01*
X001557Y001701D01*
X001603Y001650D01*
X001650Y001603D01*
X001701Y001557D01*
X001754Y001515D01*
X001809Y001475D01*
X001866Y001439D01*
X001924Y001406D01*
X001985Y001376D01*
X002047Y001349D01*
X002111Y001325D01*
X002176Y001306D01*
X002241Y001289D01*
X002308Y001276D01*
X002375Y001267D01*
X002442Y001262D01*
X002510Y001260D01*
X002084Y002635D02*
X002086Y002682D01*
X002092Y002728D01*
X002102Y002774D01*
X002115Y002819D01*
X002133Y002862D01*
X002154Y002904D01*
X002178Y002944D01*
X002206Y002981D01*
X002237Y003016D01*
X002271Y003049D01*
X002307Y003078D01*
X002346Y003104D01*
X002387Y003127D01*
X002430Y003146D01*
X002474Y003162D01*
X002519Y003174D01*
X002565Y003182D01*
X002612Y003186D01*
X002658Y003186D01*
X002705Y003182D01*
X002751Y003174D01*
X002796Y003162D01*
X002840Y003146D01*
X002883Y003127D01*
X002924Y003104D01*
X002963Y003078D01*
X002999Y003049D01*
X003033Y003016D01*
X003064Y002981D01*
X003092Y002944D01*
X003116Y002904D01*
X003137Y002862D01*
X003155Y002819D01*
X003168Y002774D01*
X003178Y002728D01*
X003184Y002682D01*
X003186Y002635D01*
X003184Y002588D01*
X003178Y002542D01*
X003168Y002496D01*
X003155Y002451D01*
X003137Y002408D01*
X003116Y002366D01*
X003092Y002326D01*
X003064Y002289D01*
X003033Y002254D01*
X002999Y002221D01*
X002963Y002192D01*
X002924Y002166D01*
X002883Y002143D01*
X002840Y002124D01*
X002796Y002108D01*
X002751Y002096D01*
X002705Y002088D01*
X002658Y002084D01*
X002612Y002084D01*
X002565Y002088D01*
X002519Y002096D01*
X002474Y002108D01*
X002430Y002124D01*
X002387Y002143D01*
X002346Y002166D01*
X002307Y002192D01*
X002271Y002221D01*
X002237Y002254D01*
X002206Y002289D01*
X002178Y002326D01*
X002154Y002366D01*
X002133Y002408D01*
X002115Y002451D01*
X002102Y002496D01*
X002092Y002542D01*
X002086Y002588D01*
X002084Y002635D01*
X038709Y002635D02*
X038711Y002682D01*
X038717Y002728D01*
X038727Y002774D01*
X038740Y002819D01*
X038758Y002862D01*
X038779Y002904D01*
X038803Y002944D01*
X038831Y002981D01*
X038862Y003016D01*
X038896Y003049D01*
X038932Y003078D01*
X038971Y003104D01*
X039012Y003127D01*
X039055Y003146D01*
X039099Y003162D01*
X039144Y003174D01*
X039190Y003182D01*
X039237Y003186D01*
X039283Y003186D01*
X039330Y003182D01*
X039376Y003174D01*
X039421Y003162D01*
X039465Y003146D01*
X039508Y003127D01*
X039549Y003104D01*
X039588Y003078D01*
X039624Y003049D01*
X039658Y003016D01*
X039689Y002981D01*
X039717Y002944D01*
X039741Y002904D01*
X039762Y002862D01*
X039780Y002819D01*
X039793Y002774D01*
X039803Y002728D01*
X039809Y002682D01*
X039811Y002635D01*
X039809Y002588D01*
X039803Y002542D01*
X039793Y002496D01*
X039780Y002451D01*
X039762Y002408D01*
X039741Y002366D01*
X039717Y002326D01*
X039689Y002289D01*
X039658Y002254D01*
X039624Y002221D01*
X039588Y002192D01*
X039549Y002166D01*
X039508Y002143D01*
X039465Y002124D01*
X039421Y002108D01*
X039376Y002096D01*
X039330Y002088D01*
X039283Y002084D01*
X039237Y002084D01*
X039190Y002088D01*
X039144Y002096D01*
X039099Y002108D01*
X039055Y002124D01*
X039012Y002143D01*
X038971Y002166D01*
X038932Y002192D01*
X038896Y002221D01*
X038862Y002254D01*
X038831Y002289D01*
X038803Y002326D01*
X038779Y002366D01*
X038758Y002408D01*
X038740Y002451D01*
X038727Y002496D01*
X038717Y002542D01*
X038711Y002588D01*
X038709Y002635D01*
X074834Y002635D02*
X074836Y002682D01*
X074842Y002728D01*
X074852Y002774D01*
X074865Y002819D01*
X074883Y002862D01*
X074904Y002904D01*
X074928Y002944D01*
X074956Y002981D01*
X074987Y003016D01*
X075021Y003049D01*
X075057Y003078D01*
X075096Y003104D01*
X075137Y003127D01*
X075180Y003146D01*
X075224Y003162D01*
X075269Y003174D01*
X075315Y003182D01*
X075362Y003186D01*
X075408Y003186D01*
X075455Y003182D01*
X075501Y003174D01*
X075546Y003162D01*
X075590Y003146D01*
X075633Y003127D01*
X075674Y003104D01*
X075713Y003078D01*
X075749Y003049D01*
X075783Y003016D01*
X075814Y002981D01*
X075842Y002944D01*
X075866Y002904D01*
X075887Y002862D01*
X075905Y002819D01*
X075918Y002774D01*
X075928Y002728D01*
X075934Y002682D01*
X075936Y002635D01*
X075934Y002588D01*
X075928Y002542D01*
X075918Y002496D01*
X075905Y002451D01*
X075887Y002408D01*
X075866Y002366D01*
X075842Y002326D01*
X075814Y002289D01*
X075783Y002254D01*
X075749Y002221D01*
X075713Y002192D01*
X075674Y002166D01*
X075633Y002143D01*
X075590Y002124D01*
X075546Y002108D01*
X075501Y002096D01*
X075455Y002088D01*
X075408Y002084D01*
X075362Y002084D01*
X075315Y002088D01*
X075269Y002096D01*
X075224Y002108D01*
X075180Y002124D01*
X075137Y002143D01*
X075096Y002166D01*
X075057Y002192D01*
X075021Y002221D01*
X074987Y002254D01*
X074956Y002289D01*
X074928Y002326D01*
X074904Y002366D01*
X074883Y002408D01*
X074865Y002451D01*
X074852Y002496D01*
X074842Y002542D01*
X074836Y002588D01*
X074834Y002635D01*
X074834Y018885D02*
X074836Y018932D01*
X074842Y018978D01*
X074852Y019024D01*
X074865Y019069D01*
X074883Y019112D01*
X074904Y019154D01*
X074928Y019194D01*
X074956Y019231D01*
X074987Y019266D01*
X075021Y019299D01*
X075057Y019328D01*
X075096Y019354D01*
X075137Y019377D01*
X075180Y019396D01*
X075224Y019412D01*
X075269Y019424D01*
X075315Y019432D01*
X075362Y019436D01*
X075408Y019436D01*
X075455Y019432D01*
X075501Y019424D01*
X075546Y019412D01*
X075590Y019396D01*
X075633Y019377D01*
X075674Y019354D01*
X075713Y019328D01*
X075749Y019299D01*
X075783Y019266D01*
X075814Y019231D01*
X075842Y019194D01*
X075866Y019154D01*
X075887Y019112D01*
X075905Y019069D01*
X075918Y019024D01*
X075928Y018978D01*
X075934Y018932D01*
X075936Y018885D01*
X075934Y018838D01*
X075928Y018792D01*
X075918Y018746D01*
X075905Y018701D01*
X075887Y018658D01*
X075866Y018616D01*
X075842Y018576D01*
X075814Y018539D01*
X075783Y018504D01*
X075749Y018471D01*
X075713Y018442D01*
X075674Y018416D01*
X075633Y018393D01*
X075590Y018374D01*
X075546Y018358D01*
X075501Y018346D01*
X075455Y018338D01*
X075408Y018334D01*
X075362Y018334D01*
X075315Y018338D01*
X075269Y018346D01*
X075224Y018358D01*
X075180Y018374D01*
X075137Y018393D01*
X075096Y018416D01*
X075057Y018442D01*
X075021Y018471D01*
X074987Y018504D01*
X074956Y018539D01*
X074928Y018576D01*
X074904Y018616D01*
X074883Y018658D01*
X074865Y018701D01*
X074852Y018746D01*
X074842Y018792D01*
X074836Y018838D01*
X074834Y018885D01*
X038459Y018885D02*
X038461Y018932D01*
X038467Y018978D01*
X038477Y019024D01*
X038490Y019069D01*
X038508Y019112D01*
X038529Y019154D01*
X038553Y019194D01*
X038581Y019231D01*
X038612Y019266D01*
X038646Y019299D01*
X038682Y019328D01*
X038721Y019354D01*
X038762Y019377D01*
X038805Y019396D01*
X038849Y019412D01*
X038894Y019424D01*
X038940Y019432D01*
X038987Y019436D01*
X039033Y019436D01*
X039080Y019432D01*
X039126Y019424D01*
X039171Y019412D01*
X039215Y019396D01*
X039258Y019377D01*
X039299Y019354D01*
X039338Y019328D01*
X039374Y019299D01*
X039408Y019266D01*
X039439Y019231D01*
X039467Y019194D01*
X039491Y019154D01*
X039512Y019112D01*
X039530Y019069D01*
X039543Y019024D01*
X039553Y018978D01*
X039559Y018932D01*
X039561Y018885D01*
X039559Y018838D01*
X039553Y018792D01*
X039543Y018746D01*
X039530Y018701D01*
X039512Y018658D01*
X039491Y018616D01*
X039467Y018576D01*
X039439Y018539D01*
X039408Y018504D01*
X039374Y018471D01*
X039338Y018442D01*
X039299Y018416D01*
X039258Y018393D01*
X039215Y018374D01*
X039171Y018358D01*
X039126Y018346D01*
X039080Y018338D01*
X039033Y018334D01*
X038987Y018334D01*
X038940Y018338D01*
X038894Y018346D01*
X038849Y018358D01*
X038805Y018374D01*
X038762Y018393D01*
X038721Y018416D01*
X038682Y018442D01*
X038646Y018471D01*
X038612Y018504D01*
X038581Y018539D01*
X038553Y018576D01*
X038529Y018616D01*
X038508Y018658D01*
X038490Y018701D01*
X038477Y018746D01*
X038467Y018792D01*
X038461Y018838D01*
X038459Y018885D01*
X002084Y018885D02*
X002086Y018932D01*
X002092Y018978D01*
X002102Y019024D01*
X002115Y019069D01*
X002133Y019112D01*
X002154Y019154D01*
X002178Y019194D01*
X002206Y019231D01*
X002237Y019266D01*
X002271Y019299D01*
X002307Y019328D01*
X002346Y019354D01*
X002387Y019377D01*
X002430Y019396D01*
X002474Y019412D01*
X002519Y019424D01*
X002565Y019432D01*
X002612Y019436D01*
X002658Y019436D01*
X002705Y019432D01*
X002751Y019424D01*
X002796Y019412D01*
X002840Y019396D01*
X002883Y019377D01*
X002924Y019354D01*
X002963Y019328D01*
X002999Y019299D01*
X003033Y019266D01*
X003064Y019231D01*
X003092Y019194D01*
X003116Y019154D01*
X003137Y019112D01*
X003155Y019069D01*
X003168Y019024D01*
X003178Y018978D01*
X003184Y018932D01*
X003186Y018885D01*
X003184Y018838D01*
X003178Y018792D01*
X003168Y018746D01*
X003155Y018701D01*
X003137Y018658D01*
X003116Y018616D01*
X003092Y018576D01*
X003064Y018539D01*
X003033Y018504D01*
X002999Y018471D01*
X002963Y018442D01*
X002924Y018416D01*
X002883Y018393D01*
X002840Y018374D01*
X002796Y018358D01*
X002751Y018346D01*
X002705Y018338D01*
X002658Y018334D01*
X002612Y018334D01*
X002565Y018338D01*
X002519Y018346D01*
X002474Y018358D01*
X002430Y018374D01*
X002387Y018393D01*
X002346Y018416D01*
X002307Y018442D01*
X002271Y018471D01*
X002237Y018504D01*
X002206Y018539D01*
X002178Y018576D01*
X002154Y018616D01*
X002133Y018658D01*
X002115Y018701D01*
X002102Y018746D01*
X002092Y018792D01*
X002086Y018838D01*
X002084Y018885D01*
M02*
