G75*
G70*
%OFA0B0*%
%FSLAX24Y24*%
%IPPOS*%
%LPD*%
%AMOC8*
5,1,8,0,0,1.08239X$1,22.5*
%
%ADD10C,0.0740*%
%ADD11C,0.0600*%
%ADD12C,0.1182*%
%ADD13C,0.0820*%
%ADD14C,0.0730*%
D10*
X005223Y002197D03*
X014723Y002197D03*
X024223Y002197D03*
X033723Y002197D03*
X043223Y002197D03*
X052723Y002197D03*
X062223Y002197D03*
X071223Y002197D03*
X071223Y019323D03*
X072797Y019323D03*
X063797Y019323D03*
X062223Y019323D03*
X054297Y019323D03*
X052723Y019323D03*
X044797Y019323D03*
X043223Y019323D03*
X035297Y019323D03*
X033723Y019323D03*
X025797Y019323D03*
X024223Y019323D03*
X016297Y019323D03*
X014723Y019323D03*
X006797Y019323D03*
X005223Y019323D03*
D11*
X037500Y014260D02*
X038020Y014260D01*
X040500Y014260D02*
X041020Y014260D01*
X041020Y013260D02*
X040500Y013260D01*
X038020Y013260D02*
X037500Y013260D01*
X037500Y012260D02*
X038020Y012260D01*
X040500Y012260D02*
X041020Y012260D01*
X041020Y011260D02*
X040500Y011260D01*
X038020Y011260D02*
X037500Y011260D01*
X037500Y010260D02*
X038020Y010260D01*
X040500Y010260D02*
X041020Y010260D01*
X041020Y009260D02*
X040500Y009260D01*
X038020Y009260D02*
X037500Y009260D01*
X037500Y008260D02*
X038020Y008260D01*
X040500Y008260D02*
X041020Y008260D01*
X041020Y007260D02*
X040500Y007260D01*
X038020Y007260D02*
X037500Y007260D01*
D12*
X039260Y002635D03*
X075385Y002635D03*
X075385Y018885D03*
X039010Y018885D03*
X002635Y018885D03*
X002635Y002635D03*
D13*
X018760Y005118D03*
X019760Y005118D03*
X020760Y005118D03*
X021760Y005118D03*
X027760Y005118D03*
X028760Y005118D03*
X029760Y005118D03*
X030760Y005118D03*
X046760Y005118D03*
X047760Y005118D03*
X048760Y005118D03*
X049760Y005118D03*
X050760Y005118D03*
X031635Y012260D03*
X030385Y012260D03*
X029135Y012260D03*
X027885Y012260D03*
X022135Y012260D03*
X020885Y012260D03*
X019635Y012260D03*
X018385Y012260D03*
X018385Y014260D03*
X019635Y014260D03*
X020885Y014260D03*
X022135Y014260D03*
X027885Y014260D03*
X029135Y014260D03*
X030385Y014260D03*
X031635Y014260D03*
X030760Y018556D03*
X029760Y018556D03*
X028760Y018556D03*
X027760Y018556D03*
X021760Y018556D03*
X020760Y018556D03*
X019760Y018556D03*
X018760Y018556D03*
X046760Y018556D03*
X047760Y018556D03*
X048760Y018556D03*
X049760Y018556D03*
X050760Y018556D03*
D14*
X040760Y015510D03*
X039760Y015510D03*
M02*
