%
M48
M72
T01C0.0276
T02C0.0320
T03C0.0354
T04C0.0400
T05C0.0472
T06C0.1102
%
T01
X42010Y9510
X43010Y9510
X43010Y19010
X42010Y19010
T02
X40760Y19010
X37760Y19010
X37760Y18010
X37760Y17010
X40760Y17010
X40760Y18010
X40760Y16010
X37760Y16010
X37760Y15010
X37760Y14010
X40760Y14010
X40760Y15010
X40760Y13010
X37760Y13010
X37760Y12010
X40760Y12010
X40760Y9510
X37760Y9510
X37760Y8510
X40760Y8510
X40760Y7510
X40760Y6510
X37760Y6510
X37760Y7510
X37760Y5510
X40760Y5510
X40760Y4510
X40760Y3510
X37760Y3510
X37760Y4510
X37760Y2510
X40760Y2510
T03
X35510Y2260
X33510Y2260
X31635Y8510
X30385Y8510
X29135Y8510
X27885Y8510
X27885Y10510
X29135Y10510
X30385Y10510
X31635Y10510
X22135Y12260
X20885Y12260
X19635Y12260
X18385Y12260
X18385Y14260
X19635Y14260
X20885Y14260
X22135Y14260
X33510Y19260
X35510Y19260
T04
X30760Y18556
X29760Y18556
X28760Y18556
X27760Y18556
X21760Y18556
X20760Y18556
X19760Y18556
X18760Y18556
X46760Y18556
X47760Y18556
X48760Y18556
X49760Y18556
X50760Y18556
X50760Y5118
X49760Y5118
X48760Y5118
X47760Y5118
X46760Y5118
X30760Y5118
X29760Y5118
X28760Y5118
X27760Y5118
X21760Y5118
X20760Y5118
X19760Y5118
X18760Y5118
T05
X16494Y3549
X14526Y3549
X6994Y3549
X5026Y3549
X5026Y8471
X6994Y8471
X14526Y8471
X16494Y8471
X24026Y8471
X25994Y8471
X33526Y8471
X35494Y8471
X43026Y8471
X44994Y8471
X52526Y8471
X54494Y8471
X62026Y8471
X63994Y8471
X71526Y8471
X73494Y8471
X73494Y13049
X71526Y13049
X63994Y13049
X62026Y13049
X54494Y13049
X52526Y13049
X44994Y13049
X43026Y13049
X35494Y13049
X33526Y13049
X25994Y13049
X24026Y13049
X16494Y13049
X14526Y13049
X6994Y13049
X5026Y13049
X5026Y17971
X6994Y17971
X14526Y17971
X16494Y17971
X24026Y17971
X25994Y17971
X33526Y17971
X35494Y17971
X43026Y17971
X44994Y17971
X52526Y17971
X54494Y17971
X62026Y17971
X63994Y17971
X71526Y17971
X73494Y17971
X73494Y3549
X71526Y3549
X63994Y3549
X62026Y3549
X54494Y3549
X52526Y3549
X44994Y3549
X43026Y3549
X35494Y3549
X33526Y3549
X25994Y3549
X24026Y3549
T06
X2635Y2635
X25010Y10760
X53510Y10760
X75385Y18885
X75385Y2635
X2635Y18885
M30
