G75*
G70*
%OFA0B0*%
%FSLAX24Y24*%
%IPPOS*%
%LPD*%
%AMOC8*
5,1,8,0,0,1.08239X$1,22.5*
%
%ADD10C,0.0520*%
%ADD11C,0.0740*%
%ADD12C,0.0650*%
%ADD13C,0.0850*%
%ADD14C,0.0320*%
%ADD15C,0.0240*%
D10*
X037500Y002510D02*
X038020Y002510D01*
X040500Y002510D02*
X041020Y002510D01*
X041020Y003510D02*
X040500Y003510D01*
X038020Y003510D02*
X037500Y003510D01*
X037500Y004510D02*
X038020Y004510D01*
X040500Y004510D02*
X041020Y004510D01*
X041020Y005510D02*
X040500Y005510D01*
X038020Y005510D02*
X037500Y005510D01*
X037500Y006510D02*
X038020Y006510D01*
X040500Y006510D02*
X041020Y006510D01*
X041020Y007510D02*
X040500Y007510D01*
X038020Y007510D02*
X037500Y007510D01*
X037500Y008510D02*
X038020Y008510D01*
X040500Y008510D02*
X041020Y008510D01*
X041020Y009510D02*
X040500Y009510D01*
X038020Y009510D02*
X037500Y009510D01*
X037500Y012010D02*
X038020Y012010D01*
X040500Y012010D02*
X041020Y012010D01*
X041020Y013010D02*
X040500Y013010D01*
X038020Y013010D02*
X037500Y013010D01*
X037500Y014010D02*
X038020Y014010D01*
X040500Y014010D02*
X041020Y014010D01*
X041020Y015010D02*
X040500Y015010D01*
X038020Y015010D02*
X037500Y015010D01*
X037500Y016010D02*
X038020Y016010D01*
X040500Y016010D02*
X041020Y016010D01*
X041020Y017010D02*
X040500Y017010D01*
X038020Y017010D02*
X037500Y017010D01*
X037500Y018010D02*
X038020Y018010D01*
X040500Y018010D02*
X041020Y018010D01*
X041020Y019010D02*
X040500Y019010D01*
X038020Y019010D02*
X037500Y019010D01*
D11*
X035510Y019260D03*
X033510Y019260D03*
X030760Y018556D03*
X029760Y018556D03*
X028760Y018556D03*
X027760Y018556D03*
X021760Y018556D03*
X020760Y018556D03*
X019760Y018556D03*
X018760Y018556D03*
X018385Y014260D03*
X019635Y014260D03*
X020885Y014260D03*
X022135Y014260D03*
X022135Y012260D03*
X020885Y012260D03*
X019635Y012260D03*
X018385Y012260D03*
X027885Y010510D03*
X029135Y010510D03*
X030385Y010510D03*
X031635Y010510D03*
X031635Y008510D03*
X030385Y008510D03*
X029135Y008510D03*
X027885Y008510D03*
X027760Y005118D03*
X028760Y005118D03*
X029760Y005118D03*
X030760Y005118D03*
X021760Y005118D03*
X020760Y005118D03*
X019760Y005118D03*
X018760Y005118D03*
X033510Y002260D03*
X035510Y002260D03*
X046760Y005118D03*
X047760Y005118D03*
X048760Y005118D03*
X049760Y005118D03*
X050760Y005118D03*
X050760Y018556D03*
X049760Y018556D03*
X048760Y018556D03*
X047760Y018556D03*
X046760Y018556D03*
D12*
X043010Y019010D03*
X042010Y019010D03*
X042010Y009510D03*
X043010Y009510D03*
D13*
X043026Y008471D03*
X044994Y008471D03*
X052526Y008471D03*
X054494Y008471D03*
X062026Y008471D03*
X063994Y008471D03*
X071526Y008471D03*
X073494Y008471D03*
X073494Y013049D03*
X071526Y013049D03*
X063994Y013049D03*
X062026Y013049D03*
X054494Y013049D03*
X052526Y013049D03*
X044994Y013049D03*
X043026Y013049D03*
X035494Y013049D03*
X033526Y013049D03*
X025994Y013049D03*
X024026Y013049D03*
X016494Y013049D03*
X014526Y013049D03*
X006994Y013049D03*
X005026Y013049D03*
X005026Y008471D03*
X006994Y008471D03*
X014526Y008471D03*
X016494Y008471D03*
X024026Y008471D03*
X025994Y008471D03*
X033526Y008471D03*
X035494Y008471D03*
X035494Y003549D03*
X033526Y003549D03*
X025994Y003549D03*
X024026Y003549D03*
X016494Y003549D03*
X014526Y003549D03*
X006994Y003549D03*
X005026Y003549D03*
X043026Y003549D03*
X044994Y003549D03*
X052526Y003549D03*
X054494Y003549D03*
X062026Y003549D03*
X063994Y003549D03*
X071526Y003549D03*
X073494Y003549D03*
X073494Y017971D03*
X071526Y017971D03*
X063994Y017971D03*
X062026Y017971D03*
X054494Y017971D03*
X052526Y017971D03*
X044994Y017971D03*
X043026Y017971D03*
X035494Y017971D03*
X033526Y017971D03*
X025994Y017971D03*
X024026Y017971D03*
X016494Y017971D03*
X014526Y017971D03*
X006994Y017971D03*
X005026Y017971D03*
D14*
X004119Y002153D02*
X003949Y001820D01*
X033087Y001820D01*
X032993Y001914D01*
X032900Y002139D01*
X032900Y002381D01*
X032993Y002606D01*
X033164Y002777D01*
X033389Y002870D01*
X033438Y002870D01*
X033392Y002876D01*
X033305Y002899D01*
X033222Y002934D01*
X033144Y002979D01*
X033073Y003033D01*
X033010Y003097D01*
X032955Y003168D01*
X032910Y003246D01*
X032876Y003329D01*
X032852Y003415D01*
X032841Y003504D01*
X032841Y003549D01*
X033526Y003549D01*
X033526Y003549D01*
X034211Y003549D01*
X034211Y003504D01*
X034199Y003415D01*
X034176Y003329D01*
X034141Y003246D01*
X034097Y003168D01*
X034042Y003097D01*
X033978Y003033D01*
X033907Y002979D01*
X033829Y002934D01*
X033746Y002899D01*
X033660Y002876D01*
X033613Y002870D01*
X033631Y002870D01*
X033856Y002777D01*
X034027Y002606D01*
X034120Y002381D01*
X034120Y002139D01*
X034027Y001914D01*
X033933Y001820D01*
X035087Y001820D01*
X034993Y001914D01*
X034900Y002139D01*
X034900Y002381D01*
X034993Y002606D01*
X035164Y002777D01*
X035389Y002870D01*
X035611Y002870D01*
X035625Y002884D01*
X035362Y002884D01*
X035118Y002986D01*
X034930Y003173D01*
X034829Y003417D01*
X034829Y003682D01*
X034930Y003926D01*
X035118Y004113D01*
X035362Y004214D01*
X035627Y004214D01*
X035871Y004113D01*
X036058Y003926D01*
X036150Y003704D01*
X036150Y007332D01*
X036205Y007464D01*
X036306Y007565D01*
X036556Y007815D01*
X036688Y007870D01*
X037153Y007870D01*
X037217Y007934D01*
X037401Y008010D01*
X038119Y008010D01*
X038303Y008086D01*
X038444Y008227D01*
X038520Y008411D01*
X038520Y008609D01*
X038444Y008793D01*
X038303Y008934D01*
X038119Y009010D01*
X037401Y009010D01*
X037217Y008934D01*
X037076Y008793D01*
X037000Y008609D01*
X037000Y008411D01*
X037076Y008227D01*
X037217Y008086D01*
X037401Y008010D01*
X038119Y008010D01*
X038303Y007934D01*
X038444Y007793D01*
X038520Y007609D01*
X038520Y007411D01*
X038444Y007227D01*
X038303Y007086D01*
X038119Y007010D01*
X038303Y006934D01*
X038444Y006793D01*
X038520Y006609D01*
X038520Y006411D01*
X038444Y006227D01*
X038303Y006086D01*
X038119Y006010D01*
X038303Y005934D01*
X038444Y005793D01*
X038520Y005609D01*
X038520Y005411D01*
X038444Y005227D01*
X038303Y005086D01*
X038119Y005010D01*
X037401Y005010D01*
X037217Y005086D01*
X037076Y005227D01*
X037000Y005411D01*
X037000Y005609D01*
X037076Y005793D01*
X037217Y005934D01*
X037401Y006010D01*
X038119Y006010D01*
X037401Y006010D01*
X037217Y006086D01*
X037076Y006227D01*
X037000Y006411D01*
X037000Y006609D01*
X037076Y006793D01*
X037217Y006934D01*
X037401Y007010D01*
X038119Y007010D01*
X037401Y007010D01*
X037217Y007086D01*
X037153Y007150D01*
X036909Y007150D01*
X036870Y007111D01*
X036870Y003188D01*
X036815Y003056D01*
X036120Y002361D01*
X036120Y002139D01*
X036027Y001914D01*
X035933Y001820D01*
X074071Y001820D01*
X073901Y002153D01*
X073901Y002153D01*
X073825Y002635D01*
X073825Y002635D01*
X073882Y002997D01*
X073871Y002986D01*
X073627Y002884D01*
X073362Y002884D01*
X073118Y002986D01*
X072930Y003173D01*
X072829Y003417D01*
X072829Y003682D01*
X072930Y003926D01*
X073118Y004113D01*
X073362Y004214D01*
X073627Y004214D01*
X073871Y004113D01*
X074058Y003926D01*
X074159Y003682D01*
X074159Y003588D01*
X074468Y003897D01*
X074468Y003897D01*
X074903Y004119D01*
X074903Y004119D01*
X075385Y004195D01*
X075385Y004195D01*
X075867Y004119D01*
X075867Y004119D01*
X076200Y003949D01*
X076200Y017571D01*
X075867Y017401D01*
X075867Y017401D01*
X075385Y017325D01*
X075385Y017325D01*
X074903Y017401D01*
X074903Y017401D01*
X074468Y017623D01*
X074468Y017623D01*
X074159Y017932D01*
X074159Y017838D01*
X074058Y017594D01*
X073871Y017407D01*
X073627Y017306D01*
X073362Y017306D01*
X073118Y017407D01*
X072930Y017594D01*
X072829Y017838D01*
X072829Y018103D01*
X072930Y018347D01*
X073118Y018534D01*
X073362Y018636D01*
X073627Y018636D01*
X073871Y018534D01*
X073882Y018523D01*
X073825Y018885D01*
X073825Y018885D01*
X073901Y019367D01*
X073901Y019367D01*
X074071Y019700D01*
X035933Y019700D01*
X036027Y019606D01*
X036100Y019429D01*
X037065Y018464D01*
X037118Y018335D01*
X037217Y018434D01*
X037401Y018510D01*
X038119Y018510D01*
X038303Y018586D01*
X038444Y018727D01*
X038520Y018911D01*
X038520Y019109D01*
X038444Y019293D01*
X038303Y019434D01*
X038119Y019510D01*
X037401Y019510D01*
X037217Y019434D01*
X037076Y019293D01*
X037000Y019109D01*
X037000Y018911D01*
X037076Y018727D01*
X037217Y018586D01*
X037401Y018510D01*
X038119Y018510D01*
X038303Y018434D01*
X038444Y018293D01*
X038520Y018109D01*
X038520Y017911D01*
X038444Y017727D01*
X038303Y017586D01*
X038119Y017510D01*
X037401Y017510D01*
X037217Y017586D01*
X037120Y017683D01*
X037120Y017409D01*
X037156Y017373D01*
X037217Y017434D01*
X037401Y017510D01*
X038119Y017510D01*
X038303Y017434D01*
X038444Y017293D01*
X038520Y017109D01*
X038520Y016911D01*
X038444Y016727D01*
X038303Y016586D01*
X038119Y016510D01*
X038303Y016434D01*
X038444Y016293D01*
X038520Y016109D01*
X038520Y015911D01*
X040000Y015911D01*
X040076Y015727D01*
X040217Y015586D01*
X040401Y015510D01*
X040217Y015434D01*
X040076Y015293D01*
X040000Y015109D01*
X040000Y014911D01*
X040076Y014727D01*
X040217Y014586D01*
X040401Y014510D01*
X040217Y014434D01*
X040076Y014293D01*
X040000Y014109D01*
X040000Y013911D01*
X040076Y013727D01*
X040217Y013586D01*
X040401Y013510D01*
X040217Y013434D01*
X040076Y013293D01*
X040000Y013109D01*
X040000Y012911D01*
X040076Y012727D01*
X040217Y012586D01*
X040401Y012510D01*
X040217Y012434D01*
X040153Y012370D01*
X039438Y012370D01*
X039306Y012315D01*
X039205Y012214D01*
X039056Y012065D01*
X038955Y011964D01*
X038900Y011832D01*
X038900Y002688D01*
X038955Y002556D01*
X039205Y002306D01*
X039306Y002205D01*
X039438Y002150D01*
X040153Y002150D01*
X040217Y002086D01*
X040401Y002010D01*
X041119Y002010D01*
X041303Y002086D01*
X041367Y002150D01*
X048332Y002150D01*
X048464Y002205D01*
X048565Y002306D01*
X049065Y002806D01*
X049120Y002938D01*
X049120Y004616D01*
X049260Y004756D01*
X049414Y004601D01*
X049639Y004508D01*
X049881Y004508D01*
X050106Y004601D01*
X050251Y004747D01*
X050279Y004708D01*
X050350Y004638D01*
X050430Y004579D01*
X050518Y004534D01*
X050612Y004504D01*
X050710Y004488D01*
X050760Y004488D01*
X050810Y004488D01*
X050908Y004504D01*
X051002Y004534D01*
X051090Y004579D01*
X051170Y004638D01*
X051241Y004708D01*
X051299Y004788D01*
X051344Y004876D01*
X051374Y004971D01*
X051390Y005069D01*
X051390Y005118D01*
X050760Y005118D01*
X050760Y004488D01*
X050760Y005118D01*
X050760Y005118D01*
X050760Y005118D01*
X051390Y005118D01*
X051390Y005168D01*
X051374Y005266D01*
X051344Y005360D01*
X051299Y005448D01*
X051241Y005529D01*
X051170Y005599D01*
X051090Y005657D01*
X051002Y005702D01*
X050908Y005733D01*
X050810Y005748D01*
X050760Y005748D01*
X050760Y005118D01*
X050760Y005748D01*
X050710Y005748D01*
X050612Y005733D01*
X050518Y005702D01*
X050430Y005657D01*
X050350Y005599D01*
X050279Y005529D01*
X050251Y005490D01*
X050106Y005635D01*
X049881Y005728D01*
X049639Y005728D01*
X049414Y005635D01*
X049260Y005481D01*
X049120Y005621D01*
X049120Y018054D01*
X049260Y018194D01*
X049414Y018039D01*
X049639Y017946D01*
X049881Y017946D01*
X050106Y018039D01*
X050251Y018185D01*
X050279Y018146D01*
X050350Y018076D01*
X050430Y018017D01*
X050518Y017972D01*
X050612Y017942D01*
X050710Y017926D01*
X050760Y017926D01*
X050810Y017926D01*
X050908Y017942D01*
X051002Y017972D01*
X051090Y018017D01*
X051170Y018076D01*
X051241Y018146D01*
X051299Y018226D01*
X051344Y018314D01*
X051374Y018409D01*
X051390Y018507D01*
X051390Y018556D01*
X050760Y018556D01*
X050760Y017926D01*
X050760Y018556D01*
X050760Y018556D01*
X050760Y018556D01*
X051390Y018556D01*
X051390Y018606D01*
X051374Y018704D01*
X051344Y018798D01*
X051299Y018886D01*
X051241Y018967D01*
X051170Y019037D01*
X051090Y019095D01*
X051002Y019140D01*
X050908Y019171D01*
X050810Y019186D01*
X050760Y019186D01*
X050760Y018556D01*
X050760Y019186D01*
X050710Y019186D01*
X050612Y019171D01*
X050518Y019140D01*
X050430Y019095D01*
X050350Y019037D01*
X050279Y018967D01*
X050251Y018928D01*
X050106Y019073D01*
X049881Y019166D01*
X049639Y019166D01*
X049414Y019073D01*
X049260Y018919D01*
X049106Y019073D01*
X048881Y019166D01*
X048639Y019166D01*
X048414Y019073D01*
X048260Y018919D01*
X048106Y019073D01*
X047881Y019166D01*
X047639Y019166D01*
X047414Y019073D01*
X047260Y018919D01*
X047106Y019073D01*
X046881Y019166D01*
X046639Y019166D01*
X046414Y019073D01*
X046243Y018902D01*
X046150Y018678D01*
X046150Y018435D01*
X046243Y018211D01*
X046400Y018054D01*
X046400Y005621D01*
X046257Y005478D01*
X042297Y005478D01*
X042164Y005423D01*
X041611Y004870D01*
X041367Y004870D01*
X041303Y004934D01*
X041119Y005010D01*
X041303Y005086D01*
X041444Y005227D01*
X041520Y005411D01*
X041520Y005609D01*
X041444Y005793D01*
X041303Y005934D01*
X041119Y006010D01*
X041303Y006086D01*
X041444Y006227D01*
X041520Y006411D01*
X041520Y006609D01*
X041444Y006793D01*
X041303Y006934D01*
X041119Y007010D01*
X041303Y007086D01*
X041444Y007227D01*
X041520Y007411D01*
X041520Y007609D01*
X041444Y007793D01*
X041303Y007934D01*
X041119Y008010D01*
X041303Y008086D01*
X041444Y008227D01*
X041520Y008411D01*
X041520Y008609D01*
X041444Y008793D01*
X041303Y008934D01*
X041138Y009002D01*
X041142Y009003D01*
X041220Y009028D01*
X041293Y009065D01*
X041359Y009113D01*
X041417Y009171D01*
X041465Y009237D01*
X041479Y009265D01*
X041510Y009203D01*
X041564Y009129D01*
X041629Y009064D01*
X041703Y009010D01*
X041785Y008968D01*
X041873Y008939D01*
X041964Y008925D01*
X042010Y008925D01*
X042056Y008925D01*
X042147Y008939D01*
X042235Y008968D01*
X042317Y009010D01*
X042391Y009064D01*
X042456Y009129D01*
X042510Y009203D01*
X042519Y009220D01*
X042531Y009190D01*
X042676Y009045D01*
X042649Y009034D01*
X042462Y008847D01*
X042361Y008603D01*
X042361Y008338D01*
X042462Y008094D01*
X042649Y007907D01*
X042893Y007806D01*
X043158Y007806D01*
X043402Y007907D01*
X043590Y008094D01*
X043691Y008338D01*
X043691Y008603D01*
X043590Y008847D01*
X043402Y009034D01*
X043354Y009055D01*
X043489Y009190D01*
X043575Y009398D01*
X043575Y009622D01*
X043489Y009830D01*
X043330Y009989D01*
X043122Y010075D01*
X042898Y010075D01*
X042690Y009989D01*
X042531Y009830D01*
X042519Y009800D01*
X042510Y009817D01*
X042456Y009891D01*
X042391Y009956D01*
X042317Y010010D01*
X042235Y010052D01*
X042147Y010081D01*
X042056Y010095D01*
X042010Y010095D01*
X042010Y009510D01*
X042010Y009510D01*
X042010Y008925D01*
X042010Y009510D01*
X042010Y009510D01*
X042010Y010095D01*
X041964Y010095D01*
X041873Y010081D01*
X041785Y010052D01*
X041703Y010010D01*
X041629Y009956D01*
X041564Y009891D01*
X041510Y009817D01*
X041479Y009755D01*
X041465Y009783D01*
X041417Y009849D01*
X041359Y009907D01*
X041293Y009955D01*
X041220Y009992D01*
X041142Y010017D01*
X041061Y010030D01*
X040760Y010030D01*
X040760Y009510D01*
X040760Y009510D01*
X042010Y009510D01*
X042010Y009510D01*
X041540Y009510D01*
X040760Y009510D01*
X040760Y009510D01*
X040760Y009510D01*
X039980Y009510D01*
X039980Y009551D01*
X039993Y009632D01*
X040018Y009710D01*
X040055Y009783D01*
X040103Y009849D01*
X040161Y009907D01*
X040227Y009955D01*
X040300Y009992D01*
X040378Y010017D01*
X040459Y010030D01*
X040760Y010030D01*
X040760Y009510D01*
X039980Y009510D01*
X039980Y009469D01*
X039993Y009388D01*
X040018Y009310D01*
X040055Y009237D01*
X040103Y009171D01*
X040161Y009113D01*
X040227Y009065D01*
X040300Y009028D01*
X040378Y009003D01*
X040382Y009002D01*
X040217Y008934D01*
X040076Y008793D01*
X040000Y008609D01*
X040000Y008411D01*
X040076Y008227D01*
X040217Y008086D01*
X040401Y008010D01*
X041119Y008010D01*
X040401Y008010D01*
X040217Y007934D01*
X040076Y007793D01*
X040000Y007609D01*
X040000Y007411D01*
X040076Y007227D01*
X040217Y007086D01*
X040401Y007010D01*
X041119Y007010D01*
X040401Y007010D01*
X040217Y006934D01*
X040076Y006793D01*
X040000Y006609D01*
X040000Y006411D01*
X040076Y006227D01*
X040217Y006086D01*
X040401Y006010D01*
X041119Y006010D01*
X040401Y006010D01*
X040217Y005934D01*
X040076Y005793D01*
X040000Y005609D01*
X040000Y005411D01*
X040076Y005227D01*
X040217Y005086D01*
X040401Y005010D01*
X041119Y005010D01*
X040401Y005010D01*
X040217Y004934D01*
X040076Y004793D01*
X040000Y004609D01*
X040000Y004411D01*
X040076Y004227D01*
X040217Y004086D01*
X040401Y004010D01*
X040217Y003934D01*
X040076Y003793D01*
X040000Y003609D01*
X040000Y003411D01*
X040076Y003227D01*
X040217Y003086D01*
X040401Y003010D01*
X040217Y002934D01*
X040153Y002870D01*
X039659Y002870D01*
X039620Y002909D01*
X039620Y011611D01*
X039659Y011650D01*
X040153Y011650D01*
X040217Y011586D01*
X040401Y011510D01*
X041119Y011510D01*
X041303Y011586D01*
X041444Y011727D01*
X041520Y011911D01*
X041520Y012109D01*
X041444Y012293D01*
X041303Y012434D01*
X041119Y012510D01*
X040401Y012510D01*
X041119Y012510D01*
X041303Y012586D01*
X041444Y012727D01*
X041520Y012911D01*
X041520Y013109D01*
X041444Y013293D01*
X041303Y013434D01*
X041119Y013510D01*
X040401Y013510D01*
X041119Y013510D01*
X041303Y013586D01*
X041444Y013727D01*
X041520Y013911D01*
X041520Y014109D01*
X041444Y014293D01*
X041303Y014434D01*
X041119Y014510D01*
X040401Y014510D01*
X041119Y014510D01*
X041303Y014586D01*
X041444Y014727D01*
X041520Y014911D01*
X041520Y015109D01*
X041444Y015293D01*
X041303Y015434D01*
X041119Y015510D01*
X040401Y015510D01*
X041119Y015510D01*
X041303Y015586D01*
X041444Y015727D01*
X041520Y015911D01*
X046400Y015911D01*
X046400Y015593D02*
X041310Y015593D01*
X041520Y015911D02*
X041520Y016109D01*
X041444Y016293D01*
X041303Y016434D01*
X041119Y016510D01*
X040401Y016510D01*
X040217Y016434D01*
X040076Y016293D01*
X040000Y016109D01*
X040000Y015911D01*
X040210Y015593D02*
X038310Y015593D01*
X038303Y015586D02*
X038444Y015727D01*
X038520Y015911D01*
X038303Y015586D02*
X038119Y015510D01*
X037401Y015510D01*
X037217Y015586D01*
X037076Y015727D01*
X037000Y015911D01*
X031120Y015911D01*
X031120Y015593D02*
X037210Y015593D01*
X037217Y015434D02*
X037401Y015510D01*
X038119Y015510D01*
X038303Y015434D01*
X038444Y015293D01*
X038520Y015109D01*
X038520Y014911D01*
X038444Y014727D01*
X038303Y014586D01*
X038119Y014510D01*
X038303Y014434D01*
X038444Y014293D01*
X038520Y014109D01*
X038520Y013911D01*
X038444Y013727D01*
X038303Y013586D01*
X038119Y013510D01*
X038303Y013434D01*
X038444Y013293D01*
X038520Y013109D01*
X038520Y012911D01*
X038444Y012727D01*
X038303Y012586D01*
X038119Y012510D01*
X037401Y012510D01*
X037217Y012586D01*
X037076Y012727D01*
X037000Y012911D01*
X037000Y013109D01*
X037076Y013293D01*
X037217Y013434D01*
X037401Y013510D01*
X038119Y013510D01*
X037401Y013510D01*
X037217Y013586D01*
X037076Y013727D01*
X037000Y013911D01*
X037000Y014109D01*
X037076Y014293D01*
X037217Y014434D01*
X037401Y014510D01*
X038119Y014510D01*
X037401Y014510D01*
X037217Y014586D01*
X037076Y014727D01*
X037000Y014911D01*
X037000Y015109D01*
X037076Y015293D01*
X037217Y015434D01*
X037068Y015274D02*
X031120Y015274D01*
X031120Y014956D02*
X037000Y014956D01*
X037166Y014637D02*
X031120Y014637D01*
X031120Y014319D02*
X037101Y014319D01*
X037000Y014000D02*
X031120Y014000D01*
X031120Y013682D02*
X033262Y013682D01*
X033222Y013665D02*
X033144Y013620D01*
X033073Y013565D01*
X033010Y013502D01*
X032955Y013431D01*
X032910Y013353D01*
X032876Y013270D01*
X032852Y013183D01*
X032841Y013094D01*
X032841Y013049D01*
X032841Y013004D01*
X032852Y012915D01*
X032876Y012829D01*
X032910Y012746D01*
X032955Y012668D01*
X033010Y012597D01*
X033073Y012533D01*
X033144Y012479D01*
X033222Y012434D01*
X033305Y012399D01*
X033392Y012376D01*
X033481Y012364D01*
X033526Y012364D01*
X033571Y012364D01*
X033660Y012376D01*
X033746Y012399D01*
X033829Y012434D01*
X033907Y012479D01*
X033978Y012533D01*
X034042Y012597D01*
X034097Y012668D01*
X034141Y012746D01*
X034176Y012829D01*
X034199Y012915D01*
X034211Y013004D01*
X034211Y013049D01*
X033526Y013049D01*
X033526Y012364D01*
X033526Y013049D01*
X033526Y013049D01*
X033526Y013049D01*
X034211Y013049D01*
X034211Y013094D01*
X034199Y013183D01*
X034176Y013270D01*
X034141Y013353D01*
X034097Y013431D01*
X034042Y013502D01*
X033978Y013565D01*
X033907Y013620D01*
X033829Y013665D01*
X033746Y013699D01*
X033660Y013723D01*
X033571Y013734D01*
X033526Y013734D01*
X033526Y013049D01*
X032841Y013049D01*
X033526Y013049D01*
X033526Y013049D01*
X033526Y013049D01*
X033526Y013734D01*
X033481Y013734D01*
X033392Y013723D01*
X033305Y013699D01*
X033222Y013665D01*
X033526Y013682D02*
X033526Y013682D01*
X033790Y013682D02*
X035283Y013682D01*
X035362Y013714D02*
X035118Y013613D01*
X034930Y013426D01*
X034829Y013182D01*
X034829Y012917D01*
X034930Y012673D01*
X035118Y012486D01*
X035362Y012384D01*
X035627Y012384D01*
X035871Y012486D01*
X036058Y012673D01*
X036159Y012917D01*
X036159Y013182D01*
X036058Y013426D01*
X035871Y013613D01*
X035627Y013714D01*
X035362Y013714D01*
X035706Y013682D02*
X037121Y013682D01*
X037146Y013363D02*
X036084Y013363D01*
X036159Y013045D02*
X037000Y013045D01*
X037077Y012726D02*
X036080Y012726D01*
X037217Y012434D02*
X037401Y012510D01*
X038119Y012510D01*
X038303Y012434D01*
X038444Y012293D01*
X038520Y012109D01*
X038520Y011911D01*
X038444Y011727D01*
X038303Y011586D01*
X038119Y011510D01*
X037401Y011510D01*
X037217Y011586D01*
X037076Y011727D01*
X037000Y011911D01*
X037000Y012109D01*
X037076Y012293D01*
X037217Y012434D01*
X037190Y012408D02*
X035682Y012408D01*
X035306Y012408D02*
X033766Y012408D01*
X033526Y012408D02*
X033526Y012408D01*
X033285Y012408D02*
X031120Y012408D01*
X031120Y012159D02*
X031120Y018054D01*
X031277Y018211D01*
X031370Y018435D01*
X031370Y018678D01*
X031277Y018902D01*
X031106Y019073D01*
X030881Y019166D01*
X030639Y019166D01*
X030414Y019073D01*
X030260Y018919D01*
X030106Y019073D01*
X029881Y019166D01*
X029639Y019166D01*
X029414Y019073D01*
X029260Y018919D01*
X029106Y019073D01*
X028881Y019166D01*
X028639Y019166D01*
X028414Y019073D01*
X028260Y018919D01*
X028106Y019073D01*
X027881Y019166D01*
X027639Y019166D01*
X027414Y019073D01*
X027243Y018902D01*
X027150Y018678D01*
X027150Y018435D01*
X027243Y018211D01*
X027400Y018054D01*
X027400Y010888D01*
X027368Y010856D01*
X027275Y010631D01*
X027275Y010389D01*
X027368Y010164D01*
X027539Y009993D01*
X027764Y009900D01*
X027986Y009900D01*
X028150Y009736D01*
X028150Y009060D01*
X028006Y009120D01*
X027764Y009120D01*
X027539Y009027D01*
X027368Y008856D01*
X027275Y008631D01*
X027275Y008389D01*
X027368Y008164D01*
X027539Y007993D01*
X027764Y007900D01*
X028006Y007900D01*
X028150Y007960D01*
X028150Y007595D01*
X027464Y006223D01*
X027455Y006214D01*
X027432Y006160D01*
X027406Y006107D01*
X027405Y006094D01*
X027400Y006082D01*
X027400Y006023D01*
X027396Y005964D01*
X027400Y005952D01*
X027400Y005621D01*
X027243Y005464D01*
X027150Y005240D01*
X027150Y004997D01*
X027243Y004773D01*
X027414Y004601D01*
X027639Y004508D01*
X027881Y004508D01*
X028106Y004601D01*
X028260Y004756D01*
X028414Y004601D01*
X028639Y004508D01*
X028881Y004508D01*
X029106Y004601D01*
X029260Y004756D01*
X029414Y004601D01*
X029639Y004508D01*
X029881Y004508D01*
X030106Y004601D01*
X030260Y004756D01*
X030414Y004601D01*
X030639Y004508D01*
X030881Y004508D01*
X031106Y004601D01*
X031277Y004773D01*
X031370Y004997D01*
X031370Y005240D01*
X031277Y005464D01*
X031158Y005583D01*
X032540Y007656D01*
X032565Y007681D01*
X032579Y007715D01*
X032599Y007745D01*
X032606Y007780D01*
X032620Y007813D01*
X032620Y007850D01*
X032627Y007885D01*
X032620Y007921D01*
X032620Y009957D01*
X032565Y010089D01*
X032464Y010190D01*
X032245Y010409D01*
X032245Y010631D01*
X032152Y010856D01*
X031995Y011013D01*
X031995Y011207D01*
X031940Y011339D01*
X031839Y011440D01*
X031120Y012159D01*
X031190Y012089D02*
X037000Y012089D01*
X037058Y011771D02*
X031509Y011771D01*
X031827Y011452D02*
X038900Y011452D01*
X038900Y011771D02*
X038462Y011771D01*
X039620Y011452D02*
X046400Y011452D01*
X046400Y011771D02*
X041462Y011771D01*
X041520Y012089D02*
X046400Y012089D01*
X046400Y012408D02*
X045182Y012408D01*
X045127Y012384D02*
X045371Y012486D01*
X045558Y012673D01*
X045659Y012917D01*
X045659Y013182D01*
X045558Y013426D01*
X045371Y013613D01*
X045127Y013714D01*
X044862Y013714D01*
X044618Y013613D01*
X044430Y013426D01*
X044329Y013182D01*
X044329Y012917D01*
X044430Y012673D01*
X044618Y012486D01*
X044862Y012384D01*
X045127Y012384D01*
X044806Y012408D02*
X043266Y012408D01*
X043246Y012399D02*
X043329Y012434D01*
X043407Y012479D01*
X043478Y012533D01*
X043542Y012597D01*
X043597Y012668D01*
X043641Y012746D01*
X043676Y012829D01*
X043699Y012915D01*
X043711Y013004D01*
X043711Y013049D01*
X043026Y013049D01*
X043026Y012364D01*
X043071Y012364D01*
X043160Y012376D01*
X043246Y012399D01*
X043026Y012408D02*
X043026Y012408D01*
X043026Y012364D02*
X043026Y013049D01*
X043026Y013049D01*
X043026Y013049D01*
X043711Y013049D01*
X043711Y013094D01*
X043699Y013183D01*
X043676Y013270D01*
X043641Y013353D01*
X043597Y013431D01*
X043542Y013502D01*
X043478Y013565D01*
X043407Y013620D01*
X043329Y013665D01*
X043246Y013699D01*
X043160Y013723D01*
X043071Y013734D01*
X043026Y013734D01*
X043026Y013049D01*
X042341Y013049D01*
X042341Y013004D01*
X042352Y012915D01*
X042376Y012829D01*
X042410Y012746D01*
X042455Y012668D01*
X042510Y012597D01*
X042573Y012533D01*
X042644Y012479D01*
X042722Y012434D01*
X042805Y012399D01*
X042892Y012376D01*
X042981Y012364D01*
X043026Y012364D01*
X042785Y012408D02*
X041330Y012408D01*
X040190Y012408D02*
X038330Y012408D01*
X038520Y012089D02*
X039080Y012089D01*
X038443Y012726D02*
X040077Y012726D01*
X040000Y013045D02*
X038520Y013045D01*
X038374Y013363D02*
X040146Y013363D01*
X040121Y013682D02*
X038399Y013682D01*
X038520Y014000D02*
X040000Y014000D01*
X040101Y014319D02*
X038419Y014319D01*
X038354Y014637D02*
X040166Y014637D01*
X040000Y014956D02*
X038520Y014956D01*
X038452Y015274D02*
X040068Y015274D01*
X041452Y015274D02*
X046400Y015274D01*
X046400Y014956D02*
X041520Y014956D01*
X041354Y014637D02*
X046400Y014637D01*
X046400Y014319D02*
X041419Y014319D01*
X041520Y014000D02*
X046400Y014000D01*
X046400Y013682D02*
X045206Y013682D01*
X044783Y013682D02*
X043290Y013682D01*
X043026Y013682D02*
X043026Y013682D01*
X043026Y013734D02*
X042981Y013734D01*
X042892Y013723D01*
X042805Y013699D01*
X042722Y013665D01*
X042644Y013620D01*
X042573Y013565D01*
X042510Y013502D01*
X042455Y013431D01*
X042410Y013353D01*
X042376Y013270D01*
X042352Y013183D01*
X042341Y013094D01*
X042341Y013049D01*
X043026Y013049D01*
X043026Y013049D01*
X043026Y013049D01*
X043026Y013734D01*
X042762Y013682D02*
X041399Y013682D01*
X041374Y013363D02*
X042416Y013363D01*
X043026Y013363D02*
X043026Y013363D01*
X043636Y013363D02*
X044404Y013363D01*
X044329Y013045D02*
X043711Y013045D01*
X043630Y012726D02*
X044408Y012726D01*
X043026Y012726D02*
X043026Y012726D01*
X043026Y013045D02*
X043026Y013045D01*
X042421Y012726D02*
X041443Y012726D01*
X041520Y013045D02*
X042341Y013045D01*
X045580Y012726D02*
X046400Y012726D01*
X046400Y013045D02*
X045659Y013045D01*
X045584Y013363D02*
X046400Y013363D01*
X049120Y013363D02*
X051916Y013363D01*
X051910Y013353D02*
X051876Y013270D01*
X051852Y013183D01*
X051841Y013094D01*
X051841Y013049D01*
X051841Y013004D01*
X051852Y012915D01*
X051876Y012829D01*
X051910Y012746D01*
X051955Y012668D01*
X052010Y012597D01*
X052073Y012533D01*
X052144Y012479D01*
X052222Y012434D01*
X052305Y012399D01*
X052392Y012376D01*
X052481Y012364D01*
X052526Y012364D01*
X052571Y012364D01*
X052660Y012376D01*
X052746Y012399D01*
X052829Y012434D01*
X052907Y012479D01*
X052978Y012533D01*
X053042Y012597D01*
X053097Y012668D01*
X053141Y012746D01*
X053176Y012829D01*
X053199Y012915D01*
X053211Y013004D01*
X053211Y013049D01*
X052526Y013049D01*
X052526Y012364D01*
X052526Y013049D01*
X052526Y013049D01*
X052526Y013049D01*
X053211Y013049D01*
X053211Y013094D01*
X053199Y013183D01*
X053176Y013270D01*
X053141Y013353D01*
X053097Y013431D01*
X053042Y013502D01*
X052978Y013565D01*
X052907Y013620D01*
X052829Y013665D01*
X052746Y013699D01*
X052660Y013723D01*
X052571Y013734D01*
X052526Y013734D01*
X052526Y013049D01*
X051841Y013049D01*
X052526Y013049D01*
X052526Y013049D01*
X052526Y013049D01*
X052526Y013734D01*
X052481Y013734D01*
X052392Y013723D01*
X052305Y013699D01*
X052222Y013665D01*
X052144Y013620D01*
X052073Y013565D01*
X052010Y013502D01*
X051955Y013431D01*
X051910Y013353D01*
X052262Y013682D02*
X049120Y013682D01*
X049120Y014000D02*
X076200Y014000D01*
X076200Y014319D02*
X049120Y014319D01*
X049120Y014637D02*
X076200Y014637D01*
X076200Y014956D02*
X049120Y014956D01*
X049120Y015274D02*
X076200Y015274D01*
X076200Y015593D02*
X049120Y015593D01*
X049120Y015911D02*
X076200Y015911D01*
X076200Y016230D02*
X049120Y016230D01*
X049120Y016548D02*
X076200Y016548D01*
X076200Y016867D02*
X049120Y016867D01*
X049120Y017185D02*
X076200Y017185D01*
X076200Y017504D02*
X076068Y017504D01*
X074702Y017504D02*
X073968Y017504D01*
X074152Y017822D02*
X074269Y017822D01*
X073021Y017504D02*
X071999Y017504D01*
X072090Y017594D02*
X072191Y017838D01*
X072191Y018103D01*
X072090Y018347D01*
X071902Y018534D01*
X071658Y018636D01*
X071393Y018636D01*
X071149Y018534D01*
X070962Y018347D01*
X070861Y018103D01*
X070861Y017838D01*
X070962Y017594D01*
X071149Y017407D01*
X071393Y017306D01*
X071658Y017306D01*
X071902Y017407D01*
X072090Y017594D01*
X072184Y017822D02*
X072836Y017822D01*
X072845Y018141D02*
X072175Y018141D01*
X071978Y018459D02*
X073042Y018459D01*
X073842Y018778D02*
X051351Y018778D01*
X051088Y019096D02*
X073858Y019096D01*
X073926Y019415D02*
X043405Y019415D01*
X043330Y019489D02*
X043122Y019575D01*
X042898Y019575D01*
X042690Y019489D01*
X042531Y019330D01*
X042519Y019300D01*
X042510Y019317D01*
X042456Y019391D01*
X042391Y019456D01*
X042317Y019510D01*
X042235Y019552D01*
X042147Y019581D01*
X042056Y019595D01*
X042010Y019595D01*
X042010Y019010D01*
X042010Y019010D01*
X042010Y018425D01*
X042056Y018425D01*
X042147Y018439D01*
X042235Y018468D01*
X042317Y018510D01*
X042391Y018564D01*
X042456Y018629D01*
X042510Y018703D01*
X042519Y018720D01*
X042531Y018690D01*
X042676Y018545D01*
X042649Y018534D01*
X042462Y018347D01*
X042361Y018103D01*
X042361Y017838D01*
X042462Y017594D01*
X042649Y017407D01*
X042893Y017306D01*
X043158Y017306D01*
X043402Y017407D01*
X043590Y017594D01*
X043691Y017838D01*
X043691Y018103D01*
X043590Y018347D01*
X043402Y018534D01*
X043354Y018555D01*
X043489Y018690D01*
X043575Y018898D01*
X043575Y019122D01*
X043489Y019330D01*
X043330Y019489D01*
X042615Y019415D02*
X042433Y019415D01*
X042010Y019415D02*
X042010Y019415D01*
X042010Y019595D02*
X041964Y019595D01*
X041873Y019581D01*
X041785Y019552D01*
X041703Y019510D01*
X041629Y019456D01*
X041564Y019391D01*
X041510Y019317D01*
X041479Y019255D01*
X041465Y019283D01*
X041417Y019349D01*
X041359Y019407D01*
X041293Y019455D01*
X041220Y019492D01*
X041142Y019517D01*
X041061Y019530D01*
X040760Y019530D01*
X040760Y019010D01*
X040760Y019010D01*
X042010Y019010D01*
X042010Y019010D01*
X042010Y019595D01*
X041587Y019415D02*
X041348Y019415D01*
X040760Y019415D02*
X040760Y019415D01*
X040760Y019530D02*
X040459Y019530D01*
X040378Y019517D01*
X040300Y019492D01*
X040227Y019455D01*
X040161Y019407D01*
X040103Y019349D01*
X040055Y019283D01*
X040018Y019210D01*
X039993Y019132D01*
X039980Y019051D01*
X039980Y019010D01*
X040760Y019010D01*
X040760Y019010D01*
X040760Y019010D01*
X040760Y019530D01*
X040172Y019415D02*
X038323Y019415D01*
X038520Y019096D02*
X039987Y019096D01*
X039980Y019010D02*
X039980Y018969D01*
X039993Y018888D01*
X040018Y018810D01*
X040055Y018737D01*
X040103Y018671D01*
X040161Y018613D01*
X040227Y018565D01*
X040300Y018528D01*
X040378Y018503D01*
X040382Y018502D01*
X040217Y018434D01*
X040076Y018293D01*
X040000Y018109D01*
X040000Y017911D01*
X040076Y017727D01*
X040217Y017586D01*
X040401Y017510D01*
X041119Y017510D01*
X041303Y017586D01*
X041444Y017727D01*
X041520Y017911D01*
X041520Y018109D01*
X041444Y018293D01*
X041303Y018434D01*
X041138Y018502D01*
X041142Y018503D01*
X041220Y018528D01*
X041293Y018565D01*
X041359Y018613D01*
X041417Y018671D01*
X041465Y018737D01*
X041479Y018765D01*
X041510Y018703D01*
X041564Y018629D01*
X041629Y018564D01*
X041703Y018510D01*
X041785Y018468D01*
X041873Y018439D01*
X041964Y018425D01*
X042010Y018425D01*
X042010Y019010D01*
X042010Y019010D01*
X041540Y019010D01*
X040760Y019010D01*
X039980Y019010D01*
X040035Y018778D02*
X038465Y018778D01*
X038243Y018459D02*
X040277Y018459D01*
X040013Y018141D02*
X038507Y018141D01*
X038483Y017822D02*
X040037Y017822D01*
X040217Y017434D02*
X040076Y017293D01*
X040000Y017109D01*
X040000Y016911D01*
X040076Y016727D01*
X040217Y016586D01*
X040401Y016510D01*
X041119Y016510D01*
X041303Y016586D01*
X041444Y016727D01*
X041520Y016911D01*
X041520Y017109D01*
X041444Y017293D01*
X041303Y017434D01*
X041119Y017510D01*
X040401Y017510D01*
X040217Y017434D01*
X040385Y017504D02*
X038135Y017504D01*
X037385Y017504D02*
X037120Y017504D01*
X036400Y017504D02*
X035968Y017504D01*
X036058Y017594D02*
X036159Y017838D01*
X036159Y018103D01*
X036058Y018347D01*
X035871Y018534D01*
X035627Y018636D01*
X035362Y018636D01*
X035118Y018534D01*
X034930Y018347D01*
X034829Y018103D01*
X034829Y017838D01*
X034930Y017594D01*
X035118Y017407D01*
X035362Y017306D01*
X035627Y017306D01*
X035871Y017407D01*
X036058Y017594D01*
X036152Y017822D02*
X036400Y017822D01*
X036400Y018111D02*
X036400Y017188D01*
X036455Y017056D01*
X036556Y016955D01*
X036806Y016705D01*
X036938Y016650D01*
X037153Y016650D01*
X037217Y016586D01*
X037401Y016510D01*
X037217Y016434D01*
X037076Y016293D01*
X037000Y016109D01*
X037000Y015911D01*
X037050Y016230D02*
X031120Y016230D01*
X031120Y016548D02*
X037309Y016548D01*
X037401Y016510D02*
X038119Y016510D01*
X037401Y016510D01*
X038211Y016548D02*
X040309Y016548D01*
X040050Y016230D02*
X038470Y016230D01*
X038502Y016867D02*
X040018Y016867D01*
X040031Y017185D02*
X038489Y017185D01*
X036644Y016867D02*
X031120Y016867D01*
X031120Y017185D02*
X036401Y017185D01*
X035021Y017504D02*
X033999Y017504D01*
X034090Y017594D02*
X034191Y017838D01*
X034191Y018103D01*
X034090Y018347D01*
X033902Y018534D01*
X033658Y018636D01*
X033393Y018636D01*
X033149Y018534D01*
X032962Y018347D01*
X032861Y018103D01*
X032861Y017838D01*
X032962Y017594D01*
X033149Y017407D01*
X033393Y017306D01*
X033658Y017306D01*
X033902Y017407D01*
X034090Y017594D01*
X034184Y017822D02*
X034836Y017822D01*
X034845Y018141D02*
X034175Y018141D01*
X033978Y018459D02*
X035042Y018459D01*
X035164Y018743D02*
X035389Y018650D01*
X035631Y018650D01*
X035794Y018717D01*
X036400Y018111D01*
X036370Y018141D02*
X036144Y018141D01*
X036052Y018459D02*
X035946Y018459D01*
X037067Y018459D02*
X037277Y018459D01*
X037055Y018778D02*
X036752Y018778D01*
X037000Y019096D02*
X036433Y019096D01*
X035164Y018743D02*
X034993Y018914D01*
X034900Y019139D01*
X034900Y019381D01*
X034993Y019606D01*
X035087Y019700D01*
X033933Y019700D01*
X034027Y019606D01*
X034120Y019381D01*
X034120Y019139D01*
X034027Y018914D01*
X033856Y018743D01*
X033631Y018650D01*
X033389Y018650D01*
X033164Y018743D01*
X032993Y018914D01*
X032900Y019139D01*
X032900Y019381D01*
X032993Y019606D01*
X033087Y019700D01*
X003949Y019700D01*
X004119Y019367D01*
X004119Y019367D01*
X004195Y018885D01*
X004119Y018403D01*
X004119Y018403D01*
X003897Y017968D01*
X003897Y017968D01*
X003552Y017623D01*
X003552Y017623D01*
X003117Y017401D01*
X003117Y017401D01*
X002635Y017325D01*
X002635Y017325D01*
X002153Y017401D01*
X002153Y017401D01*
X001820Y017571D01*
X001820Y003949D01*
X002153Y004119D01*
X002153Y004119D01*
X002635Y004195D01*
X002635Y004195D01*
X003117Y004119D01*
X003117Y004119D01*
X003552Y003897D01*
X003552Y003897D01*
X003897Y003552D01*
X003897Y003552D01*
X004119Y003117D01*
X004119Y003117D01*
X004195Y002635D01*
X004119Y002153D01*
X004119Y002153D01*
X004129Y002216D02*
X032900Y002216D01*
X032963Y002534D02*
X004179Y002534D01*
X004161Y002853D02*
X033346Y002853D01*
X033674Y002853D02*
X035346Y002853D01*
X034932Y003171D02*
X034098Y003171D01*
X032953Y003171D02*
X026556Y003171D01*
X026558Y003173D02*
X026659Y003417D01*
X026659Y003682D01*
X026558Y003926D01*
X026371Y004113D01*
X026127Y004214D01*
X025862Y004214D01*
X025618Y004113D01*
X025430Y003926D01*
X025329Y003682D01*
X025329Y003417D01*
X025430Y003173D01*
X025618Y002986D01*
X025862Y002884D01*
X026127Y002884D01*
X026371Y002986D01*
X026558Y003173D01*
X026659Y003490D02*
X032843Y003490D01*
X032841Y003549D02*
X033526Y003549D01*
X034211Y003549D01*
X034211Y003594D01*
X034199Y003683D01*
X034176Y003770D01*
X034141Y003853D01*
X034097Y003931D01*
X034042Y004002D01*
X033978Y004065D01*
X033907Y004120D01*
X033829Y004165D01*
X033746Y004199D01*
X033660Y004223D01*
X033571Y004234D01*
X033526Y004234D01*
X033526Y003549D01*
X033526Y003549D01*
X033526Y003549D01*
X033526Y004234D01*
X033481Y004234D01*
X033392Y004223D01*
X033305Y004199D01*
X033222Y004165D01*
X033144Y004120D01*
X033073Y004065D01*
X033010Y004002D01*
X032955Y003931D01*
X032910Y003853D01*
X032876Y003770D01*
X032852Y003683D01*
X032841Y003594D01*
X032841Y003549D01*
X032891Y003808D02*
X026607Y003808D01*
X026339Y004127D02*
X033155Y004127D01*
X033526Y004127D02*
X033526Y004127D01*
X033896Y004127D02*
X035150Y004127D01*
X035839Y004127D02*
X036150Y004127D01*
X036150Y004445D02*
X001820Y004445D01*
X001820Y004127D02*
X002203Y004127D01*
X003067Y004127D02*
X004655Y004127D01*
X004644Y004120D02*
X004573Y004065D01*
X004510Y004002D01*
X004455Y003931D01*
X004410Y003853D01*
X004376Y003770D01*
X004352Y003683D01*
X004341Y003594D01*
X004341Y003549D01*
X004341Y003504D01*
X004352Y003415D01*
X004376Y003329D01*
X004410Y003246D01*
X004455Y003168D01*
X004510Y003097D01*
X004573Y003033D01*
X004644Y002979D01*
X004722Y002934D01*
X004805Y002899D01*
X004892Y002876D01*
X004981Y002864D01*
X005026Y002864D01*
X005071Y002864D01*
X005160Y002876D01*
X005246Y002899D01*
X005329Y002934D01*
X005407Y002979D01*
X005478Y003033D01*
X005542Y003097D01*
X005597Y003168D01*
X005641Y003246D01*
X005676Y003329D01*
X005699Y003415D01*
X005711Y003504D01*
X005711Y003549D01*
X005026Y003549D01*
X005026Y002864D01*
X005026Y003549D01*
X005026Y003549D01*
X005026Y003549D01*
X005711Y003549D01*
X005711Y003594D01*
X005699Y003683D01*
X005676Y003770D01*
X005641Y003853D01*
X005597Y003931D01*
X005542Y004002D01*
X005478Y004065D01*
X005407Y004120D01*
X005329Y004165D01*
X005246Y004199D01*
X005160Y004223D01*
X005071Y004234D01*
X005026Y004234D01*
X005026Y003549D01*
X004341Y003549D01*
X005026Y003549D01*
X005026Y003549D01*
X005026Y003549D01*
X005026Y004234D01*
X004981Y004234D01*
X004892Y004223D01*
X004805Y004199D01*
X004722Y004165D01*
X004644Y004120D01*
X005026Y004127D02*
X005026Y004127D01*
X005396Y004127D02*
X006650Y004127D01*
X006618Y004113D02*
X006430Y003926D01*
X006329Y003682D01*
X006329Y003417D01*
X006430Y003173D01*
X006618Y002986D01*
X006862Y002884D01*
X007127Y002884D01*
X007371Y002986D01*
X007558Y003173D01*
X007659Y003417D01*
X007659Y003682D01*
X007558Y003926D01*
X007371Y004113D01*
X007127Y004214D01*
X006862Y004214D01*
X006618Y004113D01*
X007339Y004127D02*
X014155Y004127D01*
X014144Y004120D02*
X014073Y004065D01*
X014010Y004002D01*
X013955Y003931D01*
X013910Y003853D01*
X013876Y003770D01*
X013852Y003683D01*
X013841Y003594D01*
X013841Y003549D01*
X013841Y003504D01*
X013852Y003415D01*
X013876Y003329D01*
X013910Y003246D01*
X013955Y003168D01*
X014010Y003097D01*
X014073Y003033D01*
X014144Y002979D01*
X014222Y002934D01*
X014305Y002899D01*
X014392Y002876D01*
X014481Y002864D01*
X014526Y002864D01*
X014571Y002864D01*
X014660Y002876D01*
X014746Y002899D01*
X014829Y002934D01*
X014907Y002979D01*
X014978Y003033D01*
X015042Y003097D01*
X015097Y003168D01*
X015141Y003246D01*
X015176Y003329D01*
X015199Y003415D01*
X015211Y003504D01*
X015211Y003549D01*
X014526Y003549D01*
X014526Y002864D01*
X014526Y003549D01*
X014526Y003549D01*
X014526Y003549D01*
X015211Y003549D01*
X015211Y003594D01*
X015199Y003683D01*
X015176Y003770D01*
X015141Y003853D01*
X015097Y003931D01*
X015042Y004002D01*
X014978Y004065D01*
X014907Y004120D01*
X014829Y004165D01*
X014746Y004199D01*
X014660Y004223D01*
X014571Y004234D01*
X014526Y004234D01*
X014526Y003549D01*
X013841Y003549D01*
X014526Y003549D01*
X014526Y003549D01*
X014526Y003549D01*
X014526Y004234D01*
X014481Y004234D01*
X014392Y004223D01*
X014305Y004199D01*
X014222Y004165D01*
X014144Y004120D01*
X014526Y004127D02*
X014526Y004127D01*
X014896Y004127D02*
X016150Y004127D01*
X016118Y004113D02*
X015930Y003926D01*
X015829Y003682D01*
X015829Y003417D01*
X015930Y003173D01*
X016118Y002986D01*
X016362Y002884D01*
X016627Y002884D01*
X016871Y002986D01*
X017058Y003173D01*
X017159Y003417D01*
X017159Y003682D01*
X017058Y003926D01*
X016871Y004113D01*
X016627Y004214D01*
X016362Y004214D01*
X016118Y004113D01*
X016839Y004127D02*
X023655Y004127D01*
X023644Y004120D02*
X023573Y004065D01*
X023510Y004002D01*
X023455Y003931D01*
X023410Y003853D01*
X023376Y003770D01*
X023352Y003683D01*
X023341Y003594D01*
X023341Y003549D01*
X023341Y003504D01*
X023352Y003415D01*
X023376Y003329D01*
X023410Y003246D01*
X023455Y003168D01*
X023510Y003097D01*
X023573Y003033D01*
X023644Y002979D01*
X023722Y002934D01*
X023805Y002899D01*
X023892Y002876D01*
X023981Y002864D01*
X024026Y002864D01*
X024071Y002864D01*
X024160Y002876D01*
X024246Y002899D01*
X024329Y002934D01*
X024407Y002979D01*
X024478Y003033D01*
X024542Y003097D01*
X024597Y003168D01*
X024641Y003246D01*
X024676Y003329D01*
X024699Y003415D01*
X024711Y003504D01*
X024711Y003549D01*
X024026Y003549D01*
X024026Y002864D01*
X024026Y003549D01*
X024026Y003549D01*
X024026Y003549D01*
X024711Y003549D01*
X024711Y003594D01*
X024699Y003683D01*
X024676Y003770D01*
X024641Y003853D01*
X024597Y003931D01*
X024542Y004002D01*
X024478Y004065D01*
X024407Y004120D01*
X024329Y004165D01*
X024246Y004199D01*
X024160Y004223D01*
X024071Y004234D01*
X024026Y004234D01*
X024026Y003549D01*
X023341Y003549D01*
X024026Y003549D01*
X024026Y003549D01*
X024026Y003549D01*
X024026Y004234D01*
X023981Y004234D01*
X023892Y004223D01*
X023805Y004199D01*
X023722Y004165D01*
X023644Y004120D01*
X024026Y004127D02*
X024026Y004127D01*
X024396Y004127D02*
X025650Y004127D01*
X025382Y003808D02*
X024660Y003808D01*
X024709Y003490D02*
X025329Y003490D01*
X025432Y003171D02*
X024598Y003171D01*
X024026Y003171D02*
X024026Y003171D01*
X023453Y003171D02*
X017056Y003171D01*
X015932Y003171D02*
X015098Y003171D01*
X014526Y003171D02*
X014526Y003171D01*
X013953Y003171D02*
X007556Y003171D01*
X006432Y003171D02*
X005598Y003171D01*
X005026Y003171D02*
X005026Y003171D01*
X004453Y003171D02*
X004091Y003171D01*
X003929Y003490D02*
X004343Y003490D01*
X004391Y003808D02*
X003641Y003808D01*
X005026Y003808D02*
X005026Y003808D01*
X005026Y003490D02*
X005026Y003490D01*
X005709Y003490D02*
X006329Y003490D01*
X006382Y003808D02*
X005660Y003808D01*
X007607Y003808D02*
X013891Y003808D01*
X013843Y003490D02*
X007659Y003490D01*
X001820Y004764D02*
X018252Y004764D01*
X018243Y004773D02*
X018414Y004601D01*
X018639Y004508D01*
X018881Y004508D01*
X019106Y004601D01*
X019260Y004756D01*
X019414Y004601D01*
X019639Y004508D01*
X019881Y004508D01*
X020106Y004601D01*
X020260Y004756D01*
X020414Y004601D01*
X020639Y004508D01*
X020881Y004508D01*
X021106Y004601D01*
X021260Y004756D01*
X021414Y004601D01*
X021639Y004508D01*
X021881Y004508D01*
X022106Y004601D01*
X022277Y004773D01*
X022370Y004997D01*
X022370Y005240D01*
X022277Y005464D01*
X022120Y005621D01*
X022120Y011650D01*
X022256Y011650D01*
X022481Y011743D01*
X022652Y011914D01*
X022745Y012139D01*
X022745Y012361D01*
X023065Y012681D01*
X023120Y012813D01*
X023120Y014707D01*
X023065Y014839D01*
X022964Y014940D01*
X022120Y015784D01*
X022120Y018054D01*
X022277Y018211D01*
X022370Y018435D01*
X022370Y018678D01*
X022277Y018902D01*
X022106Y019073D01*
X021881Y019166D01*
X021639Y019166D01*
X021414Y019073D01*
X021260Y018919D01*
X021106Y019073D01*
X020881Y019166D01*
X020639Y019166D01*
X020414Y019073D01*
X020260Y018919D01*
X020106Y019073D01*
X019881Y019166D01*
X019639Y019166D01*
X019414Y019073D01*
X019260Y018919D01*
X019106Y019073D01*
X018881Y019166D01*
X018639Y019166D01*
X018414Y019073D01*
X018243Y018902D01*
X018150Y018678D01*
X018150Y018435D01*
X018243Y018211D01*
X018400Y018054D01*
X018400Y014870D01*
X018264Y014870D01*
X018039Y014777D01*
X017868Y014606D01*
X017775Y014381D01*
X017775Y014139D01*
X017868Y013914D01*
X018039Y013743D01*
X018264Y013650D01*
X018506Y013650D01*
X018650Y013710D01*
X018650Y013034D01*
X018486Y012870D01*
X018264Y012870D01*
X018039Y012777D01*
X017868Y012606D01*
X017775Y012381D01*
X017775Y012139D01*
X017868Y011914D01*
X018039Y011743D01*
X018264Y011650D01*
X018361Y011650D01*
X018400Y011611D01*
X018400Y005621D01*
X018243Y005464D01*
X018150Y005240D01*
X018150Y004997D01*
X018243Y004773D01*
X018150Y005082D02*
X001820Y005082D01*
X001820Y005401D02*
X018217Y005401D01*
X018400Y005719D02*
X001820Y005719D01*
X001820Y006038D02*
X018400Y006038D01*
X018400Y006356D02*
X001820Y006356D01*
X001820Y006675D02*
X018400Y006675D01*
X018400Y006993D02*
X001820Y006993D01*
X001820Y007312D02*
X018400Y007312D01*
X018400Y007630D02*
X001820Y007630D01*
X001820Y007949D02*
X004607Y007949D01*
X004649Y007907D02*
X004893Y007806D01*
X005158Y007806D01*
X005402Y007907D01*
X005590Y008094D01*
X005691Y008338D01*
X005691Y008603D01*
X005590Y008847D01*
X005402Y009034D01*
X005158Y009136D01*
X004893Y009136D01*
X004649Y009034D01*
X004462Y008847D01*
X004361Y008603D01*
X004361Y008338D01*
X004462Y008094D01*
X004649Y007907D01*
X005444Y007949D02*
X006576Y007949D01*
X006618Y007907D02*
X006862Y007806D01*
X007127Y007806D01*
X007371Y007907D01*
X007558Y008094D01*
X007659Y008338D01*
X007659Y008603D01*
X007558Y008847D01*
X007371Y009034D01*
X007127Y009136D01*
X006862Y009136D01*
X006618Y009034D01*
X006430Y008847D01*
X006329Y008603D01*
X006329Y008338D01*
X006430Y008094D01*
X006618Y007907D01*
X007413Y007949D02*
X014107Y007949D01*
X014149Y007907D02*
X014393Y007806D01*
X014658Y007806D01*
X014902Y007907D01*
X015090Y008094D01*
X015191Y008338D01*
X015191Y008603D01*
X015090Y008847D01*
X014902Y009034D01*
X014658Y009136D01*
X014393Y009136D01*
X014149Y009034D01*
X013962Y008847D01*
X013861Y008603D01*
X013861Y008338D01*
X013962Y008094D01*
X014149Y007907D01*
X014944Y007949D02*
X016076Y007949D01*
X016118Y007907D02*
X016362Y007806D01*
X016627Y007806D01*
X016871Y007907D01*
X017058Y008094D01*
X017159Y008338D01*
X017159Y008603D01*
X017058Y008847D01*
X016871Y009034D01*
X016627Y009136D01*
X016362Y009136D01*
X016118Y009034D01*
X015930Y008847D01*
X015829Y008603D01*
X015829Y008338D01*
X015930Y008094D01*
X016118Y007907D01*
X016913Y007949D02*
X018400Y007949D01*
X018400Y008267D02*
X017130Y008267D01*
X017159Y008586D02*
X018400Y008586D01*
X018400Y008904D02*
X017001Y008904D01*
X015987Y008904D02*
X015033Y008904D01*
X015191Y008586D02*
X015829Y008586D01*
X015859Y008267D02*
X015161Y008267D01*
X013890Y008267D02*
X007630Y008267D01*
X007659Y008586D02*
X013861Y008586D01*
X014019Y008904D02*
X007501Y008904D01*
X006487Y008904D02*
X005533Y008904D01*
X005691Y008586D02*
X006329Y008586D01*
X006359Y008267D02*
X005661Y008267D01*
X004390Y008267D02*
X001820Y008267D01*
X001820Y008586D02*
X004361Y008586D01*
X004519Y008904D02*
X001820Y008904D01*
X001820Y009223D02*
X018400Y009223D01*
X018400Y009541D02*
X001820Y009541D01*
X001820Y009860D02*
X018400Y009860D01*
X018400Y010178D02*
X001820Y010178D01*
X001820Y010497D02*
X018400Y010497D01*
X018400Y010815D02*
X001820Y010815D01*
X001820Y011134D02*
X018400Y011134D01*
X018400Y011452D02*
X001820Y011452D01*
X001820Y011771D02*
X018012Y011771D01*
X017796Y012089D02*
X001820Y012089D01*
X001820Y012408D02*
X004785Y012408D01*
X004805Y012399D02*
X004892Y012376D01*
X004981Y012364D01*
X005026Y012364D01*
X005071Y012364D01*
X005160Y012376D01*
X005246Y012399D01*
X005329Y012434D01*
X005407Y012479D01*
X005478Y012533D01*
X005542Y012597D01*
X005597Y012668D01*
X005641Y012746D01*
X005676Y012829D01*
X005699Y012915D01*
X005711Y013004D01*
X005711Y013049D01*
X005026Y013049D01*
X005026Y012364D01*
X005026Y013049D01*
X005026Y013049D01*
X005026Y013049D01*
X005711Y013049D01*
X005711Y013094D01*
X005699Y013183D01*
X005676Y013270D01*
X005641Y013353D01*
X005597Y013431D01*
X005542Y013502D01*
X005478Y013565D01*
X005407Y013620D01*
X005329Y013665D01*
X005246Y013699D01*
X005160Y013723D01*
X005071Y013734D01*
X005026Y013734D01*
X005026Y013049D01*
X004341Y013049D01*
X004341Y013004D01*
X004352Y012915D01*
X004376Y012829D01*
X004410Y012746D01*
X004455Y012668D01*
X004510Y012597D01*
X004573Y012533D01*
X004644Y012479D01*
X004722Y012434D01*
X004805Y012399D01*
X005026Y012408D02*
X005026Y012408D01*
X005266Y012408D02*
X006806Y012408D01*
X006862Y012384D02*
X007127Y012384D01*
X007371Y012486D01*
X007558Y012673D01*
X007659Y012917D01*
X007659Y013182D01*
X007558Y013426D01*
X007371Y013613D01*
X007127Y013714D01*
X006862Y013714D01*
X006618Y013613D01*
X006430Y013426D01*
X006329Y013182D01*
X006329Y012917D01*
X006430Y012673D01*
X006618Y012486D01*
X006862Y012384D01*
X007182Y012408D02*
X014285Y012408D01*
X014305Y012399D02*
X014392Y012376D01*
X014481Y012364D01*
X014526Y012364D01*
X014571Y012364D01*
X014660Y012376D01*
X014746Y012399D01*
X014829Y012434D01*
X014907Y012479D01*
X014978Y012533D01*
X015042Y012597D01*
X015097Y012668D01*
X015141Y012746D01*
X015176Y012829D01*
X015199Y012915D01*
X015211Y013004D01*
X015211Y013049D01*
X014526Y013049D01*
X014526Y012364D01*
X014526Y013049D01*
X014526Y013049D01*
X014526Y013049D01*
X015211Y013049D01*
X015211Y013094D01*
X015199Y013183D01*
X015176Y013270D01*
X015141Y013353D01*
X015097Y013431D01*
X015042Y013502D01*
X014978Y013565D01*
X014907Y013620D01*
X014829Y013665D01*
X014746Y013699D01*
X014660Y013723D01*
X014571Y013734D01*
X014526Y013734D01*
X014526Y013049D01*
X013841Y013049D01*
X013841Y013004D01*
X013852Y012915D01*
X013876Y012829D01*
X013910Y012746D01*
X013955Y012668D01*
X014010Y012597D01*
X014073Y012533D01*
X014144Y012479D01*
X014222Y012434D01*
X014305Y012399D01*
X014526Y012408D02*
X014526Y012408D01*
X014766Y012408D02*
X016306Y012408D01*
X016362Y012384D02*
X016627Y012384D01*
X016871Y012486D01*
X017058Y012673D01*
X017159Y012917D01*
X017159Y013182D01*
X017058Y013426D01*
X016871Y013613D01*
X016627Y013714D01*
X016362Y013714D01*
X016118Y013613D01*
X015930Y013426D01*
X015829Y013182D01*
X015829Y012917D01*
X015930Y012673D01*
X016118Y012486D01*
X016362Y012384D01*
X016682Y012408D02*
X017786Y012408D01*
X017988Y012726D02*
X017080Y012726D01*
X017159Y013045D02*
X018650Y013045D01*
X018650Y013363D02*
X017084Y013363D01*
X016706Y013682D02*
X018188Y013682D01*
X018582Y013682D02*
X018650Y013682D01*
X017832Y014000D02*
X001820Y014000D01*
X001820Y014319D02*
X017775Y014319D01*
X017899Y014637D02*
X001820Y014637D01*
X001820Y014956D02*
X018400Y014956D01*
X018400Y015274D02*
X001820Y015274D01*
X001820Y015593D02*
X018400Y015593D01*
X018400Y015911D02*
X001820Y015911D01*
X001820Y016230D02*
X018400Y016230D01*
X018400Y016548D02*
X001820Y016548D01*
X001820Y016867D02*
X018400Y016867D01*
X018400Y017185D02*
X001820Y017185D01*
X001820Y017504D02*
X001952Y017504D01*
X003318Y017504D02*
X004552Y017504D01*
X004462Y017594D02*
X004649Y017407D01*
X004893Y017306D01*
X005158Y017306D01*
X005402Y017407D01*
X005590Y017594D01*
X005691Y017838D01*
X005691Y018103D01*
X005590Y018347D01*
X005402Y018534D01*
X005158Y018636D01*
X004893Y018636D01*
X004649Y018534D01*
X004462Y018347D01*
X004361Y018103D01*
X004361Y017838D01*
X004462Y017594D01*
X004368Y017822D02*
X003751Y017822D01*
X003985Y018141D02*
X004376Y018141D01*
X004574Y018459D02*
X004128Y018459D01*
X004178Y018778D02*
X018191Y018778D01*
X018469Y019096D02*
X004162Y019096D01*
X004094Y019415D02*
X032914Y019415D01*
X034106Y019415D02*
X034914Y019415D01*
X034918Y019096D02*
X034102Y019096D01*
X033890Y018778D02*
X035130Y018778D01*
X036115Y019415D02*
X037197Y019415D01*
X040760Y019096D02*
X040760Y019096D01*
X042010Y019096D02*
X042010Y019096D01*
X042010Y018778D02*
X042010Y018778D01*
X042010Y018459D02*
X042010Y018459D01*
X042207Y018459D02*
X042574Y018459D01*
X042376Y018141D02*
X041507Y018141D01*
X041243Y018459D02*
X041813Y018459D01*
X043478Y018459D02*
X044542Y018459D01*
X044618Y018534D02*
X044430Y018347D01*
X044329Y018103D01*
X044329Y017838D01*
X044430Y017594D01*
X044618Y017407D01*
X044862Y017306D01*
X045127Y017306D01*
X045371Y017407D01*
X045558Y017594D01*
X045659Y017838D01*
X045659Y018103D01*
X045558Y018347D01*
X045371Y018534D01*
X045127Y018636D01*
X044862Y018636D01*
X044618Y018534D01*
X045446Y018459D02*
X046150Y018459D01*
X046313Y018141D02*
X045644Y018141D01*
X045652Y017822D02*
X046400Y017822D01*
X046400Y017504D02*
X045468Y017504D01*
X044521Y017504D02*
X043499Y017504D01*
X043684Y017822D02*
X044336Y017822D01*
X044345Y018141D02*
X043675Y018141D01*
X042368Y017822D02*
X041483Y017822D01*
X041135Y017504D02*
X042552Y017504D01*
X041489Y017185D02*
X046400Y017185D01*
X046400Y016867D02*
X041502Y016867D01*
X041211Y016548D02*
X046400Y016548D01*
X046400Y016230D02*
X041470Y016230D01*
X049120Y017504D02*
X052052Y017504D01*
X051962Y017594D02*
X052149Y017407D01*
X052393Y017306D01*
X052658Y017306D01*
X052902Y017407D01*
X053090Y017594D01*
X053191Y017838D01*
X053191Y018103D01*
X053090Y018347D01*
X052902Y018534D01*
X052658Y018636D01*
X052393Y018636D01*
X052149Y018534D01*
X051962Y018347D01*
X051861Y018103D01*
X051861Y017838D01*
X051962Y017594D01*
X051868Y017822D02*
X049120Y017822D01*
X049207Y018141D02*
X049313Y018141D01*
X050207Y018141D02*
X050285Y018141D01*
X050760Y018141D02*
X050760Y018141D01*
X050760Y018459D02*
X050760Y018459D01*
X050760Y018556D02*
X050760Y018556D01*
X050760Y018778D02*
X050760Y018778D01*
X050760Y019096D02*
X050760Y019096D01*
X050432Y019096D02*
X050051Y019096D01*
X049469Y019096D02*
X049051Y019096D01*
X048469Y019096D02*
X048051Y019096D01*
X047469Y019096D02*
X047051Y019096D01*
X046469Y019096D02*
X043575Y019096D01*
X043525Y018778D02*
X046191Y018778D01*
X051235Y018141D02*
X051876Y018141D01*
X052074Y018459D02*
X051382Y018459D01*
X052978Y018459D02*
X054042Y018459D01*
X054118Y018534D02*
X053930Y018347D01*
X053829Y018103D01*
X053829Y017838D01*
X053930Y017594D01*
X054118Y017407D01*
X054362Y017306D01*
X054627Y017306D01*
X054871Y017407D01*
X055058Y017594D01*
X055159Y017838D01*
X055159Y018103D01*
X055058Y018347D01*
X054871Y018534D01*
X054627Y018636D01*
X054362Y018636D01*
X054118Y018534D01*
X054946Y018459D02*
X061574Y018459D01*
X061649Y018534D02*
X061462Y018347D01*
X061361Y018103D01*
X061361Y017838D01*
X061462Y017594D01*
X061649Y017407D01*
X061893Y017306D01*
X062158Y017306D01*
X062402Y017407D01*
X062590Y017594D01*
X062691Y017838D01*
X062691Y018103D01*
X062590Y018347D01*
X062402Y018534D01*
X062158Y018636D01*
X061893Y018636D01*
X061649Y018534D01*
X062478Y018459D02*
X063542Y018459D01*
X063618Y018534D02*
X063430Y018347D01*
X063329Y018103D01*
X063329Y017838D01*
X063430Y017594D01*
X063618Y017407D01*
X063862Y017306D01*
X064127Y017306D01*
X064371Y017407D01*
X064558Y017594D01*
X064659Y017838D01*
X064659Y018103D01*
X064558Y018347D01*
X064371Y018534D01*
X064127Y018636D01*
X063862Y018636D01*
X063618Y018534D01*
X064446Y018459D02*
X071074Y018459D01*
X070876Y018141D02*
X064644Y018141D01*
X063345Y018141D02*
X062675Y018141D01*
X062684Y017822D02*
X063336Y017822D01*
X063521Y017504D02*
X062499Y017504D01*
X061552Y017504D02*
X054968Y017504D01*
X055152Y017822D02*
X061368Y017822D01*
X061376Y018141D02*
X055144Y018141D01*
X053845Y018141D02*
X053175Y018141D01*
X053184Y017822D02*
X053836Y017822D01*
X054021Y017504D02*
X052999Y017504D01*
X064468Y017504D02*
X071052Y017504D01*
X070868Y017822D02*
X064652Y017822D01*
X064127Y013714D02*
X063862Y013714D01*
X063618Y013613D01*
X063430Y013426D01*
X063329Y013182D01*
X063329Y012917D01*
X063430Y012673D01*
X063618Y012486D01*
X063862Y012384D01*
X064127Y012384D01*
X064371Y012486D01*
X064558Y012673D01*
X064659Y012917D01*
X064659Y013182D01*
X064558Y013426D01*
X064371Y013613D01*
X064127Y013714D01*
X064206Y013682D02*
X071262Y013682D01*
X071222Y013665D02*
X071144Y013620D01*
X071073Y013565D01*
X071010Y013502D01*
X070955Y013431D01*
X070910Y013353D01*
X070876Y013270D01*
X070852Y013183D01*
X070841Y013094D01*
X070841Y013049D01*
X070841Y013004D01*
X070852Y012915D01*
X070876Y012829D01*
X070910Y012746D01*
X070955Y012668D01*
X071010Y012597D01*
X071073Y012533D01*
X071144Y012479D01*
X071222Y012434D01*
X071305Y012399D01*
X071392Y012376D01*
X071481Y012364D01*
X071526Y012364D01*
X071571Y012364D01*
X071660Y012376D01*
X071746Y012399D01*
X071829Y012434D01*
X071907Y012479D01*
X071978Y012533D01*
X072042Y012597D01*
X072097Y012668D01*
X072141Y012746D01*
X072176Y012829D01*
X072199Y012915D01*
X072211Y013004D01*
X072211Y013049D01*
X071526Y013049D01*
X071526Y012364D01*
X071526Y013049D01*
X071526Y013049D01*
X071526Y013049D01*
X072211Y013049D01*
X072211Y013094D01*
X072199Y013183D01*
X072176Y013270D01*
X072141Y013353D01*
X072097Y013431D01*
X072042Y013502D01*
X071978Y013565D01*
X071907Y013620D01*
X071829Y013665D01*
X071746Y013699D01*
X071660Y013723D01*
X071571Y013734D01*
X071526Y013734D01*
X071526Y013049D01*
X070841Y013049D01*
X071526Y013049D01*
X071526Y013049D01*
X071526Y013049D01*
X071526Y013734D01*
X071481Y013734D01*
X071392Y013723D01*
X071305Y013699D01*
X071222Y013665D01*
X071526Y013682D02*
X071526Y013682D01*
X071790Y013682D02*
X073283Y013682D01*
X073362Y013714D02*
X073118Y013613D01*
X072930Y013426D01*
X072829Y013182D01*
X072829Y012917D01*
X072930Y012673D01*
X073118Y012486D01*
X073362Y012384D01*
X073627Y012384D01*
X073871Y012486D01*
X074058Y012673D01*
X074159Y012917D01*
X074159Y013182D01*
X074058Y013426D01*
X073871Y013613D01*
X073627Y013714D01*
X073362Y013714D01*
X073706Y013682D02*
X076200Y013682D01*
X076200Y013363D02*
X074084Y013363D01*
X072904Y013363D02*
X072136Y013363D01*
X071526Y013363D02*
X071526Y013363D01*
X070916Y013363D02*
X064584Y013363D01*
X063783Y013682D02*
X062290Y013682D01*
X062329Y013665D02*
X062246Y013699D01*
X062160Y013723D01*
X062071Y013734D01*
X062026Y013734D01*
X062026Y013049D01*
X062026Y012364D01*
X062071Y012364D01*
X062160Y012376D01*
X062246Y012399D01*
X062329Y012434D01*
X062407Y012479D01*
X062478Y012533D01*
X062542Y012597D01*
X062597Y012668D01*
X062641Y012746D01*
X062676Y012829D01*
X062699Y012915D01*
X062711Y013004D01*
X062711Y013049D01*
X062026Y013049D01*
X062026Y013049D01*
X062026Y013049D01*
X062026Y012364D01*
X061981Y012364D01*
X061892Y012376D01*
X061805Y012399D01*
X061722Y012434D01*
X061644Y012479D01*
X061573Y012533D01*
X061510Y012597D01*
X061455Y012668D01*
X061410Y012746D01*
X061376Y012829D01*
X061352Y012915D01*
X061341Y013004D01*
X061341Y013049D01*
X062026Y013049D01*
X062711Y013049D01*
X062711Y013094D01*
X062699Y013183D01*
X062676Y013270D01*
X062641Y013353D01*
X062597Y013431D01*
X062542Y013502D01*
X062478Y013565D01*
X062407Y013620D01*
X062329Y013665D01*
X062026Y013682D02*
X062026Y013682D01*
X062026Y013734D02*
X061981Y013734D01*
X061892Y013723D01*
X061805Y013699D01*
X061722Y013665D01*
X061644Y013620D01*
X061573Y013565D01*
X061510Y013502D01*
X061455Y013431D01*
X061410Y013353D01*
X061376Y013270D01*
X061352Y013183D01*
X061341Y013094D01*
X061341Y013049D01*
X062026Y013049D01*
X062026Y013049D01*
X062026Y013049D01*
X062026Y013734D01*
X061762Y013682D02*
X054706Y013682D01*
X054627Y013714D02*
X054362Y013714D01*
X054118Y013613D01*
X053930Y013426D01*
X053829Y013182D01*
X053829Y012917D01*
X053930Y012673D01*
X054118Y012486D01*
X054362Y012384D01*
X054627Y012384D01*
X054871Y012486D01*
X055058Y012673D01*
X055159Y012917D01*
X055159Y013182D01*
X055058Y013426D01*
X054871Y013613D01*
X054627Y013714D01*
X054283Y013682D02*
X052790Y013682D01*
X052526Y013682D02*
X052526Y013682D01*
X052526Y013363D02*
X052526Y013363D01*
X053136Y013363D02*
X053904Y013363D01*
X055084Y013363D02*
X061416Y013363D01*
X062026Y013363D02*
X062026Y013363D01*
X062636Y013363D02*
X063404Y013363D01*
X063329Y013045D02*
X062711Y013045D01*
X062630Y012726D02*
X063408Y012726D01*
X064580Y012726D02*
X070921Y012726D01*
X070841Y013045D02*
X064659Y013045D01*
X064182Y012408D02*
X071285Y012408D01*
X071526Y012408D02*
X071526Y012408D01*
X071766Y012408D02*
X073306Y012408D01*
X073682Y012408D02*
X076200Y012408D01*
X076200Y012089D02*
X054296Y012089D01*
X054427Y012022D02*
X053992Y012244D01*
X053510Y012320D01*
X053028Y012244D01*
X053028Y012244D01*
X052593Y012022D01*
X052248Y011677D01*
X052248Y011677D01*
X052026Y011242D01*
X051950Y010760D01*
X051950Y010760D01*
X052026Y010278D01*
X052026Y010278D01*
X052248Y009843D01*
X052593Y009498D01*
X053028Y009276D01*
X053510Y009200D01*
X053992Y009276D01*
X054427Y009498D01*
X054772Y009843D01*
X054772Y009843D01*
X054994Y010278D01*
X055070Y010760D01*
X054994Y011242D01*
X054772Y011677D01*
X054427Y012022D01*
X054427Y012022D01*
X054679Y011771D02*
X076200Y011771D01*
X076200Y011452D02*
X054887Y011452D01*
X054994Y011242D02*
X054994Y011242D01*
X055011Y011134D02*
X076200Y011134D01*
X076200Y010815D02*
X055061Y010815D01*
X055028Y010497D02*
X076200Y010497D01*
X076200Y010178D02*
X054943Y010178D01*
X054994Y010278D02*
X054994Y010278D01*
X054780Y009860D02*
X076200Y009860D01*
X076200Y009541D02*
X054470Y009541D01*
X054427Y009498D02*
X054427Y009498D01*
X053992Y009276D02*
X053992Y009276D01*
X054118Y009034D02*
X054362Y009136D01*
X054627Y009136D01*
X054871Y009034D01*
X055058Y008847D01*
X055159Y008603D01*
X055159Y008338D01*
X055058Y008094D01*
X054871Y007907D01*
X054627Y007806D01*
X054362Y007806D01*
X054118Y007907D01*
X053930Y008094D01*
X053829Y008338D01*
X053829Y008603D01*
X053930Y008847D01*
X054118Y009034D01*
X053987Y008904D02*
X053033Y008904D01*
X053090Y008847D02*
X052902Y009034D01*
X052658Y009136D01*
X052393Y009136D01*
X052149Y009034D01*
X051962Y008847D01*
X051861Y008603D01*
X051861Y008338D01*
X051962Y008094D01*
X052149Y007907D01*
X052393Y007806D01*
X052658Y007806D01*
X052902Y007907D01*
X053090Y008094D01*
X053191Y008338D01*
X053191Y008603D01*
X053090Y008847D01*
X053368Y009223D02*
X049120Y009223D01*
X049120Y008904D02*
X052019Y008904D01*
X051861Y008586D02*
X049120Y008586D01*
X049120Y008267D02*
X051890Y008267D01*
X052107Y007949D02*
X049120Y007949D01*
X049120Y007630D02*
X076200Y007630D01*
X076200Y007949D02*
X073913Y007949D01*
X073871Y007907D02*
X074058Y008094D01*
X074159Y008338D01*
X074159Y008603D01*
X074058Y008847D01*
X073871Y009034D01*
X073627Y009136D01*
X073362Y009136D01*
X073118Y009034D01*
X072930Y008847D01*
X072829Y008603D01*
X072829Y008338D01*
X072930Y008094D01*
X073118Y007907D01*
X073362Y007806D01*
X073627Y007806D01*
X073871Y007907D01*
X073076Y007949D02*
X071944Y007949D01*
X071902Y007907D02*
X072090Y008094D01*
X072191Y008338D01*
X072191Y008603D01*
X072090Y008847D01*
X071902Y009034D01*
X071658Y009136D01*
X071393Y009136D01*
X071149Y009034D01*
X070962Y008847D01*
X070861Y008603D01*
X070861Y008338D01*
X070962Y008094D01*
X071149Y007907D01*
X071393Y007806D01*
X071658Y007806D01*
X071902Y007907D01*
X071107Y007949D02*
X064413Y007949D01*
X064371Y007907D02*
X064558Y008094D01*
X064659Y008338D01*
X064659Y008603D01*
X064558Y008847D01*
X064371Y009034D01*
X064127Y009136D01*
X063862Y009136D01*
X063618Y009034D01*
X063430Y008847D01*
X063329Y008603D01*
X063329Y008338D01*
X063430Y008094D01*
X063618Y007907D01*
X063862Y007806D01*
X064127Y007806D01*
X064371Y007907D01*
X063576Y007949D02*
X062444Y007949D01*
X062402Y007907D02*
X062590Y008094D01*
X062691Y008338D01*
X062691Y008603D01*
X062590Y008847D01*
X062402Y009034D01*
X062158Y009136D01*
X061893Y009136D01*
X061649Y009034D01*
X061462Y008847D01*
X061361Y008603D01*
X061361Y008338D01*
X061462Y008094D01*
X061649Y007907D01*
X061893Y007806D01*
X062158Y007806D01*
X062402Y007907D01*
X061607Y007949D02*
X054913Y007949D01*
X054076Y007949D02*
X052944Y007949D01*
X053161Y008267D02*
X053859Y008267D01*
X053829Y008586D02*
X053191Y008586D01*
X055001Y008904D02*
X061519Y008904D01*
X061361Y008586D02*
X055159Y008586D01*
X055130Y008267D02*
X061390Y008267D01*
X062661Y008267D02*
X063359Y008267D01*
X063329Y008586D02*
X062691Y008586D01*
X062533Y008904D02*
X063487Y008904D01*
X064501Y008904D02*
X071019Y008904D01*
X072033Y008904D02*
X072987Y008904D01*
X074001Y008904D02*
X076200Y008904D01*
X076200Y009223D02*
X053652Y009223D01*
X053510Y009200D02*
X053510Y009200D01*
X053028Y009276D02*
X053028Y009276D01*
X052593Y009498D02*
X052593Y009498D01*
X052550Y009541D02*
X049120Y009541D01*
X049120Y009860D02*
X052240Y009860D01*
X052248Y009843D02*
X052248Y009843D01*
X052077Y010178D02*
X049120Y010178D01*
X049120Y010497D02*
X051992Y010497D01*
X051959Y010815D02*
X049120Y010815D01*
X049120Y011134D02*
X052009Y011134D01*
X052026Y011242D02*
X052026Y011242D01*
X052133Y011452D02*
X049120Y011452D01*
X049120Y011771D02*
X052341Y011771D01*
X052593Y012022D02*
X052593Y012022D01*
X052724Y012089D02*
X049120Y012089D01*
X049120Y012408D02*
X052285Y012408D01*
X052526Y012408D02*
X052526Y012408D01*
X052766Y012408D02*
X054306Y012408D01*
X053992Y012244D02*
X053992Y012244D01*
X053510Y012320D02*
X053510Y012320D01*
X053130Y012726D02*
X053908Y012726D01*
X053829Y013045D02*
X053211Y013045D01*
X052526Y013045D02*
X052526Y013045D01*
X052526Y012726D02*
X052526Y012726D01*
X051921Y012726D02*
X049120Y012726D01*
X049120Y013045D02*
X051841Y013045D01*
X054682Y012408D02*
X061785Y012408D01*
X062026Y012408D02*
X062026Y012408D01*
X062266Y012408D02*
X063806Y012408D01*
X062026Y012726D02*
X062026Y012726D01*
X062026Y013045D02*
X062026Y013045D01*
X061421Y012726D02*
X055080Y012726D01*
X055159Y013045D02*
X061341Y013045D01*
X054772Y011677D02*
X054772Y011677D01*
X046400Y011134D02*
X039620Y011134D01*
X039620Y010815D02*
X046400Y010815D01*
X046400Y010497D02*
X039620Y010497D01*
X039620Y010178D02*
X046400Y010178D01*
X046400Y009860D02*
X043460Y009860D01*
X043575Y009541D02*
X046400Y009541D01*
X046400Y009223D02*
X043502Y009223D01*
X043533Y008904D02*
X044487Y008904D01*
X044430Y008847D02*
X044618Y009034D01*
X044862Y009136D01*
X045127Y009136D01*
X045371Y009034D01*
X045558Y008847D01*
X045659Y008603D01*
X045659Y008338D01*
X045558Y008094D01*
X045371Y007907D01*
X045127Y007806D01*
X044862Y007806D01*
X044618Y007907D01*
X044430Y008094D01*
X044329Y008338D01*
X044329Y008603D01*
X044430Y008847D01*
X044329Y008586D02*
X043691Y008586D01*
X043661Y008267D02*
X044359Y008267D01*
X044576Y007949D02*
X043444Y007949D01*
X042607Y007949D02*
X041268Y007949D01*
X041511Y007630D02*
X046400Y007630D01*
X046400Y007949D02*
X045413Y007949D01*
X045630Y008267D02*
X046400Y008267D01*
X046400Y008586D02*
X045659Y008586D01*
X045501Y008904D02*
X046400Y008904D01*
X042519Y008904D02*
X041333Y008904D01*
X041454Y009223D02*
X041500Y009223D01*
X042010Y009223D02*
X042010Y009223D01*
X042010Y009541D02*
X042010Y009541D01*
X042010Y009860D02*
X042010Y009860D01*
X041541Y009860D02*
X041406Y009860D01*
X040760Y009860D02*
X040760Y009860D01*
X040760Y009541D02*
X040760Y009541D01*
X040114Y009860D02*
X039620Y009860D01*
X039620Y009541D02*
X039980Y009541D01*
X040066Y009223D02*
X039620Y009223D01*
X039620Y008904D02*
X040187Y008904D01*
X040000Y008586D02*
X039620Y008586D01*
X039620Y008267D02*
X040059Y008267D01*
X040252Y007949D02*
X039620Y007949D01*
X039620Y007630D02*
X040009Y007630D01*
X040041Y007312D02*
X039620Y007312D01*
X039620Y006993D02*
X040360Y006993D01*
X040027Y006675D02*
X039620Y006675D01*
X038900Y006675D02*
X038493Y006675D01*
X038160Y006993D02*
X038900Y006993D01*
X038900Y007312D02*
X038479Y007312D01*
X038511Y007630D02*
X038900Y007630D01*
X038900Y007949D02*
X038268Y007949D01*
X038461Y008267D02*
X038900Y008267D01*
X038900Y008586D02*
X038520Y008586D01*
X038333Y008904D02*
X038900Y008904D01*
X038900Y009223D02*
X038440Y009223D01*
X038444Y009227D02*
X038520Y009411D01*
X038520Y009609D01*
X038444Y009793D01*
X038303Y009934D01*
X038119Y010010D01*
X037401Y010010D01*
X037217Y009934D01*
X037076Y009793D01*
X037000Y009609D01*
X037000Y009411D01*
X037076Y009227D01*
X037217Y009086D01*
X037401Y009010D01*
X038119Y009010D01*
X038303Y009086D01*
X038444Y009227D01*
X038520Y009541D02*
X038900Y009541D01*
X038900Y009860D02*
X038378Y009860D01*
X038900Y010178D02*
X032476Y010178D01*
X032245Y010497D02*
X038900Y010497D01*
X038900Y010815D02*
X032169Y010815D01*
X031995Y011134D02*
X038900Y011134D01*
X037142Y009860D02*
X032620Y009860D01*
X032620Y009541D02*
X037000Y009541D01*
X037080Y009223D02*
X032620Y009223D01*
X032620Y008904D02*
X033019Y008904D01*
X032962Y008847D02*
X032861Y008603D01*
X032861Y008338D01*
X032962Y008094D01*
X033149Y007907D01*
X033393Y007806D01*
X033658Y007806D01*
X033902Y007907D01*
X034090Y008094D01*
X034191Y008338D01*
X034191Y008603D01*
X034090Y008847D01*
X033902Y009034D01*
X033658Y009136D01*
X033393Y009136D01*
X033149Y009034D01*
X032962Y008847D01*
X034033Y008904D02*
X034987Y008904D01*
X034930Y008847D02*
X034829Y008603D01*
X034829Y008338D01*
X034930Y008094D01*
X035118Y007907D01*
X035362Y007806D01*
X035627Y007806D01*
X035871Y007907D01*
X036058Y008094D01*
X036159Y008338D01*
X036159Y008603D01*
X036058Y008847D01*
X035871Y009034D01*
X035627Y009136D01*
X035362Y009136D01*
X035118Y009034D01*
X034930Y008847D01*
X034829Y008586D02*
X034191Y008586D01*
X034161Y008267D02*
X034859Y008267D01*
X035076Y007949D02*
X033944Y007949D01*
X033107Y007949D02*
X032620Y007949D01*
X032523Y007630D02*
X036371Y007630D01*
X035913Y007949D02*
X037252Y007949D01*
X037059Y008267D02*
X036130Y008267D01*
X036159Y008586D02*
X037000Y008586D01*
X037187Y008904D02*
X036001Y008904D01*
X032861Y008586D02*
X032620Y008586D01*
X032620Y008267D02*
X032890Y008267D01*
X032310Y007312D02*
X036150Y007312D01*
X036150Y006993D02*
X032098Y006993D01*
X031886Y006675D02*
X036150Y006675D01*
X036870Y006675D02*
X037027Y006675D01*
X036870Y006993D02*
X037360Y006993D01*
X037023Y006356D02*
X036870Y006356D01*
X036870Y006038D02*
X037334Y006038D01*
X038186Y006038D02*
X038900Y006038D01*
X038900Y006356D02*
X038497Y006356D01*
X039620Y006356D02*
X040023Y006356D01*
X040334Y006038D02*
X039620Y006038D01*
X039620Y005719D02*
X040045Y005719D01*
X040004Y005401D02*
X039620Y005401D01*
X038900Y005401D02*
X038516Y005401D01*
X038475Y005719D02*
X038900Y005719D01*
X037045Y005719D02*
X036870Y005719D01*
X036870Y005401D02*
X037004Y005401D01*
X036150Y005401D02*
X031303Y005401D01*
X031249Y005719D02*
X036150Y005719D01*
X036150Y006038D02*
X031461Y006038D01*
X031673Y006356D02*
X036150Y006356D01*
X036150Y005082D02*
X031370Y005082D01*
X031268Y004764D02*
X036150Y004764D01*
X036870Y004764D02*
X037064Y004764D01*
X037076Y004793D02*
X037000Y004609D01*
X037000Y004411D01*
X037076Y004227D01*
X037217Y004086D01*
X037401Y004010D01*
X038119Y004010D01*
X038303Y004086D01*
X038444Y004227D01*
X038520Y004411D01*
X038520Y004609D01*
X038444Y004793D01*
X038303Y004934D01*
X038119Y005010D01*
X037401Y005010D01*
X037217Y004934D01*
X037076Y004793D01*
X037227Y005082D02*
X036870Y005082D01*
X038293Y005082D02*
X038900Y005082D01*
X038900Y004764D02*
X038456Y004764D01*
X039620Y004764D02*
X040064Y004764D01*
X040227Y005082D02*
X039620Y005082D01*
X041293Y005082D02*
X041823Y005082D01*
X041516Y005401D02*
X042141Y005401D01*
X041475Y005719D02*
X046400Y005719D01*
X046400Y006038D02*
X041186Y006038D01*
X041497Y006356D02*
X046400Y006356D01*
X046400Y006675D02*
X041493Y006675D01*
X041160Y006993D02*
X046400Y006993D01*
X046400Y007312D02*
X041479Y007312D01*
X041461Y008267D02*
X042390Y008267D01*
X042361Y008586D02*
X041520Y008586D01*
X042479Y009860D02*
X042560Y009860D01*
X049120Y007312D02*
X076200Y007312D01*
X076200Y006993D02*
X049120Y006993D01*
X049120Y006675D02*
X076200Y006675D01*
X076200Y006356D02*
X049120Y006356D01*
X049120Y006038D02*
X076200Y006038D01*
X076200Y005719D02*
X050950Y005719D01*
X050760Y005719D02*
X050760Y005719D01*
X050570Y005719D02*
X049904Y005719D01*
X049616Y005719D02*
X049120Y005719D01*
X050760Y005401D02*
X050760Y005401D01*
X051323Y005401D02*
X076200Y005401D01*
X076200Y005082D02*
X051390Y005082D01*
X051281Y004764D02*
X076200Y004764D01*
X076200Y004445D02*
X049120Y004445D01*
X049120Y004127D02*
X052155Y004127D01*
X052144Y004120D02*
X052073Y004065D01*
X052010Y004002D01*
X051955Y003931D01*
X051910Y003853D01*
X051876Y003770D01*
X051852Y003683D01*
X051841Y003594D01*
X051841Y003549D01*
X051841Y003504D01*
X051852Y003415D01*
X051876Y003329D01*
X051910Y003246D01*
X051955Y003168D01*
X052010Y003097D01*
X052073Y003033D01*
X052144Y002979D01*
X052222Y002934D01*
X052305Y002899D01*
X052392Y002876D01*
X052481Y002864D01*
X052526Y002864D01*
X052571Y002864D01*
X052660Y002876D01*
X052746Y002899D01*
X052829Y002934D01*
X052907Y002979D01*
X052978Y003033D01*
X053042Y003097D01*
X053097Y003168D01*
X053141Y003246D01*
X053176Y003329D01*
X053199Y003415D01*
X053211Y003504D01*
X053211Y003549D01*
X052526Y003549D01*
X052526Y002864D01*
X052526Y003549D01*
X052526Y003549D01*
X052526Y003549D01*
X053211Y003549D01*
X053211Y003594D01*
X053199Y003683D01*
X053176Y003770D01*
X053141Y003853D01*
X053097Y003931D01*
X053042Y004002D01*
X052978Y004065D01*
X052907Y004120D01*
X052829Y004165D01*
X052746Y004199D01*
X052660Y004223D01*
X052571Y004234D01*
X052526Y004234D01*
X052526Y003549D01*
X051841Y003549D01*
X052526Y003549D01*
X052526Y003549D01*
X052526Y003549D01*
X052526Y004234D01*
X052481Y004234D01*
X052392Y004223D01*
X052305Y004199D01*
X052222Y004165D01*
X052144Y004120D01*
X052526Y004127D02*
X052526Y004127D01*
X052896Y004127D02*
X054150Y004127D01*
X054118Y004113D02*
X053930Y003926D01*
X053829Y003682D01*
X053829Y003417D01*
X053930Y003173D01*
X054118Y002986D01*
X054362Y002884D01*
X054627Y002884D01*
X054871Y002986D01*
X055058Y003173D01*
X055159Y003417D01*
X055159Y003682D01*
X055058Y003926D01*
X054871Y004113D01*
X054627Y004214D01*
X054362Y004214D01*
X054118Y004113D01*
X054839Y004127D02*
X061655Y004127D01*
X061644Y004120D02*
X061573Y004065D01*
X061510Y004002D01*
X061455Y003931D01*
X061410Y003853D01*
X061376Y003770D01*
X061352Y003683D01*
X061341Y003594D01*
X061341Y003549D01*
X061341Y003504D01*
X061352Y003415D01*
X061376Y003329D01*
X061410Y003246D01*
X061455Y003168D01*
X061510Y003097D01*
X061573Y003033D01*
X061644Y002979D01*
X061722Y002934D01*
X061805Y002899D01*
X061892Y002876D01*
X061981Y002864D01*
X062026Y002864D01*
X062071Y002864D01*
X062160Y002876D01*
X062246Y002899D01*
X062329Y002934D01*
X062407Y002979D01*
X062478Y003033D01*
X062542Y003097D01*
X062597Y003168D01*
X062641Y003246D01*
X062676Y003329D01*
X062699Y003415D01*
X062711Y003504D01*
X062711Y003549D01*
X062026Y003549D01*
X062026Y002864D01*
X062026Y003549D01*
X062026Y003549D01*
X062026Y003549D01*
X062711Y003549D01*
X062711Y003594D01*
X062699Y003683D01*
X062676Y003770D01*
X062641Y003853D01*
X062597Y003931D01*
X062542Y004002D01*
X062478Y004065D01*
X062407Y004120D01*
X062329Y004165D01*
X062246Y004199D01*
X062160Y004223D01*
X062071Y004234D01*
X062026Y004234D01*
X062026Y003549D01*
X061341Y003549D01*
X062026Y003549D01*
X062026Y003549D01*
X062026Y003549D01*
X062026Y004234D01*
X061981Y004234D01*
X061892Y004223D01*
X061805Y004199D01*
X061722Y004165D01*
X061644Y004120D01*
X062026Y004127D02*
X062026Y004127D01*
X062396Y004127D02*
X063650Y004127D01*
X063618Y004113D02*
X063430Y003926D01*
X063329Y003682D01*
X063329Y003417D01*
X063430Y003173D01*
X063618Y002986D01*
X063862Y002884D01*
X064127Y002884D01*
X064371Y002986D01*
X064558Y003173D01*
X064659Y003417D01*
X064659Y003682D01*
X064558Y003926D01*
X064371Y004113D01*
X064127Y004214D01*
X063862Y004214D01*
X063618Y004113D01*
X064339Y004127D02*
X071155Y004127D01*
X071144Y004120D02*
X071073Y004065D01*
X071010Y004002D01*
X070955Y003931D01*
X070910Y003853D01*
X070876Y003770D01*
X070852Y003683D01*
X070841Y003594D01*
X070841Y003549D01*
X070841Y003504D01*
X070852Y003415D01*
X070876Y003329D01*
X070910Y003246D01*
X070955Y003168D01*
X071010Y003097D01*
X071073Y003033D01*
X071144Y002979D01*
X071222Y002934D01*
X071305Y002899D01*
X071392Y002876D01*
X071481Y002864D01*
X071526Y002864D01*
X071571Y002864D01*
X071660Y002876D01*
X071746Y002899D01*
X071829Y002934D01*
X071907Y002979D01*
X071978Y003033D01*
X072042Y003097D01*
X072097Y003168D01*
X072141Y003246D01*
X072176Y003329D01*
X072199Y003415D01*
X072211Y003504D01*
X072211Y003549D01*
X071526Y003549D01*
X071526Y002864D01*
X071526Y003549D01*
X071526Y003549D01*
X071526Y003549D01*
X072211Y003549D01*
X072211Y003594D01*
X072199Y003683D01*
X072176Y003770D01*
X072141Y003853D01*
X072097Y003931D01*
X072042Y004002D01*
X071978Y004065D01*
X071907Y004120D01*
X071829Y004165D01*
X071746Y004199D01*
X071660Y004223D01*
X071571Y004234D01*
X071526Y004234D01*
X071526Y003549D01*
X070841Y003549D01*
X071526Y003549D01*
X071526Y003549D01*
X071526Y003549D01*
X071526Y004234D01*
X071481Y004234D01*
X071392Y004223D01*
X071305Y004199D01*
X071222Y004165D01*
X071144Y004120D01*
X071526Y004127D02*
X071526Y004127D01*
X071896Y004127D02*
X073150Y004127D01*
X073839Y004127D02*
X074953Y004127D01*
X075817Y004127D02*
X076200Y004127D01*
X074379Y003808D02*
X074107Y003808D01*
X072882Y003808D02*
X072160Y003808D01*
X072209Y003490D02*
X072829Y003490D01*
X072932Y003171D02*
X072098Y003171D01*
X071526Y003171D02*
X071526Y003171D01*
X070953Y003171D02*
X064556Y003171D01*
X063432Y003171D02*
X062598Y003171D01*
X062026Y003171D02*
X062026Y003171D01*
X061453Y003171D02*
X055056Y003171D01*
X053932Y003171D02*
X053098Y003171D01*
X052526Y003171D02*
X052526Y003171D01*
X051953Y003171D02*
X049120Y003171D01*
X049084Y002853D02*
X073859Y002853D01*
X073841Y002534D02*
X048793Y002534D01*
X048475Y002216D02*
X073891Y002216D01*
X074032Y001897D02*
X036010Y001897D01*
X037076Y002227D02*
X037217Y002086D01*
X037401Y002010D01*
X038119Y002010D01*
X038303Y002086D01*
X038444Y002227D01*
X038520Y002411D01*
X038520Y002609D01*
X038444Y002793D01*
X038303Y002934D01*
X038119Y003010D01*
X037401Y003010D01*
X037217Y002934D01*
X037076Y002793D01*
X037000Y002609D01*
X037000Y002411D01*
X037076Y002227D01*
X037087Y002216D02*
X036120Y002216D01*
X036293Y002534D02*
X037000Y002534D01*
X037135Y002853D02*
X036612Y002853D01*
X036863Y003171D02*
X037132Y003171D01*
X037076Y003227D02*
X037217Y003086D01*
X037401Y003010D01*
X038119Y003010D01*
X038303Y003086D01*
X038444Y003227D01*
X038520Y003411D01*
X038520Y003609D01*
X038444Y003793D01*
X038303Y003934D01*
X038119Y004010D01*
X037401Y004010D01*
X037217Y003934D01*
X037076Y003793D01*
X037000Y003609D01*
X037000Y003411D01*
X037076Y003227D01*
X037000Y003490D02*
X036870Y003490D01*
X036870Y003808D02*
X037091Y003808D01*
X036150Y003808D02*
X036107Y003808D01*
X036870Y004127D02*
X037176Y004127D01*
X037000Y004445D02*
X036870Y004445D01*
X038344Y004127D02*
X038900Y004127D01*
X038900Y004445D02*
X038520Y004445D01*
X039620Y004445D02*
X040000Y004445D01*
X040176Y004127D02*
X039620Y004127D01*
X040401Y004010D02*
X041119Y004010D01*
X041303Y003934D01*
X041367Y003870D01*
X041611Y003870D01*
X041933Y004192D01*
X041832Y004150D01*
X041367Y004150D01*
X041303Y004086D01*
X041119Y004010D01*
X040401Y004010D01*
X040091Y003808D02*
X039620Y003808D01*
X039620Y003490D02*
X040000Y003490D01*
X040132Y003171D02*
X039620Y003171D01*
X038900Y003171D02*
X038388Y003171D01*
X038385Y002853D02*
X038900Y002853D01*
X038977Y002534D02*
X038520Y002534D01*
X038433Y002216D02*
X039295Y002216D01*
X040401Y003010D02*
X041119Y003010D01*
X041303Y002934D01*
X041367Y002870D01*
X042938Y002870D01*
X042892Y002876D01*
X042805Y002899D01*
X042722Y002934D01*
X042644Y002979D01*
X042573Y003033D01*
X042510Y003097D01*
X042455Y003168D01*
X042410Y003246D01*
X042376Y003329D01*
X042352Y003415D01*
X042341Y003504D01*
X042341Y003549D01*
X043026Y003549D01*
X043026Y003549D01*
X043711Y003549D01*
X043711Y003504D01*
X043699Y003415D01*
X043676Y003329D01*
X043641Y003246D01*
X043597Y003168D01*
X043542Y003097D01*
X043478Y003033D01*
X043407Y002979D01*
X043329Y002934D01*
X043246Y002899D01*
X043160Y002876D01*
X043113Y002870D01*
X048111Y002870D01*
X048400Y003159D01*
X048400Y004616D01*
X048260Y004756D01*
X048106Y004601D01*
X048079Y004590D01*
X048065Y004556D01*
X047565Y004056D01*
X047464Y003955D01*
X047332Y003900D01*
X045569Y003900D01*
X045659Y003682D01*
X045659Y003417D01*
X045558Y003173D01*
X045371Y002986D01*
X045127Y002884D01*
X044862Y002884D01*
X044618Y002986D01*
X044430Y003173D01*
X044329Y003417D01*
X044329Y003682D01*
X044420Y003900D01*
X043614Y003900D01*
X043641Y003853D01*
X043676Y003770D01*
X043699Y003683D01*
X043711Y003594D01*
X043711Y003549D01*
X043026Y003549D01*
X043026Y003549D01*
X042341Y003549D01*
X042341Y003582D01*
X042065Y003306D01*
X041964Y003205D01*
X041832Y003150D01*
X041367Y003150D01*
X041303Y003086D01*
X041119Y003010D01*
X040401Y003010D01*
X041882Y003171D02*
X042453Y003171D01*
X043598Y003171D02*
X044432Y003171D01*
X044329Y003490D02*
X043709Y003490D01*
X043660Y003808D02*
X044382Y003808D01*
X045607Y003808D02*
X048400Y003808D01*
X048400Y003490D02*
X045659Y003490D01*
X045556Y003171D02*
X048400Y003171D01*
X049120Y003490D02*
X051843Y003490D01*
X051891Y003808D02*
X049120Y003808D01*
X048400Y004127D02*
X047636Y004127D01*
X047954Y004445D02*
X048400Y004445D01*
X050760Y004764D02*
X050760Y004764D01*
X050760Y005082D02*
X050760Y005082D01*
X050760Y005118D02*
X050760Y005118D01*
X052526Y003808D02*
X052526Y003808D01*
X052526Y003490D02*
X052526Y003490D01*
X053209Y003490D02*
X053829Y003490D01*
X053882Y003808D02*
X053160Y003808D01*
X055107Y003808D02*
X061391Y003808D01*
X061343Y003490D02*
X055159Y003490D01*
X062026Y003490D02*
X062026Y003490D01*
X062026Y003808D02*
X062026Y003808D01*
X062660Y003808D02*
X063382Y003808D01*
X063329Y003490D02*
X062709Y003490D01*
X064607Y003808D02*
X070891Y003808D01*
X070843Y003490D02*
X064659Y003490D01*
X071526Y003490D02*
X071526Y003490D01*
X071526Y003808D02*
X071526Y003808D01*
X072161Y008267D02*
X072859Y008267D01*
X072829Y008586D02*
X072191Y008586D01*
X070861Y008586D02*
X064659Y008586D01*
X064630Y008267D02*
X070890Y008267D01*
X074130Y008267D02*
X076200Y008267D01*
X076200Y008586D02*
X074159Y008586D01*
X074080Y012726D02*
X076200Y012726D01*
X076200Y013045D02*
X074159Y013045D01*
X072908Y012726D02*
X072130Y012726D01*
X072211Y013045D02*
X072829Y013045D01*
X071526Y013045D02*
X071526Y013045D01*
X071526Y012726D02*
X071526Y012726D01*
X041867Y004127D02*
X041344Y004127D01*
X042249Y003490D02*
X042343Y003490D01*
X038900Y003490D02*
X038520Y003490D01*
X038429Y003808D02*
X038900Y003808D01*
X034882Y003808D02*
X034160Y003808D01*
X034209Y003490D02*
X034829Y003490D01*
X033526Y003808D02*
X033526Y003808D01*
X034057Y002534D02*
X034963Y002534D01*
X034900Y002216D02*
X034120Y002216D01*
X034010Y001897D02*
X035010Y001897D01*
X033010Y001897D02*
X003988Y001897D01*
X014526Y003490D02*
X014526Y003490D01*
X014526Y003808D02*
X014526Y003808D01*
X015160Y003808D02*
X015882Y003808D01*
X015829Y003490D02*
X015209Y003490D01*
X017107Y003808D02*
X023391Y003808D01*
X023343Y003490D02*
X017159Y003490D01*
X022268Y004764D02*
X027252Y004764D01*
X027150Y005082D02*
X022370Y005082D01*
X022303Y005401D02*
X027217Y005401D01*
X027400Y005719D02*
X022120Y005719D01*
X022120Y006038D02*
X027400Y006038D01*
X027531Y006356D02*
X022120Y006356D01*
X022120Y006675D02*
X027690Y006675D01*
X027849Y006993D02*
X022120Y006993D01*
X022120Y007312D02*
X028008Y007312D01*
X028150Y007630D02*
X022120Y007630D01*
X022120Y007949D02*
X023607Y007949D01*
X023649Y007907D02*
X023893Y007806D01*
X024158Y007806D01*
X024402Y007907D01*
X024590Y008094D01*
X024691Y008338D01*
X024691Y008603D01*
X024590Y008847D01*
X024402Y009034D01*
X024158Y009136D01*
X023893Y009136D01*
X023649Y009034D01*
X023462Y008847D01*
X023361Y008603D01*
X023361Y008338D01*
X023462Y008094D01*
X023649Y007907D01*
X024444Y007949D02*
X025576Y007949D01*
X025618Y007907D02*
X025862Y007806D01*
X026127Y007806D01*
X026371Y007907D01*
X026558Y008094D01*
X026659Y008338D01*
X026659Y008603D01*
X026558Y008847D01*
X026371Y009034D01*
X026127Y009136D01*
X025862Y009136D01*
X025618Y009034D01*
X025430Y008847D01*
X025329Y008603D01*
X025329Y008338D01*
X025430Y008094D01*
X025618Y007907D01*
X026413Y007949D02*
X027647Y007949D01*
X028123Y007949D02*
X028150Y007949D01*
X027325Y008267D02*
X026630Y008267D01*
X026659Y008586D02*
X027275Y008586D01*
X027416Y008904D02*
X026501Y008904D01*
X025487Y008904D02*
X024533Y008904D01*
X024528Y009276D02*
X025010Y009200D01*
X025492Y009276D01*
X025927Y009498D01*
X026272Y009843D01*
X026272Y009843D01*
X026494Y010278D01*
X026570Y010760D01*
X026570Y010760D01*
X026494Y011242D01*
X026272Y011677D01*
X025927Y012022D01*
X025927Y012022D01*
X025492Y012244D01*
X025010Y012320D01*
X024528Y012244D01*
X024528Y012244D01*
X024093Y012022D01*
X023748Y011677D01*
X023748Y011677D01*
X023526Y011242D01*
X023450Y010760D01*
X023450Y010760D01*
X023526Y010278D01*
X023526Y010278D01*
X023748Y009843D01*
X024093Y009498D01*
X024528Y009276D01*
X024528Y009276D01*
X024868Y009223D02*
X022120Y009223D01*
X022120Y008904D02*
X023519Y008904D01*
X023361Y008586D02*
X022120Y008586D01*
X022120Y008267D02*
X023390Y008267D01*
X024661Y008267D02*
X025359Y008267D01*
X025329Y008586D02*
X024691Y008586D01*
X025010Y009200D02*
X025010Y009200D01*
X025152Y009223D02*
X028150Y009223D01*
X028150Y009541D02*
X025970Y009541D01*
X025927Y009498D02*
X025927Y009498D01*
X025492Y009276D02*
X025492Y009276D01*
X026280Y009860D02*
X028026Y009860D01*
X027362Y010178D02*
X026443Y010178D01*
X026494Y010278D02*
X026494Y010278D01*
X026528Y010497D02*
X027275Y010497D01*
X027351Y010815D02*
X026561Y010815D01*
X026511Y011134D02*
X027400Y011134D01*
X027400Y011452D02*
X026387Y011452D01*
X026272Y011677D02*
X026272Y011677D01*
X026179Y011771D02*
X027400Y011771D01*
X027400Y012089D02*
X025796Y012089D01*
X025862Y012384D02*
X026127Y012384D01*
X026371Y012486D01*
X026558Y012673D01*
X026659Y012917D01*
X026659Y013182D01*
X026558Y013426D01*
X026371Y013613D01*
X026127Y013714D01*
X025862Y013714D01*
X025618Y013613D01*
X025430Y013426D01*
X025329Y013182D01*
X025329Y012917D01*
X025430Y012673D01*
X025618Y012486D01*
X025862Y012384D01*
X025806Y012408D02*
X024266Y012408D01*
X024246Y012399D02*
X024329Y012434D01*
X024407Y012479D01*
X024478Y012533D01*
X024542Y012597D01*
X024597Y012668D01*
X024641Y012746D01*
X024676Y012829D01*
X024699Y012915D01*
X024711Y013004D01*
X024711Y013049D01*
X024026Y013049D01*
X024026Y012364D01*
X024071Y012364D01*
X024160Y012376D01*
X024246Y012399D01*
X024026Y012408D02*
X024026Y012408D01*
X024026Y012364D02*
X024026Y013049D01*
X024026Y013049D01*
X024026Y013049D01*
X024711Y013049D01*
X024711Y013094D01*
X024699Y013183D01*
X024676Y013270D01*
X024641Y013353D01*
X024597Y013431D01*
X024542Y013502D01*
X024478Y013565D01*
X024407Y013620D01*
X024329Y013665D01*
X024246Y013699D01*
X024160Y013723D01*
X024071Y013734D01*
X024026Y013734D01*
X024026Y013049D01*
X023341Y013049D01*
X023341Y013004D01*
X023352Y012915D01*
X023376Y012829D01*
X023410Y012746D01*
X023455Y012668D01*
X023510Y012597D01*
X023573Y012533D01*
X023644Y012479D01*
X023722Y012434D01*
X023805Y012399D01*
X023892Y012376D01*
X023981Y012364D01*
X024026Y012364D01*
X023785Y012408D02*
X022792Y012408D01*
X022724Y012089D02*
X024224Y012089D01*
X024093Y012022D02*
X024093Y012022D01*
X023841Y011771D02*
X022508Y011771D01*
X022120Y011452D02*
X023633Y011452D01*
X023526Y011242D02*
X023526Y011242D01*
X023509Y011134D02*
X022120Y011134D01*
X022120Y010815D02*
X023459Y010815D01*
X023492Y010497D02*
X022120Y010497D01*
X022120Y010178D02*
X023577Y010178D01*
X023740Y009860D02*
X022120Y009860D01*
X022120Y009541D02*
X024050Y009541D01*
X024093Y009498D02*
X024093Y009498D01*
X023748Y009843D02*
X023748Y009843D01*
X025492Y012244D02*
X025492Y012244D01*
X025010Y012320D02*
X025010Y012320D01*
X026182Y012408D02*
X027400Y012408D01*
X027400Y012726D02*
X026580Y012726D01*
X026659Y013045D02*
X027400Y013045D01*
X027400Y013363D02*
X026584Y013363D01*
X026206Y013682D02*
X027400Y013682D01*
X027400Y014000D02*
X023120Y014000D01*
X023120Y014319D02*
X027400Y014319D01*
X027400Y014637D02*
X023120Y014637D01*
X022949Y014956D02*
X027400Y014956D01*
X027400Y015274D02*
X022630Y015274D01*
X022312Y015593D02*
X027400Y015593D01*
X027400Y015911D02*
X022120Y015911D01*
X022120Y016230D02*
X027400Y016230D01*
X027400Y016548D02*
X022120Y016548D01*
X022120Y016867D02*
X027400Y016867D01*
X027400Y017185D02*
X022120Y017185D01*
X022120Y017504D02*
X023552Y017504D01*
X023462Y017594D02*
X023649Y017407D01*
X023893Y017306D01*
X024158Y017306D01*
X024402Y017407D01*
X024590Y017594D01*
X024691Y017838D01*
X024691Y018103D01*
X024590Y018347D01*
X024402Y018534D01*
X024158Y018636D01*
X023893Y018636D01*
X023649Y018534D01*
X023462Y018347D01*
X023361Y018103D01*
X023361Y017838D01*
X023462Y017594D01*
X023368Y017822D02*
X022120Y017822D01*
X022207Y018141D02*
X023376Y018141D01*
X023574Y018459D02*
X022370Y018459D01*
X022329Y018778D02*
X027191Y018778D01*
X027469Y019096D02*
X022051Y019096D01*
X021469Y019096D02*
X021051Y019096D01*
X020469Y019096D02*
X020051Y019096D01*
X019469Y019096D02*
X019051Y019096D01*
X018150Y018459D02*
X016946Y018459D01*
X016871Y018534D02*
X017058Y018347D01*
X017159Y018103D01*
X017159Y017838D01*
X017058Y017594D01*
X016871Y017407D01*
X016627Y017306D01*
X016362Y017306D01*
X016118Y017407D01*
X015930Y017594D01*
X015829Y017838D01*
X015829Y018103D01*
X015930Y018347D01*
X016118Y018534D01*
X016362Y018636D01*
X016627Y018636D01*
X016871Y018534D01*
X016042Y018459D02*
X014978Y018459D01*
X014902Y018534D02*
X015090Y018347D01*
X015191Y018103D01*
X015191Y017838D01*
X015090Y017594D01*
X014902Y017407D01*
X014658Y017306D01*
X014393Y017306D01*
X014149Y017407D01*
X013962Y017594D01*
X013861Y017838D01*
X013861Y018103D01*
X013962Y018347D01*
X014149Y018534D01*
X014393Y018636D01*
X014658Y018636D01*
X014902Y018534D01*
X014074Y018459D02*
X007446Y018459D01*
X007371Y018534D02*
X007558Y018347D01*
X007659Y018103D01*
X007659Y017838D01*
X007558Y017594D01*
X007371Y017407D01*
X007127Y017306D01*
X006862Y017306D01*
X006618Y017407D01*
X006430Y017594D01*
X006329Y017838D01*
X006329Y018103D01*
X006430Y018347D01*
X006618Y018534D01*
X006862Y018636D01*
X007127Y018636D01*
X007371Y018534D01*
X006542Y018459D02*
X005478Y018459D01*
X005675Y018141D02*
X006345Y018141D01*
X007644Y018141D02*
X013876Y018141D01*
X013868Y017822D02*
X007652Y017822D01*
X007468Y017504D02*
X014052Y017504D01*
X014999Y017504D02*
X016021Y017504D01*
X015836Y017822D02*
X015184Y017822D01*
X015175Y018141D02*
X015845Y018141D01*
X017144Y018141D02*
X018313Y018141D01*
X018400Y017822D02*
X017152Y017822D01*
X016968Y017504D02*
X018400Y017504D01*
X024499Y017504D02*
X025521Y017504D01*
X025430Y017594D02*
X025618Y017407D01*
X025862Y017306D01*
X026127Y017306D01*
X026371Y017407D01*
X026558Y017594D01*
X026659Y017838D01*
X026659Y018103D01*
X026558Y018347D01*
X026371Y018534D01*
X026127Y018636D01*
X025862Y018636D01*
X025618Y018534D01*
X025430Y018347D01*
X025329Y018103D01*
X025329Y017838D01*
X025430Y017594D01*
X025336Y017822D02*
X024684Y017822D01*
X024675Y018141D02*
X025345Y018141D01*
X025542Y018459D02*
X024478Y018459D01*
X026446Y018459D02*
X027150Y018459D01*
X027313Y018141D02*
X026644Y018141D01*
X026652Y017822D02*
X027400Y017822D01*
X027400Y017504D02*
X026468Y017504D01*
X031120Y017504D02*
X033052Y017504D01*
X032868Y017822D02*
X031120Y017822D01*
X031207Y018141D02*
X032876Y018141D01*
X033074Y018459D02*
X031370Y018459D01*
X031329Y018778D02*
X033130Y018778D01*
X032918Y019096D02*
X031051Y019096D01*
X030469Y019096D02*
X030051Y019096D01*
X029469Y019096D02*
X029051Y019096D01*
X028469Y019096D02*
X028051Y019096D01*
X025783Y013682D02*
X024290Y013682D01*
X024026Y013682D02*
X024026Y013682D01*
X024026Y013734D02*
X023981Y013734D01*
X023892Y013723D01*
X023805Y013699D01*
X023722Y013665D01*
X023644Y013620D01*
X023573Y013565D01*
X023510Y013502D01*
X023455Y013431D01*
X023410Y013353D01*
X023376Y013270D01*
X023352Y013183D01*
X023341Y013094D01*
X023341Y013049D01*
X024026Y013049D01*
X024026Y013049D01*
X024026Y013049D01*
X024026Y013734D01*
X023762Y013682D02*
X023120Y013682D01*
X023120Y013363D02*
X023416Y013363D01*
X024026Y013363D02*
X024026Y013363D01*
X024636Y013363D02*
X025404Y013363D01*
X025329Y013045D02*
X024711Y013045D01*
X024630Y012726D02*
X025408Y012726D01*
X024026Y012726D02*
X024026Y012726D01*
X024026Y013045D02*
X024026Y013045D01*
X023421Y012726D02*
X023084Y012726D01*
X023120Y013045D02*
X023341Y013045D01*
X016283Y013682D02*
X014790Y013682D01*
X014526Y013682D02*
X014526Y013682D01*
X014526Y013734D02*
X014481Y013734D01*
X014392Y013723D01*
X014305Y013699D01*
X014222Y013665D01*
X014144Y013620D01*
X014073Y013565D01*
X014010Y013502D01*
X013955Y013431D01*
X013910Y013353D01*
X013876Y013270D01*
X013852Y013183D01*
X013841Y013094D01*
X013841Y013049D01*
X014526Y013049D01*
X014526Y013049D01*
X014526Y013049D01*
X014526Y013734D01*
X014262Y013682D02*
X007206Y013682D01*
X006783Y013682D02*
X005290Y013682D01*
X005026Y013682D02*
X005026Y013682D01*
X005026Y013734D02*
X004981Y013734D01*
X004892Y013723D01*
X004805Y013699D01*
X004722Y013665D01*
X004644Y013620D01*
X004573Y013565D01*
X004510Y013502D01*
X004455Y013431D01*
X004410Y013353D01*
X004376Y013270D01*
X004352Y013183D01*
X004341Y013094D01*
X004341Y013049D01*
X005026Y013049D01*
X005026Y013049D01*
X005026Y013049D01*
X005026Y013734D01*
X004762Y013682D02*
X001820Y013682D01*
X001820Y013363D02*
X004416Y013363D01*
X005026Y013363D02*
X005026Y013363D01*
X005636Y013363D02*
X006404Y013363D01*
X007584Y013363D02*
X013916Y013363D01*
X014526Y013363D02*
X014526Y013363D01*
X015136Y013363D02*
X015904Y013363D01*
X015829Y013045D02*
X015211Y013045D01*
X015130Y012726D02*
X015908Y012726D01*
X014526Y012726D02*
X014526Y012726D01*
X014526Y013045D02*
X014526Y013045D01*
X013921Y012726D02*
X007580Y012726D01*
X007659Y013045D02*
X013841Y013045D01*
X006408Y012726D02*
X005630Y012726D01*
X005711Y013045D02*
X006329Y013045D01*
X005026Y013045D02*
X005026Y013045D01*
X005026Y012726D02*
X005026Y012726D01*
X004421Y012726D02*
X001820Y012726D01*
X001820Y013045D02*
X004341Y013045D01*
X005499Y017504D02*
X006521Y017504D01*
X006336Y017822D02*
X005684Y017822D01*
X031120Y013363D02*
X032916Y013363D01*
X033526Y013363D02*
X033526Y013363D01*
X034136Y013363D02*
X034904Y013363D01*
X034829Y013045D02*
X034211Y013045D01*
X034130Y012726D02*
X034908Y012726D01*
X033526Y012726D02*
X033526Y012726D01*
X033526Y013045D02*
X033526Y013045D01*
X032921Y012726D02*
X031120Y012726D01*
X031120Y013045D02*
X032841Y013045D01*
X024026Y003808D02*
X024026Y003808D01*
X024026Y003490D02*
X024026Y003490D01*
D15*
X021760Y005118D02*
X021760Y011885D01*
X022135Y012260D01*
X022760Y012885D01*
X022760Y014635D01*
X021760Y015635D01*
X021760Y018556D01*
X020760Y018556D02*
X020760Y015385D01*
X021510Y014635D01*
X021510Y012885D01*
X020885Y012260D01*
X020885Y012135D01*
X020760Y012010D01*
X020760Y005118D01*
X019760Y005118D02*
X019760Y012010D01*
X019635Y012135D01*
X019635Y012260D01*
X020260Y012885D01*
X020260Y014635D01*
X019760Y015135D01*
X019760Y018556D01*
X018760Y018556D02*
X018760Y014885D01*
X019010Y014635D01*
X019010Y012885D01*
X018385Y012260D01*
X018385Y012135D01*
X018760Y011760D01*
X018760Y005118D01*
X027760Y005118D02*
X027760Y006010D01*
X028510Y007510D01*
X028510Y009885D01*
X027885Y010510D01*
X027760Y010635D01*
X027760Y018556D01*
X028760Y018556D02*
X028760Y012010D01*
X029260Y011510D01*
X029260Y010635D01*
X029135Y010510D01*
X029760Y009885D01*
X029760Y007760D01*
X028760Y006010D01*
X028760Y005118D01*
X029760Y005118D02*
X029760Y006010D01*
X031010Y008010D01*
X031010Y009885D01*
X030385Y010510D01*
X030385Y011385D01*
X029760Y012010D01*
X029760Y018556D01*
X030760Y018556D02*
X030760Y012010D01*
X031635Y011135D01*
X031635Y010510D01*
X032260Y009885D01*
X032260Y007885D01*
X030760Y005635D01*
X030760Y005118D01*
X035510Y002260D02*
X036510Y003260D01*
X036510Y007260D01*
X036760Y007510D01*
X037760Y007510D01*
X041760Y004510D02*
X042368Y005118D01*
X046760Y005118D01*
X046760Y018556D01*
X047760Y018556D02*
X047760Y005118D01*
X047760Y004760D01*
X047260Y004260D01*
X042510Y004260D01*
X041760Y003510D01*
X040760Y003510D01*
X040760Y004510D02*
X041760Y004510D01*
X039510Y002510D02*
X039260Y002760D01*
X039260Y011760D01*
X039510Y012010D01*
X040760Y012010D01*
X037760Y017010D02*
X037010Y017010D01*
X036760Y017260D01*
X036760Y018260D01*
X035760Y019260D01*
X035510Y019260D01*
X048760Y018556D02*
X048760Y005118D01*
X048760Y003010D01*
X048260Y002510D01*
X040760Y002510D01*
X039510Y002510D01*
M02*
